<svg width="40" height="40" viewBox="0 0 40 40" fill="none" xmlns="http://www.w3.org/2000/svg">
<path d="M22.5001 31.2498C22.5001 31.2498 29.1951 32.0548 33.0201 28.2298C36.8451 24.4048 36.2501 16.2498 36.2501 16.2498C36.2501 16.2498 28.4751 15.1323 25.0001 18.7498C23.9126 19.8823 22.5001 21.2498 22.5001 24.9998V31.2498ZM22.5001 31.2498C22.5001 31.2498 13.7501 32.4998 7.72006 26.4698C1.69006 20.4398 3.75006 8.74982 3.75006 8.74982C3.75006 8.74982 12.8801 7.87982 18.8976 13.8973C21.3151 16.3148 22.5001 19.9998 22.5001 24.2648V31.2498ZM28.7501 24.9998L22.5001 29.9998M12.5001 19.9998L21.9551 29.9298" stroke="#ACA8D1" stroke-width="2.5" stroke-linecap="round" stroke-linejoin="round"/>
</svg>
