<svg width="40" height="40" viewBox="0 0 40 40" fill="none" xmlns="http://www.w3.org/2000/svg">
<path fill-rule="evenodd" clip-rule="evenodd" d="M15.7333 6.30518C15.9543 6.30518 16.1663 6.39297 16.3226 6.54925C16.4789 6.70553 16.5667 6.9175 16.5667 7.13851V12.6385C16.5667 12.8595 16.4789 13.0715 16.3226 13.2278C16.1663 13.384 15.9543 13.4718 15.7333 13.4718C15.5123 13.4718 15.3004 13.384 15.1441 13.2278C14.9878 13.0715 14.9 12.8595 14.9 12.6385V7.13851C14.9 6.9175 14.9878 6.70553 15.1441 6.54925C15.3004 6.39297 15.5123 6.30518 15.7333 6.30518Z" fill="#ACA8D1"/>
<path fill-rule="evenodd" clip-rule="evenodd" d="M9.81667 11.5879C10.7583 11.3629 11.7192 11.5337 12.7167 12.0487C13.5292 12.4695 14.1058 12.662 14.555 12.7545C15.0033 12.8479 15.36 12.8495 15.7908 12.8495V14.5162H15.7742C15.3442 14.5162 14.8408 14.5162 14.2175 14.387C13.5867 14.2562 12.8658 14.002 11.9508 13.5287C11.2192 13.1512 10.6675 13.0979 10.2042 13.2087C9.7175 13.3254 9.20333 13.6504 8.61083 14.262C7.25083 15.6687 6.82833 17.117 6.68083 18.2304C6.5975 19.6004 6.845 22.3054 8.07083 24.9495C8.4875 25.8495 9.07917 27.0912 9.80083 28.0637C10.1608 28.5487 10.5225 28.922 10.87 29.152C11.2075 29.3745 11.4875 29.4354 11.7417 29.392C14.3442 28.9437 14.8333 28.9329 15.3408 28.9329H16.205V30.5995H15.3167C14.965 30.5995 14.55 30.5995 12.025 31.0345C11.2417 31.1695 10.5358 30.9287 9.95167 30.5429C9.3775 30.1637 8.88167 29.6212 8.4625 29.057C7.625 27.9295 6.97 26.537 6.55917 25.6504C5.19417 22.707 4.91583 19.7029 5.01917 18.097L5.02167 18.0704L5.025 18.0437C5.20167 16.6737 5.72833 14.8445 7.41333 13.1037C8.1175 12.3754 8.89917 11.807 9.8175 11.587" fill="#ACA8D1"/>
<path fill-rule="evenodd" clip-rule="evenodd" d="M12.2 9.5085C13.4467 10.701 14.1225 12.1468 14.1225 13.2668C14.1225 13.4878 14.2103 13.6998 14.3666 13.8561C14.5229 14.0124 14.7348 14.1002 14.9558 14.1002C15.1768 14.1002 15.3888 14.0124 15.5451 13.8561C15.7014 13.6998 15.7892 13.4878 15.7892 13.2668C15.7892 11.5585 14.8158 9.70433 13.3517 8.3035C11.87 6.88766 9.78583 5.8335 7.41333 5.8335C7.19232 5.8335 6.98036 5.92129 6.82408 6.07757C6.6678 6.23385 6.58 6.44582 6.58 6.66683C6.58 6.88784 6.6678 7.0998 6.82408 7.25608C6.98036 7.41237 7.19232 7.50016 7.41333 7.50016C9.28333 7.50016 10.97 8.33266 12.1992 9.5085" fill="#ACA8D1"/>
<path fill-rule="evenodd" clip-rule="evenodd" d="M7.145 5.84088C7.36423 5.81354 7.58535 5.87438 7.75975 6.01002C7.93414 6.14566 8.04753 6.345 8.075 6.56422C8.485 9.83922 11.3625 11.5642 13.6867 12.4934C13.8919 12.5755 14.0561 12.7358 14.1431 12.9389C14.2302 13.1421 14.2329 13.3715 14.1508 13.5767C14.0687 13.7819 13.9085 13.9461 13.7053 14.0332C13.5021 14.1202 13.2727 14.123 13.0675 14.0409C10.6767 13.0851 6.955 11.0375 6.42167 6.77088C6.39432 6.55165 6.45516 6.33053 6.5908 6.15613C6.72644 5.98174 6.92578 5.86835 7.145 5.84088ZM21.4683 11.5859C20.5083 11.3659 19.5233 11.5309 18.4933 12.0426C17.6433 12.4642 17.0375 12.6592 16.5625 12.7534C16.0875 12.8475 15.7108 12.8492 15.2625 12.8492C15.0415 12.8492 14.8295 12.937 14.6732 13.0933C14.517 13.2496 14.4292 13.4615 14.4292 13.6826C14.4292 13.9036 14.517 14.1155 14.6732 14.2718C14.8295 14.4281 15.0415 14.5159 15.2625 14.5159H15.2783C15.7258 14.5159 16.245 14.5159 16.8867 14.3884C17.5375 14.2592 18.2833 14.0067 19.2333 13.5351C20.0033 13.1534 20.5933 13.095 21.0967 13.2101C21.6183 13.33 22.1608 13.6617 22.7775 14.2742C24.2075 15.6934 24.64 17.1509 24.7892 18.2609C24.8216 18.4773 24.9378 18.6723 25.1127 18.8037C25.2877 18.9352 25.5073 18.9926 25.7242 18.9635C25.941 18.9343 26.1378 18.8211 26.2719 18.6482C26.406 18.4752 26.4666 18.2565 26.4408 18.0392C26.2558 16.6617 25.7042 14.8309 23.9517 13.0909C23.2175 12.3625 22.41 11.8009 21.4683 11.5859ZM22.2558 28.5667C22.177 28.4908 22.084 28.4312 21.9821 28.3913C21.8802 28.3513 21.7714 28.3318 21.662 28.3339C21.5526 28.336 21.4447 28.3596 21.3444 28.4034C21.2441 28.4472 21.1534 28.5104 21.0775 28.5892C20.4467 29.2442 19.9167 29.4642 19.4683 29.3909C16.7583 28.9426 16.2517 28.9326 15.7308 28.9326C15.5098 28.9326 15.2979 29.0203 15.1416 29.1766C14.9853 29.3329 14.8975 29.5449 14.8975 29.7659C14.8975 29.9869 14.9853 30.1989 15.1416 30.3551C15.2979 30.5114 15.5098 30.5992 15.7308 30.5992H15.7542C16.1267 30.5992 16.56 30.5992 19.1958 31.0351C20.4642 31.2451 21.5167 30.5351 22.2783 29.7451C22.3544 29.6662 22.4141 29.5731 22.4541 29.4711C22.4941 29.3692 22.5136 29.2603 22.5116 29.1508C22.5095 29.0413 22.4858 28.9333 22.4419 28.8329C22.398 28.7325 22.3348 28.6426 22.2558 28.5667Z" fill="#ACA8D1"/>
<path fill-rule="evenodd" clip-rule="evenodd" d="M27.2083 13.4191C26.3725 14.9274 26.1558 16.5099 26.4883 17.5791C26.5208 17.6836 26.5324 17.7935 26.5225 17.9025C26.5125 18.0115 26.4812 18.1175 26.4302 18.2143C26.3793 18.3112 26.3098 18.3971 26.2257 18.4672C26.1416 18.5372 26.0445 18.5899 25.94 18.6224C25.8355 18.655 25.7256 18.6665 25.6166 18.6566C25.5076 18.6466 25.4017 18.6153 25.3048 18.5644C25.2079 18.5134 25.122 18.4439 25.052 18.3598C24.9819 18.2757 24.9292 18.1786 24.8967 18.0741C24.3892 16.4416 24.7692 14.3824 25.7508 12.6108C26.745 10.8174 28.4225 9.19328 30.6883 8.48828C30.7928 8.45578 30.9027 8.44418 31.0117 8.45415C31.1207 8.46411 31.2267 8.49545 31.3236 8.54637C31.4204 8.59728 31.5063 8.66679 31.5764 8.7509C31.6464 8.83502 31.6992 8.9321 31.7317 9.03661C31.7642 9.14113 31.7758 9.25101 31.7658 9.36001C31.7558 9.469 31.7245 9.57496 31.6736 9.67185C31.6227 9.76873 31.5532 9.85463 31.469 9.92465C31.3849 9.99468 31.2878 10.0474 31.1833 10.0799C29.3975 10.6349 28.0333 11.9316 27.2083 13.4191Z" fill="#ACA8D1"/>
<path fill-rule="evenodd" clip-rule="evenodd" d="M28.9325 14.4827C27.9592 15.9077 26.6425 16.8102 25.5383 16.9935C25.429 17.0098 25.324 17.0477 25.2295 17.105C25.1349 17.1623 25.0527 17.2378 24.9876 17.3271C24.9225 17.4165 24.8759 17.5179 24.8504 17.6254C24.8249 17.733 24.821 17.8446 24.839 17.9536C24.857 18.0627 24.8966 18.1671 24.9553 18.2607C25.0141 18.3543 25.0909 18.4353 25.1812 18.499C25.2716 18.5627 25.3737 18.6077 25.4817 18.6315C25.5896 18.6553 25.7012 18.6574 25.81 18.6377C27.4958 18.3585 29.1658 17.0952 30.3083 15.4227C31.465 13.7294 32.1642 11.501 31.7767 9.16021C31.7588 9.0522 31.7199 8.94876 31.6621 8.85579C31.6043 8.76283 31.5287 8.68216 31.4397 8.6184C31.3507 8.55464 31.25 8.50903 31.1434 8.48417C31.0368 8.45932 30.9263 8.45571 30.8183 8.47354C30.7103 8.49138 30.6069 8.53032 30.5139 8.58813C30.421 8.64595 30.3403 8.72151 30.2765 8.8105C30.2128 8.89949 30.1671 9.00016 30.1423 9.10678C30.1174 9.2134 30.1138 9.32386 30.1317 9.43188C30.4375 11.2769 29.8917 13.0777 28.9317 14.4819" fill="#ACA8D1"/>
<path fill-rule="evenodd" clip-rule="evenodd" d="M26.4833 19.1667C25.9308 19.1667 25.4009 19.3862 25.0102 19.7769C24.6195 20.1676 24.4 20.6975 24.4 21.25C24.4 21.8025 24.6195 22.3324 25.0102 22.7231C25.4009 23.1138 25.9308 23.3333 26.4833 23.3333C27.0359 23.3333 27.5658 23.1138 27.9565 22.7231C28.3472 22.3324 28.5667 21.8025 28.5667 21.25C28.5667 20.6975 28.3472 20.1676 27.9565 19.7769C27.5658 19.3862 27.0359 19.1667 26.4833 19.1667ZM22.7333 21.25C22.7333 20.7575 22.8303 20.2699 23.0188 19.8149C23.2072 19.36 23.4835 18.9466 23.8317 18.5983C24.1799 18.2501 24.5933 17.9739 25.0483 17.7855C25.5032 17.597 25.9909 17.5 26.4833 17.5C26.9758 17.5 27.4634 17.597 27.9184 17.7855C28.3734 17.9739 28.7868 18.2501 29.135 18.5983C29.4832 18.9466 29.7594 19.36 29.9479 19.8149C30.1363 20.2699 30.2333 20.7575 30.2333 21.25C30.2333 22.2446 29.8382 23.1984 29.135 23.9016C28.4317 24.6049 27.4779 25 26.4833 25C25.4888 25 24.5349 24.6049 23.8317 23.9016C23.1284 23.1984 22.7333 22.2446 22.7333 21.25Z" fill="#ACA8D1"/>
<path fill-rule="evenodd" clip-rule="evenodd" d="M31.5375 15.0753C32.4736 15.4112 33.2379 16.1051 33.6624 17.0045C34.0868 17.9039 34.1366 18.935 33.8008 19.8711C33.7639 19.9742 33.707 20.0689 33.6335 20.15C33.5599 20.231 33.4711 20.2968 33.3722 20.3435C33.2732 20.3903 33.166 20.4171 33.0567 20.4224C32.9473 20.4277 32.838 20.4114 32.735 20.3745C32.632 20.3375 32.5372 20.2807 32.4562 20.2071C32.3751 20.1336 32.3093 20.0448 32.2626 19.9458C32.2159 19.8468 32.1891 19.7396 32.1838 19.6303C32.1785 19.521 32.1947 19.4117 32.2317 19.3086C32.4184 18.7886 32.3909 18.2156 32.1553 17.7159C31.9196 17.2161 31.495 16.8304 30.975 16.6436C30.455 16.4569 29.882 16.4844 29.3822 16.72C28.8824 16.9557 28.4968 17.3803 28.31 17.9003C28.2751 18.0058 28.2194 18.1033 28.1462 18.187C28.073 18.2707 27.9838 18.3389 27.8839 18.3876C27.784 18.4363 27.6753 18.4645 27.5643 18.4706C27.4533 18.4766 27.3422 18.4604 27.2375 18.4229C27.1329 18.3853 27.0368 18.3272 26.955 18.252C26.8731 18.1768 26.8071 18.0859 26.7609 17.9848C26.7147 17.8837 26.6892 17.7744 26.6859 17.6633C26.6826 17.5521 26.7016 17.4415 26.7417 17.3378C27.0777 16.4019 27.7717 15.6377 28.6711 15.2134C29.5704 14.7892 30.6015 14.7395 31.5375 15.0753Z" fill="#ACA8D1"/>
<path fill-rule="evenodd" clip-rule="evenodd" d="M30.2108 19.3134C31.064 19.0686 31.9762 19.1344 32.7855 19.4989C33.5947 19.8634 34.2485 20.5031 34.6305 21.3042C35.0126 22.1053 35.0982 23.0159 34.8721 23.8742C34.646 24.7324 34.123 25.4827 33.3958 25.9917C33.2145 26.1128 32.9929 26.1579 32.7786 26.1175C32.5643 26.0771 32.3744 25.9542 32.2496 25.7754C32.1249 25.5965 32.0752 25.3759 32.1112 25.1608C32.1473 24.9458 32.2662 24.7534 32.4425 24.625C32.6718 24.4646 32.8665 24.2597 33.0149 24.0224C33.1633 23.7852 33.2623 23.5204 33.3062 23.244C33.35 22.9677 33.3377 22.6853 33.27 22.4137C33.2023 22.1422 33.0806 21.8871 32.9121 21.6636C32.7436 21.4402 32.5319 21.2529 32.2895 21.1131C32.0471 20.9733 31.779 20.8837 31.5012 20.8498C31.2234 20.8159 30.9416 20.8382 30.6727 20.9156C30.4037 20.9929 30.1531 21.1237 29.9358 21.3C29.8509 21.3691 29.7532 21.4207 29.6483 21.452C29.5435 21.4833 29.4334 21.4937 29.3246 21.4824C29.2157 21.4712 29.1101 21.4387 29.0138 21.3866C28.9175 21.3346 28.8324 21.2641 28.7633 21.1792C28.6943 21.0943 28.6426 20.9966 28.6113 20.8917C28.58 20.7868 28.5697 20.6768 28.5809 20.5679C28.5921 20.459 28.6247 20.3534 28.6767 20.2571C28.7288 20.1608 28.7992 20.0757 28.8842 20.0067C29.2753 19.6888 29.7265 19.453 30.2108 19.3134ZM23.15 24.1667C22.5975 24.1667 22.0676 24.3862 21.6769 24.7769C21.2862 25.1676 21.0667 25.6975 21.0667 26.25C21.0667 26.8026 21.2862 27.3325 21.6769 27.7232C22.0676 28.1139 22.5975 28.3334 23.15 28.3334C23.7025 28.3334 24.2324 28.1139 24.6231 27.7232C25.0138 27.3325 25.2333 26.8026 25.2333 26.25C25.2333 25.6975 25.0138 25.1676 24.6231 24.7769C24.2324 24.3862 23.7025 24.1667 23.15 24.1667ZM19.4 26.25C19.4 25.2555 19.7951 24.3016 20.4983 23.5984C21.2016 22.8951 22.1554 22.5 23.15 22.5C24.1446 22.5 25.0984 22.8951 25.8017 23.5984C26.5049 24.3016 26.9 25.2555 26.9 26.25C26.9 27.2446 26.5049 28.1984 25.8017 28.9017C25.0984 29.6049 24.1446 30 23.15 30C22.1554 30 21.2016 29.6049 20.4983 28.9017C19.7951 28.1984 19.4 27.2446 19.4 26.25Z" fill="#ACA8D1"/>
<path fill-rule="evenodd" clip-rule="evenodd" d="M29.8167 24.1667C29.2641 24.1667 28.7342 24.3862 28.3435 24.7769C27.9528 25.1676 27.7333 25.6975 27.7333 26.25C27.7333 26.8025 27.9528 27.3324 28.3435 27.7231C28.7342 28.1138 29.2641 28.3333 29.8167 28.3333C30.3692 28.3333 30.8991 28.1138 31.2898 27.7231C31.6805 27.3324 31.9 26.8025 31.9 26.25C31.9 25.6975 31.6805 25.1676 31.2898 24.7769C30.8991 24.3862 30.3692 24.1667 29.8167 24.1667ZM26.0667 26.25C26.0667 25.2554 26.4618 24.3016 27.165 23.5983C27.8683 22.8951 28.8221 22.5 29.8167 22.5C30.8112 22.5 31.7651 22.8951 32.4683 23.5983C33.1716 24.3016 33.5667 25.2554 33.5667 26.25C33.5667 27.2446 33.1716 28.1984 32.4683 28.9016C31.7651 29.6049 30.8112 30 29.8167 30C28.8221 30 27.8683 29.6049 27.165 28.9016C26.4618 28.1984 26.0667 27.2446 26.0667 26.25Z" fill="#ACA8D1"/>
<path fill-rule="evenodd" clip-rule="evenodd" d="M26.4833 29.1667C25.9308 29.1667 25.4009 29.3862 25.0102 29.7769C24.6195 30.1676 24.4 30.6975 24.4 31.25C24.4 31.8025 24.6195 32.3324 25.0102 32.7231C25.4009 33.1138 25.9308 33.3333 26.4833 33.3333C27.0359 33.3333 27.5658 33.1138 27.9565 32.7231C28.3472 32.3324 28.5667 31.8025 28.5667 31.25C28.5667 30.6975 28.3472 30.1676 27.9565 29.7769C27.5658 29.3862 27.0359 29.1667 26.4833 29.1667ZM22.7333 31.25C22.7333 30.7575 22.8303 30.2699 23.0188 29.8149C23.2072 29.36 23.4835 28.9466 23.8317 28.5983C24.1799 28.2501 24.5933 27.9739 25.0483 27.7855C25.5032 27.597 25.9909 27.5 26.4833 27.5C26.9758 27.5 27.4634 27.597 27.9184 27.7855C28.3734 27.9739 28.7868 28.2501 29.135 28.5983C29.4832 28.9466 29.7594 29.36 29.9479 29.8149C30.1363 30.2699 30.2333 30.7575 30.2333 31.25C30.2333 32.2446 29.8382 33.1984 29.135 33.9016C28.4317 34.6049 27.4779 35 26.4833 35C25.4888 35 24.5349 34.6049 23.8317 33.9016C23.1284 33.1984 22.7333 32.2446 22.7333 31.25Z" fill="#ACA8D1"/>
<path fill-rule="evenodd" clip-rule="evenodd" d="M31.5283 28.3049C31.5651 28.2018 31.6218 28.107 31.6952 28.0258C31.7686 27.9446 31.8573 27.8787 31.9562 27.8318C32.0551 27.7849 32.1623 27.758 32.2716 27.7525C32.3809 27.747 32.4902 27.7632 32.5933 27.7999C33.122 27.9887 33.6015 28.2938 33.9966 28.6926C34.3916 29.0914 34.6921 29.5738 34.8758 30.1043C35.0595 30.6347 35.1218 31.1997 35.0581 31.7574C34.9943 32.3151 34.8062 32.8514 34.5075 33.3267C34.2088 33.802 33.8073 34.2042 33.3324 34.5036C32.8576 34.803 32.3216 34.992 31.7639 35.0566C31.2063 35.1212 30.6413 35.0598 30.1106 34.877C29.5798 34.6941 29.0969 34.3944 28.6975 33.9999C28.6176 33.9235 28.5537 33.832 28.5095 33.7306C28.4653 33.6293 28.4417 33.5201 28.4401 33.4096C28.4385 33.299 28.4589 33.1893 28.5002 33.0867C28.5414 32.9841 28.6026 32.8907 28.6803 32.8121C28.758 32.7334 28.8506 32.6709 28.9526 32.6284C29.0547 32.5858 29.1642 32.564 29.2748 32.5642C29.3853 32.5644 29.4948 32.5866 29.5967 32.6295C29.6986 32.6724 29.7909 32.7352 29.8683 32.8141C30.0902 33.0332 30.3585 33.1997 30.6533 33.3014C30.9481 33.403 31.262 33.4371 31.5718 33.4013C31.8815 33.3654 32.1793 33.2604 32.4431 33.0942C32.7069 32.9279 32.93 32.7045 33.096 32.4405C33.262 32.1765 33.3665 31.8785 33.402 31.5687C33.4375 31.2589 33.4029 30.9451 33.301 30.6504C33.199 30.3557 33.0321 30.0876 32.8127 29.866C32.5933 29.6444 32.327 29.4749 32.0333 29.3699C31.9301 29.3332 31.8352 29.2764 31.754 29.203C31.6727 29.1295 31.6068 29.0407 31.5599 28.9417C31.5129 28.8427 31.486 28.7355 31.4806 28.6261C31.4752 28.5166 31.4914 28.4081 31.5283 28.3049Z" fill="#ACA8D1"/>
</svg>
