<svg width="40" height="40" viewBox="0 0 40 40" fill="none" xmlns="http://www.w3.org/2000/svg">
<path d="M25 18.4383C20.8833 22.75 16.765 33.3333 16.765 33.3333C16.765 33.3333 10.8817 18.4383 5 15" stroke="#ACA8D1" stroke-width="2.5" stroke-linecap="round" stroke-linejoin="round"/>
<path d="M34.16 9.29487L34.87 16.6682C35.33 21.4515 31.745 25.7099 26.9616 26.1715C22.2683 26.6215 18.0166 23.1915 17.565 18.4982C17.4569 17.3821 17.5699 16.2556 17.8975 15.1832C18.2251 14.1108 18.7608 13.1134 19.4741 12.2482C20.1873 11.3829 21.0641 10.6667 22.0543 10.1405C23.0445 9.61432 24.1287 9.28845 25.245 9.18154L33.105 8.42487C33.2314 8.41269 33.3589 8.42553 33.4804 8.46266C33.6018 8.4998 33.7148 8.56049 33.8127 8.64129C33.9107 8.72208 33.9918 8.82139 34.0514 8.93353C34.111 9.04567 34.1479 9.16846 34.16 9.29487Z" stroke="#ACA8D1" stroke-width="2.5" stroke-linecap="round" stroke-linejoin="round"/>
</svg>
