<svg width="40" height="40" viewBox="0 0 40 40" fill="none" xmlns="http://www.w3.org/2000/svg">
<path fill-rule="evenodd" clip-rule="evenodd" d="M25.9867 12.9593C26.1271 12.9128 26.2774 12.9044 26.4221 12.9352C26.5667 12.966 26.7007 13.0347 26.81 13.1343L31.3933 17.301C31.4997 17.3977 31.5792 17.5202 31.6242 17.6568C31.6692 17.7933 31.6781 17.9391 31.65 18.0801L30.4 24.3301C30.3695 24.4827 30.2969 24.6236 30.1904 24.737C30.0839 24.8504 29.9478 24.9317 29.7975 24.9718L23.5475 26.6385C23.4215 26.6721 23.2893 26.6756 23.1617 26.6489C23.034 26.6221 22.9144 26.5657 22.8125 26.4843L20.7292 24.8176C20.5566 24.6795 20.4459 24.4784 20.4215 24.2587C20.4094 24.1499 20.4189 24.0398 20.4494 23.9347C20.4799 23.8295 20.5308 23.7314 20.5992 23.646C20.6676 23.5605 20.7521 23.4893 20.848 23.4365C20.9439 23.3838 21.0493 23.3504 21.1581 23.3383C21.3778 23.3139 21.5982 23.3778 21.7708 23.516L22.8008 24.341L23.6675 20.2943L20.3858 17.311L20.3733 17.3468C20.3406 17.4528 20.287 17.5513 20.2157 17.6363C20.1444 17.7214 20.0568 17.7914 19.9581 17.8421C19.8594 17.8929 19.7516 17.9234 19.6409 17.9319C19.5302 17.9404 19.419 17.9267 19.3137 17.8916C19.2084 17.8565 19.1111 17.8008 19.0277 17.7276C18.9442 17.6544 18.8762 17.5653 18.8277 17.4655C18.7791 17.3657 18.751 17.2572 18.745 17.1464C18.7389 17.0355 18.7551 16.9246 18.7925 16.8201L19.2092 15.5701C19.2501 15.4473 19.319 15.3356 19.4106 15.2441C19.5022 15.1525 19.6138 15.0835 19.7367 15.0426L25.9867 12.9593ZM21.6133 16.1743L24.8 19.0718L27.2708 18.3651C27.4834 18.3043 27.7115 18.3305 27.9048 18.4379C28.0981 18.5452 28.2409 18.725 28.3017 18.9376C28.3624 19.1502 28.3363 19.3783 28.2289 19.5716C28.1215 19.7649 27.9418 19.9077 27.7292 19.9685L25.2933 20.6643L24.4333 24.6776L28.8675 23.4951L29.9233 18.216L26.05 14.6951L21.6133 16.1743ZM12.7442 16.0776C12.848 15.9737 12.9775 15.8991 13.1194 15.8614C13.2614 15.8236 13.4108 15.824 13.5525 15.8626L18.1358 17.1126C18.2787 17.1516 18.4086 17.228 18.5122 17.3339C18.6157 17.4398 18.6892 17.5714 18.725 17.7151L19.975 22.7151C20.0119 22.8628 20.0077 23.0178 19.9627 23.1632C19.9177 23.3087 19.8338 23.439 19.72 23.5401L15.97 26.8735C15.8664 26.9654 15.7415 27.0301 15.6067 27.0617C15.4718 27.0933 15.3312 27.0907 15.1975 27.0543L10.6142 25.8043C10.4742 25.7662 10.3466 25.6921 10.2439 25.5895C10.1413 25.4869 10.0673 25.3593 10.0292 25.2193L8.77917 20.636C8.74059 20.4942 8.74015 20.3448 8.77791 20.2029C8.81567 20.0609 8.89027 19.9315 8.99417 19.8276L12.7442 16.0776ZM13.5808 17.5985L11.1883 19.9901L13.9192 20.736L16.3117 18.3426L13.5808 17.5985ZM17.465 19.5468L15.0983 21.9135L15.8675 24.7351L18.2358 22.6293L17.465 19.5468ZM14.2292 25.0626L13.4875 22.346L10.7708 21.6043L11.5125 24.321L14.2292 25.0626Z" fill="#ACA8D1"/>
<path fill-rule="evenodd" clip-rule="evenodd" d="M36.6667 20.0002C36.6667 29.2052 29.205 36.6668 20 36.6668C10.795 36.6668 3.33334 29.2052 3.33334 20.0002C3.33334 10.7952 10.795 3.3335 20 3.3335C29.205 3.3335 36.6667 10.7952 36.6667 20.0002ZM35 20.0002C35 23.8785 33.5283 27.4127 31.1133 30.0752L27.855 26.8168C27.6977 26.6651 27.4872 26.5813 27.2687 26.5833C27.0502 26.5854 26.8412 26.6732 26.6868 26.8278C26.5324 26.9824 26.4449 27.1915 26.4432 27.41C26.4415 27.6285 26.5256 27.8389 26.6775 27.996L29.9275 31.246C27.1893 33.6701 23.6571 35.0059 20 35.0002C11.7158 35.0002 5.00001 28.2843 5.00001 20.0002C5.00001 16.1935 6.41834 12.7177 8.75501 10.0727L11.9583 13.2768C12.1146 13.4332 12.3266 13.5211 12.5476 13.5212C12.7687 13.5212 12.9807 13.4335 13.1371 13.2772C13.2935 13.121 13.3814 12.909 13.3814 12.688C13.3815 12.4669 13.2938 12.2549 13.1375 12.0985L9.92584 8.88683C12.682 6.38076 16.2749 4.99461 20 5.00016C28.2842 5.00016 35 11.716 35 20.0002Z" fill="#ACA8D1"/>
</svg>
