<svg width="40" height="40" viewBox="0 0 40 40" fill="none" xmlns="http://www.w3.org/2000/svg">
<path d="M11.524 32.3056C11.524 26.5816 16.744 25.1196 17.766 16.8896C17.796 16.6436 18.204 16.6436 18.234 16.8896C19.256 25.1196 24.476 26.5836 24.476 32.3056C24.476 35.8356 21.512 38.7036 18 38.7036C14.488 38.7036 11.524 35.8356 11.524 32.3056Z" stroke="#ACA8D1" stroke-width="2.5" stroke-linejoin="round"/>
<path d="M24.524 17.0834C24.524 11.3614 29.744 9.89741 30.766 1.66741C30.796 1.42141 31.202 1.42141 31.234 1.66741C32.256 9.89741 37.476 11.3614 37.476 17.0834C37.476 20.6134 34.512 23.4814 31 23.4814C27.488 23.4814 24.524 20.6134 24.524 17.0834Z" stroke="#ACA8D1" stroke-width="2.5" stroke-linejoin="round"/>
</svg>
