<svg width="42" height="43" viewBox="0 0 42 43" fill="none" xmlns="http://www.w3.org/2000/svg">
<path d="M21.0898 34.2721C28.101 34.2721 33.7857 28.6313 33.7857 21.6726C33.7857 14.7139 28.101 9.07471 21.0898 9.07471C14.0786 9.07471 8.39396 14.7155 8.39396 21.6726C8.39396 28.6298 14.0786 34.2721 21.0898 34.2721Z" fill="#ED1C24"/>
<path d="M13.1628 30.145H12.4344V27.3H11.3821V26.688H14.2167V27.3H13.1644V30.145H13.1628Z" fill="white"/>
<path d="M17.2093 27.2985H15.3604V28.0259H17.0589V28.638H15.3604V29.533H17.2914V30.145H14.6475V26.688H17.2093V27.3V27.2985Z" fill="white"/>
<path d="M18.4026 29.0808C18.4073 29.2731 18.5049 29.6391 19.1403 29.6391C19.4844 29.6391 19.8687 29.5576 19.8687 29.1916C19.8687 28.9224 19.6068 28.8502 19.238 28.7625L18.8645 28.6764C18.3019 28.5457 17.7579 28.4211 17.7579 27.6599C17.7579 27.2754 17.9671 26.5957 19.0969 26.5957C20.1647 26.5957 20.4514 27.2893 20.4561 27.7122H19.7571C19.737 27.5584 19.6796 27.1924 19.0442 27.1924C18.7684 27.1924 18.4383 27.2939 18.4383 27.6061C18.4383 27.8752 18.6614 27.9336 18.8071 27.9674L19.6564 28.1751C20.1322 28.2904 20.5692 28.4826 20.5692 29.1039C20.5692 30.1435 19.5014 30.2357 19.1961 30.2357C17.9253 30.2357 17.7068 29.5084 17.7068 29.0808H18.4057H18.4026Z" fill="white"/>
<path d="M22.5993 30.145H21.8709V27.3H20.8186V26.688H23.6532V27.3H22.6009V30.145H22.5993Z" fill="white"/>
<path d="M26.6473 27.2985H24.7984V28.0259H26.497V28.638H24.7984V29.533H26.7295V30.145H24.0855V26.688H26.6473V27.3V27.2985Z" fill="white"/>
<path d="M27.3217 26.688H28.8606C30.0353 26.688 30.2771 27.6799 30.2771 28.335C30.2771 29.0762 29.9811 30.145 28.8312 30.145H27.3217V26.688ZM28.0346 29.5484H28.7428C29.3348 29.5484 29.5332 28.9563 29.5332 28.3873C29.5332 27.3662 29.0435 27.2847 28.732 27.2847H28.033V29.5484H28.0346Z" fill="white"/>
<path d="M12.5939 15.14H14.1282V16.7809H15.5741V15.12H17.1533V13.8375H15.5741L15.5803 12.252L14.1282 12.2581V13.8375H12.5877L12.5939 15.14Z" fill="white"/>
<path d="M20.7335 10.8667L19.7819 11.8109L19.3248 13.1704L18.6397 13.6994C18.6397 13.6994 18.2972 15.2095 17.9175 15.8139C17.5363 16.4183 15.9772 18.2298 15.4069 18.682C14.8366 19.1356 13.8091 19.6631 13.1241 20.3428C12.4391 21.0225 11.1465 22.5696 11.1465 22.5696L10.1392 22.588L9.80287 23.1478H12.5801L13.3534 23.6261H9.66339L9.77807 24.1674H14.1903L15.1419 24.6334H9.85401L10.0818 25.1993H18.1345L17.4619 24.192L19.1357 21.55L21.3426 19.1725L22.1795 14.3791L20.7335 10.8682V10.8667Z" fill="white"/>
<path d="M21.1286 11.0693L21.9902 11.4215L22.497 11.9751H21.5346L21.1286 11.0693Z" fill="white"/>
<path d="M21.6989 12.3276H22.8395L23.3215 12.8813H21.9019L21.6989 12.3276Z" fill="white"/>
<path d="M22.0477 13.2573H23.7974L24.4313 13.8371H22.3019L22.0477 13.2573Z" fill="white"/>
<path d="M22.511 14.3648L22.4413 14.2202H24.7675L24.9953 14.8246H22.4599L22.511 14.3648Z" fill="white"/>
<path d="M22.4025 15.2524H25.2944L25.6168 15.8876H22.3204L22.4025 15.2524Z" fill="white"/>
<path d="M22.2568 16.3228H25.7563L26.2506 16.9963H22.1685L22.2568 16.3228Z" fill="white"/>
<path d="M22.1111 17.417H26.4474L26.3591 18.1029H21.9964L22.1111 17.417Z" fill="white"/>
<path d="M21.9779 18.5303H26.3142L26.2134 19.1962H21.8508L21.9779 18.5303Z" fill="white"/>
<path d="M22.4846 19.6255H26.1374L25.984 20.2791H23.3974L22.4846 19.6255Z" fill="white"/>
<path d="M21.3564 19.9521L21.7361 20.3043H21.0527L21.3564 19.9521Z" fill="white"/>
<path d="M20.6466 20.6821H22.0662L22.7264 21.3111H20.1398L20.6466 20.6821Z" fill="white"/>
<path d="M19.7338 21.7393H23.0814L23.7664 22.3436H19.2519L19.7338 21.7393Z" fill="white"/>
<path d="M19.0488 22.7197H24.1212L24.7799 23.3241H18.6675L19.0488 22.7197Z" fill="white"/>
<path d="M18.4646 23.7271H25.2619L25.9469 24.2807H18.0849L18.4646 23.7271Z" fill="white"/>
<path d="M18.3128 24.7349H26.429L27.1636 25.2885H18.77L18.3128 24.7349Z" fill="white"/>
<path d="M26.759 18.122V17.7437L27.4176 18.122H26.759Z" fill="white"/>
<path d="M26.6568 19.2166H28.4576L28.1539 18.8506H26.7327L26.6568 19.2166Z" fill="white"/>
<path d="M26.384 20.3044H30.3406L30.0229 19.8584H26.5358L26.384 20.3044Z" fill="white"/>
<path d="M31.4377 20.9326L31.7167 21.3924H26.029L26.1809 20.9326H31.4377Z" fill="white"/>
<path d="M26.232 22.3556H32.2932L32.039 21.9404H25.5981L26.232 22.3556Z" fill="white"/>
<path d="M27.785 23.3362L32.7691 23.3239L32.5785 22.9087H26.9745L27.785 23.3362Z" fill="white"/>
<path d="M29.0094 24.293L32.7118 24.2992L32.8001 23.8594H28.3368L29.0094 24.293Z" fill="white"/>
<path d="M30.6009 25.3128H32.3506L32.5722 24.853H29.9097L30.6009 25.3128Z" fill="white"/>
<path d="M29.7703 25.3066L21.6866 19.7012H21.5595L27.8176 25.3066H29.7703Z" fill="white"/>
<path d="M23.8422 20.707H25.795L25.5532 21.3868H24.7799L23.8422 20.707Z" fill="white"/>
<path d="M9.14559 33.0161C8.77519 33.3852 8.94721 33.8127 9.20603 34.0926C9.4013 34.3033 9.78875 34.6047 10.1684 34.2602C10.3808 34.0665 10.3126 33.8558 10.2134 33.6789L9.72211 32.8224C9.50204 32.4318 9.47259 32.0119 9.86934 31.6521C10.4614 31.1138 11.1293 31.5106 11.5214 31.935C11.946 32.3948 11.9724 32.7009 11.9739 32.9023C11.977 33.2868 11.8066 33.519 11.5741 33.7312L11.2843 33.4175C11.7368 33.0054 11.5307 32.5194 11.2362 32.2026C11.0131 31.9612 10.5729 31.6106 10.2149 31.9366C9.95458 32.1749 9.98247 32.3718 10.2614 32.867L10.6117 33.4821C10.7233 33.6789 10.9464 34.1495 10.5125 34.5447C10.1235 34.9 9.50669 34.9953 8.95186 34.3956C8.15063 33.5282 8.59231 32.9669 8.85578 32.704L9.14559 33.0177V33.0161Z" fill="#ED1C24"/>
<path d="M7.26883 24.7502L7.34786 25.2223L4.14756 26.6356L4.06697 26.1497L6.68456 25.0839V25.0747L3.8376 24.7779L3.75546 24.2873L6.35135 23.0971V23.0878L3.52609 22.9156L3.44396 22.4204L6.93407 22.7449L7.01311 23.217L4.36763 24.4304V24.4396L7.26883 24.7518V24.7502Z" fill="#ED1C24"/>
<path d="M6.95893 21.0694L6.94808 21.5231L3.5587 21.4385L3.56955 20.9849L6.95893 21.0694Z" fill="#ED1C24"/>
<path d="M4.94415 17.9973C4.42342 17.9296 4.1863 18.3264 4.11966 18.7001C4.07007 18.9815 4.06387 19.4705 4.57065 19.5582C4.85426 19.6074 4.98289 19.4259 5.06348 19.2398L5.44938 18.3325C5.6276 17.9219 5.94531 17.6436 6.47533 17.7359C7.26572 17.8743 7.35561 18.6416 7.25488 19.2091C7.14639 19.8227 6.91702 20.0303 6.75585 20.1549C6.45054 20.3917 6.16228 20.3978 5.84922 20.344L5.92361 19.9242C6.52803 20.0303 6.79149 19.572 6.86743 19.1476C6.92477 18.8246 6.93717 18.2664 6.45829 18.1818C6.10959 18.1203 5.9701 18.2633 5.74229 18.7847L5.46332 19.4352C5.37344 19.6428 5.13322 20.1056 4.55205 20.0042C4.03132 19.9134 3.58033 19.4874 3.72137 18.6847C3.92749 17.5267 4.64504 17.5329 5.01544 17.579L4.94105 17.9988L4.94415 17.9973Z" fill="#ED1C24"/>
<path d="M6.03211 14.8607C5.53618 14.69 5.22313 15.0298 5.0821 15.3835C4.97516 15.6496 4.87132 16.1263 5.34866 16.3155C5.61677 16.4216 5.7795 16.2678 5.89573 16.1033L6.45985 15.2928C6.71867 14.9253 7.08597 14.7177 7.58655 14.916C8.332 15.2098 8.26225 15.9787 8.04838 16.5139C7.81592 17.0921 7.5509 17.2505 7.36803 17.3397C7.02088 17.5104 6.73572 17.4581 6.44281 17.3427L6.60088 16.946C7.17121 17.1705 7.52301 16.7753 7.68264 16.3739C7.80507 16.0694 7.9306 15.525 7.47961 15.3466C7.15106 15.2175 6.98368 15.3282 6.65513 15.7926L6.24908 16.3739C6.1189 16.56 5.7888 16.9644 5.24172 16.7476C4.75044 16.5538 4.39554 16.0464 4.69775 15.2882C5.13479 14.1963 5.83684 14.3455 6.19019 14.4655L6.03211 14.8622V14.8607Z" fill="#ED1C24"/>
<path d="M8.55062 9.63753L8.88537 9.25L10.6552 12.3687L10.3391 12.7347L6.96054 11.4799L7.29219 11.0954L10.1159 12.2303L10.1221 12.2226L8.55062 9.636V9.63753Z" fill="#ED1C24"/>
<path d="M12.1492 10.9232L11.8036 11.2215L9.57964 8.68408L9.92524 8.38574L12.1492 10.9232Z" fill="#ED1C24"/>
<path d="M10.5575 7.81513L12.8651 6.32959L13.0852 6.66791L12.1228 7.28766L13.7454 9.76972L13.3611 10.0173L11.7384 7.53525L10.776 8.15499L10.5544 7.81667L10.5575 7.81513Z" fill="#ED1C24"/>
<path d="M14.9108 8.01852L14.9542 9.05809L14.5171 9.23494L14.4211 5.64103L14.9015 5.44727L17.3161 8.10617L16.8527 8.29379L16.1708 7.51257L14.9108 8.02006V8.01852ZM15.8655 7.19886L14.8395 6.01473L14.8302 6.0178L14.8891 7.59254L15.8639 7.19886H15.8655Z" fill="#ED1C24"/>
<path d="M20.4623 7.61658L20.1895 5.64815C20.1756 5.55127 20.1275 5.12683 20.0841 4.81619H20.0748L19.5185 7.74575L19.069 7.80727L17.7362 5.14221H17.7269C17.7687 5.44977 17.8369 5.87114 17.8509 5.96802L18.1236 7.93644L17.6835 7.99642L17.2217 4.66394L17.8726 4.57475L19.2224 7.26134H19.2317L19.7959 4.31178L20.4406 4.22412L20.9024 7.5566L20.4623 7.61658Z" fill="#ED1C24"/>
<path d="M22.1546 7.66978L21.6974 7.64825L21.857 4.28809L22.3142 4.30962L22.1546 7.66978Z" fill="#ED1C24"/>
<path d="M25.7113 4.82685L26.1452 4.91758L25.4525 8.21008L24.9488 8.10551L23.8221 5.09597H23.8128L23.2533 7.75335L22.8194 7.66261L23.5121 4.37012L24.0437 4.48084L25.1425 7.48422H25.1518L25.7113 4.82685Z" fill="#ED1C24"/>
<path d="M28.1523 9.43148L27.7493 9.21465L29.3627 6.25586L29.7656 6.47269L28.1523 9.43148Z" fill="#ED1C24"/>
<path d="M32.9257 8.68256L33.2713 8.95937L31.145 11.5783L30.7451 11.2584L31.1202 8.0705L31.1124 8.06435L29.3953 10.1789L29.0497 9.90206L31.176 7.28467L31.599 7.62299L31.2008 10.7925L31.2085 10.7986L32.9257 8.68409V8.68256Z" fill="#ED1C24"/>
<path d="M34.6614 12.0551C35.055 11.7122 34.9124 11.2724 34.6738 10.9771C34.494 10.7541 34.1267 10.4266 33.7253 10.7464C33.5006 10.9248 33.5533 11.1401 33.6416 11.3231L34.074 12.2104C34.2677 12.6149 34.2677 13.0347 33.8477 13.3684C33.2216 13.8667 32.5815 13.4269 32.2189 12.9763C31.8268 12.4903 31.8206 12.1828 31.833 11.9813C31.8562 11.5968 32.0407 11.3769 32.2886 11.1816L32.5567 11.5138C32.0779 11.8952 32.2499 12.3934 32.5226 12.7302C32.7288 12.9855 33.1441 13.3653 33.5238 13.0639C33.7997 12.844 33.7857 12.6456 33.5409 12.132L33.2324 11.4953C33.1348 11.2908 32.9426 10.8064 33.4029 10.4404C33.8152 10.1128 34.4366 10.0575 34.9496 10.6926C35.6904 11.6107 35.2115 12.1412 34.9326 12.3873L34.6645 12.0551H34.6614Z" fill="#ED1C24"/>
<path d="M36.2003 12.5044L37.4603 14.9342L37.0992 15.1187L36.5738 14.1068L33.919 15.4616L33.7098 15.0572L36.3646 13.7024L35.8392 12.6889L36.2003 12.5044Z" fill="#ED1C24"/>
<path d="M34.6677 17.2725L34.5173 16.8435L37.7192 15.7378L37.8695 16.1668L34.6677 17.2725Z" fill="#ED1C24"/>
<path d="M38.1669 16.9644L38.6969 19.6433L38.2986 19.7201L38.0786 18.6037L35.1526 19.1727L35.0642 18.7267L37.9902 18.1577L37.7701 17.0412L38.1684 16.9644H38.1669Z" fill="#ED1C24"/>
<path d="M38.7573 23.0753L36.5582 23.0661C35.8639 23.063 35.2812 22.6293 35.2843 21.7066C35.2874 20.8024 35.8747 20.4164 36.5071 20.4195L38.7682 20.4287V20.8823L36.6326 20.8731C35.8964 20.87 35.6919 21.3145 35.6903 21.722C35.6888 22.1387 35.8809 22.6078 36.6171 22.6109L38.7604 22.6186V23.0737L38.7573 23.0753Z" fill="#ED1C24"/>
<path d="M38.6565 24.0284L38.0754 26.6966L37.6786 26.612L37.9204 25.5001L35.0068 24.8742L35.1029 24.4298L38.0165 25.0557L38.2582 23.9438L38.655 24.0284H38.6565Z" fill="#ED1C24"/>
<path d="M33.6386 28.5375L34.6491 26.2661L37.7502 27.624L36.7537 29.8646L36.3817 29.7016L37.1938 27.8762L36.2438 27.461L35.4953 29.1449L35.1233 28.9819L35.8719 27.298L34.835 26.8443L34.009 28.699L33.6371 28.536L33.6386 28.5375Z" fill="#ED1C24"/>
<path d="M34.2026 31.058C34.4335 31.058 34.6211 30.8719 34.6211 30.6428C34.6211 30.4136 34.4335 30.2275 34.2026 30.2275C33.9717 30.2275 33.7842 30.4136 33.7842 30.6428C33.7842 30.8719 33.9717 31.058 34.2026 31.058Z" fill="#ED1C24"/>
<path d="M8.35523 31.1708C8.58614 31.1708 8.77367 30.9847 8.77367 30.7555C8.77367 30.5264 8.58614 30.3403 8.35523 30.3403C8.12431 30.3403 7.93678 30.5264 7.93678 30.7555C7.93678 30.9847 8.12431 31.1708 8.35523 31.1708Z" fill="#ED1C24"/>
<path d="M13.812 34.0215L14.2537 34.2076L14.8209 37.4186L14.8302 37.4216L15.9089 34.9073L16.3025 35.0734L14.9712 38.1752L14.5156 37.9829L13.9499 34.8042L13.9406 34.8012L12.8728 37.2894L12.4792 37.1233L13.8104 34.0215H13.812Z" fill="#ED1C24"/>
<path d="M18.9449 36.8686C18.9573 36.3826 18.635 36.0643 18.1762 35.9612C17.3874 35.7844 16.907 36.3549 16.7504 37.0408C16.58 37.7913 16.7721 38.4925 17.5656 38.6709C18.1468 38.8001 18.5714 38.4694 18.7373 37.9358L19.1789 38.0342C18.9093 38.8354 18.2816 39.2184 17.4447 39.0307C16.4141 38.8001 16.084 37.9327 16.3025 36.9747C16.5195 36.0212 17.2433 35.3661 18.2646 35.5937C18.9558 35.7475 19.444 36.2442 19.3866 36.967L18.9449 36.8686Z" fill="#ED1C24"/>
<path d="M26.212 38.6994L25.8168 38.7809L25.3224 36.4342L24.4654 36.6126L24.3988 36.2989C24.8498 36.205 25.2357 36.0005 25.2186 35.4869L25.5208 35.4238L26.2105 38.7009L26.212 38.6994Z" fill="#ED1C24"/>
<path d="M28.0159 37.3643C28.1771 37.6488 28.4963 37.7088 28.7908 37.5765C29.2418 37.3735 29.2836 36.8829 28.9473 36.0863L28.9349 36.0817C28.9132 36.4016 28.7148 36.6876 28.4157 36.823C27.7912 37.1029 27.2549 36.8414 26.9806 36.2386C26.7125 35.6496 26.9434 35.0575 27.537 34.7915C28.1089 34.5347 28.7303 34.6239 29.2557 35.7772C29.7362 36.8322 29.6835 37.5642 28.938 37.8994C28.4219 38.1301 27.9338 38.0332 27.647 37.5304L28.0143 37.3658L28.0159 37.3643ZM27.6687 35.1221C27.2301 35.319 27.2255 35.7419 27.396 36.1156C27.5494 36.4508 27.9415 36.6477 28.2964 36.4877C28.6823 36.3155 28.7846 35.8957 28.6203 35.5343C28.4498 35.1606 28.081 34.9376 27.6703 35.1221H27.6687Z" fill="#ED1C24"/>
<path d="M30.5419 34.623C30.5961 34.5922 30.6426 34.5599 30.6891 34.5276C30.9712 34.3354 31.1137 34.014 30.9061 33.7156C30.7062 33.4281 30.3869 33.4158 30.1048 33.6095C29.7406 33.8586 29.7747 34.2416 29.9948 34.5676L29.6616 34.7952C29.3175 34.2569 29.347 33.6987 29.9034 33.3189C30.3853 32.9898 30.9092 32.9713 31.2625 33.4803C31.4299 33.7218 31.402 34.0493 31.2579 34.2908L31.2625 34.2985C31.6515 34.1431 31.9987 34.2954 32.228 34.626C32.6108 35.1781 32.3753 35.764 31.853 36.1193C31.2889 36.5037 30.686 36.4268 30.3048 35.8517L30.638 35.6241C30.8968 35.9747 31.2703 36.087 31.65 35.8271C31.9754 35.6056 32.1165 35.2166 31.8855 34.8828C31.6453 34.5368 31.2563 34.5322 30.9262 34.7567C30.8596 34.8013 30.7914 34.8536 30.734 34.9044L30.5403 34.6245L30.5419 34.623Z" fill="#ED1C24"/>
<path d="M34.1731 33.6155L33.8879 33.9L32.1739 32.2083L31.5571 32.8235L31.3277 32.5974C31.6532 32.2729 31.8608 31.8915 31.5633 31.4717L31.7818 31.2549L34.1731 33.6155Z" fill="#ED1C24"/>
<path d="M12.7365 33.3755L13.1317 33.6046L11.4192 36.508L11.024 36.2789L12.7365 33.3755Z" fill="#ED1C24"/>
<path d="M22.4164 39.4658L19.9151 39.392L20.0158 36.0303L22.4831 36.1026L22.4707 36.5055L20.4606 36.4455L20.4296 37.4758L22.2847 37.5297L22.2723 37.9326L20.4188 37.8787L20.3847 39.0029L22.4273 39.0629L22.4149 39.4658H22.4164Z" fill="#ED1C24"/>
<path d="M5.38899 27.7056C4.93335 27.9624 4.9814 28.4207 5.15497 28.759C5.28516 29.0143 5.57651 29.408 6.0368 29.1773C6.29407 29.0482 6.28632 28.8252 6.23827 28.6283L5.99806 27.6718C5.89112 27.2366 5.97791 26.826 6.45834 26.583C7.17434 26.2232 7.70902 26.7829 7.97248 27.2966C8.25609 27.8517 8.2003 28.1547 8.14606 28.35C8.04532 28.7206 7.8175 28.899 7.53544 29.0405L7.34017 28.6606C7.88724 28.3853 7.8206 27.8609 7.62378 27.4765C7.47345 27.1843 7.14645 26.7291 6.71251 26.9475C6.39635 27.1074 6.37001 27.3043 6.50484 27.8563L6.67686 28.5422C6.73111 28.7621 6.81944 29.2742 6.29252 29.5403C5.82138 29.7771 5.20147 29.7063 4.82952 28.979C4.29329 27.9302 4.87136 27.5072 5.19527 27.3242L5.39054 27.7041L5.38899 27.7056Z" fill="#ED1C24"/>
<path d="M21.0775 41.5387C32.0809 41.5387 41 32.6885 41 21.7699C41 10.8513 32.0809 1.99951 21.0775 1.99951C10.074 1.99951 1.15498 10.8513 1.15498 21.7683C1.15498 32.6854 10.0755 41.5371 21.0775 41.5371V41.5387Z" stroke="#ED1C24" stroke-width="2"/>
</svg>
