<svg width="550" height="686" viewBox="0 0 550 686" fill="none" xmlns="http://www.w3.org/2000/svg">
<path fill-rule="evenodd" clip-rule="evenodd" d="M544.687 2.52344C544.687 3.91709 545.817 5.04687 547.211 5.04687C548.605 5.04687 549.734 3.91709 549.734 2.52344C549.734 1.12978 548.605 -4.93843e-08 547.211 -1.10303e-07C545.817 -1.71222e-07 544.687 1.12978 544.687 2.52344ZM181.687 2.52342C181.687 3.91708 182.817 5.04686 184.211 5.04686C185.605 5.04686 186.734 3.91708 186.734 2.52342C186.734 1.12977 185.605 -1.59166e-05 184.211 -1.59775e-05C182.817 -1.60385e-05 181.687 1.12977 181.687 2.52342ZM184.211 368.047C182.817 368.047 181.687 366.917 181.687 365.523C181.687 364.13 182.817 363 184.211 363C185.605 363 186.734 364.13 186.734 365.523C186.734 366.917 185.605 368.047 184.211 368.047ZM544.687 365.523C544.687 366.917 545.817 368.047 547.211 368.047C548.605 368.047 549.734 366.917 549.734 365.523C549.734 364.13 548.605 363 547.211 363C545.817 363 544.687 364.13 544.687 365.523ZM184.211 50.4687C182.817 50.4687 181.687 49.339 181.687 47.9453C181.687 46.5516 182.817 45.4219 184.211 45.4219C185.605 45.4219 186.734 46.5516 186.734 47.9453C186.734 49.339 185.605 50.4687 184.211 50.4687ZM544.687 47.9453C544.687 49.339 545.817 50.4687 547.211 50.4687C548.605 50.4687 549.734 49.339 549.734 47.9453C549.734 46.5517 548.605 45.4219 547.211 45.4219C545.817 45.4219 544.687 46.5517 544.687 47.9453ZM184.211 413.469C182.817 413.469 181.687 412.339 181.687 410.945C181.687 409.552 182.817 408.422 184.211 408.422C185.605 408.422 186.734 409.552 186.734 410.945C186.734 412.339 185.605 413.469 184.211 413.469ZM544.687 410.945C544.687 412.339 545.817 413.469 547.211 413.469C548.605 413.469 549.734 412.339 549.734 410.945C549.734 409.552 548.605 408.422 547.211 408.422C545.817 408.422 544.687 409.552 544.687 410.945ZM184.211 95.8906C182.817 95.8906 181.687 94.7608 181.687 93.3672C181.687 91.9735 182.817 90.8437 184.211 90.8437C185.605 90.8437 186.734 91.9735 186.734 93.3672C186.734 94.7608 185.605 95.8906 184.211 95.8906ZM544.687 93.3672C544.687 94.7608 545.817 95.8906 547.211 95.8906C548.605 95.8906 549.734 94.7608 549.734 93.3672C549.734 91.9735 548.605 90.8437 547.211 90.8437C545.817 90.8437 544.687 91.9735 544.687 93.3672ZM184.211 458.891C182.817 458.891 181.687 457.761 181.687 456.367C181.687 454.974 182.817 453.844 184.211 453.844C185.605 453.844 186.734 454.974 186.734 456.367C186.734 457.761 185.605 458.891 184.211 458.891ZM544.687 456.367C544.687 457.761 545.817 458.891 547.211 458.891C548.605 458.891 549.734 457.761 549.734 456.367C549.734 454.974 548.605 453.844 547.211 453.844C545.817 453.844 544.687 454.974 544.687 456.367ZM184.211 141.312C182.817 141.312 181.687 140.183 181.687 138.789C181.687 137.395 182.817 136.266 184.211 136.266C185.605 136.266 186.734 137.395 186.734 138.789C186.734 140.183 185.605 141.312 184.211 141.312ZM544.687 138.789C544.687 140.183 545.817 141.312 547.211 141.312C548.605 141.312 549.734 140.183 549.734 138.789C549.734 137.395 548.605 136.266 547.211 136.266C545.817 136.266 544.687 137.395 544.687 138.789ZM184.211 504.312C182.817 504.312 181.687 503.183 181.687 501.789C181.687 500.395 182.817 499.266 184.211 499.266C185.605 499.266 186.734 500.395 186.734 501.789C186.734 503.183 185.605 504.312 184.211 504.312ZM544.687 501.789C544.687 503.183 545.817 504.312 547.211 504.312C548.605 504.312 549.734 503.183 549.734 501.789C549.734 500.395 548.605 499.266 547.211 499.266C545.817 499.266 544.687 500.395 544.687 501.789ZM184.211 186.734C182.817 186.734 181.687 185.605 181.687 184.211C181.687 182.817 182.817 181.687 184.211 181.687C185.605 181.687 186.734 182.817 186.734 184.211C186.734 185.605 185.605 186.734 184.211 186.734ZM544.687 184.211C544.687 185.605 545.817 186.734 547.211 186.734C548.605 186.734 549.734 185.605 549.734 184.211C549.734 182.817 548.605 181.687 547.211 181.687C545.817 181.687 544.687 182.817 544.687 184.211ZM184.211 549.734C182.817 549.734 181.687 548.605 181.687 547.211C181.687 545.817 182.817 544.687 184.211 544.687C185.605 544.687 186.734 545.817 186.734 547.211C186.734 548.605 185.605 549.734 184.211 549.734ZM544.687 547.211C544.687 548.605 545.817 549.734 547.211 549.734C548.605 549.734 549.734 548.605 549.734 547.211C549.734 545.817 548.605 544.687 547.211 544.687C545.817 544.687 544.687 545.817 544.687 547.211ZM184.211 232.156C182.817 232.156 181.687 231.026 181.687 229.633C181.687 228.239 182.817 227.109 184.211 227.109C185.605 227.109 186.734 228.239 186.734 229.633C186.734 231.026 185.605 232.156 184.211 232.156ZM544.687 229.633C544.687 231.026 545.817 232.156 547.211 232.156C548.605 232.156 549.734 231.026 549.734 229.633C549.734 228.239 548.605 227.109 547.211 227.109C545.817 227.109 544.687 228.239 544.687 229.633ZM184.211 595.156C182.817 595.156 181.687 594.026 181.687 592.633C181.687 591.239 182.817 590.109 184.211 590.109C185.605 590.109 186.734 591.239 186.734 592.633C186.734 594.026 185.605 595.156 184.211 595.156ZM544.687 592.633C544.687 594.026 545.817 595.156 547.211 595.156C548.605 595.156 549.734 594.026 549.734 592.633C549.734 591.239 548.605 590.109 547.211 590.109C545.817 590.109 544.687 591.239 544.687 592.633ZM184.211 277.578C182.817 277.578 181.687 276.448 181.687 275.055C181.687 273.661 182.817 272.531 184.211 272.531C185.605 272.531 186.734 273.661 186.734 275.055C186.734 276.448 185.605 277.578 184.211 277.578ZM544.687 275.055C544.687 276.448 545.817 277.578 547.211 277.578C548.605 277.578 549.734 276.448 549.734 275.055C549.734 273.661 548.605 272.531 547.211 272.531C545.817 272.531 544.687 273.661 544.687 275.055ZM184.211 640.578C182.817 640.578 181.687 639.448 181.687 638.055C181.687 636.661 182.817 635.531 184.211 635.531C185.605 635.531 186.734 636.661 186.734 638.055C186.734 639.448 185.605 640.578 184.211 640.578ZM544.687 638.055C544.687 639.448 545.817 640.578 547.211 640.578C548.605 640.578 549.734 639.448 549.734 638.055C549.734 636.661 548.605 635.531 547.211 635.531C545.817 635.531 544.687 636.661 544.687 638.055ZM184.211 323C182.817 323 181.687 321.87 181.687 320.477C181.687 319.083 182.817 317.953 184.211 317.953C185.605 317.953 186.734 319.083 186.734 320.477C186.734 321.87 185.605 323 184.211 323ZM544.687 320.477C544.687 321.87 545.817 323 547.211 323C548.605 323 549.734 321.87 549.734 320.477C549.734 319.083 548.605 317.953 547.211 317.953C545.817 317.953 544.687 319.083 544.687 320.477ZM184.211 686C182.817 686 181.687 684.87 181.687 683.477C181.687 682.083 182.817 680.953 184.211 680.953C185.605 680.953 186.734 682.083 186.734 683.477C186.734 684.87 185.605 686 184.211 686ZM544.687 683.477C544.687 684.87 545.817 686 547.211 686C548.605 686 549.734 684.87 549.734 683.477C549.734 682.083 548.605 680.953 547.211 680.953C545.817 680.953 544.687 682.083 544.687 683.477ZM138.789 5.04686C137.395 5.04686 136.266 3.91708 136.266 2.52342C136.266 1.12976 137.395 -1.80239e-05 138.789 -1.7963e-05C140.183 -1.79021e-05 141.312 1.12976 141.312 2.52342C141.312 3.91708 140.183 5.04686 138.789 5.04686ZM499.266 2.52344C499.266 3.91709 500.395 5.04687 501.789 5.04687C503.183 5.04687 504.312 3.91709 504.312 2.52344C504.312 1.12978 503.183 -2.03484e-06 501.789 -2.09576e-06C500.395 -2.15667e-06 499.266 1.12978 499.266 2.52344ZM138.789 368.047C137.395 368.047 136.266 366.917 136.266 365.523C136.266 364.13 137.395 363 138.789 363C140.183 363 141.312 364.13 141.312 365.523C141.312 366.917 140.183 368.047 138.789 368.047ZM499.266 365.523C499.266 366.917 500.395 368.047 501.789 368.047C503.183 368.047 504.312 366.917 504.312 365.523C504.312 364.13 503.183 363 501.789 363C500.395 363 499.266 364.13 499.266 365.523ZM138.789 50.4687C137.395 50.4687 136.266 49.339 136.266 47.9453C136.266 46.5516 137.395 45.4219 138.789 45.4219C140.183 45.4219 141.312 46.5516 141.312 47.9453C141.312 49.339 140.183 50.4687 138.789 50.4687ZM499.266 47.9453C499.266 49.339 500.395 50.4687 501.789 50.4687C503.183 50.4687 504.312 49.339 504.312 47.9453C504.312 46.5517 503.183 45.4219 501.789 45.4219C500.395 45.4219 499.266 46.5517 499.266 47.9453ZM138.789 413.469C137.395 413.469 136.266 412.339 136.266 410.945C136.266 409.552 137.395 408.422 138.789 408.422C140.183 408.422 141.312 409.552 141.312 410.945C141.312 412.339 140.183 413.469 138.789 413.469ZM499.266 410.945C499.266 412.339 500.395 413.469 501.789 413.469C503.183 413.469 504.312 412.339 504.312 410.945C504.312 409.552 503.183 408.422 501.789 408.422C500.395 408.422 499.266 409.552 499.266 410.945ZM138.789 95.8906C137.395 95.8906 136.266 94.7608 136.266 93.3672C136.266 91.9735 137.395 90.8437 138.789 90.8437C140.183 90.8437 141.312 91.9735 141.312 93.3672C141.312 94.7608 140.183 95.8906 138.789 95.8906ZM499.266 93.3672C499.266 94.7608 500.395 95.8906 501.789 95.8906C503.183 95.8906 504.312 94.7608 504.312 93.3672C504.312 91.9735 503.183 90.8437 501.789 90.8437C500.395 90.8437 499.266 91.9735 499.266 93.3672ZM138.789 458.891C137.395 458.891 136.266 457.761 136.266 456.367C136.266 454.974 137.395 453.844 138.789 453.844C140.183 453.844 141.312 454.974 141.312 456.367C141.312 457.761 140.183 458.891 138.789 458.891ZM499.266 456.367C499.266 457.761 500.395 458.891 501.789 458.891C503.183 458.891 504.312 457.761 504.312 456.367C504.312 454.974 503.183 453.844 501.789 453.844C500.395 453.844 499.266 454.974 499.266 456.367ZM138.789 141.312C137.395 141.312 136.266 140.183 136.266 138.789C136.266 137.395 137.395 136.266 138.789 136.266C140.183 136.266 141.312 137.395 141.312 138.789C141.312 140.183 140.183 141.312 138.789 141.312ZM499.266 138.789C499.266 140.183 500.395 141.312 501.789 141.312C503.183 141.312 504.312 140.183 504.312 138.789C504.312 137.395 503.183 136.266 501.789 136.266C500.395 136.266 499.266 137.395 499.266 138.789ZM138.789 504.312C137.395 504.312 136.266 503.183 136.266 501.789C136.266 500.395 137.395 499.266 138.789 499.266C140.183 499.266 141.312 500.395 141.312 501.789C141.312 503.183 140.183 504.312 138.789 504.312ZM499.266 501.789C499.266 503.183 500.395 504.312 501.789 504.312C503.183 504.312 504.312 503.183 504.312 501.789C504.312 500.395 503.183 499.266 501.789 499.266C500.395 499.266 499.266 500.395 499.266 501.789ZM138.789 186.734C137.395 186.734 136.266 185.605 136.266 184.211C136.266 182.817 137.395 181.687 138.789 181.687C140.183 181.687 141.312 182.817 141.312 184.211C141.312 185.605 140.183 186.734 138.789 186.734ZM499.266 184.211C499.266 185.605 500.395 186.734 501.789 186.734C503.183 186.734 504.312 185.605 504.312 184.211C504.312 182.817 503.183 181.687 501.789 181.687C500.395 181.687 499.266 182.817 499.266 184.211ZM138.789 549.734C137.395 549.734 136.266 548.605 136.266 547.211C136.266 545.817 137.395 544.687 138.789 544.687C140.183 544.687 141.312 545.817 141.312 547.211C141.312 548.605 140.183 549.734 138.789 549.734ZM499.266 547.211C499.266 548.605 500.395 549.734 501.789 549.734C503.183 549.734 504.312 548.605 504.312 547.211C504.312 545.817 503.183 544.687 501.789 544.687C500.395 544.687 499.266 545.817 499.266 547.211ZM138.789 232.156C137.395 232.156 136.266 231.026 136.266 229.633C136.266 228.239 137.395 227.109 138.789 227.109C140.183 227.109 141.312 228.239 141.312 229.633C141.312 231.026 140.183 232.156 138.789 232.156ZM499.266 229.633C499.266 231.026 500.395 232.156 501.789 232.156C503.183 232.156 504.312 231.026 504.312 229.633C504.312 228.239 503.183 227.109 501.789 227.109C500.395 227.109 499.266 228.239 499.266 229.633ZM138.789 595.156C137.395 595.156 136.266 594.026 136.266 592.633C136.266 591.239 137.395 590.109 138.789 590.109C140.183 590.109 141.312 591.239 141.312 592.633C141.312 594.026 140.183 595.156 138.789 595.156ZM499.266 592.633C499.266 594.026 500.395 595.156 501.789 595.156C503.183 595.156 504.312 594.026 504.312 592.633C504.312 591.239 503.183 590.109 501.789 590.109C500.395 590.109 499.266 591.239 499.266 592.633ZM138.789 277.578C137.395 277.578 136.266 276.448 136.266 275.055C136.266 273.661 137.395 272.531 138.789 272.531C140.183 272.531 141.312 273.661 141.312 275.055C141.312 276.448 140.183 277.578 138.789 277.578ZM499.266 275.055C499.266 276.448 500.395 277.578 501.789 277.578C503.183 277.578 504.312 276.448 504.312 275.055C504.312 273.661 503.183 272.531 501.789 272.531C500.395 272.531 499.266 273.661 499.266 275.055ZM138.789 640.578C137.395 640.578 136.266 639.448 136.266 638.055C136.266 636.661 137.395 635.531 138.789 635.531C140.183 635.531 141.312 636.661 141.312 638.055C141.312 639.448 140.183 640.578 138.789 640.578ZM499.266 638.055C499.266 639.448 500.395 640.578 501.789 640.578C503.183 640.578 504.312 639.448 504.312 638.055C504.312 636.661 503.183 635.531 501.789 635.531C500.395 635.531 499.266 636.661 499.266 638.055ZM138.789 323C137.395 323 136.266 321.87 136.266 320.477C136.266 319.083 137.395 317.953 138.789 317.953C140.183 317.953 141.312 319.083 141.312 320.477C141.312 321.87 140.183 323 138.789 323ZM499.266 320.477C499.266 321.87 500.395 323 501.789 323C503.183 323 504.312 321.87 504.312 320.477C504.312 319.083 503.183 317.953 501.789 317.953C500.395 317.953 499.266 319.083 499.266 320.477ZM138.789 686C137.395 686 136.266 684.87 136.266 683.477C136.266 682.083 137.395 680.953 138.789 680.953C140.183 680.953 141.312 682.083 141.312 683.477C141.312 684.87 140.183 686 138.789 686ZM499.266 683.477C499.266 684.87 500.395 686 501.789 686C503.183 686 504.312 684.87 504.312 683.477C504.312 682.083 503.183 680.953 501.789 680.953C500.395 680.953 499.266 682.083 499.266 683.477ZM93.3672 5.04686C91.9735 5.04685 90.8437 3.91707 90.8437 2.52342C90.8437 1.12976 91.9735 -2.00094e-05 93.3672 -1.99484e-05C94.7608 -1.98875e-05 95.8906 1.12976 95.8906 2.52342C95.8906 3.91707 94.7608 5.04686 93.3672 5.04686ZM453.844 2.52343C453.844 3.91709 454.974 5.04687 456.367 5.04687C457.761 5.04687 458.891 3.91709 458.891 2.52343C458.891 1.12978 457.761 -4.02029e-06 456.367 -4.08121e-06C454.974 -4.14213e-06 453.844 1.12978 453.844 2.52343ZM93.3672 368.047C91.9735 368.047 90.8437 366.917 90.8437 365.523C90.8437 364.13 91.9735 363 93.3672 363C94.7608 363 95.8906 364.13 95.8906 365.523C95.8906 366.917 94.7608 368.047 93.3672 368.047ZM453.844 365.523C453.844 366.917 454.974 368.047 456.367 368.047C457.761 368.047 458.891 366.917 458.891 365.523C458.891 364.13 457.761 363 456.367 363C454.974 363 453.844 364.13 453.844 365.523ZM93.3672 50.4687C91.9735 50.4687 90.8437 49.339 90.8437 47.9453C90.8437 46.5516 91.9735 45.4219 93.3672 45.4219C94.7608 45.4219 95.8906 46.5516 95.8906 47.9453C95.8906 49.339 94.7608 50.4687 93.3672 50.4687ZM453.844 47.9453C453.844 49.339 454.974 50.4687 456.367 50.4687C457.761 50.4687 458.891 49.339 458.891 47.9453C458.891 46.5517 457.761 45.4219 456.367 45.4219C454.974 45.4219 453.844 46.5517 453.844 47.9453ZM93.3672 413.469C91.9735 413.469 90.8437 412.339 90.8437 410.945C90.8437 409.552 91.9735 408.422 93.3672 408.422C94.7608 408.422 95.8906 409.552 95.8906 410.945C95.8906 412.339 94.7608 413.469 93.3672 413.469ZM453.844 410.945C453.844 412.339 454.974 413.469 456.367 413.469C457.761 413.469 458.891 412.339 458.891 410.945C458.891 409.552 457.761 408.422 456.367 408.422C454.974 408.422 453.844 409.552 453.844 410.945ZM93.3672 95.8906C91.9735 95.8906 90.8437 94.7608 90.8437 93.3672C90.8437 91.9735 91.9735 90.8437 93.3672 90.8437C94.7608 90.8437 95.8906 91.9735 95.8906 93.3672C95.8906 94.7608 94.7608 95.8906 93.3672 95.8906ZM453.844 93.3672C453.844 94.7608 454.974 95.8906 456.367 95.8906C457.761 95.8906 458.891 94.7608 458.891 93.3672C458.891 91.9735 457.761 90.8437 456.367 90.8437C454.974 90.8437 453.844 91.9735 453.844 93.3672ZM93.3672 458.891C91.9735 458.891 90.8437 457.761 90.8437 456.367C90.8437 454.974 91.9735 453.844 93.3672 453.844C94.7608 453.844 95.8906 454.974 95.8906 456.367C95.8906 457.761 94.7608 458.891 93.3672 458.891ZM453.844 456.367C453.844 457.761 454.974 458.891 456.367 458.891C457.761 458.891 458.891 457.761 458.891 456.367C458.891 454.974 457.761 453.844 456.367 453.844C454.974 453.844 453.844 454.974 453.844 456.367ZM93.3672 141.312C91.9735 141.312 90.8437 140.183 90.8437 138.789C90.8437 137.395 91.9735 136.266 93.3672 136.266C94.7608 136.266 95.8906 137.395 95.8906 138.789C95.8906 140.183 94.7608 141.312 93.3672 141.312ZM453.844 138.789C453.844 140.183 454.974 141.312 456.367 141.312C457.761 141.312 458.891 140.183 458.891 138.789C458.891 137.395 457.761 136.266 456.367 136.266C454.974 136.266 453.844 137.395 453.844 138.789ZM93.3672 504.312C91.9735 504.312 90.8437 503.183 90.8437 501.789C90.8437 500.395 91.9735 499.266 93.3672 499.266C94.7608 499.266 95.8906 500.395 95.8906 501.789C95.8906 503.183 94.7608 504.312 93.3672 504.312ZM453.844 501.789C453.844 503.183 454.974 504.312 456.367 504.312C457.761 504.312 458.891 503.183 458.891 501.789C458.891 500.395 457.761 499.266 456.367 499.266C454.974 499.266 453.844 500.395 453.844 501.789ZM93.3672 186.734C91.9735 186.734 90.8437 185.605 90.8437 184.211C90.8437 182.817 91.9735 181.687 93.3672 181.687C94.7608 181.687 95.8906 182.817 95.8906 184.211C95.8906 185.605 94.7608 186.734 93.3672 186.734ZM453.844 184.211C453.844 185.605 454.974 186.734 456.367 186.734C457.761 186.734 458.891 185.605 458.891 184.211C458.891 182.817 457.761 181.687 456.367 181.687C454.974 181.687 453.844 182.817 453.844 184.211ZM93.3672 549.734C91.9735 549.734 90.8437 548.605 90.8437 547.211C90.8437 545.817 91.9735 544.687 93.3672 544.687C94.7608 544.687 95.8906 545.817 95.8906 547.211C95.8906 548.605 94.7608 549.734 93.3672 549.734ZM453.844 547.211C453.844 548.605 454.974 549.734 456.367 549.734C457.761 549.734 458.891 548.605 458.891 547.211C458.891 545.817 457.761 544.687 456.367 544.687C454.974 544.687 453.844 545.817 453.844 547.211ZM93.3672 232.156C91.9735 232.156 90.8437 231.026 90.8437 229.633C90.8437 228.239 91.9735 227.109 93.3672 227.109C94.7608 227.109 95.8906 228.239 95.8906 229.633C95.8906 231.026 94.7608 232.156 93.3672 232.156ZM453.844 229.633C453.844 231.026 454.974 232.156 456.367 232.156C457.761 232.156 458.891 231.026 458.891 229.633C458.891 228.239 457.761 227.109 456.367 227.109C454.974 227.109 453.844 228.239 453.844 229.633ZM93.3672 595.156C91.9735 595.156 90.8437 594.026 90.8437 592.633C90.8437 591.239 91.9735 590.109 93.3672 590.109C94.7608 590.109 95.8906 591.239 95.8906 592.633C95.8906 594.026 94.7608 595.156 93.3672 595.156ZM453.844 592.633C453.844 594.026 454.974 595.156 456.367 595.156C457.761 595.156 458.891 594.026 458.891 592.633C458.891 591.239 457.761 590.109 456.367 590.109C454.974 590.109 453.844 591.239 453.844 592.633ZM93.3672 277.578C91.9735 277.578 90.8437 276.448 90.8437 275.055C90.8437 273.661 91.9735 272.531 93.3672 272.531C94.7608 272.531 95.8906 273.661 95.8906 275.055C95.8906 276.448 94.7608 277.578 93.3672 277.578ZM453.844 275.055C453.844 276.448 454.974 277.578 456.367 277.578C457.761 277.578 458.891 276.448 458.891 275.055C458.891 273.661 457.761 272.531 456.367 272.531C454.974 272.531 453.844 273.661 453.844 275.055ZM93.3672 640.578C91.9735 640.578 90.8437 639.448 90.8437 638.055C90.8437 636.661 91.9735 635.531 93.3672 635.531C94.7608 635.531 95.8906 636.661 95.8906 638.055C95.8906 639.448 94.7608 640.578 93.3672 640.578ZM453.844 638.055C453.844 639.448 454.974 640.578 456.367 640.578C457.761 640.578 458.891 639.448 458.891 638.055C458.891 636.661 457.761 635.531 456.367 635.531C454.974 635.531 453.844 636.661 453.844 638.055ZM93.3672 323C91.9735 323 90.8437 321.87 90.8437 320.477C90.8437 319.083 91.9735 317.953 93.3672 317.953C94.7608 317.953 95.8906 319.083 95.8906 320.477C95.8906 321.87 94.7608 323 93.3672 323ZM453.844 320.477C453.844 321.87 454.974 323 456.367 323C457.761 323 458.891 321.87 458.891 320.477C458.891 319.083 457.761 317.953 456.367 317.953C454.974 317.953 453.844 319.083 453.844 320.477ZM93.3672 686C91.9735 686 90.8437 684.87 90.8437 683.477C90.8437 682.083 91.9735 680.953 93.3672 680.953C94.7608 680.953 95.8906 682.083 95.8906 683.477C95.8906 684.87 94.7608 686 93.3672 686ZM453.844 683.477C453.844 684.87 454.974 686 456.367 686C457.761 686 458.891 684.87 458.891 683.477C458.891 682.083 457.761 680.953 456.367 680.953C454.974 680.953 453.844 682.083 453.844 683.477ZM47.9453 5.04685C46.5517 5.04685 45.4219 3.91707 45.4219 2.52342C45.4219 1.12976 46.5517 -2.19948e-05 47.9453 -2.19339e-05C49.339 -2.1873e-05 50.4687 1.12976 50.4687 2.52342C50.4687 3.91707 49.339 5.04685 47.9453 5.04685ZM408.422 2.52343C408.422 3.91709 409.552 5.04687 410.945 5.04687C412.339 5.04687 413.469 3.91709 413.469 2.52343C413.469 1.12978 412.339 -6.00574e-06 410.945 -6.06666e-06C409.552 -6.12758e-06 408.422 1.12978 408.422 2.52343ZM47.9453 368.047C46.5517 368.047 45.4219 366.917 45.4219 365.523C45.4219 364.13 46.5517 363 47.9453 363C49.3389 363 50.4687 364.13 50.4687 365.523C50.4687 366.917 49.3389 368.047 47.9453 368.047ZM408.422 365.523C408.422 366.917 409.552 368.047 410.945 368.047C412.339 368.047 413.469 366.917 413.469 365.523C413.469 364.13 412.339 363 410.945 363C409.552 363 408.422 364.13 408.422 365.523ZM47.9453 50.4687C46.5517 50.4687 45.4219 49.3389 45.4219 47.9453C45.4219 46.5516 46.5517 45.4219 47.9453 45.4219C49.339 45.4219 50.4687 46.5516 50.4687 47.9453C50.4687 49.3389 49.339 50.4687 47.9453 50.4687ZM408.422 47.9453C408.422 49.339 409.552 50.4687 410.945 50.4687C412.339 50.4687 413.469 49.339 413.469 47.9453C413.469 46.5516 412.339 45.4219 410.945 45.4219C409.552 45.4219 408.422 46.5516 408.422 47.9453ZM47.9453 413.469C46.5516 413.469 45.4219 412.339 45.4219 410.945C45.4219 409.552 46.5516 408.422 47.9453 408.422C49.3389 408.422 50.4687 409.552 50.4687 410.945C50.4687 412.339 49.3389 413.469 47.9453 413.469ZM408.422 410.945C408.422 412.339 409.552 413.469 410.945 413.469C412.339 413.469 413.469 412.339 413.469 410.945C413.469 409.552 412.339 408.422 410.945 408.422C409.552 408.422 408.422 409.552 408.422 410.945ZM47.9453 95.8906C46.5517 95.8906 45.4219 94.7608 45.4219 93.3672C45.4219 91.9735 46.5517 90.8437 47.9453 90.8437C49.339 90.8437 50.4687 91.9735 50.4687 93.3672C50.4687 94.7608 49.339 95.8906 47.9453 95.8906ZM408.422 93.3672C408.422 94.7608 409.552 95.8906 410.945 95.8906C412.339 95.8906 413.469 94.7608 413.469 93.3672C413.469 91.9735 412.339 90.8437 410.945 90.8437C409.552 90.8437 408.422 91.9735 408.422 93.3672ZM47.9453 458.891C46.5516 458.891 45.4219 457.761 45.4219 456.367C45.4219 454.974 46.5516 453.844 47.9453 453.844C49.3389 453.844 50.4687 454.974 50.4687 456.367C50.4687 457.761 49.3389 458.891 47.9453 458.891ZM408.422 456.367C408.422 457.761 409.552 458.891 410.945 458.891C412.339 458.891 413.469 457.761 413.469 456.367C413.469 454.974 412.339 453.844 410.945 453.844C409.552 453.844 408.422 454.974 408.422 456.367ZM47.9453 141.312C46.5517 141.312 45.4219 140.183 45.4219 138.789C45.4219 137.395 46.5517 136.266 47.9453 136.266C49.339 136.266 50.4687 137.395 50.4687 138.789C50.4687 140.183 49.339 141.312 47.9453 141.312ZM408.422 138.789C408.422 140.183 409.552 141.312 410.945 141.312C412.339 141.312 413.469 140.183 413.469 138.789C413.469 137.395 412.339 136.266 410.945 136.266C409.552 136.266 408.422 137.395 408.422 138.789ZM47.9453 504.312C46.5516 504.312 45.4219 503.183 45.4219 501.789C45.4219 500.395 46.5516 499.266 47.9453 499.266C49.3389 499.266 50.4687 500.395 50.4687 501.789C50.4687 503.183 49.3389 504.312 47.9453 504.312ZM408.422 501.789C408.422 503.183 409.552 504.312 410.945 504.312C412.339 504.312 413.469 503.183 413.469 501.789C413.469 500.395 412.339 499.266 410.945 499.266C409.552 499.266 408.422 500.395 408.422 501.789ZM47.9453 186.734C46.5517 186.734 45.4219 185.605 45.4219 184.211C45.4219 182.817 46.5517 181.687 47.9453 181.687C49.339 181.687 50.4687 182.817 50.4687 184.211C50.4687 185.605 49.339 186.734 47.9453 186.734ZM408.422 184.211C408.422 185.605 409.552 186.734 410.945 186.734C412.339 186.734 413.469 185.605 413.469 184.211C413.469 182.817 412.339 181.687 410.945 181.687C409.552 181.687 408.422 182.817 408.422 184.211ZM47.9453 549.734C46.5516 549.734 45.4219 548.605 45.4219 547.211C45.4219 545.817 46.5516 544.687 47.9453 544.687C49.3389 544.687 50.4687 545.817 50.4687 547.211C50.4687 548.605 49.3389 549.734 47.9453 549.734ZM408.422 547.211C408.422 548.605 409.552 549.734 410.945 549.734C412.339 549.734 413.469 548.605 413.469 547.211C413.469 545.817 412.339 544.687 410.945 544.687C409.552 544.687 408.422 545.817 408.422 547.211ZM47.9453 232.156C46.5517 232.156 45.4219 231.026 45.4219 229.633C45.4219 228.239 46.5517 227.109 47.9453 227.109C49.3389 227.109 50.4687 228.239 50.4687 229.633C50.4687 231.026 49.3389 232.156 47.9453 232.156ZM408.422 229.633C408.422 231.026 409.552 232.156 410.945 232.156C412.339 232.156 413.469 231.026 413.469 229.633C413.469 228.239 412.339 227.109 410.945 227.109C409.552 227.109 408.422 228.239 408.422 229.633ZM47.9453 595.156C46.5516 595.156 45.4218 594.026 45.4218 592.633C45.4218 591.239 46.5516 590.109 47.9453 590.109C49.3389 590.109 50.4687 591.239 50.4687 592.633C50.4687 594.026 49.3389 595.156 47.9453 595.156ZM408.422 592.633C408.422 594.026 409.552 595.156 410.945 595.156C412.339 595.156 413.469 594.026 413.469 592.633C413.469 591.239 412.339 590.109 410.945 590.109C409.552 590.109 408.422 591.239 408.422 592.633ZM47.9453 277.578C46.5517 277.578 45.4219 276.448 45.4219 275.055C45.4219 273.661 46.5517 272.531 47.9453 272.531C49.3389 272.531 50.4687 273.661 50.4687 275.055C50.4687 276.448 49.3389 277.578 47.9453 277.578ZM408.422 275.055C408.422 276.448 409.552 277.578 410.945 277.578C412.339 277.578 413.469 276.448 413.469 275.055C413.469 273.661 412.339 272.531 410.945 272.531C409.552 272.531 408.422 273.661 408.422 275.055ZM47.9453 640.578C46.5516 640.578 45.4218 639.448 45.4218 638.055C45.4218 636.661 46.5516 635.531 47.9453 635.531C49.3389 635.531 50.4687 636.661 50.4687 638.055C50.4687 639.448 49.3389 640.578 47.9453 640.578ZM408.422 638.055C408.422 639.448 409.552 640.578 410.945 640.578C412.339 640.578 413.469 639.448 413.469 638.055C413.469 636.661 412.339 635.531 410.945 635.531C409.552 635.531 408.422 636.661 408.422 638.055ZM47.9453 323C46.5517 323 45.4219 321.87 45.4219 320.477C45.4219 319.083 46.5517 317.953 47.9453 317.953C49.3389 317.953 50.4687 319.083 50.4687 320.477C50.4687 321.87 49.3389 323 47.9453 323ZM408.422 320.477C408.422 321.87 409.552 323 410.945 323C412.339 323 413.469 321.87 413.469 320.477C413.469 319.083 412.339 317.953 410.945 317.953C409.552 317.953 408.422 319.083 408.422 320.477ZM47.9453 686C46.5516 686 45.4218 684.87 45.4218 683.477C45.4218 682.083 46.5516 680.953 47.9453 680.953C49.3389 680.953 50.4687 682.083 50.4687 683.477C50.4687 684.87 49.3389 686 47.9453 686ZM408.422 683.477C408.422 684.87 409.552 686 410.945 686C412.339 686 413.469 684.87 413.469 683.477C413.469 682.083 412.339 680.953 410.945 680.953C409.552 680.953 408.422 682.083 408.422 683.477ZM2.52344 5.04685C1.12976 5.04685 -1.71222e-07 3.91707 -1.10303e-07 2.52341C-4.93843e-08 1.12976 1.12976 -2.39803e-05 2.52344 -2.39193e-05C3.91711 -2.38584e-05 5.04687 1.12976 5.04687 2.52341C5.04687 3.91707 3.91711 5.04685 2.52344 5.04685ZM363 2.52343C363 3.91709 364.13 5.04687 365.523 5.04687C366.917 5.04687 368.047 3.91709 368.047 2.52343C368.047 1.12977 366.917 -7.9912e-06 365.523 -8.05212e-06C364.13 -8.11303e-06 363 1.12977 363 2.52343ZM2.52342 368.047C1.12974 368.047 -1.60385e-05 366.917 -1.59775e-05 365.523C-1.59166e-05 364.13 1.12974 363 2.52342 363C3.9171 363 5.04686 364.13 5.04686 365.523C5.04686 366.917 3.9171 368.047 2.52342 368.047ZM363 365.523C363 366.917 364.13 368.047 365.523 368.047C366.917 368.047 368.047 366.917 368.047 365.523C368.047 364.13 366.917 363 365.523 363C364.13 363 363 364.13 363 365.523ZM2.52344 50.4687C1.12976 50.4687 -2.15667e-06 49.3389 -2.09576e-06 47.9453C-2.03484e-06 46.5516 1.12976 45.4219 2.52344 45.4219C3.91711 45.4219 5.04687 46.5516 5.04687 47.9453C5.04687 49.3389 3.91711 50.4687 2.52344 50.4687ZM363 47.9453C363 49.339 364.13 50.4687 365.523 50.4687C366.917 50.4687 368.047 49.339 368.047 47.9453C368.047 46.5516 366.917 45.4219 365.523 45.4219C364.13 45.4219 363 46.5516 363 47.9453ZM2.52342 413.469C1.12974 413.469 -1.80239e-05 412.339 -1.7963e-05 410.945C-1.79021e-05 409.552 1.12974 408.422 2.52342 408.422C3.9171 408.422 5.04686 409.552 5.04686 410.945C5.04686 412.339 3.9171 413.469 2.52342 413.469ZM363 410.945C363 412.339 364.13 413.469 365.523 413.469C366.917 413.469 368.047 412.339 368.047 410.945C368.047 409.552 366.917 408.422 365.523 408.422C364.13 408.422 363 409.552 363 410.945ZM2.52343 95.8906C1.12976 95.8906 -4.14213e-06 94.7608 -4.08121e-06 93.3672C-4.02029e-06 91.9735 1.12976 90.8437 2.52343 90.8437C3.91711 90.8437 5.04687 91.9735 5.04687 93.3672C5.04687 94.7608 3.91711 95.8906 2.52343 95.8906ZM363 93.3672C363 94.7608 364.13 95.8906 365.523 95.8906C366.917 95.8906 368.047 94.7608 368.047 93.3672C368.047 91.9735 366.917 90.8437 365.523 90.8437C364.13 90.8437 363 91.9735 363 93.3672ZM2.52342 458.891C1.12974 458.891 -2.00094e-05 457.761 -1.99484e-05 456.367C-1.98875e-05 454.974 1.12974 453.844 2.52342 453.844C3.91709 453.844 5.04686 454.974 5.04686 456.367C5.04685 457.761 3.91709 458.891 2.52342 458.891ZM363 456.367C363 457.761 364.13 458.891 365.523 458.891C366.917 458.891 368.047 457.761 368.047 456.367C368.047 454.974 366.917 453.844 365.523 453.844C364.13 453.844 363 454.974 363 456.367ZM2.52343 141.312C1.12975 141.312 -6.12758e-06 140.183 -6.06666e-06 138.789C-6.00574e-06 137.395 1.12975 136.266 2.52343 136.266C3.91711 136.266 5.04687 137.395 5.04687 138.789C5.04687 140.183 3.91711 141.312 2.52343 141.312ZM363 138.789C363 140.183 364.13 141.312 365.523 141.312C366.917 141.312 368.047 140.183 368.047 138.789C368.047 137.395 366.917 136.266 365.523 136.266C364.13 136.266 363 137.395 363 138.789ZM2.52342 504.312C1.12974 504.312 -2.19948e-05 503.183 -2.19339e-05 501.789C-2.1873e-05 500.395 1.12974 499.266 2.52342 499.266C3.91709 499.266 5.04685 500.395 5.04685 501.789C5.04685 503.183 3.91709 504.312 2.52342 504.312ZM363 501.789C363 503.183 364.13 504.312 365.523 504.312C366.917 504.312 368.047 503.183 368.047 501.789C368.047 500.395 366.917 499.266 365.523 499.266C364.13 499.266 363 500.395 363 501.789ZM2.52343 186.734C1.12975 186.734 -8.11303e-06 185.605 -8.05212e-06 184.211C-7.9912e-06 182.817 1.12975 181.687 2.52343 181.687C3.91711 181.687 5.04687 182.817 5.04687 184.211C5.04687 185.605 3.91711 186.734 2.52343 186.734ZM363 184.211C363 185.605 364.13 186.734 365.523 186.734C366.917 186.734 368.047 185.605 368.047 184.211C368.047 182.817 366.917 181.687 365.523 181.687C364.13 181.687 363 182.817 363 184.211ZM2.52341 549.734C1.12974 549.734 -2.39803e-05 548.605 -2.39193e-05 547.211C-2.38584e-05 545.817 1.12974 544.687 2.52341 544.687C3.91709 544.687 5.04685 545.817 5.04685 547.211C5.04685 548.605 3.91709 549.734 2.52341 549.734ZM363 547.211C363 548.605 364.13 549.734 365.523 549.734C366.917 549.734 368.047 548.605 368.047 547.211C368.047 545.817 366.917 544.687 365.523 544.687C364.13 544.687 363 545.817 363 547.211ZM2.52343 232.156C1.12975 232.156 -1.00985e-05 231.026 -1.00376e-05 229.633C-9.97665e-06 228.239 1.12975 227.109 2.52343 227.109C3.9171 227.109 5.04687 228.239 5.04686 229.633C5.04686 231.026 3.9171 232.156 2.52343 232.156ZM363 229.633C363 231.026 364.13 232.156 365.523 232.156C366.917 232.156 368.047 231.026 368.047 229.633C368.047 228.239 366.917 227.109 365.523 227.109C364.13 227.109 363 228.239 363 229.633ZM2.52341 595.156C1.12973 595.156 -2.59657e-05 594.026 -2.59048e-05 592.633C-2.58439e-05 591.239 1.12973 590.109 2.52341 590.109C3.91709 590.109 5.04685 591.239 5.04685 592.633C5.04685 594.026 3.91709 595.156 2.52341 595.156ZM363 592.633C363 594.026 364.13 595.156 365.523 595.156C366.917 595.156 368.047 594.026 368.047 592.633C368.047 591.239 366.917 590.109 365.523 590.109C364.13 590.109 363 591.239 363 592.633ZM2.52343 277.578C1.12975 277.578 -1.20839e-05 276.448 -1.2023e-05 275.055C-1.19621e-05 273.661 1.12975 272.531 2.52343 272.531C3.9171 272.531 5.04686 273.661 5.04686 275.055C5.04686 276.448 3.9171 277.578 2.52343 277.578ZM363 275.055C363 276.448 364.13 277.578 365.523 277.578C366.917 277.578 368.047 276.448 368.047 275.055C368.047 273.661 366.917 272.531 365.523 272.531C364.13 272.531 363 273.661 363 275.055ZM2.52341 640.578C1.12973 640.578 -2.79512e-05 639.448 -2.78903e-05 638.055C-2.78293e-05 636.661 1.12973 635.531 2.52341 635.531C3.91709 635.531 5.04685 636.661 5.04685 638.055C5.04685 639.448 3.91709 640.578 2.52341 640.578ZM363 638.055C363 639.448 364.13 640.578 365.523 640.578C366.917 640.578 368.047 639.448 368.047 638.055C368.047 636.661 366.917 635.531 365.523 635.531C364.13 635.531 363 636.661 363 638.055ZM2.52342 323C1.12975 323 -1.40694e-05 321.87 -1.40085e-05 320.477C-1.39476e-05 319.083 1.12975 317.953 2.52342 317.953C3.9171 317.953 5.04686 319.083 5.04686 320.477C5.04686 321.87 3.9171 323 2.52342 323ZM363 320.477C363 321.87 364.13 323 365.523 323C366.917 323 368.047 321.87 368.047 320.477C368.047 319.083 366.917 317.953 365.523 317.953C364.13 317.953 363 319.083 363 320.477ZM2.52341 686C1.12973 686 -2.99366e-05 684.87 -2.98757e-05 683.477C-2.98148e-05 682.083 1.12973 680.953 2.52341 680.953C3.91708 680.953 5.04685 682.083 5.04685 683.477C5.04685 684.87 3.91708 686 2.52341 686ZM363 683.477C363 684.87 364.13 686 365.523 686C366.917 686 368.047 684.87 368.047 683.477C368.047 682.083 366.917 680.953 365.523 680.953C364.13 680.953 363 682.083 363 683.477ZM320.102 5.04686C318.708 5.04686 317.578 3.91708 317.578 2.52343C317.578 1.12977 318.708 -1.00985e-05 320.102 -1.00376e-05C321.495 -9.97665e-06 322.625 1.12977 322.625 2.52343C322.625 3.91708 321.495 5.04687 320.102 5.04686ZM317.578 365.523C317.578 366.917 318.708 368.047 320.102 368.047C321.495 368.047 322.625 366.917 322.625 365.523C322.625 364.13 321.495 363 320.102 363C318.708 363 317.578 364.13 317.578 365.523ZM320.102 50.4687C318.708 50.4687 317.578 49.339 317.578 47.9453C317.578 46.5516 318.708 45.4219 320.102 45.4219C321.495 45.4219 322.625 46.5516 322.625 47.9453C322.625 49.339 321.495 50.4687 320.102 50.4687ZM317.578 410.945C317.578 412.339 318.708 413.469 320.102 413.469C321.495 413.469 322.625 412.339 322.625 410.945C322.625 409.552 321.495 408.422 320.102 408.422C318.708 408.422 317.578 409.552 317.578 410.945ZM320.102 95.8906C318.708 95.8906 317.578 94.7608 317.578 93.3672C317.578 91.9735 318.708 90.8437 320.102 90.8437C321.495 90.8437 322.625 91.9735 322.625 93.3672C322.625 94.7608 321.495 95.8906 320.102 95.8906ZM317.578 456.367C317.578 457.761 318.708 458.891 320.102 458.891C321.495 458.891 322.625 457.761 322.625 456.367C322.625 454.974 321.495 453.844 320.102 453.844C318.708 453.844 317.578 454.974 317.578 456.367ZM320.102 141.312C318.708 141.312 317.578 140.183 317.578 138.789C317.578 137.395 318.708 136.266 320.102 136.266C321.495 136.266 322.625 137.395 322.625 138.789C322.625 140.183 321.495 141.312 320.102 141.312ZM317.578 501.789C317.578 503.183 318.708 504.312 320.102 504.312C321.495 504.312 322.625 503.183 322.625 501.789C322.625 500.395 321.495 499.266 320.102 499.266C318.708 499.266 317.578 500.395 317.578 501.789ZM320.102 186.734C318.708 186.734 317.578 185.605 317.578 184.211C317.578 182.817 318.708 181.687 320.102 181.687C321.495 181.687 322.625 182.817 322.625 184.211C322.625 185.605 321.495 186.734 320.102 186.734ZM317.578 547.211C317.578 548.605 318.708 549.734 320.102 549.734C321.495 549.734 322.625 548.605 322.625 547.211C322.625 545.817 321.495 544.687 320.102 544.687C318.708 544.687 317.578 545.817 317.578 547.211ZM320.102 232.156C318.708 232.156 317.578 231.026 317.578 229.633C317.578 228.239 318.708 227.109 320.102 227.109C321.495 227.109 322.625 228.239 322.625 229.633C322.625 231.026 321.495 232.156 320.102 232.156ZM317.578 592.633C317.578 594.026 318.708 595.156 320.102 595.156C321.495 595.156 322.625 594.026 322.625 592.633C322.625 591.239 321.495 590.109 320.102 590.109C318.708 590.109 317.578 591.239 317.578 592.633ZM320.102 277.578C318.708 277.578 317.578 276.448 317.578 275.055C317.578 273.661 318.708 272.531 320.102 272.531C321.495 272.531 322.625 273.661 322.625 275.055C322.625 276.448 321.495 277.578 320.102 277.578ZM317.578 638.055C317.578 639.448 318.708 640.578 320.102 640.578C321.495 640.578 322.625 639.448 322.625 638.055C322.625 636.661 321.495 635.531 320.102 635.531C318.708 635.531 317.578 636.661 317.578 638.055ZM320.102 323C318.708 323 317.578 321.87 317.578 320.477C317.578 319.083 318.708 317.953 320.102 317.953C321.495 317.953 322.625 319.083 322.625 320.477C322.625 321.87 321.495 323 320.102 323ZM317.578 683.477C317.578 684.87 318.708 686 320.102 686C321.495 686 322.625 684.87 322.625 683.477C322.625 682.083 321.495 680.953 320.102 680.953C318.708 680.953 317.578 682.083 317.578 683.477ZM274.68 5.04686C273.286 5.04686 272.156 3.91708 272.156 2.52343C272.156 1.12977 273.286 -1.20839e-05 274.68 -1.2023e-05C276.073 -1.19621e-05 277.203 1.12977 277.203 2.52343C277.203 3.91708 276.073 5.04686 274.68 5.04686ZM272.156 365.523C272.156 366.917 273.286 368.047 274.68 368.047C276.073 368.047 277.203 366.917 277.203 365.523C277.203 364.13 276.073 363 274.68 363C273.286 363 272.156 364.13 272.156 365.523ZM274.68 50.4687C273.286 50.4687 272.156 49.339 272.156 47.9453C272.156 46.5516 273.286 45.4219 274.68 45.4219C276.073 45.4219 277.203 46.5516 277.203 47.9453C277.203 49.339 276.073 50.4687 274.68 50.4687ZM272.156 410.945C272.156 412.339 273.286 413.469 274.68 413.469C276.073 413.469 277.203 412.339 277.203 410.945C277.203 409.552 276.073 408.422 274.68 408.422C273.286 408.422 272.156 409.552 272.156 410.945ZM274.68 95.8906C273.286 95.8906 272.156 94.7608 272.156 93.3672C272.156 91.9735 273.286 90.8437 274.68 90.8437C276.073 90.8437 277.203 91.9735 277.203 93.3672C277.203 94.7608 276.073 95.8906 274.68 95.8906ZM272.156 456.367C272.156 457.761 273.286 458.891 274.68 458.891C276.073 458.891 277.203 457.761 277.203 456.367C277.203 454.974 276.073 453.844 274.68 453.844C273.286 453.844 272.156 454.974 272.156 456.367ZM274.68 141.312C273.286 141.312 272.156 140.183 272.156 138.789C272.156 137.395 273.286 136.266 274.68 136.266C276.073 136.266 277.203 137.395 277.203 138.789C277.203 140.183 276.073 141.312 274.68 141.312ZM272.156 501.789C272.156 503.183 273.286 504.312 274.68 504.312C276.073 504.312 277.203 503.183 277.203 501.789C277.203 500.395 276.073 499.266 274.68 499.266C273.286 499.266 272.156 500.395 272.156 501.789ZM274.68 186.734C273.286 186.734 272.156 185.605 272.156 184.211C272.156 182.817 273.286 181.687 274.68 181.687C276.073 181.687 277.203 182.817 277.203 184.211C277.203 185.605 276.073 186.734 274.68 186.734ZM272.156 547.211C272.156 548.605 273.286 549.734 274.68 549.734C276.073 549.734 277.203 548.605 277.203 547.211C277.203 545.817 276.073 544.687 274.68 544.687C273.286 544.687 272.156 545.817 272.156 547.211ZM274.68 232.156C273.286 232.156 272.156 231.026 272.156 229.633C272.156 228.239 273.286 227.109 274.68 227.109C276.073 227.109 277.203 228.239 277.203 229.633C277.203 231.026 276.073 232.156 274.68 232.156ZM272.156 592.633C272.156 594.026 273.286 595.156 274.68 595.156C276.073 595.156 277.203 594.026 277.203 592.633C277.203 591.239 276.073 590.109 274.68 590.109C273.286 590.109 272.156 591.239 272.156 592.633ZM274.68 277.578C273.286 277.578 272.156 276.448 272.156 275.055C272.156 273.661 273.286 272.531 274.68 272.531C276.073 272.531 277.203 273.661 277.203 275.055C277.203 276.448 276.073 277.578 274.68 277.578ZM272.156 638.055C272.156 639.448 273.286 640.578 274.68 640.578C276.073 640.578 277.203 639.448 277.203 638.055C277.203 636.661 276.073 635.531 274.68 635.531C273.286 635.531 272.156 636.661 272.156 638.055ZM274.68 323C273.286 323 272.156 321.87 272.156 320.477C272.156 319.083 273.286 317.953 274.68 317.953C276.073 317.953 277.203 319.083 277.203 320.477C277.203 321.87 276.073 323 274.68 323ZM272.156 683.477C272.156 684.87 273.286 686 274.68 686C276.073 686 277.203 684.87 277.203 683.477C277.203 682.083 276.073 680.953 274.68 680.953C273.286 680.953 272.156 682.083 272.156 683.477ZM229.258 5.04686C227.864 5.04686 226.734 3.91708 226.734 2.52342C226.734 1.12977 227.864 -1.40694e-05 229.258 -1.40085e-05C230.651 -1.39476e-05 231.781 1.12977 231.781 2.52342C231.781 3.91708 230.651 5.04686 229.258 5.04686ZM226.734 365.523C226.734 366.917 227.864 368.047 229.258 368.047C230.651 368.047 231.781 366.917 231.781 365.523C231.781 364.13 230.651 363 229.258 363C227.864 363 226.734 364.13 226.734 365.523ZM229.258 50.4687C227.864 50.4687 226.734 49.339 226.734 47.9453C226.734 46.5516 227.864 45.4219 229.258 45.4219C230.651 45.4219 231.781 46.5516 231.781 47.9453C231.781 49.339 230.651 50.4687 229.258 50.4687ZM226.734 410.945C226.734 412.339 227.864 413.469 229.258 413.469C230.651 413.469 231.781 412.339 231.781 410.945C231.781 409.552 230.651 408.422 229.258 408.422C227.864 408.422 226.734 409.552 226.734 410.945ZM229.258 95.8906C227.864 95.8906 226.734 94.7608 226.734 93.3672C226.734 91.9735 227.864 90.8437 229.258 90.8437C230.651 90.8437 231.781 91.9735 231.781 93.3672C231.781 94.7608 230.651 95.8906 229.258 95.8906ZM226.734 456.367C226.734 457.761 227.864 458.891 229.258 458.891C230.651 458.891 231.781 457.761 231.781 456.367C231.781 454.974 230.651 453.844 229.258 453.844C227.864 453.844 226.734 454.974 226.734 456.367ZM229.258 141.312C227.864 141.312 226.734 140.183 226.734 138.789C226.734 137.395 227.864 136.266 229.258 136.266C230.651 136.266 231.781 137.395 231.781 138.789C231.781 140.183 230.651 141.312 229.258 141.312ZM226.734 501.789C226.734 503.183 227.864 504.312 229.258 504.312C230.651 504.312 231.781 503.183 231.781 501.789C231.781 500.395 230.651 499.266 229.258 499.266C227.864 499.266 226.734 500.395 226.734 501.789ZM229.258 186.734C227.864 186.734 226.734 185.605 226.734 184.211C226.734 182.817 227.864 181.687 229.258 181.687C230.651 181.687 231.781 182.817 231.781 184.211C231.781 185.605 230.651 186.734 229.258 186.734ZM226.734 547.211C226.734 548.605 227.864 549.734 229.258 549.734C230.651 549.734 231.781 548.605 231.781 547.211C231.781 545.817 230.651 544.687 229.258 544.687C227.864 544.687 226.734 545.817 226.734 547.211ZM229.258 232.156C227.864 232.156 226.734 231.026 226.734 229.633C226.734 228.239 227.864 227.109 229.258 227.109C230.651 227.109 231.781 228.239 231.781 229.633C231.781 231.026 230.651 232.156 229.258 232.156ZM226.734 592.633C226.734 594.026 227.864 595.156 229.258 595.156C230.651 595.156 231.781 594.026 231.781 592.633C231.781 591.239 230.651 590.109 229.258 590.109C227.864 590.109 226.734 591.239 226.734 592.633ZM229.258 277.578C227.864 277.578 226.734 276.448 226.734 275.055C226.734 273.661 227.864 272.531 229.258 272.531C230.651 272.531 231.781 273.661 231.781 275.055C231.781 276.448 230.651 277.578 229.258 277.578ZM226.734 638.055C226.734 639.448 227.864 640.578 229.258 640.578C230.651 640.578 231.781 639.448 231.781 638.055C231.781 636.661 230.651 635.531 229.258 635.531C227.864 635.531 226.734 636.661 226.734 638.055ZM229.258 323C227.864 323 226.734 321.87 226.734 320.477C226.734 319.083 227.864 317.953 229.258 317.953C230.651 317.953 231.781 319.083 231.781 320.477C231.781 321.87 230.651 323 229.258 323ZM226.734 683.477C226.734 684.87 227.864 686 229.258 686C230.651 686 231.781 684.87 231.781 683.477C231.781 682.083 230.651 680.953 229.258 680.953C227.864 680.953 226.734 682.083 226.734 683.477Z" fill="url(#paint0_linear_26_1008)"/>
<defs>
<linearGradient id="paint0_linear_26_1008" x1="38" y1="343" x2="549.734" y2="343" gradientUnits="userSpaceOnUse">
<stop stop-color="#FFEE14"/>
<stop offset="1" stop-color="#FFEE14" stop-opacity="0"/>
</linearGradient>
</defs>
</svg>
