<svg width="44" height="44" viewBox="0 0 44 44" fill="none" xmlns="http://www.w3.org/2000/svg">
<g opacity="0.5">
<path d="M29.3333 33C30.3058 33 31.2384 33.3864 31.9261 34.074C32.6137 34.7616 33 35.6942 33 36.6667C33 35.6942 33.3863 34.7616 34.0739 34.074C34.7616 33.3864 35.6942 33 36.6667 33C35.6942 33 34.7616 32.6137 34.0739 31.9261C33.3863 31.2385 33 30.3058 33 29.3334C33 30.3058 32.6137 31.2385 31.9261 31.9261C31.2384 32.6137 30.3058 33 29.3333 33ZM29.3333 11C30.3058 11 31.2384 11.3863 31.9261 12.074C32.6137 12.7616 33 13.6942 33 14.6667C33 13.6942 33.3863 12.7616 34.0739 12.074C34.7616 11.3863 35.6942 11 36.6667 11C35.6942 11 34.7616 10.6137 34.0739 9.9261C33.3863 9.23847 33 8.30583 33 7.33337C33 8.30583 32.6137 9.23847 31.9261 9.9261C31.2384 10.6137 30.3058 11 29.3333 11ZM16.5 33C16.5 30.0827 17.6589 27.2848 19.7218 25.2219C21.7847 23.159 24.5826 22 27.5 22C24.5826 22 21.7847 20.8411 19.7218 18.7782C17.6589 16.7153 16.5 13.9174 16.5 11C16.5 13.9174 15.3411 16.7153 13.2782 18.7782C11.2153 20.8411 8.41738 22 5.5 22C8.41738 22 11.2153 23.159 13.2782 25.2219C15.3411 27.2848 16.5 30.0827 16.5 33Z" stroke="#343057" stroke-linecap="round" stroke-linejoin="round"/>
</g>
</svg>
