<svg width="686" height="550" viewBox="0 0 686 550" fill="none" xmlns="http://www.w3.org/2000/svg">
<path fill-rule="evenodd" clip-rule="evenodd" d="M2.52344 5.04688C3.91709 5.04688 5.04688 3.91709 5.04688 2.52344C5.04688 1.12978 3.91709 0 2.52344 0C1.12978 0 0 1.12978 0 2.52344C0 3.91709 1.12978 5.04688 2.52344 5.04688ZM2.52344 368.047C3.91709 368.047 5.04688 366.917 5.04688 365.523C5.04688 364.13 3.91709 363 2.52344 363C1.12978 363 0 364.13 0 365.523C0 366.917 1.12978 368.047 2.52344 368.047ZM368.047 365.523C368.047 366.917 366.917 368.047 365.523 368.047C364.13 368.047 363 366.917 363 365.523C363 364.13 364.13 363 365.523 363C366.917 363 368.047 364.13 368.047 365.523ZM365.523 5.04688C366.917 5.04688 368.047 3.91709 368.047 2.52344C368.047 1.12978 366.917 0 365.523 0C364.13 0 363 1.12978 363 2.52344C363 3.91709 364.13 5.04688 365.523 5.04688ZM50.4688 365.523C50.4688 366.917 49.339 368.047 47.9453 368.047C46.5517 368.047 45.4219 366.917 45.4219 365.523C45.4219 364.13 46.5517 363 47.9453 363C49.339 363 50.4688 364.13 50.4688 365.523ZM47.9453 5.04688C49.339 5.04688 50.4688 3.91709 50.4688 2.52344C50.4688 1.12978 49.339 0 47.9453 0C46.5517 0 45.4219 1.12978 45.4219 2.52344C45.4219 3.91709 46.5517 5.04688 47.9453 5.04688ZM413.469 365.523C413.469 366.917 412.339 368.047 410.945 368.047C409.552 368.047 408.422 366.917 408.422 365.523C408.422 364.13 409.552 363 410.945 363C412.339 363 413.469 364.13 413.469 365.523ZM410.945 5.04688C412.339 5.04688 413.469 3.91709 413.469 2.52344C413.469 1.12978 412.339 0 410.945 0C409.552 0 408.422 1.12978 408.422 2.52344C408.422 3.91709 409.552 5.04688 410.945 5.04688ZM95.8906 365.523C95.8906 366.917 94.7608 368.047 93.3672 368.047C91.9735 368.047 90.8438 366.917 90.8438 365.523C90.8438 364.13 91.9735 363 93.3672 363C94.7608 363 95.8906 364.13 95.8906 365.523ZM93.3672 5.04688C94.7608 5.04688 95.8906 3.91709 95.8906 2.52344C95.8906 1.12978 94.7608 0 93.3672 0C91.9735 0 90.8438 1.12978 90.8438 2.52344C90.8438 3.91709 91.9735 5.04688 93.3672 5.04688ZM458.891 365.523C458.891 366.917 457.761 368.047 456.367 368.047C454.974 368.047 453.844 366.917 453.844 365.523C453.844 364.13 454.974 363 456.367 363C457.761 363 458.891 364.13 458.891 365.523ZM456.367 5.04688C457.761 5.04688 458.891 3.91709 458.891 2.52344C458.891 1.12978 457.761 0 456.367 0C454.974 0 453.844 1.12978 453.844 2.52344C453.844 3.91709 454.974 5.04688 456.367 5.04688ZM141.312 365.523C141.312 366.917 140.183 368.047 138.789 368.047C137.395 368.047 136.266 366.917 136.266 365.523C136.266 364.13 137.395 363 138.789 363C140.183 363 141.312 364.13 141.312 365.523ZM138.789 5.04688C140.183 5.04688 141.312 3.91709 141.312 2.52344C141.312 1.12978 140.183 0 138.789 0C137.395 0 136.266 1.12978 136.266 2.52344C136.266 3.91709 137.395 5.04688 138.789 5.04688ZM504.312 365.523C504.312 366.917 503.183 368.047 501.789 368.047C500.395 368.047 499.266 366.917 499.266 365.523C499.266 364.13 500.395 363 501.789 363C503.183 363 504.312 364.13 504.312 365.523ZM501.789 5.04688C503.183 5.04688 504.312 3.91709 504.312 2.52344C504.312 1.12978 503.183 0 501.789 0C500.395 0 499.266 1.12978 499.266 2.52344C499.266 3.91709 500.395 5.04688 501.789 5.04688ZM186.734 365.523C186.734 366.917 185.605 368.047 184.211 368.047C182.817 368.047 181.688 366.917 181.688 365.523C181.688 364.13 182.817 363 184.211 363C185.605 363 186.734 364.13 186.734 365.523ZM184.211 5.04688C185.605 5.04688 186.734 3.91709 186.734 2.52344C186.734 1.12978 185.605 0 184.211 0C182.817 0 181.688 1.12978 181.688 2.52344C181.688 3.91709 182.817 5.04688 184.211 5.04688ZM549.734 365.523C549.734 366.917 548.605 368.047 547.211 368.047C545.817 368.047 544.688 366.917 544.688 365.523C544.688 364.13 545.817 363 547.211 363C548.605 363 549.734 364.13 549.734 365.523ZM547.211 5.04688C548.605 5.04688 549.734 3.91709 549.734 2.52344C549.734 1.12978 548.605 0 547.211 0C545.817 0 544.688 1.12978 544.688 2.52344C544.688 3.91709 545.817 5.04688 547.211 5.04688ZM232.156 365.523C232.156 366.917 231.026 368.047 229.633 368.047C228.239 368.047 227.109 366.917 227.109 365.523C227.109 364.13 228.239 363 229.633 363C231.026 363 232.156 364.13 232.156 365.523ZM229.633 5.04688C231.026 5.04688 232.156 3.91709 232.156 2.52344C232.156 1.12978 231.026 0 229.633 0C228.239 0 227.109 1.12978 227.109 2.52344C227.109 3.91709 228.239 5.04688 229.633 5.04688ZM595.156 365.523C595.156 366.917 594.026 368.047 592.633 368.047C591.239 368.047 590.109 366.917 590.109 365.523C590.109 364.13 591.239 363 592.633 363C594.026 363 595.156 364.13 595.156 365.523ZM592.633 5.04688C594.026 5.04688 595.156 3.91709 595.156 2.52344C595.156 1.12978 594.026 0 592.633 0C591.239 0 590.109 1.12978 590.109 2.52344C590.109 3.91709 591.239 5.04688 592.633 5.04688ZM277.578 365.523C277.578 366.917 276.448 368.047 275.055 368.047C273.661 368.047 272.531 366.917 272.531 365.523C272.531 364.13 273.661 363 275.055 363C276.448 363 277.578 364.13 277.578 365.523ZM275.055 5.04688C276.448 5.04688 277.578 3.91709 277.578 2.52344C277.578 1.12978 276.448 0 275.055 0C273.661 0 272.531 1.12978 272.531 2.52344C272.531 3.91709 273.661 5.04688 275.055 5.04688ZM640.578 365.523C640.578 366.917 639.448 368.047 638.055 368.047C636.661 368.047 635.531 366.917 635.531 365.523C635.531 364.13 636.661 363 638.055 363C639.448 363 640.578 364.13 640.578 365.523ZM638.055 5.04688C639.448 5.04688 640.578 3.91709 640.578 2.52344C640.578 1.12978 639.448 0 638.055 0C636.661 0 635.531 1.12978 635.531 2.52344C635.531 3.91709 636.661 5.04688 638.055 5.04688ZM323 365.523C323 366.917 321.87 368.047 320.477 368.047C319.083 368.047 317.953 366.917 317.953 365.523C317.953 364.13 319.083 363 320.477 363C321.87 363 323 364.13 323 365.523ZM320.477 5.04688C321.87 5.04688 323 3.91709 323 2.52344C323 1.12978 321.87 0 320.477 0C319.083 0 317.953 1.12978 317.953 2.52344C317.953 3.91709 319.083 5.04688 320.477 5.04688ZM686 365.523C686 366.917 684.87 368.047 683.477 368.047C682.083 368.047 680.953 366.917 680.953 365.523C680.953 364.13 682.083 363 683.477 363C684.87 363 686 364.13 686 365.523ZM683.477 5.04688C684.87 5.04688 686 3.91709 686 2.52344C686 1.12978 684.87 0 683.477 0C682.083 0 680.953 1.12978 680.953 2.52344C680.953 3.91709 682.083 5.04688 683.477 5.04688ZM5.04688 410.945C5.04688 412.339 3.91709 413.469 2.52344 413.469C1.12978 413.469 0 412.339 0 410.945C0 409.552 1.12978 408.422 2.52344 408.422C3.91709 408.422 5.04688 409.552 5.04688 410.945ZM2.52344 50.4688C3.91709 50.4688 5.04688 49.339 5.04688 47.9453C5.04688 46.5517 3.91709 45.4219 2.52344 45.4219C1.12978 45.4219 0 46.5517 0 47.9453C0 49.339 1.12978 50.4688 2.52344 50.4688ZM368.047 410.945C368.047 412.339 366.917 413.469 365.523 413.469C364.13 413.469 363 412.339 363 410.945C363 409.552 364.13 408.422 365.523 408.422C366.917 408.422 368.047 409.552 368.047 410.945ZM365.523 50.4688C366.917 50.4688 368.047 49.339 368.047 47.9453C368.047 46.5517 366.917 45.4219 365.523 45.4219C364.13 45.4219 363 46.5517 363 47.9453C363 49.339 364.13 50.4688 365.523 50.4688ZM50.4688 410.945C50.4688 412.339 49.339 413.469 47.9453 413.469C46.5517 413.469 45.4219 412.339 45.4219 410.945C45.4219 409.552 46.5517 408.422 47.9453 408.422C49.339 408.422 50.4688 409.552 50.4688 410.945ZM47.9453 50.4688C49.339 50.4688 50.4688 49.339 50.4688 47.9453C50.4688 46.5517 49.339 45.4219 47.9453 45.4219C46.5517 45.4219 45.4219 46.5517 45.4219 47.9453C45.4219 49.339 46.5517 50.4688 47.9453 50.4688ZM413.469 410.945C413.469 412.339 412.339 413.469 410.945 413.469C409.552 413.469 408.422 412.339 408.422 410.945C408.422 409.552 409.552 408.422 410.945 408.422C412.339 408.422 413.469 409.552 413.469 410.945ZM410.945 50.4688C412.339 50.4688 413.469 49.339 413.469 47.9453C413.469 46.5517 412.339 45.4219 410.945 45.4219C409.552 45.4219 408.422 46.5517 408.422 47.9453C408.422 49.339 409.552 50.4688 410.945 50.4688ZM95.8906 410.945C95.8906 412.339 94.7608 413.469 93.3672 413.469C91.9735 413.469 90.8438 412.339 90.8438 410.945C90.8438 409.552 91.9735 408.422 93.3672 408.422C94.7608 408.422 95.8906 409.552 95.8906 410.945ZM93.3672 50.4688C94.7608 50.4688 95.8906 49.339 95.8906 47.9453C95.8906 46.5517 94.7608 45.4219 93.3672 45.4219C91.9735 45.4219 90.8438 46.5517 90.8438 47.9453C90.8438 49.339 91.9735 50.4688 93.3672 50.4688ZM458.891 410.945C458.891 412.339 457.761 413.469 456.367 413.469C454.974 413.469 453.844 412.339 453.844 410.945C453.844 409.552 454.974 408.422 456.367 408.422C457.761 408.422 458.891 409.552 458.891 410.945ZM456.367 50.4688C457.761 50.4688 458.891 49.339 458.891 47.9453C458.891 46.5517 457.761 45.4219 456.367 45.4219C454.974 45.4219 453.844 46.5517 453.844 47.9453C453.844 49.339 454.974 50.4688 456.367 50.4688ZM141.312 410.945C141.312 412.339 140.183 413.469 138.789 413.469C137.395 413.469 136.266 412.339 136.266 410.945C136.266 409.552 137.395 408.422 138.789 408.422C140.183 408.422 141.312 409.552 141.312 410.945ZM138.789 50.4688C140.183 50.4688 141.312 49.339 141.312 47.9453C141.312 46.5517 140.183 45.4219 138.789 45.4219C137.395 45.4219 136.266 46.5517 136.266 47.9453C136.266 49.339 137.395 50.4688 138.789 50.4688ZM504.312 410.945C504.312 412.339 503.183 413.469 501.789 413.469C500.395 413.469 499.266 412.339 499.266 410.945C499.266 409.552 500.395 408.422 501.789 408.422C503.183 408.422 504.312 409.552 504.312 410.945ZM501.789 50.4688C503.183 50.4688 504.312 49.339 504.312 47.9453C504.312 46.5517 503.183 45.4219 501.789 45.4219C500.395 45.4219 499.266 46.5517 499.266 47.9453C499.266 49.339 500.395 50.4688 501.789 50.4688ZM186.734 410.945C186.734 412.339 185.605 413.469 184.211 413.469C182.817 413.469 181.688 412.339 181.688 410.945C181.688 409.552 182.817 408.422 184.211 408.422C185.605 408.422 186.734 409.552 186.734 410.945ZM184.211 50.4688C185.605 50.4688 186.734 49.339 186.734 47.9453C186.734 46.5517 185.605 45.4219 184.211 45.4219C182.817 45.4219 181.688 46.5517 181.688 47.9453C181.688 49.339 182.817 50.4688 184.211 50.4688ZM549.734 410.945C549.734 412.339 548.605 413.469 547.211 413.469C545.817 413.469 544.688 412.339 544.688 410.945C544.688 409.552 545.817 408.422 547.211 408.422C548.605 408.422 549.734 409.552 549.734 410.945ZM547.211 50.4688C548.605 50.4688 549.734 49.339 549.734 47.9453C549.734 46.5517 548.605 45.4219 547.211 45.4219C545.817 45.4219 544.688 46.5517 544.688 47.9453C544.688 49.339 545.817 50.4688 547.211 50.4688ZM232.156 410.945C232.156 412.339 231.026 413.469 229.633 413.469C228.239 413.469 227.109 412.339 227.109 410.945C227.109 409.552 228.239 408.422 229.633 408.422C231.026 408.422 232.156 409.552 232.156 410.945ZM229.633 50.4688C231.026 50.4688 232.156 49.339 232.156 47.9453C232.156 46.5517 231.026 45.4219 229.633 45.4219C228.239 45.4219 227.109 46.5517 227.109 47.9453C227.109 49.339 228.239 50.4688 229.633 50.4688ZM595.156 410.945C595.156 412.339 594.026 413.469 592.633 413.469C591.239 413.469 590.109 412.339 590.109 410.945C590.109 409.552 591.239 408.422 592.633 408.422C594.026 408.422 595.156 409.552 595.156 410.945ZM592.633 50.4688C594.026 50.4688 595.156 49.339 595.156 47.9453C595.156 46.5517 594.026 45.4219 592.633 45.4219C591.239 45.4219 590.109 46.5517 590.109 47.9453C590.109 49.339 591.239 50.4688 592.633 50.4688ZM277.578 410.945C277.578 412.339 276.448 413.469 275.055 413.469C273.661 413.469 272.531 412.339 272.531 410.945C272.531 409.552 273.661 408.422 275.055 408.422C276.448 408.422 277.578 409.552 277.578 410.945ZM275.055 50.4688C276.448 50.4688 277.578 49.339 277.578 47.9453C277.578 46.5517 276.448 45.4219 275.055 45.4219C273.661 45.4219 272.531 46.5517 272.531 47.9453C272.531 49.339 273.661 50.4688 275.055 50.4688ZM640.578 410.945C640.578 412.339 639.448 413.469 638.055 413.469C636.661 413.469 635.531 412.339 635.531 410.945C635.531 409.552 636.661 408.422 638.055 408.422C639.448 408.422 640.578 409.552 640.578 410.945ZM638.055 50.4688C639.448 50.4688 640.578 49.339 640.578 47.9453C640.578 46.5517 639.448 45.4219 638.055 45.4219C636.661 45.4219 635.531 46.5517 635.531 47.9453C635.531 49.339 636.661 50.4688 638.055 50.4688ZM323 410.945C323 412.339 321.87 413.469 320.477 413.469C319.083 413.469 317.953 412.339 317.953 410.945C317.953 409.552 319.083 408.422 320.477 408.422C321.87 408.422 323 409.552 323 410.945ZM320.477 50.4688C321.87 50.4688 323 49.339 323 47.9453C323 46.5517 321.87 45.4219 320.477 45.4219C319.083 45.4219 317.953 46.5517 317.953 47.9453C317.953 49.339 319.083 50.4688 320.477 50.4688ZM686 410.945C686 412.339 684.87 413.469 683.477 413.469C682.083 413.469 680.953 412.339 680.953 410.945C680.953 409.552 682.083 408.422 683.477 408.422C684.87 408.422 686 409.552 686 410.945ZM683.477 50.4688C684.87 50.4688 686 49.339 686 47.9453C686 46.5517 684.87 45.4219 683.477 45.4219C682.083 45.4219 680.953 46.5517 680.953 47.9453C680.953 49.339 682.083 50.4688 683.477 50.4688ZM5.04688 456.367C5.04688 457.761 3.91709 458.891 2.52344 458.891C1.12978 458.891 0 457.761 0 456.367C0 454.974 1.12978 453.844 2.52344 453.844C3.91709 453.844 5.04688 454.974 5.04688 456.367ZM2.52344 95.8906C3.91709 95.8906 5.04688 94.7608 5.04688 93.3672C5.04688 91.9735 3.91709 90.8438 2.52344 90.8438C1.12978 90.8438 0 91.9735 0 93.3672C0 94.7608 1.12978 95.8906 2.52344 95.8906ZM368.047 456.367C368.047 457.761 366.917 458.891 365.523 458.891C364.13 458.891 363 457.761 363 456.367C363 454.974 364.13 453.844 365.523 453.844C366.917 453.844 368.047 454.974 368.047 456.367ZM365.523 95.8906C366.917 95.8906 368.047 94.7608 368.047 93.3672C368.047 91.9735 366.917 90.8438 365.523 90.8438C364.13 90.8438 363 91.9735 363 93.3672C363 94.7608 364.13 95.8906 365.523 95.8906ZM50.4688 456.367C50.4688 457.761 49.339 458.891 47.9453 458.891C46.5517 458.891 45.4219 457.761 45.4219 456.367C45.4219 454.974 46.5517 453.844 47.9453 453.844C49.339 453.844 50.4688 454.974 50.4688 456.367ZM47.9453 95.8906C49.339 95.8906 50.4688 94.7608 50.4688 93.3672C50.4688 91.9735 49.339 90.8438 47.9453 90.8438C46.5517 90.8438 45.4219 91.9735 45.4219 93.3672C45.4219 94.7608 46.5517 95.8906 47.9453 95.8906ZM413.469 456.367C413.469 457.761 412.339 458.891 410.945 458.891C409.552 458.891 408.422 457.761 408.422 456.367C408.422 454.974 409.552 453.844 410.945 453.844C412.339 453.844 413.469 454.974 413.469 456.367ZM410.945 95.8906C412.339 95.8906 413.469 94.7608 413.469 93.3672C413.469 91.9735 412.339 90.8438 410.945 90.8438C409.552 90.8438 408.422 91.9735 408.422 93.3672C408.422 94.7608 409.552 95.8906 410.945 95.8906ZM95.8906 456.367C95.8906 457.761 94.7608 458.891 93.3672 458.891C91.9735 458.891 90.8438 457.761 90.8438 456.367C90.8438 454.974 91.9735 453.844 93.3672 453.844C94.7608 453.844 95.8906 454.974 95.8906 456.367ZM93.3672 95.8906C94.7608 95.8906 95.8906 94.7608 95.8906 93.3672C95.8906 91.9735 94.7608 90.8438 93.3672 90.8438C91.9735 90.8438 90.8438 91.9735 90.8438 93.3672C90.8438 94.7608 91.9735 95.8906 93.3672 95.8906ZM458.891 456.367C458.891 457.761 457.761 458.891 456.367 458.891C454.974 458.891 453.844 457.761 453.844 456.367C453.844 454.974 454.974 453.844 456.367 453.844C457.761 453.844 458.891 454.974 458.891 456.367ZM456.367 95.8906C457.761 95.8906 458.891 94.7608 458.891 93.3672C458.891 91.9735 457.761 90.8438 456.367 90.8438C454.974 90.8438 453.844 91.9735 453.844 93.3672C453.844 94.7608 454.974 95.8906 456.367 95.8906ZM141.312 456.367C141.312 457.761 140.183 458.891 138.789 458.891C137.395 458.891 136.266 457.761 136.266 456.367C136.266 454.974 137.395 453.844 138.789 453.844C140.183 453.844 141.312 454.974 141.312 456.367ZM138.789 95.8906C140.183 95.8906 141.312 94.7608 141.312 93.3672C141.312 91.9735 140.183 90.8438 138.789 90.8438C137.395 90.8438 136.266 91.9735 136.266 93.3672C136.266 94.7608 137.395 95.8906 138.789 95.8906ZM504.312 456.367C504.312 457.761 503.183 458.891 501.789 458.891C500.395 458.891 499.266 457.761 499.266 456.367C499.266 454.974 500.395 453.844 501.789 453.844C503.183 453.844 504.312 454.974 504.312 456.367ZM501.789 95.8906C503.183 95.8906 504.312 94.7608 504.312 93.3672C504.312 91.9735 503.183 90.8438 501.789 90.8438C500.395 90.8438 499.266 91.9735 499.266 93.3672C499.266 94.7608 500.395 95.8906 501.789 95.8906ZM186.734 456.367C186.734 457.761 185.605 458.891 184.211 458.891C182.817 458.891 181.688 457.761 181.688 456.367C181.688 454.974 182.817 453.844 184.211 453.844C185.605 453.844 186.734 454.974 186.734 456.367ZM184.211 95.8906C185.605 95.8906 186.734 94.7608 186.734 93.3672C186.734 91.9735 185.605 90.8438 184.211 90.8438C182.817 90.8438 181.688 91.9735 181.688 93.3672C181.688 94.7608 182.817 95.8906 184.211 95.8906ZM549.734 456.367C549.734 457.761 548.605 458.891 547.211 458.891C545.817 458.891 544.688 457.761 544.688 456.367C544.688 454.974 545.817 453.844 547.211 453.844C548.605 453.844 549.734 454.974 549.734 456.367ZM547.211 95.8906C548.605 95.8906 549.734 94.7608 549.734 93.3672C549.734 91.9735 548.605 90.8438 547.211 90.8438C545.817 90.8438 544.688 91.9735 544.688 93.3672C544.688 94.7608 545.817 95.8906 547.211 95.8906ZM232.156 456.367C232.156 457.761 231.026 458.891 229.633 458.891C228.239 458.891 227.109 457.761 227.109 456.367C227.109 454.974 228.239 453.844 229.633 453.844C231.026 453.844 232.156 454.974 232.156 456.367ZM229.633 95.8906C231.026 95.8906 232.156 94.7608 232.156 93.3672C232.156 91.9735 231.026 90.8438 229.633 90.8438C228.239 90.8438 227.109 91.9735 227.109 93.3672C227.109 94.7608 228.239 95.8906 229.633 95.8906ZM595.156 456.367C595.156 457.761 594.026 458.891 592.633 458.891C591.239 458.891 590.109 457.761 590.109 456.367C590.109 454.974 591.239 453.844 592.633 453.844C594.026 453.844 595.156 454.974 595.156 456.367ZM592.633 95.8906C594.026 95.8906 595.156 94.7608 595.156 93.3672C595.156 91.9735 594.026 90.8438 592.633 90.8438C591.239 90.8438 590.109 91.9735 590.109 93.3672C590.109 94.7608 591.239 95.8906 592.633 95.8906ZM277.578 456.367C277.578 457.761 276.448 458.891 275.055 458.891C273.661 458.891 272.531 457.761 272.531 456.367C272.531 454.974 273.661 453.844 275.055 453.844C276.448 453.844 277.578 454.974 277.578 456.367ZM275.055 95.8906C276.448 95.8906 277.578 94.7608 277.578 93.3672C277.578 91.9735 276.448 90.8438 275.055 90.8438C273.661 90.8438 272.531 91.9735 272.531 93.3672C272.531 94.7608 273.661 95.8906 275.055 95.8906ZM640.578 456.367C640.578 457.761 639.448 458.891 638.055 458.891C636.661 458.891 635.531 457.761 635.531 456.367C635.531 454.974 636.661 453.844 638.055 453.844C639.448 453.844 640.578 454.974 640.578 456.367ZM638.055 95.8906C639.448 95.8906 640.578 94.7608 640.578 93.3672C640.578 91.9735 639.448 90.8438 638.055 90.8438C636.661 90.8438 635.531 91.9735 635.531 93.3672C635.531 94.7608 636.661 95.8906 638.055 95.8906ZM323 456.367C323 457.761 321.87 458.891 320.477 458.891C319.083 458.891 317.953 457.761 317.953 456.367C317.953 454.974 319.083 453.844 320.477 453.844C321.87 453.844 323 454.974 323 456.367ZM320.477 95.8906C321.87 95.8906 323 94.7608 323 93.3672C323 91.9735 321.87 90.8438 320.477 90.8438C319.083 90.8438 317.953 91.9735 317.953 93.3672C317.953 94.7608 319.083 95.8906 320.477 95.8906ZM686 456.367C686 457.761 684.87 458.891 683.477 458.891C682.083 458.891 680.953 457.761 680.953 456.367C680.953 454.974 682.083 453.844 683.477 453.844C684.87 453.844 686 454.974 686 456.367ZM683.477 95.8906C684.87 95.8906 686 94.7608 686 93.3672C686 91.9735 684.87 90.8438 683.477 90.8438C682.083 90.8438 680.953 91.9735 680.953 93.3672C680.953 94.7608 682.083 95.8906 683.477 95.8906ZM5.04688 501.789C5.04688 503.183 3.91709 504.312 2.52344 504.312C1.12978 504.312 0 503.183 0 501.789C0 500.395 1.12978 499.266 2.52344 499.266C3.91709 499.266 5.04688 500.395 5.04688 501.789ZM2.52344 141.312C3.91709 141.312 5.04688 140.183 5.04688 138.789C5.04688 137.395 3.91709 136.266 2.52344 136.266C1.12978 136.266 0 137.395 0 138.789C0 140.183 1.12978 141.312 2.52344 141.312ZM368.047 501.789C368.047 503.183 366.917 504.312 365.523 504.312C364.13 504.312 363 503.183 363 501.789C363 500.395 364.13 499.266 365.523 499.266C366.917 499.266 368.047 500.395 368.047 501.789ZM365.523 141.312C366.917 141.312 368.047 140.183 368.047 138.789C368.047 137.395 366.917 136.266 365.523 136.266C364.13 136.266 363 137.395 363 138.789C363 140.183 364.13 141.312 365.523 141.312ZM50.4688 501.789C50.4688 503.183 49.339 504.312 47.9453 504.312C46.5517 504.312 45.4219 503.183 45.4219 501.789C45.4219 500.395 46.5517 499.266 47.9453 499.266C49.339 499.266 50.4688 500.395 50.4688 501.789ZM47.9453 141.312C49.339 141.312 50.4688 140.183 50.4688 138.789C50.4688 137.395 49.339 136.266 47.9453 136.266C46.5517 136.266 45.4219 137.395 45.4219 138.789C45.4219 140.183 46.5517 141.312 47.9453 141.312ZM413.469 501.789C413.469 503.183 412.339 504.312 410.945 504.312C409.552 504.312 408.422 503.183 408.422 501.789C408.422 500.395 409.552 499.266 410.945 499.266C412.339 499.266 413.469 500.395 413.469 501.789ZM410.945 141.312C412.339 141.312 413.469 140.183 413.469 138.789C413.469 137.395 412.339 136.266 410.945 136.266C409.552 136.266 408.422 137.395 408.422 138.789C408.422 140.183 409.552 141.312 410.945 141.312ZM95.8906 501.789C95.8906 503.183 94.7608 504.312 93.3672 504.312C91.9735 504.312 90.8438 503.183 90.8438 501.789C90.8438 500.395 91.9735 499.266 93.3672 499.266C94.7608 499.266 95.8906 500.395 95.8906 501.789ZM93.3672 141.312C94.7608 141.312 95.8906 140.183 95.8906 138.789C95.8906 137.395 94.7608 136.266 93.3672 136.266C91.9735 136.266 90.8438 137.395 90.8438 138.789C90.8438 140.183 91.9735 141.312 93.3672 141.312ZM458.891 501.789C458.891 503.183 457.761 504.312 456.367 504.312C454.974 504.312 453.844 503.183 453.844 501.789C453.844 500.395 454.974 499.266 456.367 499.266C457.761 499.266 458.891 500.395 458.891 501.789ZM456.367 141.312C457.761 141.312 458.891 140.183 458.891 138.789C458.891 137.395 457.761 136.266 456.367 136.266C454.974 136.266 453.844 137.395 453.844 138.789C453.844 140.183 454.974 141.312 456.367 141.312ZM141.312 501.789C141.312 503.183 140.183 504.312 138.789 504.312C137.395 504.312 136.266 503.183 136.266 501.789C136.266 500.395 137.395 499.266 138.789 499.266C140.183 499.266 141.312 500.395 141.312 501.789ZM138.789 141.312C140.183 141.312 141.312 140.183 141.312 138.789C141.312 137.395 140.183 136.266 138.789 136.266C137.395 136.266 136.266 137.395 136.266 138.789C136.266 140.183 137.395 141.312 138.789 141.312ZM504.312 501.789C504.312 503.183 503.183 504.312 501.789 504.312C500.395 504.312 499.266 503.183 499.266 501.789C499.266 500.395 500.395 499.266 501.789 499.266C503.183 499.266 504.312 500.395 504.312 501.789ZM501.789 141.312C503.183 141.312 504.312 140.183 504.312 138.789C504.312 137.395 503.183 136.266 501.789 136.266C500.395 136.266 499.266 137.395 499.266 138.789C499.266 140.183 500.395 141.312 501.789 141.312ZM186.734 501.789C186.734 503.183 185.605 504.312 184.211 504.312C182.817 504.312 181.688 503.183 181.688 501.789C181.688 500.395 182.817 499.266 184.211 499.266C185.605 499.266 186.734 500.395 186.734 501.789ZM184.211 141.312C185.605 141.312 186.734 140.183 186.734 138.789C186.734 137.395 185.605 136.266 184.211 136.266C182.817 136.266 181.688 137.395 181.688 138.789C181.688 140.183 182.817 141.312 184.211 141.312ZM549.734 501.789C549.734 503.183 548.605 504.312 547.211 504.312C545.817 504.312 544.688 503.183 544.688 501.789C544.688 500.395 545.817 499.266 547.211 499.266C548.605 499.266 549.734 500.395 549.734 501.789ZM547.211 141.312C548.605 141.312 549.734 140.183 549.734 138.789C549.734 137.395 548.605 136.266 547.211 136.266C545.817 136.266 544.688 137.395 544.688 138.789C544.688 140.183 545.817 141.312 547.211 141.312ZM232.156 501.789C232.156 503.183 231.026 504.312 229.633 504.312C228.239 504.312 227.109 503.183 227.109 501.789C227.109 500.395 228.239 499.266 229.633 499.266C231.026 499.266 232.156 500.395 232.156 501.789ZM229.633 141.312C231.026 141.312 232.156 140.183 232.156 138.789C232.156 137.395 231.026 136.266 229.633 136.266C228.239 136.266 227.109 137.395 227.109 138.789C227.109 140.183 228.239 141.312 229.633 141.312ZM595.156 501.789C595.156 503.183 594.026 504.312 592.633 504.312C591.239 504.312 590.109 503.183 590.109 501.789C590.109 500.395 591.239 499.266 592.633 499.266C594.026 499.266 595.156 500.395 595.156 501.789ZM592.633 141.312C594.026 141.312 595.156 140.183 595.156 138.789C595.156 137.395 594.026 136.266 592.633 136.266C591.239 136.266 590.109 137.395 590.109 138.789C590.109 140.183 591.239 141.312 592.633 141.312ZM277.578 501.789C277.578 503.183 276.448 504.312 275.055 504.312C273.661 504.312 272.531 503.183 272.531 501.789C272.531 500.395 273.661 499.266 275.055 499.266C276.448 499.266 277.578 500.395 277.578 501.789ZM275.055 141.312C276.448 141.312 277.578 140.183 277.578 138.789C277.578 137.395 276.448 136.266 275.055 136.266C273.661 136.266 272.531 137.395 272.531 138.789C272.531 140.183 273.661 141.312 275.055 141.312ZM640.578 501.789C640.578 503.183 639.448 504.312 638.055 504.312C636.661 504.312 635.531 503.183 635.531 501.789C635.531 500.395 636.661 499.266 638.055 499.266C639.448 499.266 640.578 500.395 640.578 501.789ZM638.055 141.312C639.448 141.312 640.578 140.183 640.578 138.789C640.578 137.395 639.448 136.266 638.055 136.266C636.661 136.266 635.531 137.395 635.531 138.789C635.531 140.183 636.661 141.312 638.055 141.312ZM323 501.789C323 503.183 321.87 504.312 320.477 504.312C319.083 504.312 317.953 503.183 317.953 501.789C317.953 500.395 319.083 499.266 320.477 499.266C321.87 499.266 323 500.395 323 501.789ZM320.477 141.312C321.87 141.312 323 140.183 323 138.789C323 137.395 321.87 136.266 320.477 136.266C319.083 136.266 317.953 137.395 317.953 138.789C317.953 140.183 319.083 141.312 320.477 141.312ZM686 501.789C686 503.183 684.87 504.312 683.477 504.312C682.083 504.312 680.953 503.183 680.953 501.789C680.953 500.395 682.083 499.266 683.477 499.266C684.87 499.266 686 500.395 686 501.789ZM683.477 141.312C684.87 141.312 686 140.183 686 138.789C686 137.395 684.87 136.266 683.477 136.266C682.083 136.266 680.953 137.395 680.953 138.789C680.953 140.183 682.083 141.312 683.477 141.312ZM5.04688 547.211C5.04688 548.605 3.91709 549.734 2.52344 549.734C1.12978 549.734 0 548.605 0 547.211C0 545.817 1.12978 544.688 2.52344 544.688C3.91709 544.688 5.04688 545.817 5.04688 547.211ZM2.52344 186.734C3.91709 186.734 5.04688 185.605 5.04688 184.211C5.04688 182.817 3.91709 181.688 2.52344 181.688C1.12978 181.688 0 182.817 0 184.211C0 185.605 1.12978 186.734 2.52344 186.734ZM368.047 547.211C368.047 548.605 366.917 549.734 365.523 549.734C364.13 549.734 363 548.605 363 547.211C363 545.817 364.13 544.688 365.523 544.688C366.917 544.688 368.047 545.817 368.047 547.211ZM365.523 186.734C366.917 186.734 368.047 185.605 368.047 184.211C368.047 182.817 366.917 181.688 365.523 181.688C364.13 181.688 363 182.817 363 184.211C363 185.605 364.13 186.734 365.523 186.734ZM50.4688 547.211C50.4688 548.605 49.339 549.734 47.9453 549.734C46.5517 549.734 45.4219 548.605 45.4219 547.211C45.4219 545.817 46.5517 544.688 47.9453 544.688C49.339 544.688 50.4688 545.817 50.4688 547.211ZM47.9453 186.734C49.339 186.734 50.4688 185.605 50.4688 184.211C50.4688 182.817 49.339 181.688 47.9453 181.688C46.5517 181.688 45.4219 182.817 45.4219 184.211C45.4219 185.605 46.5517 186.734 47.9453 186.734ZM413.469 547.211C413.469 548.605 412.339 549.734 410.945 549.734C409.552 549.734 408.422 548.605 408.422 547.211C408.422 545.817 409.552 544.688 410.945 544.688C412.339 544.688 413.469 545.817 413.469 547.211ZM410.945 186.734C412.339 186.734 413.469 185.605 413.469 184.211C413.469 182.817 412.339 181.688 410.945 181.688C409.552 181.688 408.422 182.817 408.422 184.211C408.422 185.605 409.552 186.734 410.945 186.734ZM95.8906 547.211C95.8906 548.605 94.7608 549.734 93.3672 549.734C91.9735 549.734 90.8438 548.605 90.8438 547.211C90.8438 545.817 91.9735 544.688 93.3672 544.688C94.7608 544.688 95.8906 545.817 95.8906 547.211ZM93.3672 186.734C94.7608 186.734 95.8906 185.605 95.8906 184.211C95.8906 182.817 94.7608 181.688 93.3672 181.688C91.9735 181.688 90.8438 182.817 90.8438 184.211C90.8438 185.605 91.9735 186.734 93.3672 186.734ZM458.891 547.211C458.891 548.605 457.761 549.734 456.367 549.734C454.974 549.734 453.844 548.605 453.844 547.211C453.844 545.817 454.974 544.688 456.367 544.688C457.761 544.688 458.891 545.817 458.891 547.211ZM456.367 186.734C457.761 186.734 458.891 185.605 458.891 184.211C458.891 182.817 457.761 181.688 456.367 181.688C454.974 181.688 453.844 182.817 453.844 184.211C453.844 185.605 454.974 186.734 456.367 186.734ZM141.312 547.211C141.312 548.605 140.183 549.734 138.789 549.734C137.395 549.734 136.266 548.605 136.266 547.211C136.266 545.817 137.395 544.688 138.789 544.688C140.183 544.688 141.312 545.817 141.312 547.211ZM138.789 186.734C140.183 186.734 141.312 185.605 141.312 184.211C141.312 182.817 140.183 181.688 138.789 181.688C137.395 181.688 136.266 182.817 136.266 184.211C136.266 185.605 137.395 186.734 138.789 186.734ZM504.312 547.211C504.312 548.605 503.183 549.734 501.789 549.734C500.395 549.734 499.266 548.605 499.266 547.211C499.266 545.817 500.395 544.688 501.789 544.688C503.183 544.688 504.312 545.817 504.312 547.211ZM501.789 186.734C503.183 186.734 504.312 185.605 504.312 184.211C504.312 182.817 503.183 181.688 501.789 181.688C500.395 181.688 499.266 182.817 499.266 184.211C499.266 185.605 500.395 186.734 501.789 186.734ZM186.734 547.211C186.734 548.605 185.605 549.734 184.211 549.734C182.817 549.734 181.688 548.605 181.688 547.211C181.688 545.817 182.817 544.688 184.211 544.688C185.605 544.688 186.734 545.817 186.734 547.211ZM184.211 186.734C185.605 186.734 186.734 185.605 186.734 184.211C186.734 182.817 185.605 181.688 184.211 181.688C182.817 181.688 181.688 182.817 181.688 184.211C181.688 185.605 182.817 186.734 184.211 186.734ZM549.734 547.211C549.734 548.605 548.605 549.734 547.211 549.734C545.817 549.734 544.688 548.605 544.688 547.211C544.688 545.817 545.817 544.688 547.211 544.688C548.605 544.688 549.734 545.817 549.734 547.211ZM547.211 186.734C548.605 186.734 549.734 185.605 549.734 184.211C549.734 182.817 548.605 181.688 547.211 181.688C545.817 181.688 544.688 182.817 544.688 184.211C544.688 185.605 545.817 186.734 547.211 186.734ZM232.156 547.211C232.156 548.605 231.026 549.734 229.633 549.734C228.239 549.734 227.109 548.605 227.109 547.211C227.109 545.817 228.239 544.688 229.633 544.688C231.026 544.688 232.156 545.817 232.156 547.211ZM229.633 186.734C231.026 186.734 232.156 185.605 232.156 184.211C232.156 182.817 231.026 181.688 229.633 181.688C228.239 181.688 227.109 182.817 227.109 184.211C227.109 185.605 228.239 186.734 229.633 186.734ZM595.156 547.211C595.156 548.605 594.026 549.734 592.633 549.734C591.239 549.734 590.109 548.605 590.109 547.211C590.109 545.817 591.239 544.688 592.633 544.688C594.026 544.688 595.156 545.817 595.156 547.211ZM592.633 186.734C594.026 186.734 595.156 185.605 595.156 184.211C595.156 182.817 594.026 181.688 592.633 181.688C591.239 181.688 590.109 182.817 590.109 184.211C590.109 185.605 591.239 186.734 592.633 186.734ZM277.578 547.211C277.578 548.605 276.448 549.734 275.055 549.734C273.661 549.734 272.531 548.605 272.531 547.211C272.531 545.817 273.661 544.688 275.055 544.688C276.448 544.688 277.578 545.817 277.578 547.211ZM275.055 186.734C276.448 186.734 277.578 185.605 277.578 184.211C277.578 182.817 276.448 181.688 275.055 181.688C273.661 181.688 272.531 182.817 272.531 184.211C272.531 185.605 273.661 186.734 275.055 186.734ZM640.578 547.211C640.578 548.605 639.448 549.734 638.055 549.734C636.661 549.734 635.531 548.605 635.531 547.211C635.531 545.817 636.661 544.688 638.055 544.688C639.448 544.688 640.578 545.817 640.578 547.211ZM638.055 186.734C639.448 186.734 640.578 185.605 640.578 184.211C640.578 182.817 639.448 181.688 638.055 181.688C636.661 181.688 635.531 182.817 635.531 184.211C635.531 185.605 636.661 186.734 638.055 186.734ZM323 547.211C323 548.605 321.87 549.734 320.477 549.734C319.083 549.734 317.953 548.605 317.953 547.211C317.953 545.817 319.083 544.688 320.477 544.688C321.87 544.688 323 545.817 323 547.211ZM320.477 186.734C321.87 186.734 323 185.605 323 184.211C323 182.817 321.87 181.688 320.477 181.688C319.083 181.688 317.953 182.817 317.953 184.211C317.953 185.605 319.083 186.734 320.477 186.734ZM686 547.211C686 548.605 684.87 549.734 683.477 549.734C682.083 549.734 680.953 548.605 680.953 547.211C680.953 545.817 682.083 544.688 683.477 544.688C684.87 544.688 686 545.817 686 547.211ZM683.477 186.734C684.87 186.734 686 185.605 686 184.211C686 182.817 684.87 181.688 683.477 181.688C682.083 181.688 680.953 182.817 680.953 184.211C680.953 185.605 682.083 186.734 683.477 186.734ZM5.04688 229.633C5.04688 231.026 3.91709 232.156 2.52344 232.156C1.12978 232.156 0 231.026 0 229.633C0 228.239 1.12978 227.109 2.52344 227.109C3.91709 227.109 5.04688 228.239 5.04688 229.633ZM365.523 232.156C366.917 232.156 368.047 231.026 368.047 229.633C368.047 228.239 366.917 227.109 365.523 227.109C364.13 227.109 363 228.239 363 229.633C363 231.026 364.13 232.156 365.523 232.156ZM50.4688 229.633C50.4688 231.026 49.339 232.156 47.9453 232.156C46.5517 232.156 45.4219 231.026 45.4219 229.633C45.4219 228.239 46.5517 227.109 47.9453 227.109C49.339 227.109 50.4688 228.239 50.4688 229.633ZM410.945 232.156C412.339 232.156 413.469 231.026 413.469 229.633C413.469 228.239 412.339 227.109 410.945 227.109C409.552 227.109 408.422 228.239 408.422 229.633C408.422 231.026 409.552 232.156 410.945 232.156ZM95.8906 229.633C95.8906 231.026 94.7608 232.156 93.3672 232.156C91.9735 232.156 90.8438 231.026 90.8438 229.633C90.8438 228.239 91.9735 227.109 93.3672 227.109C94.7608 227.109 95.8906 228.239 95.8906 229.633ZM456.367 232.156C457.761 232.156 458.891 231.026 458.891 229.633C458.891 228.239 457.761 227.109 456.367 227.109C454.974 227.109 453.844 228.239 453.844 229.633C453.844 231.026 454.974 232.156 456.367 232.156ZM141.312 229.633C141.312 231.026 140.183 232.156 138.789 232.156C137.395 232.156 136.266 231.026 136.266 229.633C136.266 228.239 137.395 227.109 138.789 227.109C140.183 227.109 141.312 228.239 141.312 229.633ZM501.789 232.156C503.183 232.156 504.312 231.026 504.312 229.633C504.312 228.239 503.183 227.109 501.789 227.109C500.395 227.109 499.266 228.239 499.266 229.633C499.266 231.026 500.395 232.156 501.789 232.156ZM186.734 229.633C186.734 231.026 185.605 232.156 184.211 232.156C182.817 232.156 181.688 231.026 181.688 229.633C181.688 228.239 182.817 227.109 184.211 227.109C185.605 227.109 186.734 228.239 186.734 229.633ZM547.211 232.156C548.605 232.156 549.734 231.026 549.734 229.633C549.734 228.239 548.605 227.109 547.211 227.109C545.817 227.109 544.688 228.239 544.688 229.633C544.688 231.026 545.817 232.156 547.211 232.156ZM232.156 229.633C232.156 231.026 231.026 232.156 229.633 232.156C228.239 232.156 227.109 231.026 227.109 229.633C227.109 228.239 228.239 227.109 229.633 227.109C231.026 227.109 232.156 228.239 232.156 229.633ZM592.633 232.156C594.026 232.156 595.156 231.026 595.156 229.633C595.156 228.239 594.026 227.109 592.633 227.109C591.239 227.109 590.109 228.239 590.109 229.633C590.109 231.026 591.239 232.156 592.633 232.156ZM277.578 229.633C277.578 231.026 276.448 232.156 275.055 232.156C273.661 232.156 272.531 231.026 272.531 229.633C272.531 228.239 273.661 227.109 275.055 227.109C276.448 227.109 277.578 228.239 277.578 229.633ZM638.055 232.156C639.448 232.156 640.578 231.026 640.578 229.633C640.578 228.239 639.448 227.109 638.055 227.109C636.661 227.109 635.531 228.239 635.531 229.633C635.531 231.026 636.661 232.156 638.055 232.156ZM323 229.633C323 231.026 321.87 232.156 320.477 232.156C319.083 232.156 317.953 231.026 317.953 229.633C317.953 228.239 319.083 227.109 320.477 227.109C321.87 227.109 323 228.239 323 229.633ZM683.477 232.156C684.87 232.156 686 231.026 686 229.633C686 228.239 684.87 227.109 683.477 227.109C682.083 227.109 680.953 228.239 680.953 229.633C680.953 231.026 682.083 232.156 683.477 232.156ZM5.04688 275.055C5.04688 276.448 3.91709 277.578 2.52344 277.578C1.12978 277.578 0 276.448 0 275.055C0 273.661 1.12978 272.531 2.52344 272.531C3.91709 272.531 5.04688 273.661 5.04688 275.055ZM365.523 277.578C366.917 277.578 368.047 276.448 368.047 275.055C368.047 273.661 366.917 272.531 365.523 272.531C364.13 272.531 363 273.661 363 275.055C363 276.448 364.13 277.578 365.523 277.578ZM50.4688 275.055C50.4688 276.448 49.339 277.578 47.9453 277.578C46.5517 277.578 45.4219 276.448 45.4219 275.055C45.4219 273.661 46.5517 272.531 47.9453 272.531C49.339 272.531 50.4688 273.661 50.4688 275.055ZM410.945 277.578C412.339 277.578 413.469 276.448 413.469 275.055C413.469 273.661 412.339 272.531 410.945 272.531C409.552 272.531 408.422 273.661 408.422 275.055C408.422 276.448 409.552 277.578 410.945 277.578ZM95.8906 275.055C95.8906 276.448 94.7608 277.578 93.3672 277.578C91.9735 277.578 90.8438 276.448 90.8438 275.055C90.8438 273.661 91.9735 272.531 93.3672 272.531C94.7608 272.531 95.8906 273.661 95.8906 275.055ZM456.367 277.578C457.761 277.578 458.891 276.448 458.891 275.055C458.891 273.661 457.761 272.531 456.367 272.531C454.974 272.531 453.844 273.661 453.844 275.055C453.844 276.448 454.974 277.578 456.367 277.578ZM141.312 275.055C141.312 276.448 140.183 277.578 138.789 277.578C137.395 277.578 136.266 276.448 136.266 275.055C136.266 273.661 137.395 272.531 138.789 272.531C140.183 272.531 141.312 273.661 141.312 275.055ZM501.789 277.578C503.183 277.578 504.312 276.448 504.312 275.055C504.312 273.661 503.183 272.531 501.789 272.531C500.395 272.531 499.266 273.661 499.266 275.055C499.266 276.448 500.395 277.578 501.789 277.578ZM186.734 275.055C186.734 276.448 185.605 277.578 184.211 277.578C182.817 277.578 181.688 276.448 181.688 275.055C181.688 273.661 182.817 272.531 184.211 272.531C185.605 272.531 186.734 273.661 186.734 275.055ZM547.211 277.578C548.605 277.578 549.734 276.448 549.734 275.055C549.734 273.661 548.605 272.531 547.211 272.531C545.817 272.531 544.688 273.661 544.688 275.055C544.688 276.448 545.817 277.578 547.211 277.578ZM232.156 275.055C232.156 276.448 231.026 277.578 229.633 277.578C228.239 277.578 227.109 276.448 227.109 275.055C227.109 273.661 228.239 272.531 229.633 272.531C231.026 272.531 232.156 273.661 232.156 275.055ZM592.633 277.578C594.026 277.578 595.156 276.448 595.156 275.055C595.156 273.661 594.026 272.531 592.633 272.531C591.239 272.531 590.109 273.661 590.109 275.055C590.109 276.448 591.239 277.578 592.633 277.578ZM277.578 275.055C277.578 276.448 276.448 277.578 275.055 277.578C273.661 277.578 272.531 276.448 272.531 275.055C272.531 273.661 273.661 272.531 275.055 272.531C276.448 272.531 277.578 273.661 277.578 275.055ZM638.055 277.578C639.448 277.578 640.578 276.448 640.578 275.055C640.578 273.661 639.448 272.531 638.055 272.531C636.661 272.531 635.531 273.661 635.531 275.055C635.531 276.448 636.661 277.578 638.055 277.578ZM323 275.055C323 276.448 321.87 277.578 320.477 277.578C319.083 277.578 317.953 276.448 317.953 275.055C317.953 273.661 319.083 272.531 320.477 272.531C321.87 272.531 323 273.661 323 275.055ZM683.477 277.578C684.87 277.578 686 276.448 686 275.055C686 273.661 684.87 272.531 683.477 272.531C682.083 272.531 680.953 273.661 680.953 275.055C680.953 276.448 682.083 277.578 683.477 277.578ZM5.04688 320.477C5.04688 321.87 3.91709 323 2.52344 323C1.12978 323 0 321.87 0 320.477C0 319.083 1.12978 317.953 2.52344 317.953C3.91709 317.953 5.04688 319.083 5.04688 320.477ZM365.523 323C366.917 323 368.047 321.87 368.047 320.477C368.047 319.083 366.917 317.953 365.523 317.953C364.13 317.953 363 319.083 363 320.477C363 321.87 364.13 323 365.523 323ZM50.4688 320.477C50.4688 321.87 49.339 323 47.9453 323C46.5517 323 45.4219 321.87 45.4219 320.477C45.4219 319.083 46.5517 317.953 47.9453 317.953C49.339 317.953 50.4688 319.083 50.4688 320.477ZM410.945 323C412.339 323 413.469 321.87 413.469 320.477C413.469 319.083 412.339 317.953 410.945 317.953C409.552 317.953 408.422 319.083 408.422 320.477C408.422 321.87 409.552 323 410.945 323ZM95.8906 320.477C95.8906 321.87 94.7608 323 93.3672 323C91.9735 323 90.8438 321.87 90.8438 320.477C90.8438 319.083 91.9735 317.953 93.3672 317.953C94.7608 317.953 95.8906 319.083 95.8906 320.477ZM456.367 323C457.761 323 458.891 321.87 458.891 320.477C458.891 319.083 457.761 317.953 456.367 317.953C454.974 317.953 453.844 319.083 453.844 320.477C453.844 321.87 454.974 323 456.367 323ZM141.312 320.477C141.312 321.87 140.183 323 138.789 323C137.395 323 136.266 321.87 136.266 320.477C136.266 319.083 137.395 317.953 138.789 317.953C140.183 317.953 141.312 319.083 141.312 320.477ZM501.789 323C503.183 323 504.312 321.87 504.312 320.477C504.312 319.083 503.183 317.953 501.789 317.953C500.395 317.953 499.266 319.083 499.266 320.477C499.266 321.87 500.395 323 501.789 323ZM186.734 320.477C186.734 321.87 185.605 323 184.211 323C182.817 323 181.688 321.87 181.688 320.477C181.688 319.083 182.817 317.953 184.211 317.953C185.605 317.953 186.734 319.083 186.734 320.477ZM547.211 323C548.605 323 549.734 321.87 549.734 320.477C549.734 319.083 548.605 317.953 547.211 317.953C545.817 317.953 544.688 319.083 544.688 320.477C544.688 321.87 545.817 323 547.211 323ZM232.156 320.477C232.156 321.87 231.026 323 229.633 323C228.239 323 227.109 321.87 227.109 320.477C227.109 319.083 228.239 317.953 229.633 317.953C231.026 317.953 232.156 319.083 232.156 320.477ZM592.633 323C594.026 323 595.156 321.87 595.156 320.477C595.156 319.083 594.026 317.953 592.633 317.953C591.239 317.953 590.109 319.083 590.109 320.477C590.109 321.87 591.239 323 592.633 323ZM277.578 320.477C277.578 321.87 276.448 323 275.055 323C273.661 323 272.531 321.87 272.531 320.477C272.531 319.083 273.661 317.953 275.055 317.953C276.448 317.953 277.578 319.083 277.578 320.477ZM638.055 323C639.448 323 640.578 321.87 640.578 320.477C640.578 319.083 639.448 317.953 638.055 317.953C636.661 317.953 635.531 319.083 635.531 320.477C635.531 321.87 636.661 323 638.055 323ZM323 320.477C323 321.87 321.87 323 320.477 323C319.083 323 317.953 321.87 317.953 320.477C317.953 319.083 319.083 317.953 320.477 317.953C321.87 317.953 323 319.083 323 320.477ZM683.477 323C684.87 323 686 321.87 686 320.477C686 319.083 684.87 317.953 683.477 317.953C682.083 317.953 680.953 319.083 680.953 320.477C680.953 321.87 682.083 323 683.477 323Z" fill="url(#paint0_linear_13_277)"/>
<defs>
<linearGradient id="paint0_linear_13_277" x1="343" y1="308.5" x2="343" y2="0" gradientUnits="userSpaceOnUse">
<stop stop-color="#FFEE14"/>
<stop offset="1" stop-color="#FFEE14" stop-opacity="0"/>
</linearGradient>
</defs>
</svg>
