<svg width="39" height="39" viewBox="0 0 39 39" fill="none" xmlns="http://www.w3.org/2000/svg">
<path d="M27.625 19.5C31.2149 19.5 34.125 16.5899 34.125 13C34.125 9.41015 31.2149 6.5 27.625 6.5C24.0351 6.5 21.125 9.41015 21.125 13C21.125 16.5899 24.0351 19.5 27.625 19.5Z" stroke="#FF9494" stroke-width="2"/>
<path d="M19.5 32.5C22.1924 32.5 24.375 30.3174 24.375 27.625C24.375 24.9326 22.1924 22.75 19.5 22.75C16.8076 22.75 14.625 24.9326 14.625 27.625C14.625 30.3174 16.8076 32.5 19.5 32.5Z" stroke="#FF9494" stroke-width="2"/>
<path d="M10.5625 19.5C12.8062 19.5 14.625 17.6812 14.625 15.4375C14.625 13.1938 12.8062 11.375 10.5625 11.375C8.31884 11.375 6.5 13.1938 6.5 15.4375C6.5 17.6812 8.31884 19.5 10.5625 19.5Z" stroke="#FF9494" stroke-width="2"/>
</svg>
