<svg width="205" height="258" viewBox="0 0 205 258" fill="none" xmlns="http://www.w3.org/2000/svg">
<rect x="0.5" y="149.5" width="204" height="108" rx="9.5" fill="white" stroke="white"/>
<path d="M98.2474 179.727V211H92.5365L78.931 191.317H78.702V211H72.0901V179.727H77.8927L91.3912 199.395H91.6661V179.727H98.2474ZM132.448 195.364C132.448 198.774 131.802 201.675 130.509 204.067C129.226 206.46 127.475 208.287 125.256 209.549C123.047 210.801 120.563 211.428 117.804 211.428C115.025 211.428 112.531 210.796 110.322 209.534C108.113 208.272 106.367 206.444 105.085 204.052C103.802 201.66 103.161 198.764 103.161 195.364C103.161 191.953 103.802 189.052 105.085 186.66C106.367 184.268 108.113 182.445 110.322 181.193C112.531 179.931 115.025 179.3 117.804 179.3C120.563 179.3 123.047 179.931 125.256 181.193C127.475 182.445 129.226 184.268 130.509 186.66C131.802 189.052 132.448 191.953 132.448 195.364ZM125.745 195.364C125.745 193.155 125.414 191.292 124.752 189.775C124.101 188.258 123.179 187.108 121.988 186.324C120.797 185.54 119.403 185.148 117.804 185.148C116.206 185.148 114.811 185.54 113.62 186.324C112.429 187.108 111.503 188.258 110.841 189.775C110.19 191.292 109.864 193.155 109.864 195.364C109.864 197.573 110.19 199.436 110.841 200.952C111.503 202.469 112.429 203.62 113.62 204.403C114.811 205.187 116.206 205.579 117.804 205.579C119.403 205.579 120.797 205.187 121.988 204.403C123.179 203.62 124.101 202.469 124.752 200.952C125.414 199.436 125.745 197.573 125.745 195.364Z" fill="#343057"/>
<path d="M81.3782 237.864V227.364H82.8299V228.602H82.9542C83.0404 228.442 83.1647 228.259 83.3271 228.05C83.4895 227.841 83.7148 227.659 84.0032 227.503C84.2915 227.344 84.6727 227.264 85.1467 227.264C85.7631 227.264 86.3133 227.42 86.7972 227.732C87.2811 228.043 87.6606 228.492 87.9357 229.079C88.2141 229.665 88.3533 230.371 88.3533 231.197C88.3533 232.022 88.2158 232.73 87.9407 233.32C87.6656 233.906 87.2878 234.359 86.8072 234.677C86.3266 234.992 85.7781 235.149 85.1616 235.149C84.6976 235.149 84.3181 235.071 84.0231 234.915C83.7314 234.76 83.5027 234.577 83.337 234.369C83.1713 234.16 83.0437 233.974 82.9542 233.812H82.8647V237.864H81.3782ZM82.8349 231.182C82.8349 231.719 82.9128 232.189 83.0685 232.594C83.2243 232.998 83.4497 233.315 83.7447 233.543C84.0397 233.769 84.4009 233.881 84.8285 233.881C85.2726 233.881 85.6438 233.764 85.9421 233.528C86.2404 233.29 86.4658 232.967 86.6183 232.559C86.774 232.151 86.8519 231.692 86.8519 231.182C86.8519 230.678 86.7757 230.226 86.6232 229.825C86.4741 229.424 86.2487 229.107 85.9471 228.875C85.6488 228.643 85.2759 228.527 84.8285 228.527C84.3976 228.527 84.033 228.638 83.7347 228.86C83.4397 229.082 83.216 229.392 83.0636 229.79C82.9111 230.187 82.8349 230.652 82.8349 231.182ZM91.5053 224.818V235H90.0188V224.818H91.5053ZM95.7275 235.169C95.2435 235.169 94.806 235.08 94.415 234.901C94.0239 234.718 93.714 234.455 93.4853 234.11C93.2599 233.765 93.1472 233.343 93.1472 232.842C93.1472 232.411 93.2301 232.057 93.3958 231.778C93.5615 231.5 93.7852 231.28 94.0669 231.117C94.3487 230.955 94.6635 230.832 95.0115 230.749C95.3596 230.666 95.7142 230.603 96.0755 230.56C96.5328 230.507 96.9041 230.464 97.1891 230.431C97.4741 230.395 97.6813 230.337 97.8105 230.257C97.9398 230.178 98.0044 230.048 98.0044 229.869V229.835C98.0044 229.4 97.8818 229.064 97.6365 228.825C97.3946 228.587 97.0333 228.467 96.5527 228.467C96.0523 228.467 95.6578 228.578 95.3695 228.8C95.0845 229.019 94.8873 229.263 94.7779 229.531L93.3809 229.213C93.5466 228.749 93.7885 228.375 94.1067 228.089C94.4282 227.801 94.7978 227.592 95.2154 227.463C95.633 227.33 96.0721 227.264 96.5328 227.264C96.8378 227.264 97.1609 227.301 97.5023 227.374C97.847 227.443 98.1685 227.572 98.4668 227.761C98.7684 227.95 99.0153 228.22 99.2076 228.572C99.3998 228.92 99.4959 229.372 99.4959 229.929V235H98.0442V233.956H97.9846C97.8884 234.148 97.7443 234.337 97.552 234.523C97.3598 234.708 97.1129 234.862 96.8113 234.985C96.5096 235.108 96.1484 235.169 95.7275 235.169ZM96.0506 233.976C96.4616 233.976 96.8129 233.895 97.1046 233.732C97.3996 233.57 97.6233 233.358 97.7757 233.096C97.9315 232.831 98.0094 232.547 98.0094 232.246V231.261C97.9564 231.314 97.8536 231.364 97.7012 231.411C97.552 231.454 97.3813 231.492 97.1891 231.525C96.9969 231.555 96.8096 231.583 96.6273 231.609C96.445 231.633 96.2926 231.652 96.1699 231.669C95.8816 231.705 95.6181 231.767 95.3794 231.853C95.1441 231.939 94.9552 232.063 94.8127 232.226C94.6735 232.385 94.6039 232.597 94.6039 232.862C94.6039 233.23 94.7398 233.509 95.0115 233.697C95.2833 233.883 95.6297 233.976 96.0506 233.976ZM107.198 229.228L105.851 229.467C105.795 229.294 105.705 229.13 105.582 228.974C105.463 228.819 105.301 228.691 105.095 228.592C104.89 228.492 104.633 228.442 104.325 228.442C103.904 228.442 103.552 228.537 103.271 228.726C102.989 228.911 102.848 229.152 102.848 229.447C102.848 229.702 102.942 229.907 103.131 230.063C103.32 230.219 103.625 230.347 104.046 230.446L105.259 230.724C105.962 230.887 106.486 231.137 106.83 231.475C107.175 231.813 107.347 232.252 107.347 232.793C107.347 233.25 107.215 233.658 106.95 234.016C106.688 234.37 106.321 234.649 105.851 234.851C105.384 235.053 104.842 235.154 104.225 235.154C103.37 235.154 102.672 234.972 102.132 234.607C101.592 234.239 101.26 233.717 101.138 233.041L102.575 232.822C102.664 233.197 102.848 233.48 103.126 233.673C103.405 233.862 103.768 233.956 104.215 233.956C104.702 233.956 105.092 233.855 105.384 233.653C105.675 233.447 105.821 233.197 105.821 232.902C105.821 232.663 105.732 232.463 105.553 232.3C105.377 232.138 105.107 232.015 104.742 231.933L103.45 231.649C102.737 231.487 102.21 231.228 101.869 230.874C101.531 230.519 101.362 230.07 101.362 229.526C101.362 229.076 101.487 228.681 101.739 228.343C101.991 228.005 102.339 227.741 102.783 227.553C103.228 227.36 103.736 227.264 104.31 227.264C105.135 227.264 105.785 227.443 106.259 227.801C106.732 228.156 107.046 228.631 107.198 229.228ZM112.546 227.364V228.557H108.375V227.364H112.546ZM109.494 225.534H110.98V232.758C110.98 233.046 111.023 233.263 111.11 233.409C111.196 233.552 111.307 233.649 111.443 233.702C111.582 233.752 111.733 233.777 111.895 233.777C112.014 233.777 112.119 233.769 112.208 233.752C112.298 233.736 112.367 233.722 112.417 233.712L112.686 234.94C112.599 234.973 112.477 235.007 112.318 235.04C112.159 235.076 111.96 235.096 111.721 235.099C111.33 235.106 110.965 235.036 110.627 234.891C110.289 234.745 110.016 234.519 109.807 234.214C109.598 233.91 109.494 233.527 109.494 233.066V225.534ZM114.191 235V227.364H115.677V235H114.191ZM114.941 226.185C114.683 226.185 114.461 226.099 114.275 225.927C114.093 225.751 114.002 225.542 114.002 225.3C114.002 225.055 114.093 224.846 114.275 224.674C114.461 224.498 114.683 224.411 114.941 224.411C115.2 224.411 115.42 224.498 115.603 224.674C115.788 224.846 115.881 225.055 115.881 225.3C115.881 225.542 115.788 225.751 115.603 225.927C115.42 226.099 115.2 226.185 114.941 226.185ZM120.894 235.154C120.155 235.154 119.518 234.987 118.985 234.652C118.454 234.314 118.047 233.848 117.762 233.255C117.477 232.662 117.334 231.982 117.334 231.217C117.334 230.441 117.48 229.757 117.771 229.163C118.063 228.567 118.474 228.101 119.004 227.766C119.535 227.432 120.16 227.264 120.879 227.264C121.459 227.264 121.976 227.372 122.43 227.587C122.884 227.799 123.25 228.098 123.529 228.482C123.81 228.867 123.978 229.316 124.031 229.83H122.584C122.504 229.472 122.322 229.163 122.037 228.905C121.755 228.646 121.378 228.517 120.904 228.517C120.489 228.517 120.126 228.626 119.815 228.845C119.507 229.061 119.266 229.369 119.094 229.77C118.922 230.168 118.835 230.638 118.835 231.182C118.835 231.739 118.92 232.219 119.089 232.624C119.258 233.028 119.497 233.341 119.805 233.563C120.116 233.785 120.483 233.896 120.904 233.896C121.185 233.896 121.441 233.845 121.669 233.742C121.901 233.636 122.095 233.485 122.251 233.29C122.41 233.094 122.521 232.859 122.584 232.584H124.031C123.978 233.078 123.817 233.518 123.548 233.906C123.28 234.294 122.92 234.599 122.47 234.821C122.022 235.043 121.497 235.154 120.894 235.154Z" fill="#343057"/>
<rect x="0.5" y="0.5" width="204" height="108" rx="9.5" fill="white" stroke="white"/>
<path d="M87.6844 62.4276C85.3328 62.4276 83.2409 62.0458 81.4085 61.2823C79.5863 60.5086 78.156 59.455 77.1176 58.1214C76.0793 56.7879 75.5601 55.2762 75.5601 53.5863C75.5601 52.2833 75.8553 51.0871 76.4458 49.9979C77.0464 48.8984 77.8608 47.9873 78.8889 47.2646C79.9171 46.5316 81.0674 46.0633 82.3399 45.8597V45.646C80.6704 45.31 79.3165 44.5007 78.2781 43.218C77.2398 41.9252 76.7206 40.4236 76.7206 38.7134C76.7206 37.0948 77.194 35.6544 78.1407 34.392C79.0874 33.1196 80.3854 32.1219 82.0345 31.3991C83.6939 30.6662 85.5771 30.2997 87.6844 30.2997C89.7916 30.2997 91.6698 30.6662 93.319 31.3991C94.9783 32.1321 96.2813 33.1348 97.2281 34.4073C98.1748 35.6696 98.6533 37.105 98.6634 38.7134C98.6533 40.4338 98.1239 41.9354 97.0754 43.218C96.0268 44.5007 94.6831 45.31 93.0441 45.646V45.8597C94.2963 46.0633 95.4313 46.5316 96.4493 47.2646C97.4775 47.9873 98.2919 48.8984 98.8925 49.9979C99.5033 51.0871 99.8138 52.2833 99.824 53.5863C99.8138 55.2762 99.2895 56.7879 98.2512 58.1214C97.2128 59.455 95.7774 60.5086 93.945 61.2823C92.1228 62.0458 90.036 62.4276 87.6844 62.4276ZM87.6844 57.5717C88.7329 57.5717 89.6491 57.3834 90.433 57.0067C91.2168 56.6199 91.8276 56.0906 92.2654 55.4187C92.7133 54.7366 92.9372 53.9528 92.9372 53.0671C92.9372 52.1611 92.7082 51.362 92.2501 50.6697C91.792 49.9673 91.171 49.4176 90.3872 49.0206C89.6033 48.6134 88.7024 48.4098 87.6844 48.4098C86.6766 48.4098 85.7757 48.6134 84.9816 49.0206C84.1876 49.4176 83.5615 49.9673 83.1034 50.6697C82.6555 51.362 82.4316 52.1611 82.4316 53.0671C82.4316 53.9528 82.6504 54.7366 83.0882 55.4187C83.5259 56.0906 84.1418 56.6199 84.9358 57.0067C85.7298 57.3834 86.646 57.5717 87.6844 57.5717ZM87.6844 43.5998C88.5599 43.5998 89.3386 43.4216 90.0207 43.0653C90.7027 42.709 91.2372 42.2153 91.624 41.5842C92.0109 40.953 92.2043 40.2251 92.2043 39.4006C92.2043 38.5862 92.0109 37.8736 91.624 37.2628C91.2372 36.6418 90.7078 36.1583 90.036 35.8121C89.3641 35.4558 88.5802 35.2777 87.6844 35.2777C86.7987 35.2777 86.0149 35.4558 85.3328 35.8121C84.6508 36.1583 84.1163 36.6418 83.7295 37.2628C83.3528 37.8736 83.1645 38.5862 83.1645 39.4006C83.1645 40.2251 83.3579 40.953 83.7448 41.5842C84.1316 42.2153 84.666 42.709 85.3481 43.0653C86.0302 43.4216 86.8089 43.5998 87.6844 43.5998ZM116.709 62.6871C114.082 62.677 111.822 62.0305 109.929 60.7479C108.046 59.4652 106.595 57.6074 105.577 55.1744C104.569 52.7414 104.07 49.8146 104.08 46.3942C104.08 42.9839 104.584 40.0775 105.592 37.6751C106.61 35.2726 108.061 33.4453 109.944 32.1932C111.838 30.9309 114.092 30.2997 116.709 30.2997C119.325 30.2997 121.575 30.9309 123.458 32.1932C125.351 33.4555 126.807 35.2879 127.825 37.6903C128.843 40.0826 129.347 42.9839 129.337 46.3942C129.337 49.8248 128.828 52.7566 127.81 55.1896C126.802 57.6226 125.356 59.4805 123.473 60.7631C121.59 62.0458 119.335 62.6871 116.709 62.6871ZM116.709 57.2053C118.5 57.2053 119.931 56.3043 120.999 54.5025C122.068 52.7006 122.598 49.9979 122.588 46.3942C122.588 44.0223 122.343 42.0473 121.855 40.4695C121.376 38.8916 120.694 37.7056 119.808 36.9116C118.933 36.1175 117.9 35.7205 116.709 35.7205C114.927 35.7205 113.502 36.6113 112.433 38.3928C111.364 40.1742 110.825 42.8414 110.814 46.3942C110.814 48.7966 111.054 50.8021 111.532 52.4105C112.021 54.0088 112.708 55.21 113.594 56.0142C114.479 56.8082 115.518 57.2053 116.709 57.2053Z" fill="#343057"/>
<path d="M54.4744 89.0227C53.8679 89.0227 53.3459 88.9432 52.9084 88.7841C52.4742 88.625 52.1196 88.4145 51.8445 88.1527C51.5694 87.8909 51.3639 87.6042 51.228 87.2926L52.5057 86.7656C52.5952 86.9115 52.7145 87.0656 52.8636 87.228C53.0161 87.3937 53.2216 87.5346 53.4801 87.6506C53.742 87.7666 54.0784 87.8246 54.4893 87.8246C55.0528 87.8246 55.5185 87.687 55.8864 87.4119C56.2543 87.1402 56.4382 86.706 56.4382 86.1094V84.608H56.3438C56.2543 84.7704 56.125 84.951 55.956 85.1499C55.7902 85.3487 55.5616 85.5211 55.2699 85.6669C54.9782 85.8127 54.5987 85.8857 54.1314 85.8857C53.5282 85.8857 52.9846 85.7448 52.5007 85.4631C52.0201 85.178 51.639 84.7588 51.3572 84.2053C51.0788 83.6484 50.9396 82.964 50.9396 82.152C50.9396 81.34 51.0772 80.6439 51.3523 80.0639C51.6307 79.4839 52.0118 79.0398 52.4957 78.7315C52.9796 78.42 53.5282 78.2642 54.1413 78.2642C54.6153 78.2642 54.9981 78.3438 55.2898 78.5028C55.5814 78.6586 55.8085 78.8409 55.9709 79.0497C56.1366 79.2585 56.2642 79.4425 56.3537 79.6016H56.4631V78.3636H57.9197V86.169C57.9197 86.8253 57.7673 87.3639 57.4624 87.7848C57.1574 88.2057 56.7448 88.5173 56.2244 88.7195C55.7074 88.9216 55.1241 89.0227 54.4744 89.0227ZM54.4595 84.6527C54.8871 84.6527 55.2483 84.5533 55.5433 84.3544C55.8416 84.1522 56.067 83.8639 56.2195 83.4893C56.3752 83.1115 56.4531 82.6591 56.4531 82.1321C56.4531 81.6184 56.3769 81.166 56.2244 80.7749C56.072 80.3838 55.8482 80.0788 55.5533 79.8601C55.2583 79.638 54.8937 79.527 54.4595 79.527C54.0121 79.527 53.6392 79.643 53.3409 79.875C53.0426 80.1037 52.8172 80.4152 52.6648 80.8097C52.5156 81.2041 52.4411 81.6449 52.4411 82.1321C52.4411 82.6326 52.5173 83.0717 52.6697 83.4496C52.8222 83.8274 53.0476 84.1224 53.3459 84.3345C53.6475 84.5466 54.0187 84.6527 54.4595 84.6527ZM64.7507 82.8331V78.3636H66.2422V86H64.7805V84.6776H64.701C64.5253 85.0852 64.2436 85.425 63.8558 85.6967C63.4714 85.9652 62.9924 86.0994 62.419 86.0994C61.9285 86.0994 61.4943 85.9917 61.1165 85.7763C60.742 85.5575 60.447 85.2344 60.2315 84.8068C60.0194 84.3793 59.9134 83.8506 59.9134 83.2209V78.3636H61.3999V83.0419C61.3999 83.5623 61.544 83.9766 61.8324 84.2848C62.1207 84.593 62.4953 84.7472 62.956 84.7472C63.2344 84.7472 63.5111 84.6776 63.7862 84.5384C64.0646 84.3991 64.295 84.1887 64.4773 83.907C64.6629 83.6252 64.754 83.2673 64.7507 82.8331ZM68.2395 86V78.3636H69.6664V79.6065H69.7608C69.9199 79.1856 70.1801 78.8575 70.5414 78.6222C70.9026 78.3835 71.3352 78.2642 71.839 78.2642C72.3494 78.2642 72.7769 78.3835 73.1216 78.6222C73.4696 78.8608 73.7265 79.1889 73.8922 79.6065H73.9718C74.1541 79.1989 74.4441 78.8741 74.8418 78.6321C75.2395 78.3868 75.7135 78.2642 76.2637 78.2642C76.9564 78.2642 77.5215 78.4813 77.959 78.9155C78.3998 79.3497 78.6202 80.0043 78.6202 80.8793V86H77.1337V81.0185C77.1337 80.5014 76.9928 80.1269 76.7111 79.8949C76.4294 79.6629 76.093 79.5469 75.7019 79.5469C75.218 79.5469 74.8418 79.696 74.5733 79.9943C74.3049 80.2893 74.1706 80.6688 74.1706 81.1328V86H72.6891V80.924C72.6891 80.5097 72.5598 80.1766 72.3013 79.9247C72.0428 79.6728 71.7064 79.5469 71.2921 79.5469C71.0104 79.5469 70.7502 79.6214 70.5115 79.7706C70.2762 79.9164 70.0856 80.1203 69.9398 80.3821C69.7973 80.6439 69.726 80.9472 69.726 81.2919V86H68.2395ZM80.6126 86V78.3636H82.0394V79.6065H82.1339C82.293 79.1856 82.5531 78.8575 82.9144 78.6222C83.2757 78.3835 83.7082 78.2642 84.212 78.2642C84.7224 78.2642 85.15 78.3835 85.4947 78.6222C85.8427 78.8608 86.0996 79.1889 86.2653 79.6065H86.3448C86.5271 79.1989 86.8171 78.8741 87.2148 78.6321C87.6126 78.3868 88.0865 78.2642 88.6367 78.2642C89.3294 78.2642 89.8945 78.4813 90.332 78.9155C90.7728 79.3497 90.9933 80.0043 90.9933 80.8793V86H89.5067V81.0185C89.5067 80.5014 89.3659 80.1269 89.0842 79.8949C88.8024 79.6629 88.466 79.5469 88.0749 79.5469C87.591 79.5469 87.2148 79.696 86.9464 79.9943C86.6779 80.2893 86.5437 80.6688 86.5437 81.1328V86H85.0621V80.924C85.0621 80.5097 84.9329 80.1766 84.6744 79.9247C84.4158 79.6728 84.0794 79.5469 83.6651 79.5469C83.3834 79.5469 83.1232 79.6214 82.8846 79.7706C82.6493 79.9164 82.4587 80.1203 82.3129 80.3821C82.1703 80.6439 82.0991 80.9472 82.0991 81.2919V86H80.6126ZM92.9856 86V78.3636H94.4721V86H92.9856ZM93.7363 77.1854C93.4778 77.1854 93.2557 77.0992 93.0701 76.9268C92.8878 76.7512 92.7967 76.5424 92.7967 76.3004C92.7967 76.0552 92.8878 75.8464 93.0701 75.674C93.2557 75.4983 93.4778 75.4105 93.7363 75.4105C93.9949 75.4105 94.2153 75.4983 94.3975 75.674C94.5832 75.8464 94.676 76.0552 94.676 76.3004C94.676 76.5424 94.5832 76.7512 94.3975 76.9268C94.2153 77.0992 93.9949 77.1854 93.7363 77.1854ZM99.7631 86.1541C99.0108 86.1541 98.3628 85.9934 97.8192 85.6719C97.279 85.3471 96.8614 84.8913 96.5664 84.3047C96.2747 83.7147 96.1289 83.0237 96.1289 82.2315C96.1289 81.4493 96.2747 80.7599 96.5664 80.1634C96.8614 79.5668 97.2724 79.1011 97.7994 78.7663C98.3297 78.4316 98.9495 78.2642 99.6587 78.2642C100.09 78.2642 100.507 78.3355 100.912 78.478C101.316 78.6205 101.679 78.8442 102 79.1491C102.322 79.4541 102.575 79.8501 102.761 80.3374C102.947 80.8213 103.039 81.4096 103.039 82.1023V82.6293H96.9691V81.5156H101.583C101.583 81.1245 101.503 80.7782 101.344 80.4766C101.185 80.1716 100.961 79.9313 100.673 79.7557C100.388 79.58 100.053 79.4922 99.6687 79.4922C99.2511 79.4922 98.8865 79.5949 98.5749 79.8004C98.2667 80.0026 98.0281 80.2678 97.859 80.5959C97.6933 80.9207 97.6104 81.2737 97.6104 81.6548V82.5249C97.6104 83.0353 97.6999 83.4695 97.8789 83.8274C98.0612 84.1854 98.3147 84.4588 98.6396 84.6477C98.9644 84.8333 99.3439 84.9261 99.7781 84.9261C100.06 84.9261 100.317 84.8864 100.549 84.8068C100.781 84.724 100.981 84.6013 101.15 84.4389C101.319 84.2765 101.449 84.076 101.538 83.8374L102.945 84.0909C102.832 84.5052 102.63 84.8681 102.338 85.1797C102.05 85.4879 101.687 85.7282 101.25 85.9006C100.815 86.0696 100.32 86.1541 99.7631 86.1541ZM110.411 80.228L109.064 80.4666C109.007 80.2943 108.918 80.1302 108.795 79.9744C108.676 79.8187 108.514 79.6911 108.308 79.5916C108.103 79.4922 107.846 79.4425 107.537 79.4425C107.117 79.4425 106.765 79.5369 106.483 79.7259C106.202 79.9115 106.061 80.1518 106.061 80.4467C106.061 80.7019 106.155 80.9074 106.344 81.0632C106.533 81.219 106.838 81.3466 107.259 81.446L108.472 81.7244C109.175 81.8868 109.698 82.1371 110.043 82.4751C110.388 82.8132 110.56 83.2524 110.56 83.7926C110.56 84.25 110.428 84.6577 110.162 85.0156C109.901 85.3703 109.534 85.6487 109.064 85.8509C108.596 86.053 108.055 86.1541 107.438 86.1541C106.583 86.1541 105.885 85.9718 105.345 85.6072C104.805 85.2393 104.473 84.7173 104.351 84.0412L105.787 83.8224C105.877 84.197 106.061 84.4804 106.339 84.6726C106.618 84.8615 106.981 84.956 107.428 84.956C107.915 84.956 108.305 84.8549 108.596 84.6527C108.888 84.4472 109.034 84.197 109.034 83.902C109.034 83.6634 108.944 83.4628 108.765 83.3004C108.59 83.138 108.32 83.0154 107.955 82.9325L106.662 82.6491C105.95 82.4867 105.423 82.2282 105.081 81.8736C104.743 81.5189 104.574 81.0698 104.574 80.5263C104.574 80.0755 104.7 79.6811 104.952 79.343C105.204 79.005 105.552 78.7415 105.996 78.5526C106.44 78.3603 106.949 78.2642 107.523 78.2642C108.348 78.2642 108.997 78.4432 109.471 78.8011C109.945 79.1558 110.259 79.6314 110.411 80.228ZM115.9 86V78.3636H117.386V86H115.9ZM116.65 77.1854C116.392 77.1854 116.17 77.0992 115.984 76.9268C115.802 76.7512 115.711 76.5424 115.711 76.3004C115.711 76.0552 115.802 75.8464 115.984 75.674C116.17 75.4983 116.392 75.4105 116.65 75.4105C116.909 75.4105 117.129 75.4983 117.312 75.674C117.497 75.8464 117.59 76.0552 117.59 76.3004C117.59 76.5424 117.497 76.7512 117.312 76.9268C117.129 77.0992 116.909 77.1854 116.65 77.1854ZM120.873 81.4659V86H119.386V78.3636H120.813V79.6065H120.907C121.083 79.2022 121.358 78.8774 121.733 78.6321C122.11 78.3868 122.586 78.2642 123.159 78.2642C123.68 78.2642 124.136 78.3736 124.527 78.5923C124.918 78.8078 125.221 79.1293 125.436 79.5568C125.652 79.9844 125.76 80.513 125.76 81.1428V86H124.273V81.3217C124.273 80.7682 124.129 80.3357 123.841 80.0241C123.552 79.7093 123.156 79.5518 122.652 79.5518C122.308 79.5518 122.001 79.6264 121.733 79.7756C121.467 79.9247 121.257 80.1435 121.101 80.4318C120.949 80.7169 120.873 81.0616 120.873 81.4659ZM133.475 80.228L132.128 80.4666C132.072 80.2943 131.982 80.1302 131.86 79.9744C131.74 79.8187 131.578 79.6911 131.373 79.5916C131.167 79.4922 130.91 79.4425 130.602 79.4425C130.181 79.4425 129.83 79.5369 129.548 79.7259C129.266 79.9115 129.125 80.1518 129.125 80.4467C129.125 80.7019 129.22 80.9074 129.409 81.0632C129.598 81.219 129.903 81.3466 130.324 81.446L131.537 81.7244C132.239 81.8868 132.763 82.1371 133.108 82.4751C133.452 82.8132 133.625 83.2524 133.625 83.7926C133.625 84.25 133.492 84.6577 133.227 85.0156C132.965 85.3703 132.599 85.6487 132.128 85.8509C131.661 86.053 131.119 86.1541 130.502 86.1541C129.647 86.1541 128.95 85.9718 128.409 85.6072C127.869 85.2393 127.538 84.7173 127.415 84.0412L128.852 83.8224C128.941 84.197 129.125 84.4804 129.404 84.6726C129.682 84.8615 130.045 84.956 130.493 84.956C130.98 84.956 131.369 84.8549 131.661 84.6527C131.953 84.4472 132.098 84.197 132.098 83.902C132.098 83.6634 132.009 83.4628 131.83 83.3004C131.654 83.138 131.384 83.0154 131.02 82.9325L129.727 82.6491C129.014 82.4867 128.487 82.2282 128.146 81.8736C127.808 81.5189 127.639 81.0698 127.639 80.5263C127.639 80.0755 127.765 79.6811 128.017 79.343C128.269 79.005 128.617 78.7415 129.061 78.5526C129.505 78.3603 130.014 78.2642 130.587 78.2642C131.412 78.2642 132.062 78.4432 132.536 78.8011C133.01 79.1558 133.323 79.6314 133.475 80.228ZM135.259 86V78.3636H136.746V86H135.259ZM136.01 77.1854C135.751 77.1854 135.529 77.0992 135.344 76.9268C135.161 76.7512 135.07 76.5424 135.07 76.3004C135.07 76.0552 135.161 75.8464 135.344 75.674C135.529 75.4983 135.751 75.4105 136.01 75.4105C136.268 75.4105 136.489 75.4983 136.671 75.674C136.857 75.8464 136.949 76.0552 136.949 76.3004C136.949 76.5424 136.857 76.7512 136.671 76.9268C136.489 77.0992 136.268 77.1854 136.01 77.1854ZM141.604 86.1491C140.988 86.1491 140.437 85.9917 139.953 85.6768C139.473 85.3587 139.095 84.9062 138.82 84.3196C138.548 83.7296 138.412 83.022 138.412 82.1967C138.412 81.3714 138.55 80.6655 138.825 80.0788C139.103 79.4922 139.484 79.0431 139.968 78.7315C140.452 78.42 141.001 78.2642 141.614 78.2642C142.088 78.2642 142.469 78.3438 142.757 78.5028C143.049 78.6586 143.275 78.8409 143.434 79.0497C143.596 79.2585 143.722 79.4425 143.811 79.6016H143.901V75.8182H145.387V86H143.936V84.8118H143.811C143.722 84.9742 143.593 85.1598 143.424 85.3686C143.258 85.5774 143.029 85.7597 142.738 85.9155C142.446 86.0713 142.068 86.1491 141.604 86.1491ZM141.932 84.8814C142.36 84.8814 142.721 84.7687 143.016 84.5433C143.314 84.3146 143.54 83.9981 143.692 83.5938C143.848 83.1894 143.926 82.7187 143.926 82.1818C143.926 81.6515 143.85 81.1875 143.697 80.7898C143.545 80.392 143.321 80.0821 143.026 79.8601C142.731 79.638 142.366 79.527 141.932 79.527C141.485 79.527 141.112 79.643 140.814 79.875C140.515 80.107 140.29 80.4235 140.137 80.8246C139.988 81.2256 139.914 81.678 139.914 82.1818C139.914 82.6922 139.99 83.1513 140.142 83.5589C140.295 83.9666 140.52 84.2898 140.819 84.5284C141.12 84.7637 141.491 84.8814 141.932 84.8814ZM150.8 86.1541C150.048 86.1541 149.4 85.9934 148.856 85.6719C148.316 85.3471 147.898 84.8913 147.604 84.3047C147.312 83.7147 147.166 83.0237 147.166 82.2315C147.166 81.4493 147.312 80.7599 147.604 80.1634C147.898 79.5668 148.309 79.1011 148.836 78.7663C149.367 78.4316 149.987 78.2642 150.696 78.2642C151.127 78.2642 151.544 78.3355 151.949 78.478C152.353 78.6205 152.716 78.8442 153.037 79.1491C153.359 79.4541 153.613 79.8501 153.798 80.3374C153.984 80.8213 154.077 81.4096 154.077 82.1023V82.6293H148.006V81.5156H152.62C152.62 81.1245 152.54 80.7782 152.381 80.4766C152.222 80.1716 151.998 79.9313 151.71 79.7557C151.425 79.58 151.09 79.4922 150.706 79.4922C150.288 79.4922 149.924 79.5949 149.612 79.8004C149.304 80.0026 149.065 80.2678 148.896 80.5959C148.73 80.9207 148.648 81.2737 148.648 81.6548V82.5249C148.648 83.0353 148.737 83.4695 148.916 83.8274C149.098 84.1854 149.352 84.4588 149.677 84.6477C150.001 84.8333 150.381 84.9261 150.815 84.9261C151.097 84.9261 151.354 84.8864 151.586 84.8068C151.818 84.724 152.018 84.6013 152.187 84.4389C152.356 84.2765 152.486 84.076 152.575 83.8374L153.982 84.0909C153.869 84.5052 153.667 84.8681 153.376 85.1797C153.087 85.4879 152.724 85.7282 152.287 85.9006C151.853 86.0696 151.357 86.1541 150.8 86.1541Z" fill="#343057"/>
</svg>
