<svg width="550" height="188" viewBox="0 0 550 188" fill="none" xmlns="http://www.w3.org/2000/svg">
<path fill-rule="evenodd" clip-rule="evenodd" d="M547.211 182C545.817 182 544.688 183.13 544.688 184.523C544.688 185.917 545.817 187.047 547.211 187.047C548.605 187.047 549.734 185.917 549.734 184.523C549.734 183.13 548.605 182 547.211 182ZM184.211 182C182.817 182 181.688 183.13 181.688 184.523C181.688 185.917 182.817 187.047 184.211 187.047C185.605 187.047 186.734 185.917 186.734 184.523C186.734 183.13 185.605 182 184.211 182ZM181.688 139.102C181.688 137.708 182.817 136.578 184.211 136.578C185.605 136.578 186.734 137.708 186.734 139.102C186.734 140.495 185.605 141.625 184.211 141.625C182.817 141.625 181.688 140.495 181.688 139.102ZM547.211 136.578C545.817 136.578 544.688 137.708 544.688 139.102C544.688 140.495 545.817 141.625 547.211 141.625C548.605 141.625 549.734 140.495 549.734 139.102C549.734 137.708 548.605 136.578 547.211 136.578ZM181.688 93.6797C181.688 92.286 182.817 91.1562 184.211 91.1562C185.605 91.1562 186.734 92.286 186.734 93.6797C186.734 95.0733 185.605 96.2031 184.211 96.2031C182.817 96.2031 181.688 95.0733 181.688 93.6797ZM547.211 91.1562C545.817 91.1562 544.688 92.286 544.688 93.6797C544.688 95.0733 545.817 96.2031 547.211 96.2031C548.605 96.2031 549.734 95.0733 549.734 93.6797C549.734 92.286 548.605 91.1562 547.211 91.1562ZM181.688 48.2578C181.688 46.8641 182.817 45.7343 184.211 45.7343C185.605 45.7343 186.734 46.8641 186.734 48.2578C186.734 49.6514 185.605 50.7812 184.211 50.7812C182.817 50.7812 181.688 49.6514 181.688 48.2578ZM184.211 -3.19551e-05C182.817 -3.20769e-05 181.688 1.12974 181.688 2.52341C181.688 3.91707 182.817 5.04684 184.211 5.04684C185.605 5.04684 186.734 3.91707 186.734 2.52341C186.734 1.12974 185.605 -3.18332e-05 184.211 -3.19551e-05ZM544.688 48.2578C544.688 46.8642 545.817 45.7344 547.211 45.7344C548.605 45.7344 549.734 46.8642 549.734 48.2578C549.734 49.6515 548.605 50.7812 547.211 50.7812C545.817 50.7812 544.688 49.6515 544.688 48.2578ZM547.211 -2.20606e-07C545.817 -3.42443e-07 544.688 1.12978 544.688 2.52344C544.688 3.9171 545.817 5.04687 547.211 5.04687C548.605 5.04687 549.734 3.9171 549.734 2.52344C549.734 1.12978 548.605 -9.87687e-08 547.211 -2.20606e-07ZM136.266 184.523C136.266 183.13 137.395 182 138.789 182C140.183 182 141.313 183.13 141.313 184.523C141.313 185.917 140.183 187.047 138.789 187.047C137.395 187.047 136.266 185.917 136.266 184.523ZM501.789 182C500.395 182 499.266 183.13 499.266 184.523C499.266 185.917 500.395 187.047 501.789 187.047C503.183 187.047 504.313 185.917 504.313 184.523C504.313 183.13 503.183 182 501.789 182ZM136.266 139.102C136.266 137.708 137.395 136.578 138.789 136.578C140.183 136.578 141.313 137.708 141.313 139.102C141.313 140.495 140.183 141.625 138.789 141.625C137.395 141.625 136.266 140.495 136.266 139.102ZM501.789 136.578C500.395 136.578 499.266 137.708 499.266 139.102C499.266 140.495 500.395 141.625 501.789 141.625C503.183 141.625 504.313 140.495 504.313 139.102C504.313 137.708 503.183 136.578 501.789 136.578ZM136.266 93.6797C136.266 92.286 137.395 91.1562 138.789 91.1562C140.183 91.1562 141.313 92.286 141.313 93.6797C141.313 95.0733 140.183 96.2031 138.789 96.2031C137.395 96.2031 136.266 95.0733 136.266 93.6797ZM501.789 91.1562C500.395 91.1562 499.266 92.286 499.266 93.6797C499.266 95.0733 500.395 96.2031 501.789 96.2031C503.183 96.2031 504.313 95.0733 504.313 93.6797C504.313 92.286 503.183 91.1562 501.789 91.1562ZM136.266 48.2578C136.266 46.8641 137.395 45.7343 138.789 45.7343C140.183 45.7343 141.313 46.8641 141.313 48.2578C141.313 49.6514 140.183 50.7812 138.789 50.7812C137.395 50.7812 136.266 49.6514 136.266 48.2578ZM138.789 -3.5926e-05C137.395 -3.60478e-05 136.266 1.12974 136.266 2.5234C136.266 3.91706 137.395 5.04684 138.789 5.04684C140.183 5.04684 141.313 3.91706 141.313 2.5234C141.313 1.12974 140.183 -3.58041e-05 138.789 -3.5926e-05ZM499.266 48.2578C499.266 46.8641 500.395 45.7344 501.789 45.7344C503.183 45.7344 504.313 46.8641 504.313 48.2578C504.313 49.6515 503.183 50.7812 501.789 50.7812C500.395 50.7812 499.266 49.6515 499.266 48.2578ZM501.789 -4.19151e-06C500.395 -4.31335e-06 499.266 1.12977 499.266 2.52343C499.266 3.91709 500.395 5.04687 501.789 5.04687C503.183 5.04687 504.313 3.9171 504.313 2.52343C504.313 1.12977 503.183 -4.06967e-06 501.789 -4.19151e-06ZM90.8438 184.523C90.8438 183.13 91.9735 182 93.3672 182C94.7608 182 95.8906 183.13 95.8906 184.523C95.8906 185.917 94.7608 187.047 93.3672 187.047C91.9735 187.047 90.8438 185.917 90.8438 184.523ZM456.367 182C454.974 182 453.844 183.13 453.844 184.523C453.844 185.917 454.974 187.047 456.367 187.047C457.761 187.047 458.891 185.917 458.891 184.523C458.891 183.13 457.761 182 456.367 182ZM90.8438 139.102C90.8438 137.708 91.9735 136.578 93.3672 136.578C94.7608 136.578 95.8906 137.708 95.8906 139.102C95.8906 140.495 94.7608 141.625 93.3672 141.625C91.9735 141.625 90.8438 140.495 90.8438 139.102ZM456.367 136.578C454.974 136.578 453.844 137.708 453.844 139.102C453.844 140.495 454.974 141.625 456.367 141.625C457.761 141.625 458.891 140.495 458.891 139.102C458.891 137.708 457.761 136.578 456.367 136.578ZM90.8438 93.6796C90.8438 92.286 91.9735 91.1562 93.3672 91.1562C94.7608 91.1562 95.8906 92.286 95.8906 93.6796C95.8906 95.0733 94.7608 96.2031 93.3672 96.2031C91.9735 96.2031 90.8438 95.0733 90.8438 93.6796ZM456.367 91.1562C454.974 91.1562 453.844 92.286 453.844 93.6797C453.844 95.0733 454.974 96.2031 456.367 96.2031C457.761 96.2031 458.891 95.0733 458.891 93.6797C458.891 92.286 457.761 91.1562 456.367 91.1562ZM90.8438 48.2578C90.8438 46.8641 91.9736 45.7343 93.3672 45.7343C94.7608 45.7343 95.8906 46.8641 95.8906 48.2578C95.8906 49.6514 94.7608 50.7812 93.3672 50.7812C91.9736 50.7812 90.8438 49.6514 90.8438 48.2578ZM93.3672 -3.98969e-05C91.9736 -4.00187e-05 90.8438 1.12974 90.8438 2.5234C90.8438 3.91706 91.9736 5.04683 93.3672 5.04684C94.7608 5.04684 95.8906 3.91706 95.8906 2.5234C95.8906 1.12974 94.7609 -3.97751e-05 93.3672 -3.98969e-05ZM453.844 48.2578C453.844 46.8641 454.974 45.7344 456.367 45.7344C457.761 45.7344 458.891 46.8641 458.891 48.2578C458.891 49.6515 457.761 50.7812 456.367 50.7812C454.974 50.7812 453.844 49.6515 453.844 48.2578ZM456.367 -8.16242e-06C454.974 -8.28426e-06 453.844 1.12977 453.844 2.52343C453.844 3.91709 454.974 5.04687 456.367 5.04687C457.761 5.04687 458.891 3.91709 458.891 2.52343C458.891 1.12977 457.761 -8.04058e-06 456.367 -8.16242e-06ZM45.4219 184.523C45.4219 183.13 46.5517 182 47.9453 182C49.339 182 50.4688 183.13 50.4688 184.523C50.4688 185.917 49.339 187.047 47.9453 187.047C46.5517 187.047 45.4219 185.917 45.4219 184.523ZM410.945 182C409.552 182 408.422 183.13 408.422 184.523C408.422 185.917 409.552 187.047 410.945 187.047C412.339 187.047 413.469 185.917 413.469 184.523C413.469 183.13 412.339 182 410.945 182ZM45.4219 139.102C45.4219 137.708 46.5517 136.578 47.9453 136.578C49.339 136.578 50.4688 137.708 50.4688 139.102C50.4688 140.495 49.339 141.625 47.9453 141.625C46.5517 141.625 45.4219 140.495 45.4219 139.102ZM410.945 136.578C409.552 136.578 408.422 137.708 408.422 139.102C408.422 140.495 409.552 141.625 410.945 141.625C412.339 141.625 413.469 140.495 413.469 139.102C413.469 137.708 412.339 136.578 410.945 136.578ZM45.4219 93.6796C45.4219 92.286 46.5517 91.1562 47.9453 91.1562C49.339 91.1562 50.4688 92.286 50.4688 93.6796C50.4688 95.0733 49.339 96.2031 47.9453 96.2031C46.5517 96.2031 45.4219 95.0733 45.4219 93.6796ZM410.945 91.1562C409.552 91.1562 408.422 92.286 408.422 93.6797C408.422 95.0733 409.552 96.2031 410.945 96.2031C412.339 96.2031 413.469 95.0733 413.469 93.6797C413.469 92.286 412.339 91.1562 410.945 91.1562ZM45.4219 48.2578C45.4219 46.8641 46.5517 45.7343 47.9453 45.7343C49.339 45.7343 50.4688 46.8641 50.4688 48.2578C50.4688 49.6514 49.339 50.7812 47.9453 50.7812C46.5517 50.7812 45.4219 49.6514 45.4219 48.2578ZM47.9453 -4.38678e-05C46.5517 -4.39896e-05 45.4219 1.12973 45.4219 2.52339C45.4219 3.91705 46.5517 5.04683 47.9453 5.04683C49.339 5.04683 50.4688 3.91706 50.4688 2.52339C50.4688 1.12973 49.339 -4.3746e-05 47.9453 -4.38678e-05ZM408.422 48.2578C408.422 46.8641 409.552 45.7344 410.945 45.7344C412.339 45.7344 413.469 46.8641 413.469 48.2578C413.469 49.6515 412.339 50.7812 410.945 50.7812C409.552 50.7812 408.422 49.6515 408.422 48.2578ZM410.945 -1.21333e-05C409.552 -1.22552e-05 408.422 1.12976 408.422 2.52343C408.422 3.91709 409.552 5.04686 410.945 5.04686C412.339 5.04686 413.469 3.91709 413.469 2.52343C413.469 1.12976 412.339 -1.20115e-05 410.945 -1.21333e-05ZM2.20606e-07 184.523C3.42443e-07 183.13 1.12976 182 2.52344 182C3.91711 182 5.04688 183.13 5.04688 184.523C5.04688 185.917 3.91711 187.047 2.52344 187.047C1.12976 187.047 9.87686e-08 185.917 2.20606e-07 184.523ZM365.523 182C364.13 182 363 183.13 363 184.523C363 185.917 364.13 187.047 365.523 187.047C366.917 187.047 368.047 185.917 368.047 184.523C368.047 183.13 366.917 182 365.523 182ZM4.19151e-06 139.102C4.31335e-06 137.708 1.12977 136.578 2.52344 136.578C3.91712 136.578 5.04688 137.708 5.04688 139.102C5.04688 140.495 3.91712 141.625 2.52344 141.625C1.12976 141.625 4.06967e-06 140.495 4.19151e-06 139.102ZM365.523 136.578C364.13 136.578 363 137.708 363 139.102C363 140.495 364.13 141.625 365.523 141.625C366.917 141.625 368.047 140.495 368.047 139.102C368.047 137.708 366.917 136.578 365.523 136.578ZM8.16242e-06 93.6796C8.28426e-06 92.286 1.12977 91.1562 2.52345 91.1562C3.91712 91.1562 5.04688 92.286 5.04688 93.6796C5.04688 95.0733 3.91712 96.2031 2.52345 96.2031C1.12977 96.2031 8.04058e-06 95.0733 8.16242e-06 93.6796ZM365.523 91.1562C364.13 91.1562 363 92.286 363 93.6797C363 95.0733 364.13 96.2031 365.523 96.2031C366.917 96.2031 368.047 95.0733 368.047 93.6797C368.047 92.286 366.917 91.1562 365.523 91.1562ZM1.21333e-05 48.2578C1.22552e-05 46.8641 1.12977 45.7343 2.52345 45.7343C3.91713 45.7343 5.04689 46.8641 5.04689 48.2578C5.04689 49.6514 3.91713 50.7812 2.52345 50.7812C1.12977 50.7812 1.20115e-05 49.6514 1.21333e-05 48.2578ZM2.52345 -4.78387e-05C1.12978 -4.79605e-05 1.62534e-05 1.12973 1.61316e-05 2.52339C1.60097e-05 3.91705 1.12978 5.04683 2.52345 5.04683C3.91713 5.04683 5.04689 3.91705 5.04689 2.52339C5.04689 1.12973 3.91713 -4.77169e-05 2.52345 -4.78387e-05ZM363 48.2578C363 46.8641 364.13 45.7344 365.523 45.7344C366.917 45.7344 368.047 46.8641 368.047 48.2578C368.047 49.6515 366.917 50.7812 365.523 50.7812C364.13 50.7812 363 49.6515 363 48.2578ZM365.523 -1.61042e-05C364.13 -1.62261e-05 363 1.12976 363 2.52342C363 3.91708 364.13 5.04686 365.523 5.04686C366.917 5.04686 368.047 3.91708 368.047 2.52342C368.047 1.12976 366.917 -1.59824e-05 365.523 -1.61042e-05ZM317.578 184.523C317.578 183.13 318.708 182 320.102 182C321.495 182 322.625 183.13 322.625 184.523C322.625 185.917 321.495 187.047 320.102 187.047C318.708 187.047 317.578 185.917 317.578 184.523ZM320.102 136.578C318.708 136.578 317.578 137.708 317.578 139.102C317.578 140.495 318.708 141.625 320.102 141.625C321.495 141.625 322.625 140.495 322.625 139.102C322.625 137.708 321.495 136.578 320.102 136.578ZM317.578 93.6797C317.578 92.286 318.708 91.1562 320.102 91.1562C321.495 91.1562 322.625 92.286 322.625 93.6797C322.625 95.0733 321.495 96.2031 320.102 96.2031C318.708 96.2031 317.578 95.0733 317.578 93.6797ZM320.102 45.7344C318.708 45.7344 317.578 46.8641 317.578 48.2578C317.578 49.6515 318.708 50.7812 320.102 50.7812C321.495 50.7812 322.625 49.6515 322.625 48.2578C322.625 46.8641 321.495 45.7344 320.102 45.7344ZM317.578 2.52342C317.578 1.12976 318.708 -2.0197e-05 320.102 -2.00751e-05C321.495 -1.99533e-05 322.625 1.12976 322.625 2.52342C322.625 3.91708 321.495 5.04686 320.102 5.04685C318.708 5.04685 317.578 3.91708 317.578 2.52342ZM274.68 182C273.286 182 272.156 183.13 272.156 184.523C272.156 185.917 273.286 187.047 274.68 187.047C276.073 187.047 277.203 185.917 277.203 184.523C277.203 183.13 276.073 182 274.68 182ZM272.156 139.102C272.156 137.708 273.286 136.578 274.68 136.578C276.073 136.578 277.203 137.708 277.203 139.102C277.203 140.495 276.073 141.625 274.68 141.625C273.286 141.625 272.156 140.495 272.156 139.102ZM274.68 91.1562C273.286 91.1562 272.156 92.286 272.156 93.6797C272.156 95.0733 273.286 96.2031 274.68 96.2031C276.073 96.2031 277.203 95.0733 277.203 93.6797C277.203 92.286 276.073 91.1562 274.68 91.1562ZM272.156 48.2578C272.156 46.8641 273.286 45.7344 274.68 45.7344C276.073 45.7344 277.203 46.8641 277.203 48.2578C277.203 49.6515 276.073 50.7812 274.68 50.7812C273.286 50.7812 272.156 49.6514 272.156 48.2578ZM274.68 -2.4046e-05C273.286 -2.41679e-05 272.156 1.12975 272.156 2.52341C272.156 3.91707 273.286 5.04685 274.68 5.04685C276.073 5.04685 277.203 3.91708 277.203 2.52341C277.203 1.12975 276.073 -2.39242e-05 274.68 -2.4046e-05ZM226.734 184.523C226.734 183.13 227.864 182 229.258 182C230.651 182 231.781 183.13 231.781 184.523C231.781 185.917 230.651 187.047 229.258 187.047C227.864 187.047 226.734 185.917 226.734 184.523ZM229.258 136.578C227.864 136.578 226.734 137.708 226.734 139.102C226.734 140.495 227.864 141.625 229.258 141.625C230.651 141.625 231.781 140.495 231.781 139.102C231.781 137.708 230.651 136.578 229.258 136.578ZM226.734 93.6797C226.734 92.286 227.864 91.1562 229.258 91.1562C230.651 91.1562 231.781 92.286 231.781 93.6797C231.781 95.0733 230.651 96.2031 229.258 96.2031C227.864 96.2031 226.734 95.0733 226.734 93.6797ZM229.258 45.7343C227.864 45.7343 226.734 46.8641 226.734 48.2578C226.734 49.6514 227.864 50.7812 229.258 50.7812C230.651 50.7812 231.781 49.6514 231.781 48.2578C231.781 46.8641 230.651 45.7343 229.258 45.7343ZM226.734 2.52341C226.734 1.12975 227.864 -2.81388e-05 229.258 -2.8017e-05C230.651 -2.78951e-05 231.781 1.12975 231.781 2.52341C231.781 3.91707 230.651 5.04685 229.258 5.04685C227.864 5.04685 226.734 3.91707 226.734 2.52341Z" fill="url(#paint0_linear_71_438)"/>
<defs>
<linearGradient id="paint0_linear_71_438" x1="8.17608e-06" y1="93.5234" x2="549.734" y2="93.5234" gradientUnits="userSpaceOnUse">
<stop stop-color="#928DC4"/>
<stop offset="1" stop-color="#D3CFFA"/>
</linearGradient>
</defs>
</svg>
