<svg width="550" height="188" viewBox="0 0 550 188" fill="none" xmlns="http://www.w3.org/2000/svg">
<path fill-rule="evenodd" clip-rule="evenodd" d="M2.52344 182C3.91709 182 5.04688 183.13 5.04688 184.523C5.04688 185.917 3.91709 187.047 2.52344 187.047C1.12978 187.047 0 185.917 0 184.523C0 183.13 1.12978 182 2.52344 182ZM365.523 182C366.917 182 368.047 183.13 368.047 184.523C368.047 185.917 366.917 187.047 365.523 187.047C364.13 187.047 363 185.917 363 184.523C363 183.13 364.13 182 365.523 182ZM368.047 139.102C368.047 137.708 366.917 136.578 365.523 136.578C364.13 136.578 363 137.708 363 139.102C363 140.495 364.13 141.625 365.523 141.625C366.917 141.625 368.047 140.495 368.047 139.102ZM2.52344 136.578C3.91709 136.578 5.04688 137.708 5.04688 139.102C5.04688 140.495 3.91709 141.625 2.52344 141.625C1.12978 141.625 0 140.495 0 139.102C0 137.708 1.12978 136.578 2.52344 136.578ZM368.047 93.6797C368.047 92.286 366.917 91.1563 365.523 91.1563C364.13 91.1563 363 92.286 363 93.6797C363 95.0733 364.13 96.2031 365.523 96.2031C366.917 96.2031 368.047 95.0733 368.047 93.6797ZM2.52344 91.1562C3.91709 91.1562 5.04688 92.286 5.04688 93.6797C5.04688 95.0733 3.91709 96.2031 2.52344 96.2031C1.12978 96.2031 0 95.0733 0 93.6797C0 92.286 1.12978 91.1562 2.52344 91.1562ZM368.047 48.2578C368.047 46.8642 366.917 45.7344 365.523 45.7344C364.13 45.7344 363 46.8642 363 48.2578C363 49.6515 364.13 50.7813 365.523 50.7813C366.917 50.7813 368.047 49.6515 368.047 48.2578ZM365.523 0C366.917 0 368.047 1.12978 368.047 2.52344C368.047 3.9171 366.917 5.04688 365.523 5.04688C364.13 5.04688 363 3.9171 363 2.52344C363 1.12978 364.13 0 365.523 0ZM5.04688 48.2578C5.04688 46.8642 3.91709 45.7344 2.52344 45.7344C1.12978 45.7344 0 46.8642 0 48.2578C0 49.6515 1.12978 50.7812 2.52344 50.7812C3.91709 50.7812 5.04688 49.6515 5.04688 48.2578ZM2.52344 0C3.91709 0 5.04688 1.12978 5.04688 2.52344C5.04688 3.9171 3.91709 5.04688 2.52344 5.04688C1.12978 5.04688 0 3.9171 0 2.52344C0 1.12978 1.12978 0 2.52344 0ZM413.469 184.523C413.469 183.13 412.339 182 410.945 182C409.552 182 408.422 183.13 408.422 184.523C408.422 185.917 409.552 187.047 410.945 187.047C412.339 187.047 413.469 185.917 413.469 184.523ZM47.9453 182C49.339 182 50.4688 183.13 50.4688 184.523C50.4688 185.917 49.339 187.047 47.9453 187.047C46.5517 187.047 45.4219 185.917 45.4219 184.523C45.4219 183.13 46.5517 182 47.9453 182ZM413.469 139.102C413.469 137.708 412.339 136.578 410.945 136.578C409.552 136.578 408.422 137.708 408.422 139.102C408.422 140.495 409.552 141.625 410.945 141.625C412.339 141.625 413.469 140.495 413.469 139.102ZM47.9453 136.578C49.339 136.578 50.4688 137.708 50.4688 139.102C50.4688 140.495 49.339 141.625 47.9453 141.625C46.5517 141.625 45.4219 140.495 45.4219 139.102C45.4219 137.708 46.5517 136.578 47.9453 136.578ZM413.469 93.6797C413.469 92.286 412.339 91.1563 410.945 91.1563C409.552 91.1563 408.422 92.286 408.422 93.6797C408.422 95.0733 409.552 96.2031 410.945 96.2031C412.339 96.2031 413.469 95.0733 413.469 93.6797ZM47.9453 91.1563C49.339 91.1563 50.4688 92.286 50.4688 93.6797C50.4688 95.0733 49.339 96.2031 47.9453 96.2031C46.5517 96.2031 45.4219 95.0733 45.4219 93.6797C45.4219 92.286 46.5517 91.1563 47.9453 91.1563ZM413.469 48.2578C413.469 46.8642 412.339 45.7344 410.945 45.7344C409.552 45.7344 408.422 46.8642 408.422 48.2578C408.422 49.6515 409.552 50.7813 410.945 50.7813C412.339 50.7813 413.469 49.6515 413.469 48.2578ZM410.945 0C412.339 0 413.469 1.12978 413.469 2.52344C413.469 3.9171 412.339 5.04688 410.945 5.04688C409.552 5.04688 408.422 3.9171 408.422 2.52344C408.422 1.12978 409.552 0 410.945 0ZM50.4688 48.2578C50.4688 46.8642 49.339 45.7344 47.9453 45.7344C46.5517 45.7344 45.4219 46.8642 45.4219 48.2578C45.4219 49.6515 46.5517 50.7812 47.9453 50.7812C49.339 50.7812 50.4688 49.6515 50.4688 48.2578ZM47.9453 0C49.339 0 50.4688 1.12978 50.4688 2.52344C50.4688 3.9171 49.339 5.04688 47.9453 5.04688C46.5517 5.04688 45.4219 3.9171 45.4219 2.52344C45.4219 1.12978 46.5517 0 47.9453 0ZM458.891 184.523C458.891 183.13 457.761 182 456.367 182C454.974 182 453.844 183.13 453.844 184.523C453.844 185.917 454.974 187.047 456.367 187.047C457.761 187.047 458.891 185.917 458.891 184.523ZM93.3672 182C94.7608 182 95.8906 183.13 95.8906 184.523C95.8906 185.917 94.7608 187.047 93.3672 187.047C91.9735 187.047 90.8438 185.917 90.8438 184.523C90.8438 183.13 91.9735 182 93.3672 182ZM458.891 139.102C458.891 137.708 457.761 136.578 456.367 136.578C454.974 136.578 453.844 137.708 453.844 139.102C453.844 140.495 454.974 141.625 456.367 141.625C457.761 141.625 458.891 140.495 458.891 139.102ZM93.3672 136.578C94.7608 136.578 95.8906 137.708 95.8906 139.102C95.8906 140.495 94.7608 141.625 93.3672 141.625C91.9735 141.625 90.8438 140.495 90.8438 139.102C90.8438 137.708 91.9735 136.578 93.3672 136.578ZM458.891 93.6797C458.891 92.286 457.761 91.1563 456.367 91.1563C454.974 91.1563 453.844 92.286 453.844 93.6797C453.844 95.0733 454.974 96.2031 456.367 96.2031C457.761 96.2031 458.891 95.0733 458.891 93.6797ZM93.3672 91.1563C94.7608 91.1563 95.8906 92.286 95.8906 93.6797C95.8906 95.0733 94.7608 96.2031 93.3672 96.2031C91.9735 96.2031 90.8438 95.0733 90.8438 93.6797C90.8438 92.286 91.9735 91.1563 93.3672 91.1563ZM458.891 48.2578C458.891 46.8642 457.761 45.7344 456.367 45.7344C454.974 45.7344 453.844 46.8642 453.844 48.2578C453.844 49.6515 454.974 50.7813 456.367 50.7813C457.761 50.7813 458.891 49.6515 458.891 48.2578ZM456.367 0C457.761 0 458.891 1.12978 458.891 2.52344C458.891 3.9171 457.761 5.04688 456.367 5.04688C454.974 5.04688 453.844 3.9171 453.844 2.52344C453.844 1.12978 454.974 0 456.367 0ZM95.8906 48.2578C95.8906 46.8642 94.7608 45.7344 93.3672 45.7344C91.9735 45.7344 90.8438 46.8642 90.8438 48.2578C90.8438 49.6515 91.9735 50.7813 93.3672 50.7813C94.7608 50.7813 95.8906 49.6515 95.8906 48.2578ZM93.3672 0C94.7608 0 95.8906 1.12978 95.8906 2.52344C95.8906 3.9171 94.7608 5.04688 93.3672 5.04688C91.9735 5.04688 90.8438 3.9171 90.8438 2.52344C90.8438 1.12978 91.9735 0 93.3672 0ZM504.312 184.523C504.312 183.13 503.183 182 501.789 182C500.395 182 499.266 183.13 499.266 184.523C499.266 185.917 500.395 187.047 501.789 187.047C503.183 187.047 504.312 185.917 504.312 184.523ZM138.789 182C140.183 182 141.312 183.13 141.312 184.523C141.312 185.917 140.183 187.047 138.789 187.047C137.395 187.047 136.266 185.917 136.266 184.523C136.266 183.13 137.395 182 138.789 182ZM504.312 139.102C504.312 137.708 503.183 136.578 501.789 136.578C500.395 136.578 499.266 137.708 499.266 139.102C499.266 140.495 500.395 141.625 501.789 141.625C503.183 141.625 504.312 140.495 504.312 139.102ZM138.789 136.578C140.183 136.578 141.312 137.708 141.312 139.102C141.312 140.495 140.183 141.625 138.789 141.625C137.395 141.625 136.266 140.495 136.266 139.102C136.266 137.708 137.395 136.578 138.789 136.578ZM504.312 93.6797C504.312 92.286 503.183 91.1563 501.789 91.1563C500.395 91.1563 499.266 92.286 499.266 93.6797C499.266 95.0733 500.395 96.2031 501.789 96.2031C503.183 96.2031 504.312 95.0733 504.312 93.6797ZM138.789 91.1563C140.183 91.1563 141.313 92.286 141.313 93.6797C141.313 95.0733 140.183 96.2031 138.789 96.2031C137.395 96.2031 136.266 95.0733 136.266 93.6797C136.266 92.286 137.395 91.1563 138.789 91.1563ZM504.312 48.2578C504.312 46.8642 503.183 45.7344 501.789 45.7344C500.395 45.7344 499.266 46.8642 499.266 48.2578C499.266 49.6515 500.395 50.7813 501.789 50.7813C503.183 50.7813 504.312 49.6515 504.312 48.2578ZM501.789 0C503.183 0 504.313 1.12978 504.313 2.52344C504.313 3.9171 503.183 5.04688 501.789 5.04688C500.395 5.04688 499.266 3.9171 499.266 2.52344C499.266 1.12978 500.395 0 501.789 0ZM141.313 48.2578C141.313 46.8642 140.183 45.7344 138.789 45.7344C137.395 45.7344 136.266 46.8642 136.266 48.2578C136.266 49.6515 137.395 50.7813 138.789 50.7813C140.183 50.7813 141.313 49.6515 141.313 48.2578ZM138.789 0C140.183 0 141.313 1.12978 141.313 2.52344C141.313 3.9171 140.183 5.04688 138.789 5.04688C137.395 5.04688 136.266 3.9171 136.266 2.52344C136.266 1.12978 137.395 0 138.789 0ZM549.734 184.523C549.734 183.13 548.605 182 547.211 182C545.817 182 544.688 183.13 544.688 184.523C544.688 185.917 545.817 187.047 547.211 187.047C548.605 187.047 549.734 185.917 549.734 184.523ZM184.211 182C185.605 182 186.734 183.13 186.734 184.523C186.734 185.917 185.605 187.047 184.211 187.047C182.817 187.047 181.688 185.917 181.688 184.523C181.688 183.13 182.817 182 184.211 182ZM549.734 139.102C549.734 137.708 548.605 136.578 547.211 136.578C545.817 136.578 544.688 137.708 544.688 139.102C544.688 140.495 545.817 141.625 547.211 141.625C548.605 141.625 549.734 140.495 549.734 139.102ZM184.211 136.578C185.605 136.578 186.734 137.708 186.734 139.102C186.734 140.495 185.605 141.625 184.211 141.625C182.817 141.625 181.688 140.495 181.688 139.102C181.688 137.708 182.817 136.578 184.211 136.578ZM549.734 93.6797C549.734 92.286 548.605 91.1563 547.211 91.1563C545.817 91.1563 544.688 92.286 544.688 93.6797C544.688 95.0733 545.817 96.2031 547.211 96.2031C548.605 96.2031 549.734 95.0733 549.734 93.6797ZM184.211 91.1563C185.605 91.1563 186.734 92.286 186.734 93.6797C186.734 95.0733 185.605 96.2031 184.211 96.2031C182.817 96.2031 181.688 95.0733 181.688 93.6797C181.688 92.286 182.817 91.1563 184.211 91.1563ZM549.734 48.2578C549.734 46.8642 548.605 45.7344 547.211 45.7344C545.817 45.7344 544.688 46.8642 544.688 48.2578C544.688 49.6515 545.817 50.7813 547.211 50.7813C548.605 50.7813 549.734 49.6515 549.734 48.2578ZM547.211 0C548.605 0 549.734 1.12978 549.734 2.52344C549.734 3.9171 548.605 5.04688 547.211 5.04688C545.817 5.04688 544.688 3.9171 544.688 2.52344C544.688 1.12978 545.817 0 547.211 0ZM186.734 48.2578C186.734 46.8642 185.605 45.7344 184.211 45.7344C182.817 45.7344 181.688 46.8642 181.688 48.2578C181.688 49.6515 182.817 50.7813 184.211 50.7813C185.605 50.7813 186.734 49.6515 186.734 48.2578ZM184.211 0C185.605 0 186.734 1.12978 186.734 2.52344C186.734 3.9171 185.605 5.04688 184.211 5.04688C182.817 5.04688 181.688 3.9171 181.688 2.52344C181.688 1.12978 182.817 0 184.211 0ZM232.156 184.523C232.156 183.13 231.026 182 229.633 182C228.239 182 227.109 183.13 227.109 184.523C227.109 185.917 228.239 187.047 229.633 187.047C231.026 187.047 232.156 185.917 232.156 184.523ZM229.633 136.578C231.026 136.578 232.156 137.708 232.156 139.102C232.156 140.495 231.026 141.625 229.633 141.625C228.239 141.625 227.109 140.495 227.109 139.102C227.109 137.708 228.239 136.578 229.633 136.578ZM232.156 93.6797C232.156 92.286 231.026 91.1563 229.633 91.1563C228.239 91.1563 227.109 92.286 227.109 93.6797C227.109 95.0733 228.239 96.2031 229.633 96.2031C231.026 96.2031 232.156 95.0733 232.156 93.6797ZM229.633 45.7344C231.026 45.7344 232.156 46.8642 232.156 48.2578C232.156 49.6515 231.026 50.7813 229.633 50.7813C228.239 50.7813 227.109 49.6515 227.109 48.2578C227.109 46.8642 228.239 45.7344 229.633 45.7344ZM232.156 2.52344C232.156 1.12978 231.026 0 229.633 0C228.239 0 227.109 1.12978 227.109 2.52344C227.109 3.9171 228.239 5.04688 229.633 5.04688C231.026 5.04688 232.156 3.9171 232.156 2.52344ZM275.055 182C276.448 182 277.578 183.13 277.578 184.523C277.578 185.917 276.448 187.047 275.055 187.047C273.661 187.047 272.531 185.917 272.531 184.523C272.531 183.13 273.661 182 275.055 182ZM277.578 139.102C277.578 137.708 276.448 136.578 275.055 136.578C273.661 136.578 272.531 137.708 272.531 139.102C272.531 140.495 273.661 141.625 275.055 141.625C276.448 141.625 277.578 140.495 277.578 139.102ZM275.055 91.1563C276.448 91.1563 277.578 92.286 277.578 93.6797C277.578 95.0733 276.448 96.2031 275.055 96.2031C273.661 96.2031 272.531 95.0733 272.531 93.6797C272.531 92.286 273.661 91.1563 275.055 91.1563ZM277.578 48.2578C277.578 46.8642 276.448 45.7344 275.055 45.7344C273.661 45.7344 272.531 46.8642 272.531 48.2578C272.531 49.6515 273.661 50.7813 275.055 50.7813C276.448 50.7813 277.578 49.6515 277.578 48.2578ZM275.055 0C276.448 0 277.578 1.12978 277.578 2.52344C277.578 3.9171 276.448 5.04688 275.055 5.04688C273.661 5.04688 272.531 3.9171 272.531 2.52344C272.531 1.12978 273.661 0 275.055 0ZM323 184.523C323 183.13 321.87 182 320.477 182C319.083 182 317.953 183.13 317.953 184.523C317.953 185.917 319.083 187.047 320.477 187.047C321.87 187.047 323 185.917 323 184.523ZM320.477 136.578C321.87 136.578 323 137.708 323 139.102C323 140.495 321.87 141.625 320.477 141.625C319.083 141.625 317.953 140.495 317.953 139.102C317.953 137.708 319.083 136.578 320.477 136.578ZM323 93.6797C323 92.286 321.87 91.1563 320.477 91.1563C319.083 91.1563 317.953 92.286 317.953 93.6797C317.953 95.0733 319.083 96.2031 320.477 96.2031C321.87 96.2031 323 95.0733 323 93.6797ZM320.477 45.7344C321.87 45.7344 323 46.8642 323 48.2578C323 49.6515 321.87 50.7813 320.477 50.7813C319.083 50.7813 317.953 49.6515 317.953 48.2578C317.953 46.8642 319.083 45.7344 320.477 45.7344ZM323 2.52344C323 1.12978 321.87 0 320.477 0C319.083 0 317.953 1.12978 317.953 2.52344C317.953 3.9171 319.083 5.04688 320.477 5.04688C321.87 5.04688 323 3.9171 323 2.52344Z" fill="url(#paint0_linear_71_504)"/>
<defs>
<linearGradient id="paint0_linear_71_504" x1="549.734" y1="93.5234" x2="0" y2="93.5234" gradientUnits="userSpaceOnUse">
<stop stop-color="#928DC4"/>
<stop offset="1" stop-color="#D3CFFA"/>
</linearGradient>
</defs>
</svg>
