<svg width="13" height="7" viewBox="0 0 13 7" fill="none" xmlns="http://www.w3.org/2000/svg">
<path fill-rule="evenodd" clip-rule="evenodd" d="M0.543231 0.355608C0.586773 0.311955 0.6385 0.277321 0.695449 0.25369C0.752398 0.230059 0.813449 0.217896 0.875106 0.217896C0.936762 0.217896 0.997814 0.230059 1.05476 0.25369C1.11171 0.277321 1.16344 0.311955 1.20698 0.355608L6.50011 5.64967L11.7932 0.355608C11.8368 0.312026 11.8886 0.277454 11.9455 0.253868C12.0024 0.230281 12.0635 0.218141 12.1251 0.218141C12.1867 0.218141 12.2478 0.230281 12.3047 0.253868C12.3617 0.277454 12.4134 0.312026 12.457 0.355608C12.5006 0.399191 12.5351 0.45093 12.5587 0.507874C12.5823 0.564817 12.5944 0.625848 12.5944 0.687483C12.5944 0.749118 12.5823 0.81015 12.5587 0.867093C12.5351 0.924036 12.5006 0.975776 12.457 1.01936L6.83198 6.64436C6.78844 6.68801 6.73671 6.72264 6.67976 6.74628C6.62281 6.76991 6.56176 6.78207 6.50011 6.78207C6.43845 6.78207 6.3774 6.76991 6.32045 6.74628C6.2635 6.72264 6.21177 6.68801 6.16823 6.64436L0.543231 1.01936C0.499578 0.975815 0.464944 0.924088 0.441313 0.86714C0.417682 0.810191 0.405518 0.74914 0.405518 0.687483C0.405518 0.625826 0.417682 0.564775 0.441313 0.507827C0.464944 0.450878 0.499578 0.399151 0.543231 0.355608V0.355608Z" fill="black"/>
</svg>
