<svg width="188" height="550" viewBox="0 0 188 550" fill="none" xmlns="http://www.w3.org/2000/svg">
<path fill-rule="evenodd" clip-rule="evenodd" d="M182 2.52344C182 3.91709 183.13 5.04687 184.523 5.04687C185.917 5.04687 187.047 3.91709 187.047 2.52344C187.047 1.12978 185.917 -4.93843e-08 184.523 -1.10303e-07C183.13 -1.71222e-07 182 1.12978 182 2.52344ZM182 365.523C182 366.917 183.13 368.047 184.523 368.047C185.917 368.047 187.047 366.917 187.047 365.523C187.047 364.13 185.917 363 184.523 363C183.13 363 182 364.13 182 365.523ZM139.102 368.047C137.708 368.047 136.578 366.917 136.578 365.523C136.578 364.13 137.708 363 139.102 363C140.495 363 141.625 364.13 141.625 365.523C141.625 366.917 140.495 368.047 139.102 368.047ZM136.578 2.52344C136.578 3.91709 137.708 5.04687 139.102 5.04687C140.495 5.04687 141.625 3.91709 141.625 2.52344C141.625 1.12978 140.495 -2.03484e-06 139.102 -2.09576e-06C137.708 -2.15667e-06 136.578 1.12978 136.578 2.52344ZM93.6797 368.047C92.286 368.047 91.1563 366.917 91.1563 365.523C91.1563 364.13 92.286 363 93.6797 363C95.0734 363 96.2031 364.13 96.2031 365.523C96.2031 366.917 95.0734 368.047 93.6797 368.047ZM91.1563 2.52343C91.1563 3.91709 92.2861 5.04687 93.6797 5.04687C95.0734 5.04687 96.2032 3.91709 96.2032 2.52343C96.2032 1.12978 95.0734 -4.02029e-06 93.6797 -4.08121e-06C92.2861 -4.14213e-06 91.1563 1.12978 91.1563 2.52343ZM48.2578 368.047C46.8642 368.047 45.7344 366.917 45.7344 365.523C45.7344 364.13 46.8642 363 48.2578 363C49.6515 363 50.7813 364.13 50.7813 365.523C50.7813 366.917 49.6515 368.047 48.2578 368.047ZM1.454e-05 365.523C1.44791e-05 366.917 1.12979 368.047 2.52345 368.047C3.91711 368.047 5.04689 366.917 5.04689 365.523C5.04689 364.13 3.91711 363 2.52345 363C1.12979 363 1.4601e-05 364.13 1.454e-05 365.523ZM48.2578 5.04687C46.8642 5.04687 45.7344 3.91709 45.7344 2.52343C45.7344 1.12978 46.8642 -6.12758e-06 48.2578 -6.06666e-06C49.6515 -6.00574e-06 50.7813 1.12978 50.7813 2.52343C50.7813 3.91709 49.6515 5.04687 48.2578 5.04687ZM3.04073e-05 2.52343C3.03464e-05 3.91709 1.12981 5.04687 2.52347 5.04687C3.91713 5.04687 5.04691 3.91709 5.04691 2.52343C5.04691 1.12977 3.91713 -8.00486e-06 2.52347 -8.06578e-06C1.12981 -8.12669e-06 3.04682e-05 1.12977 3.04073e-05 2.52343ZM184.523 413.469C183.13 413.469 182 412.339 182 410.945C182 409.552 183.13 408.422 184.523 408.422C185.917 408.422 187.047 409.552 187.047 410.945C187.047 412.339 185.917 413.469 184.523 413.469ZM182 47.9453C182 49.339 183.13 50.4687 184.523 50.4687C185.917 50.4687 187.047 49.339 187.047 47.9453C187.047 46.5517 185.917 45.4219 184.523 45.4219C183.13 45.4219 182 46.5517 182 47.9453ZM139.102 413.469C137.708 413.469 136.578 412.339 136.578 410.945C136.578 409.552 137.708 408.422 139.102 408.422C140.495 408.422 141.625 409.552 141.625 410.945C141.625 412.339 140.495 413.469 139.102 413.469ZM136.578 47.9453C136.578 49.339 137.708 50.4687 139.102 50.4687C140.495 50.4687 141.625 49.339 141.625 47.9453C141.625 46.5517 140.495 45.4219 139.102 45.4219C137.708 45.4219 136.578 46.5517 136.578 47.9453ZM93.6797 413.469C92.286 413.469 91.1563 412.339 91.1563 410.945C91.1563 409.552 92.286 408.422 93.6797 408.422C95.0734 408.422 96.2031 409.552 96.2031 410.945C96.2031 412.339 95.0734 413.469 93.6797 413.469ZM91.1563 47.9453C91.1563 49.339 92.2861 50.4687 93.6797 50.4687C95.0734 50.4687 96.2032 49.339 96.2032 47.9453C96.2032 46.5517 95.0734 45.4219 93.6797 45.4219C92.2861 45.4219 91.1563 46.5517 91.1563 47.9453ZM48.2578 413.469C46.8642 413.469 45.7344 412.339 45.7344 410.945C45.7344 409.552 46.8642 408.422 48.2578 408.422C49.6515 408.422 50.7813 409.552 50.7813 410.945C50.7813 412.339 49.6515 413.469 48.2578 413.469ZM1.25546e-05 410.945C1.24937e-05 412.339 1.12979 413.469 2.52345 413.469C3.91711 413.469 5.04689 412.339 5.04689 410.945C5.04689 409.552 3.91711 408.422 2.52345 408.422C1.12979 408.422 1.26155e-05 409.552 1.25546e-05 410.945ZM48.2578 50.4687C46.8642 50.4687 45.7344 49.339 45.7344 47.9453C45.7344 46.5516 46.8642 45.4219 48.2578 45.4219C49.6515 45.4219 50.7813 46.5516 50.7813 47.9453C50.7813 49.339 49.6515 50.4687 48.2578 50.4687ZM2.84218e-05 47.9453C2.83609e-05 49.339 1.1298 50.4687 2.52347 50.4687C3.91713 50.4687 5.0469 49.339 5.0469 47.9453C5.0469 46.5516 3.91713 45.4219 2.52347 45.4219C1.1298 45.4219 2.84827e-05 46.5516 2.84218e-05 47.9453ZM184.523 458.891C183.13 458.891 182 457.761 182 456.367C182 454.974 183.13 453.844 184.523 453.844C185.917 453.844 187.047 454.974 187.047 456.367C187.047 457.761 185.917 458.891 184.523 458.891ZM182 93.3672C182 94.7608 183.13 95.8906 184.523 95.8906C185.917 95.8906 187.047 94.7608 187.047 93.3672C187.047 91.9735 185.917 90.8437 184.523 90.8437C183.13 90.8437 182 91.9735 182 93.3672ZM139.102 458.891C137.708 458.891 136.578 457.761 136.578 456.367C136.578 454.974 137.708 453.844 139.102 453.844C140.495 453.844 141.625 454.974 141.625 456.367C141.625 457.761 140.495 458.891 139.102 458.891ZM136.578 93.3672C136.578 94.7608 137.708 95.8906 139.102 95.8906C140.495 95.8906 141.625 94.7608 141.625 93.3672C141.625 91.9735 140.495 90.8437 139.102 90.8437C137.708 90.8437 136.578 91.9735 136.578 93.3672ZM93.6797 458.891C92.286 458.891 91.1563 457.761 91.1563 456.367C91.1563 454.974 92.286 453.844 93.6797 453.844C95.0734 453.844 96.2031 454.974 96.2031 456.367C96.2031 457.761 95.0734 458.891 93.6797 458.891ZM91.1563 93.3672C91.1563 94.7608 92.2861 95.8906 93.6797 95.8906C95.0734 95.8906 96.2032 94.7608 96.2032 93.3672C96.2032 91.9735 95.0734 90.8437 93.6797 90.8437C92.2861 90.8437 91.1563 91.9735 91.1563 93.3672ZM48.2578 458.891C46.8642 458.891 45.7344 457.761 45.7344 456.367C45.7344 454.974 46.8642 453.844 48.2578 453.844C49.6515 453.844 50.7813 454.974 50.7813 456.367C50.7813 457.761 49.6515 458.891 48.2578 458.891ZM1.05691e-05 456.367C1.05082e-05 457.761 1.12979 458.891 2.52345 458.891C3.91711 458.891 5.04689 457.761 5.04689 456.367C5.04689 454.974 3.91711 453.844 2.52345 453.844C1.12979 453.844 1.06301e-05 454.974 1.05691e-05 456.367ZM48.2578 95.8906C46.8642 95.8906 45.7344 94.7608 45.7344 93.3672C45.7344 91.9735 46.8642 90.8437 48.2578 90.8437C49.6515 90.8437 50.7813 91.9735 50.7813 93.3672C50.7813 94.7608 49.6515 95.8906 48.2578 95.8906ZM2.64364e-05 93.3672C2.63755e-05 94.7608 1.1298 95.8906 2.52346 95.8906C3.91713 95.8906 5.0469 94.7608 5.0469 93.3672C5.0469 91.9735 3.91713 90.8437 2.52346 90.8437C1.1298 90.8437 2.64973e-05 91.9735 2.64364e-05 93.3672ZM184.523 504.312C183.13 504.312 182 503.183 182 501.789C182 500.395 183.13 499.266 184.523 499.266C185.917 499.266 187.047 500.395 187.047 501.789C187.047 503.183 185.917 504.312 184.523 504.312ZM182 138.789C182 140.183 183.13 141.312 184.523 141.312C185.917 141.312 187.047 140.183 187.047 138.789C187.047 137.395 185.917 136.266 184.523 136.266C183.13 136.266 182 137.395 182 138.789ZM139.102 504.312C137.708 504.312 136.578 503.183 136.578 501.789C136.578 500.395 137.708 499.266 139.102 499.266C140.495 499.266 141.625 500.395 141.625 501.789C141.625 503.183 140.495 504.312 139.102 504.312ZM136.578 138.789C136.578 140.183 137.708 141.312 139.102 141.312C140.495 141.312 141.625 140.183 141.625 138.789C141.625 137.395 140.495 136.266 139.102 136.266C137.708 136.266 136.578 137.395 136.578 138.789ZM93.6797 504.312C92.286 504.312 91.1563 503.183 91.1563 501.789C91.1563 500.395 92.286 499.266 93.6797 499.266C95.0734 499.266 96.2031 500.395 96.2031 501.789C96.2031 503.183 95.0733 504.312 93.6797 504.312ZM91.1563 138.789C91.1563 140.183 92.2861 141.312 93.6797 141.312C95.0734 141.312 96.2031 140.183 96.2031 138.789C96.2031 137.395 95.0734 136.266 93.6797 136.266C92.2861 136.266 91.1563 137.395 91.1563 138.789ZM48.2578 504.312C46.8642 504.312 45.7344 503.183 45.7344 501.789C45.7344 500.395 46.8642 499.266 48.2578 499.266C49.6515 499.266 50.7813 500.395 50.7813 501.789C50.7813 503.183 49.6515 504.312 48.2578 504.312ZM8.58368e-06 501.789C8.52276e-06 503.183 1.12978 504.312 2.52345 504.312C3.91711 504.312 5.04688 503.183 5.04688 501.789C5.04688 500.395 3.91711 499.266 2.52345 499.266C1.12978 499.266 8.6446e-06 500.395 8.58368e-06 501.789ZM48.2578 141.312C46.8642 141.312 45.7344 140.183 45.7344 138.789C45.7344 137.395 46.8642 136.266 48.2578 136.266C49.6515 136.266 50.7813 137.395 50.7813 138.789C50.7813 140.183 49.6515 141.312 48.2578 141.312ZM2.44509e-05 138.789C2.439e-05 140.183 1.1298 141.312 2.52346 141.312C3.91712 141.312 5.0469 140.183 5.0469 138.789C5.0469 137.395 3.91712 136.266 2.52346 136.266C1.1298 136.266 2.45118e-05 137.395 2.44509e-05 138.789ZM184.523 549.734C183.13 549.734 182 548.605 182 547.211C182 545.817 183.13 544.687 184.523 544.687C185.917 544.687 187.047 545.817 187.047 547.211C187.047 548.605 185.917 549.734 184.523 549.734ZM182 184.211C182 185.605 183.13 186.734 184.523 186.734C185.917 186.734 187.047 185.605 187.047 184.211C187.047 182.817 185.917 181.687 184.523 181.687C183.13 181.687 182 182.817 182 184.211ZM139.102 549.734C137.708 549.734 136.578 548.605 136.578 547.211C136.578 545.817 137.708 544.687 139.102 544.687C140.495 544.687 141.625 545.817 141.625 547.211C141.625 548.605 140.495 549.734 139.102 549.734ZM136.578 184.211C136.578 185.605 137.708 186.734 139.102 186.734C140.495 186.734 141.625 185.605 141.625 184.211C141.625 182.817 140.495 181.687 139.102 181.687C137.708 181.687 136.578 182.817 136.578 184.211ZM93.6797 549.734C92.286 549.734 91.1563 548.605 91.1563 547.211C91.1563 545.817 92.286 544.687 93.6797 544.687C95.0733 544.687 96.2031 545.817 96.2031 547.211C96.2031 548.605 95.0733 549.734 93.6797 549.734ZM91.1563 184.211C91.1563 185.605 92.2861 186.734 93.6797 186.734C95.0734 186.734 96.2031 185.605 96.2031 184.211C96.2031 182.817 95.0734 181.687 93.6797 181.687C92.2861 181.687 91.1563 182.817 91.1563 184.211ZM48.2578 549.734C46.8642 549.734 45.7344 548.605 45.7344 547.211C45.7344 545.817 46.8642 544.687 48.2578 544.687C49.6515 544.687 50.7813 545.817 50.7813 547.211C50.7813 548.605 49.6515 549.734 48.2578 549.734ZM6.59823e-06 547.211C6.53731e-06 548.605 1.12978 549.734 2.52344 549.734C3.91711 549.734 5.04688 548.605 5.04688 547.211C5.04688 545.817 3.91711 544.687 2.52344 544.687C1.12978 544.687 6.65915e-06 545.817 6.59823e-06 547.211ZM48.2578 186.734C46.8642 186.734 45.7344 185.605 45.7344 184.211C45.7344 182.817 46.8642 181.687 48.2578 181.687C49.6515 181.687 50.7813 182.817 50.7813 184.211C50.7813 185.605 49.6515 186.734 48.2578 186.734ZM2.24655e-05 184.211C2.24045e-05 185.605 1.1298 186.734 2.52346 186.734C3.91712 186.734 5.0469 185.605 5.0469 184.211C5.0469 182.817 3.91712 181.687 2.52346 181.687C1.1298 181.687 2.25264e-05 182.817 2.24655e-05 184.211ZM184.523 232.156C183.13 232.156 182 231.026 182 229.633C182 228.239 183.13 227.109 184.523 227.109C185.917 227.109 187.047 228.239 187.047 229.633C187.047 231.026 185.917 232.156 184.523 232.156ZM136.578 229.633C136.578 231.026 137.708 232.156 139.102 232.156C140.495 232.156 141.625 231.026 141.625 229.633C141.625 228.239 140.495 227.109 139.102 227.109C137.708 227.109 136.578 228.239 136.578 229.633ZM93.6797 232.156C92.2861 232.156 91.1563 231.026 91.1563 229.633C91.1563 228.239 92.2861 227.109 93.6797 227.109C95.0734 227.109 96.2031 228.239 96.2031 229.633C96.2031 231.026 95.0734 232.156 93.6797 232.156ZM45.7344 229.633C45.7344 231.026 46.8642 232.156 48.2578 232.156C49.6515 232.156 50.7813 231.026 50.7813 229.633C50.7813 228.239 49.6515 227.109 48.2578 227.109C46.8642 227.109 45.7344 228.239 45.7344 229.633ZM2.52346 232.156C1.1298 232.156 2.04191e-05 231.026 2.048e-05 229.633C2.05409e-05 228.239 1.1298 227.109 2.52346 227.109C3.91712 227.109 5.0469 228.239 5.0469 229.633C5.0469 231.026 3.91712 232.156 2.52346 232.156ZM182 275.055C182 276.448 183.13 277.578 184.523 277.578C185.917 277.578 187.047 276.448 187.047 275.055C187.047 273.661 185.917 272.531 184.523 272.531C183.13 272.531 182 273.661 182 275.055ZM139.102 277.578C137.708 277.578 136.578 276.448 136.578 275.055C136.578 273.661 137.708 272.531 139.102 272.531C140.495 272.531 141.625 273.661 141.625 275.055C141.625 276.448 140.495 277.578 139.102 277.578ZM91.1563 275.055C91.1563 276.448 92.2861 277.578 93.6797 277.578C95.0734 277.578 96.2031 276.448 96.2031 275.055C96.2031 273.661 95.0734 272.531 93.6797 272.531C92.2861 272.531 91.1563 273.661 91.1563 275.055ZM48.2578 277.578C46.8642 277.578 45.7344 276.448 45.7344 275.055C45.7344 273.661 46.8642 272.531 48.2578 272.531C49.6515 272.531 50.7813 273.661 50.7813 275.055C50.7813 276.448 49.6515 277.578 48.2578 277.578ZM1.84946e-05 275.055C1.84336e-05 276.448 1.12979 277.578 2.52346 277.578C3.91712 277.578 5.04689 276.448 5.04689 275.055C5.04689 273.661 3.91712 272.531 2.52346 272.531C1.12979 272.531 1.85555e-05 273.661 1.84946e-05 275.055ZM184.523 323C183.13 323 182 321.87 182 320.477C182 319.083 183.13 317.953 184.523 317.953C185.917 317.953 187.047 319.083 187.047 320.477C187.047 321.87 185.917 323 184.523 323ZM136.578 320.477C136.578 321.87 137.708 323 139.102 323C140.495 323 141.625 321.87 141.625 320.477C141.625 319.083 140.495 317.953 139.102 317.953C137.708 317.953 136.578 319.083 136.578 320.477ZM93.6797 323C92.2861 323 91.1563 321.87 91.1563 320.477C91.1563 319.083 92.2861 317.953 93.6797 317.953C95.0734 317.953 96.2031 319.083 96.2031 320.477C96.2031 321.87 95.0734 323 93.6797 323ZM45.7344 320.477C45.7344 321.87 46.8642 323 48.2578 323C49.6515 323 50.7813 321.87 50.7813 320.477C50.7813 319.083 49.6515 317.953 48.2578 317.953C46.8642 317.953 45.7344 319.083 45.7344 320.477ZM2.52345 323C1.12979 323 1.64482e-05 321.87 1.65091e-05 320.477C1.657e-05 319.083 1.12979 317.953 2.52345 317.953C3.91712 317.953 5.04689 319.083 5.04689 320.477C5.04689 321.87 3.91712 323 2.52345 323Z" fill="url(#paint0_linear_57_253)"/>
<defs>
<linearGradient id="paint0_linear_57_253" x1="93.5235" y1="549.734" x2="93.5235" y2="-4.08804e-06" gradientUnits="userSpaceOnUse">
<stop stop-color="#FFED04"/>
<stop offset="1" stop-color="#FF5E5E"/>
</linearGradient>
</defs>
</svg>
