<svg width="188" height="550" viewBox="0 0 188 550" fill="none" xmlns="http://www.w3.org/2000/svg">
<path fill-rule="evenodd" clip-rule="evenodd" d="M182 547.211C182 545.817 183.13 544.688 184.523 544.688C185.917 544.688 187.047 545.817 187.047 547.211C187.047 548.605 185.917 549.734 184.523 549.734C183.13 549.734 182 548.605 182 547.211ZM182 184.211C182 182.817 183.13 181.688 184.523 181.688C185.917 181.688 187.047 182.817 187.047 184.211C187.047 185.605 185.917 186.734 184.523 186.734C183.13 186.734 182 185.605 182 184.211ZM139.102 181.688C137.708 181.688 136.578 182.817 136.578 184.211C136.578 185.605 137.708 186.734 139.102 186.734C140.495 186.734 141.625 185.605 141.625 184.211C141.625 182.817 140.495 181.688 139.102 181.688ZM136.578 547.211C136.578 545.817 137.708 544.688 139.102 544.688C140.495 544.688 141.625 545.817 141.625 547.211C141.625 548.605 140.495 549.734 139.102 549.734C137.708 549.734 136.578 548.605 136.578 547.211ZM93.6797 181.688C92.286 181.688 91.1562 182.817 91.1562 184.211C91.1562 185.605 92.286 186.734 93.6797 186.734C95.0733 186.734 96.2031 185.605 96.2031 184.211C96.2031 182.817 95.0733 181.688 93.6797 181.688ZM91.1562 547.211C91.1562 545.817 92.286 544.688 93.6797 544.688C95.0733 544.688 96.2031 545.817 96.2031 547.211C96.2031 548.605 95.0733 549.734 93.6797 549.734C92.286 549.734 91.1562 548.605 91.1562 547.211ZM48.2578 181.688C46.8641 181.688 45.7344 182.817 45.7344 184.211C45.7344 185.605 46.8641 186.734 48.2578 186.734C49.6515 186.734 50.7812 185.605 50.7812 184.211C50.7812 182.817 49.6515 181.688 48.2578 181.688ZM-1.59775e-05 184.211C-1.60385e-05 182.817 1.12976 181.688 2.52342 181.688C3.91708 181.688 5.04686 182.817 5.04686 184.211C5.04686 185.605 3.91708 186.734 2.52342 186.734C1.12976 186.734 -1.59166e-05 185.605 -1.59775e-05 184.211ZM48.2578 544.688C46.8642 544.688 45.7344 545.817 45.7344 547.211C45.7344 548.605 46.8642 549.734 48.2578 549.734C49.6515 549.734 50.7812 548.605 50.7812 547.211C50.7812 545.817 49.6515 544.688 48.2578 544.688ZM-1.10303e-07 547.211C-1.71222e-07 545.817 1.12978 544.688 2.52344 544.688C3.9171 544.688 5.04687 545.817 5.04687 547.211C5.04687 548.605 3.9171 549.734 2.52344 549.734C1.12978 549.734 -4.93843e-08 548.605 -1.10303e-07 547.211ZM184.523 136.266C183.13 136.266 182 137.395 182 138.789C182 140.183 183.13 141.313 184.523 141.313C185.917 141.313 187.047 140.183 187.047 138.789C187.047 137.395 185.917 136.266 184.523 136.266ZM182 501.789C182 500.395 183.13 499.266 184.523 499.266C185.917 499.266 187.047 500.395 187.047 501.789C187.047 503.183 185.917 504.313 184.523 504.313C183.13 504.313 182 503.183 182 501.789ZM139.102 136.266C137.708 136.266 136.578 137.395 136.578 138.789C136.578 140.183 137.708 141.313 139.102 141.313C140.495 141.313 141.625 140.183 141.625 138.789C141.625 137.395 140.495 136.266 139.102 136.266ZM136.578 501.789C136.578 500.395 137.708 499.266 139.102 499.266C140.495 499.266 141.625 500.395 141.625 501.789C141.625 503.183 140.495 504.313 139.102 504.313C137.708 504.313 136.578 503.183 136.578 501.789ZM93.6797 136.266C92.286 136.266 91.1562 137.395 91.1562 138.789C91.1562 140.183 92.286 141.313 93.6797 141.313C95.0733 141.313 96.2031 140.183 96.2031 138.789C96.2031 137.395 95.0733 136.266 93.6797 136.266ZM91.1562 501.789C91.1562 500.395 92.286 499.266 93.6797 499.266C95.0733 499.266 96.2031 500.395 96.2031 501.789C96.2031 503.183 95.0733 504.313 93.6797 504.313C92.286 504.313 91.1562 503.183 91.1562 501.789ZM48.2578 136.266C46.8641 136.266 45.7344 137.395 45.7344 138.789C45.7344 140.183 46.8641 141.313 48.2578 141.313C49.6515 141.313 50.7812 140.183 50.7812 138.789C50.7812 137.395 49.6515 136.266 48.2578 136.266ZM-1.7963e-05 138.789C-1.80239e-05 137.395 1.12976 136.266 2.52342 136.266C3.91708 136.266 5.04686 137.395 5.04686 138.789C5.04686 140.183 3.91708 141.313 2.52342 141.313C1.12976 141.313 -1.79021e-05 140.183 -1.7963e-05 138.789ZM48.2578 499.266C46.8641 499.266 45.7344 500.395 45.7344 501.789C45.7344 503.183 46.8641 504.313 48.2578 504.313C49.6515 504.313 50.7812 503.183 50.7812 501.789C50.7812 500.395 49.6515 499.266 48.2578 499.266ZM-2.09576e-06 501.789C-2.15667e-06 500.395 1.12977 499.266 2.52344 499.266C3.9171 499.266 5.04687 500.395 5.04687 501.789C5.04687 503.183 3.9171 504.313 2.52344 504.313C1.12977 504.313 -2.03484e-06 503.183 -2.09576e-06 501.789ZM184.523 90.8438C183.13 90.8438 182 91.9735 182 93.3672C182 94.7608 183.13 95.8906 184.523 95.8906C185.917 95.8906 187.047 94.7608 187.047 93.3672C187.047 91.9735 185.917 90.8438 184.523 90.8438ZM182 456.367C182 454.974 183.13 453.844 184.523 453.844C185.917 453.844 187.047 454.974 187.047 456.367C187.047 457.761 185.917 458.891 184.523 458.891C183.13 458.891 182 457.761 182 456.367ZM139.102 90.8438C137.708 90.8438 136.578 91.9735 136.578 93.3672C136.578 94.7608 137.708 95.8906 139.102 95.8906C140.495 95.8906 141.625 94.7608 141.625 93.3672C141.625 91.9735 140.495 90.8438 139.102 90.8438ZM136.578 456.367C136.578 454.974 137.708 453.844 139.102 453.844C140.495 453.844 141.625 454.974 141.625 456.367C141.625 457.761 140.495 458.891 139.102 458.891C137.708 458.891 136.578 457.761 136.578 456.367ZM93.6797 90.8438C92.286 90.8438 91.1562 91.9735 91.1562 93.3672C91.1562 94.7608 92.286 95.8906 93.6797 95.8906C95.0733 95.8906 96.2031 94.7608 96.2031 93.3672C96.2031 91.9735 95.0733 90.8438 93.6797 90.8438ZM91.1562 456.367C91.1562 454.974 92.286 453.844 93.6797 453.844C95.0733 453.844 96.2031 454.974 96.2031 456.367C96.2031 457.761 95.0733 458.891 93.6797 458.891C92.286 458.891 91.1562 457.761 91.1562 456.367ZM48.2578 90.8438C46.8641 90.8438 45.7344 91.9735 45.7344 93.3672C45.7344 94.7608 46.8641 95.8906 48.2578 95.8906C49.6515 95.8906 50.7812 94.7608 50.7812 93.3672C50.7812 91.9735 49.6515 90.8438 48.2578 90.8438ZM-1.99484e-05 93.3672C-2.00094e-05 91.9735 1.12976 90.8438 2.52342 90.8438C3.91708 90.8438 5.04685 91.9735 5.04686 93.3672C5.04686 94.7608 3.91708 95.8906 2.52342 95.8906C1.12976 95.8906 -1.98875e-05 94.7608 -1.99484e-05 93.3672ZM48.2578 453.844C46.8641 453.844 45.7344 454.974 45.7344 456.367C45.7344 457.761 46.8641 458.891 48.2578 458.891C49.6515 458.891 50.7812 457.761 50.7812 456.367C50.7812 454.974 49.6515 453.844 48.2578 453.844ZM-4.08121e-06 456.367C-4.14213e-06 454.974 1.12977 453.844 2.52343 453.844C3.91709 453.844 5.04687 454.974 5.04687 456.367C5.04687 457.761 3.9171 458.891 2.52343 458.891C1.12977 458.891 -4.02029e-06 457.761 -4.08121e-06 456.367ZM184.523 45.4219C183.13 45.4219 182 46.5517 182 47.9453C182 49.339 183.13 50.4688 184.523 50.4688C185.917 50.4688 187.047 49.339 187.047 47.9453C187.047 46.5517 185.917 45.4219 184.523 45.4219ZM182 410.945C182 409.552 183.13 408.422 184.523 408.422C185.917 408.422 187.047 409.552 187.047 410.945C187.047 412.339 185.917 413.469 184.523 413.469C183.13 413.469 182 412.339 182 410.945ZM139.102 45.4219C137.708 45.4219 136.578 46.5517 136.578 47.9453C136.578 49.339 137.708 50.4688 139.102 50.4688C140.495 50.4688 141.625 49.339 141.625 47.9453C141.625 46.5517 140.495 45.4219 139.102 45.4219ZM136.578 410.945C136.578 409.552 137.708 408.422 139.102 408.422C140.495 408.422 141.625 409.552 141.625 410.945C141.625 412.339 140.495 413.469 139.102 413.469C137.708 413.469 136.578 412.339 136.578 410.945ZM93.6797 45.4219C92.286 45.4219 91.1562 46.5517 91.1562 47.9453C91.1562 49.339 92.286 50.4688 93.6797 50.4688C95.0733 50.4688 96.2031 49.339 96.2031 47.9453C96.2031 46.5517 95.0733 45.4219 93.6797 45.4219ZM91.1562 410.945C91.1562 409.552 92.286 408.422 93.6797 408.422C95.0733 408.422 96.2031 409.552 96.2031 410.945C96.2031 412.339 95.0733 413.469 93.6797 413.469C92.286 413.469 91.1562 412.339 91.1562 410.945ZM48.2578 45.4219C46.8641 45.4219 45.7344 46.5517 45.7344 47.9453C45.7344 49.339 46.8641 50.4688 48.2578 50.4688C49.6515 50.4688 50.7812 49.339 50.7812 47.9453C50.7812 46.5517 49.6515 45.4219 48.2578 45.4219ZM-2.19339e-05 47.9453C-2.19948e-05 46.5517 1.12975 45.4219 2.52342 45.4219C3.91708 45.4219 5.04685 46.5517 5.04685 47.9453C5.04685 49.339 3.91708 50.4688 2.52342 50.4688C1.12975 50.4688 -2.1873e-05 49.339 -2.19339e-05 47.9453ZM48.2578 408.422C46.8641 408.422 45.7344 409.552 45.7344 410.945C45.7344 412.339 46.8641 413.469 48.2578 413.469C49.6515 413.469 50.7812 412.339 50.7812 410.945C50.7812 409.552 49.6515 408.422 48.2578 408.422ZM-6.06666e-06 410.945C-6.12758e-06 409.552 1.12977 408.422 2.52343 408.422C3.91709 408.422 5.04687 409.552 5.04687 410.945C5.04687 412.339 3.91709 413.469 2.52343 413.469C1.12977 413.469 -6.00574e-06 412.339 -6.06666e-06 410.945ZM184.523 1.10303e-07C183.13 1.71222e-07 182 1.12976 182 2.52344C182 3.91711 183.13 5.04688 184.523 5.04688C185.917 5.04688 187.047 3.91711 187.047 2.52344C187.047 1.12976 185.917 4.93843e-08 184.523 1.10303e-07ZM182 365.523C182 364.13 183.13 363 184.523 363C185.917 363 187.047 364.13 187.047 365.523C187.047 366.917 185.917 368.047 184.523 368.047C183.13 368.047 182 366.917 182 365.523ZM139.102 2.09576e-06C137.708 2.15667e-06 136.578 1.12976 136.578 2.52344C136.578 3.91712 137.708 5.04688 139.102 5.04688C140.495 5.04688 141.625 3.91712 141.625 2.52344C141.625 1.12976 140.495 2.03484e-06 139.102 2.09576e-06ZM136.578 365.523C136.578 364.13 137.708 363 139.102 363C140.495 363 141.625 364.13 141.625 365.523C141.625 366.917 140.495 368.047 139.102 368.047C137.708 368.047 136.578 366.917 136.578 365.523ZM93.6797 4.08121e-06C92.286 4.14213e-06 91.1562 1.12976 91.1562 2.52344C91.1562 3.91712 92.286 5.04688 93.6797 5.04688C95.0733 5.04688 96.2031 3.91712 96.2031 2.52344C96.2031 1.12976 95.0733 4.02029e-06 93.6797 4.08121e-06ZM91.1562 365.523C91.1562 364.13 92.286 363 93.6797 363C95.0733 363 96.2031 364.13 96.2031 365.523C96.2031 366.917 95.0733 368.047 93.6797 368.047C92.286 368.047 91.1562 366.917 91.1562 365.523ZM48.2578 6.06666e-06C46.8641 6.12758e-06 45.7344 1.12977 45.7344 2.52344C45.7344 3.91712 46.8641 5.04688 48.2578 5.04688C49.6515 5.04688 50.7812 3.91712 50.7812 2.52344C50.7812 1.12977 49.6514 6.00574e-06 48.2578 6.06666e-06ZM-2.39193e-05 2.52345C-2.39803e-05 1.12977 1.12975 8.12669e-06 2.52341 8.06578e-06C3.91707 8.00486e-06 5.04685 1.12977 5.04685 2.52345C5.04685 3.91712 3.91708 5.04688 2.52341 5.04688C1.12975 5.04688 -2.38584e-05 3.91712 -2.39193e-05 2.52345ZM48.2578 363C46.8641 363 45.7344 364.13 45.7344 365.523C45.7344 366.917 46.8641 368.047 48.2578 368.047C49.6515 368.047 50.7812 366.917 50.7812 365.523C50.7812 364.13 49.6515 363 48.2578 363ZM-8.05212e-06 365.523C-8.11303e-06 364.13 1.12977 363 2.52343 363C3.91709 363 5.04687 364.13 5.04687 365.523C5.04687 366.917 3.91709 368.047 2.52343 368.047C1.12977 368.047 -7.9912e-06 366.917 -8.05212e-06 365.523ZM184.523 317.578C183.13 317.578 182 318.708 182 320.102C182 321.495 183.13 322.625 184.523 322.625C185.917 322.625 187.047 321.495 187.047 320.102C187.047 318.708 185.917 317.578 184.523 317.578ZM136.578 320.102C136.578 318.708 137.708 317.578 139.102 317.578C140.495 317.578 141.625 318.708 141.625 320.102C141.625 321.495 140.495 322.625 139.102 322.625C137.708 322.625 136.578 321.495 136.578 320.102ZM93.6797 317.578C92.286 317.578 91.1562 318.708 91.1562 320.102C91.1562 321.495 92.286 322.625 93.6797 322.625C95.0733 322.625 96.2031 321.495 96.2031 320.102C96.2031 318.708 95.0733 317.578 93.6797 317.578ZM45.7344 320.102C45.7344 318.708 46.8641 317.578 48.2578 317.578C49.6515 317.578 50.7812 318.708 50.7812 320.102C50.7812 321.495 49.6515 322.625 48.2578 322.625C46.8641 322.625 45.7344 321.495 45.7344 320.102ZM2.52343 317.578C1.12977 317.578 -1.00985e-05 318.708 -1.00376e-05 320.102C-9.97665e-06 321.495 1.12977 322.625 2.52343 322.625C3.91709 322.625 5.04687 321.495 5.04686 320.102C5.04686 318.708 3.91709 317.578 2.52343 317.578ZM182 274.68C182 273.286 183.13 272.156 184.523 272.156C185.917 272.156 187.047 273.286 187.047 274.68C187.047 276.073 185.917 277.203 184.523 277.203C183.13 277.203 182 276.073 182 274.68ZM139.102 272.156C137.708 272.156 136.578 273.286 136.578 274.68C136.578 276.073 137.708 277.203 139.102 277.203C140.495 277.203 141.625 276.073 141.625 274.68C141.625 273.286 140.495 272.156 139.102 272.156ZM91.1562 274.68C91.1562 273.286 92.286 272.156 93.6797 272.156C95.0733 272.156 96.2031 273.286 96.2031 274.68C96.2031 276.073 95.0733 277.203 93.6797 277.203C92.286 277.203 91.1562 276.073 91.1562 274.68ZM48.2578 272.156C46.8641 272.156 45.7344 273.286 45.7344 274.68C45.7344 276.073 46.8641 277.203 48.2578 277.203C49.6515 277.203 50.7812 276.073 50.7812 274.68C50.7812 273.286 49.6515 272.156 48.2578 272.156ZM-1.2023e-05 274.68C-1.20839e-05 273.286 1.12976 272.156 2.52343 272.156C3.91709 272.156 5.04686 273.286 5.04686 274.68C5.04686 276.073 3.91709 277.203 2.52343 277.203C1.12976 277.203 -1.19621e-05 276.073 -1.2023e-05 274.68ZM184.523 226.734C183.13 226.734 182 227.864 182 229.258C182 230.651 183.13 231.781 184.523 231.781C185.917 231.781 187.047 230.651 187.047 229.258C187.047 227.864 185.917 226.734 184.523 226.734ZM136.578 229.258C136.578 227.864 137.708 226.734 139.102 226.734C140.495 226.734 141.625 227.864 141.625 229.258C141.625 230.651 140.495 231.781 139.102 231.781C137.708 231.781 136.578 230.651 136.578 229.258ZM93.6797 226.734C92.286 226.734 91.1562 227.864 91.1562 229.258C91.1562 230.651 92.286 231.781 93.6797 231.781C95.0733 231.781 96.2031 230.651 96.2031 229.258C96.2031 227.864 95.0733 226.734 93.6797 226.734ZM45.7344 229.258C45.7344 227.864 46.8641 226.734 48.2578 226.734C49.6515 226.734 50.7812 227.864 50.7812 229.258C50.7812 230.651 49.6515 231.781 48.2578 231.781C46.8641 231.781 45.7344 230.651 45.7344 229.258ZM2.52342 226.734C1.12976 226.734 -1.40694e-05 227.864 -1.40085e-05 229.258C-1.39476e-05 230.651 1.12976 231.781 2.52342 231.781C3.91709 231.781 5.04686 230.651 5.04686 229.258C5.04686 227.864 3.91708 226.734 2.52342 226.734Z" fill="url(#paint0_linear_61_327)"/>
<defs>
<linearGradient id="paint0_linear_61_327" x1="93.5234" y1="4.08804e-06" x2="93.5234" y2="549.734" gradientUnits="userSpaceOnUse">
<stop stop-color="#FFED04"/>
<stop offset="1" stop-color="#FF5E5E"/>
</linearGradient>
</defs>
</svg>
