<svg width="205" height="128" viewBox="0 0 205 128" fill="none" xmlns="http://www.w3.org/2000/svg">
<g clip-path="url(#clip0_85_14)">
<path d="M189.822 62.1366L204.617 41.8084H190.386L178.208 59.6294V25.5458H166.03V82.4648H178.208V64.4856L191.198 82.4648H205L189.822 62.1366ZM61.5902 19.0182C57.2827 19.0182 53.8097 22.5191 53.8097 26.8332C53.8097 31.1473 57.3053 34.6257 61.5902 34.6257C65.8977 34.6257 69.3707 31.1248 69.3707 26.8332C69.3933 22.5191 65.8977 19.0182 61.5902 19.0182ZM34.5275 38.0589V25.5458H0V82.4648H13.0127V61.5719H34.1216V49.0362L13.0127 48.9232V37.946L34.5275 38.0589ZM52.3889 48.0875L54.0352 41.8084H41.8344V82.4874H54.0352V62.8368C54.0352 54.7958 61.1843 52.763 66.2134 53.5761V41.0178C61.0941 40.9952 55.7041 42.1698 52.3889 48.0875ZM100.132 41.8084L102.139 46.2354C98.6436 42.2149 93.231 40.679 88.0214 40.679C77.3993 40.679 68.6265 50.03 68.6265 62.1366C68.6265 67.7833 70.5209 72.8428 73.6331 76.6148C80.4664 84.9042 94.5616 86.0335 101.778 77.6764L100.132 82.4874H112.31V41.8084H100.132ZM90.4345 72.0296C84.9543 72.0296 80.5341 67.58 80.5341 62.114C80.5341 56.6254 84.9543 52.1983 90.4345 52.1983C95.8922 52.1983 100.335 56.6254 100.335 62.114C100.335 67.58 95.8922 72.0296 90.4345 72.0296ZM131.141 46.4387L132.246 41.7858H120.068V82.4648H132.246V60.2619C132.246 49.1265 146.883 49.1039 146.883 59.2906V82.4648H159.061V57.5063C159.061 39.5497 138.854 35.8454 131.141 46.4387ZM44.5182 25.8846C41.4961 25.8846 38.9928 28.3466 38.9928 31.4184C38.9928 34.445 41.4736 36.9522 44.5182 36.9522C47.5627 36.9522 50.0435 34.4676 50.0435 31.4184C50.0435 28.3466 47.5627 25.8846 44.5182 25.8846ZM44.5858 0C38.6771 0 33.896 4.78842 33.896 10.6836C33.896 16.6014 38.6771 21.3672 44.5858 21.3672C50.4719 21.3672 55.253 16.6014 55.253 10.6836C55.253 4.78842 50.4719 0 44.5858 0Z" fill="white"/>
<path d="M67.2283 97.508V92.9229C62.9659 92.968 57.3278 93.4198 57.3278 100.828V102.251H54.2382V106.836H57.3278V127.232H63.2816V106.836H67.2283V102.229H63.2816V101.009C63.2816 97.508 65.7173 97.508 67.2283 97.508Z" fill="white"/>
<path d="M76.204 105.526V102.251H70.5885V127.255H76.5197V113.793C76.5197 109.479 78.6622 107.514 82.8569 107.514H83.1276V101.506C79.3388 101.506 77.3091 103.29 76.204 105.526Z" fill="white"/>
<path d="M103.786 102.229V116.007C103.786 119.575 102.32 122.376 98.0572 122.376C93.8174 122.421 92.6221 119.508 92.6221 115.826V102.206H86.6683V117.317C86.6683 121.699 88.2244 127.933 96.3884 127.955C100.876 128 103.109 125.809 104.169 123.867V127.21H109.762V102.229H103.786Z" fill="white"/>
<path d="M135.043 102.229V93.5557H129.112V102.229H124.962V106.837H129.112V127.233H135.043V106.837H139.328V102.229H135.043Z" fill="white"/>
<path d="M175.389 105.301C173.089 102.884 169.796 101.483 166.075 101.483C158.542 101.483 152.972 107.717 152.972 114.81C152.972 121.766 158.475 128 166.165 128C168.759 128 171.217 127.278 173.314 125.832C175.389 124.409 177.171 122.309 178.366 119.553H172.232C171.081 121.608 169.119 122.918 166.233 122.918C162.827 122.964 159.287 120.727 159.016 116.73H179.087C179.561 112.348 178.433 108.44 175.389 105.301ZM159.084 112.167C159.309 109.705 161.7 106.543 166.12 106.543C170.495 106.498 172.998 109.818 173.201 112.167H159.084Z" fill="white"/>
<path d="M192.664 111.919C190.296 111.241 188.469 110.383 188.424 108.802C188.424 107.559 189.371 106.294 191.378 106.294C193.701 106.294 194.4 107.65 194.423 108.982H200.287C199.768 102.974 194.784 101.483 191.424 101.483C186.62 101.483 182.47 104.51 182.47 109.434C182.515 113.025 185.244 114.877 188.605 115.939C193.183 117.543 195.055 118.13 195.055 120.253C195.1 121.947 193.521 123.167 191.649 123.167C190.499 123.167 188.199 122.625 187.973 119.937H182.019C182.47 125.99 187.702 127.978 191.581 127.978C196.791 127.978 201.121 124.703 201.031 119.576C200.963 114.2 196.633 113.025 192.664 111.919Z" fill="white"/>
<path d="M149.183 88.8345C148.484 88.0666 147.604 87.6826 146.522 87.6826C145.462 87.6826 144.56 88.044 143.838 88.8345C143.117 89.6025 142.756 90.5286 142.756 91.6127C142.756 92.6969 143.139 93.6004 143.906 94.3909C144.673 95.1815 145.552 95.5654 146.522 95.5654C147.469 95.5654 148.326 95.1815 149.093 94.3909C149.86 93.623 150.243 92.6969 150.243 91.6127C150.243 90.5286 149.905 89.6025 149.183 88.8345ZM148.642 101.348C148.642 100.986 148.439 100.783 148.078 100.783H144.808C144.425 100.783 144.244 100.986 144.244 101.348L143.658 126.984C143.658 127.345 143.861 127.549 144.244 127.549H148.574C148.958 127.549 149.138 127.345 149.138 126.984L148.642 101.348Z" fill="white"/>
<path d="M121.534 89.1285C120.835 88.3605 119.955 87.9766 118.873 87.9766C117.813 87.9766 116.911 88.3605 116.189 89.1285C115.468 89.8965 115.107 90.8225 115.107 91.9293C115.107 92.9909 115.468 93.9169 116.234 94.7075C117.001 95.4754 117.881 95.882 118.85 95.882C119.798 95.882 120.655 95.498 121.421 94.7075C122.188 93.9169 122.571 92.9909 122.571 91.9293C122.594 90.8225 122.233 89.8739 121.534 89.1285ZM120.993 101.642C120.993 101.28 120.812 101.077 120.429 101.077H117.159C116.798 101.077 116.595 101.28 116.595 101.642L116.009 127.278C116.009 127.662 116.212 127.842 116.595 127.842H120.925C121.309 127.842 121.512 127.662 121.512 127.278L120.993 101.642Z" fill="white"/>
</g>
<defs>
<clipPath id="clip0_85_14">
<rect width="205" height="128" fill="white"/>
</clipPath>
</defs>
</svg>
