<svg width="24" height="24" viewBox="0 0 24 24" fill="none" xmlns="http://www.w3.org/2000/svg">
<path d="M6.385 13.616H8.589L13.858 8.346C13.9433 8.24733 14.0077 8.144 14.051 8.036C14.0943 7.928 14.116 7.82067 14.116 7.714C14.116 7.60733 14.0933 7.50167 14.048 7.397C14.0033 7.293 13.94 7.19133 13.858 7.092L12.938 6.142C12.852 6.056 12.7527 5.99167 12.64 5.949C12.5273 5.90633 12.416 5.885 12.306 5.885C12.1993 5.885 12.092 5.90633 11.984 5.949C11.876 5.99167 11.7723 6.056 11.673 6.142L6.385 11.412V13.616ZM7.269 12.73V11.78L10.717 8.332L11.179 8.82L11.648 9.301L8.219 12.73H7.269ZM11.179 8.82L11.648 9.301L10.718 8.331L11.179 8.82ZM11.809 13.615H17.616V12.615H12.81L11.809 13.615ZM3 20.077V4.616C3 4.15533 3.15433 3.771 3.463 3.463C3.77167 3.155 4.15567 3.00067 4.615 3H19.385C19.845 3 20.229 3.15433 20.537 3.463C20.845 3.77167 20.9993 4.156 21 4.616V15.385C21 15.845 20.8457 16.2293 20.537 16.538C20.2283 16.8467 19.8443 17.0007 19.385 17H6.077L3 20.077ZM5.65 16H19.385C19.5383 16 19.6793 15.936 19.808 15.808C19.9367 15.68 20.0007 15.539 20 15.385V4.615C20 4.46167 19.936 4.32067 19.808 4.192C19.68 4.06333 19.539 3.99933 19.385 4H4.615C4.46167 4 4.32067 4.064 4.192 4.192C4.06333 4.32 3.99933 4.461 4 4.615V17.645L5.65 16Z" fill="#ACA8D1"/>
</svg>
