<svg width="160" height="100" viewBox="0 0 160 100" fill="none" xmlns="http://www.w3.org/2000/svg">
<path d="M148.154 48.5442L159.701 32.6628H148.594L139.089 46.5855V19.9576H129.584V64.4256H139.089V50.3794L149.228 64.4256H160L148.154 48.5442ZM48.0704 14.8579C44.7085 14.8579 41.9978 17.5931 41.9978 20.9635C41.9978 24.3339 44.7261 27.0514 48.0704 27.0514C51.4323 27.0514 54.143 24.3162 54.143 20.9635C54.1606 17.5931 51.4323 14.8579 48.0704 14.8579ZM26.9483 29.7335V19.9576H0V64.4256H10.1562V48.1031H26.6315V38.3095L10.1562 38.2213V29.6453L26.9483 29.7335ZM40.8889 37.5684L42.1738 32.6628H32.6513V64.4433H42.1738V49.0912C42.1738 42.8092 47.7536 41.2211 51.6788 41.8564V32.0452C47.6832 32.0275 43.4763 32.9451 40.8889 37.5684ZM78.1518 32.6628L79.7184 36.1214C76.9901 32.9804 72.7657 31.7805 68.6997 31.7805C60.4092 31.7805 53.5622 39.0859 53.5622 48.5442C53.5622 52.9557 55.0407 56.9084 57.4697 59.8553C62.8031 66.3314 73.8042 67.2137 79.4367 60.6847L78.1518 64.4433H87.6568V32.6628H78.1518ZM70.5831 56.2732C66.3058 56.2732 62.8559 52.7969 62.8559 48.5266C62.8559 44.2386 66.3058 40.78 70.5831 40.78C74.8427 40.78 78.3102 44.2386 78.3102 48.5266C78.3102 52.7969 74.8427 56.2732 70.5831 56.2732ZM102.354 36.2802L103.217 32.6451H93.7118V64.4256H103.217V47.0796C103.217 38.3801 114.64 38.3624 114.64 46.3208V64.4256H124.145V44.9268C124.145 30.8982 108.374 28.0042 102.354 36.2802ZM34.7459 20.2223C32.3872 20.2223 30.4334 22.1458 30.4334 24.5456C30.4334 26.9102 32.3696 28.8689 34.7459 28.8689C37.1221 28.8689 39.0583 26.9278 39.0583 24.5456C39.0583 22.1458 37.1221 20.2223 34.7459 20.2223ZM34.7987 0C30.187 0 26.4554 3.74096 26.4554 8.34657C26.4554 12.9698 30.187 16.6931 34.7987 16.6931C39.3927 16.6931 43.1243 12.9698 43.1243 8.34657C43.1243 3.74096 39.3927 0 34.7987 0Z" fill="white"/>
<path d="M52.4708 76.1779V72.5957C49.1441 72.631 44.7437 72.9839 44.7437 78.7718V79.8835H42.3322V83.4657H44.7437V99.4H49.3905V83.4657H52.4708V79.8659H49.3905V78.913C49.3905 76.1779 51.2915 76.1779 52.4708 76.1779Z" fill="white"/>
<path d="M59.4763 82.4418V79.8831H55.0934V99.4173H59.7227V88.9002C59.7227 85.5299 61.3949 83.9947 64.6688 83.9947H64.88V79.3008C61.9229 79.3008 60.3388 80.6949 59.4763 82.4418Z" fill="white"/>
<path d="M81.0032 79.8663V90.6304C81.0032 93.4184 79.8591 95.6066 76.5324 95.6066C73.2233 95.6418 72.2904 93.3655 72.2904 90.4892V79.8487H67.6435V91.6539C67.6435 95.0772 68.858 99.9475 75.2299 99.9651C78.7326 100 80.4752 98.2888 81.3025 96.7712V99.3828H85.6677V79.8663H81.0032Z" fill="white"/>
<path d="M105.399 79.8659V73.0898H100.77V79.8659H97.5313V83.4657H100.77V99.4H105.399V83.4657H108.744V79.8659H105.399Z" fill="white"/>
<path d="M136.889 82.2654C135.094 80.3773 132.524 79.2832 129.619 79.2832C123.74 79.2832 119.393 84.1535 119.393 89.6944C119.393 95.1294 123.688 99.9997 129.69 99.9997C131.714 99.9997 133.633 99.435 135.27 98.3056C136.889 97.1939 138.279 95.5529 139.212 93.4001H134.425C133.527 95.0058 131.996 96.0293 129.743 96.0293C127.085 96.0646 124.321 94.3176 124.11 91.1943H139.776C140.145 87.771 139.265 84.7182 136.889 82.2654ZM124.163 87.6298C124.339 85.7064 126.205 83.2359 129.655 83.2359C133.069 83.2007 135.023 85.7946 135.182 87.6298H124.163Z" fill="white"/>
<path d="M150.372 87.4357C148.524 86.9063 147.098 86.2358 147.063 85.0005C147.063 84.03 147.802 83.0418 149.369 83.0418C151.181 83.0418 151.727 84.1006 151.745 85.1417H156.321C155.916 80.4479 152.026 79.2832 149.404 79.2832C145.655 79.2832 142.416 81.6478 142.416 85.4946C142.451 88.3004 144.581 89.7473 147.203 90.5767C150.777 91.8296 152.238 92.2884 152.238 93.9471C152.273 95.2705 151.041 96.2234 149.58 96.2234C148.682 96.2234 146.887 95.7999 146.711 93.7H142.064C142.416 98.4292 146.499 99.982 149.527 99.982C153.593 99.982 156.972 97.4233 156.902 93.4177C156.849 89.2179 153.47 88.3004 150.372 87.4357Z" fill="white"/>
<path d="M116.436 69.4018C115.89 68.8018 115.204 68.5019 114.359 68.5019C113.531 68.5019 112.827 68.7842 112.264 69.4018C111.701 70.0018 111.419 70.7253 111.419 71.5723C111.419 72.4193 111.718 73.1251 112.317 73.7427C112.915 74.3603 113.602 74.6603 114.359 74.6603C115.098 74.6603 115.767 74.3603 116.365 73.7427C116.964 73.1428 117.263 72.4193 117.263 71.5723C117.263 70.7253 116.999 70.0018 116.436 69.4018ZM116.013 79.1777C116.013 78.8954 115.855 78.7366 115.573 78.7366H113.021C112.722 78.7366 112.581 78.8954 112.581 79.1777L112.123 99.2059C112.123 99.4883 112.282 99.6471 112.581 99.6471H115.96C116.26 99.6471 116.4 99.4883 116.4 99.2059L116.013 79.1777Z" fill="white"/>
<path d="M94.8559 69.6312C94.3102 69.0312 93.6237 68.7313 92.7788 68.7313C91.9516 68.7313 91.2475 69.0312 90.6842 69.6312C90.121 70.2312 89.8394 70.9547 89.8394 71.8193C89.8394 72.6487 90.121 73.3722 90.7194 73.9898C91.3179 74.5897 92.0044 74.9074 92.7612 74.9074C93.5005 74.9074 94.1694 74.6074 94.7679 73.9898C95.3663 73.3722 95.6655 72.6487 95.6655 71.8193C95.6831 70.9547 95.4015 70.2135 94.8559 69.6312ZM94.4334 79.4071C94.4334 79.1248 94.2926 78.966 93.9934 78.966H91.4411C91.1595 78.966 91.0011 79.1248 91.0011 79.4071L90.5434 99.4353C90.5434 99.7353 90.7018 99.8765 91.0011 99.8765H94.3806C94.6798 99.8765 94.8383 99.7353 94.8383 99.4353L94.4334 79.4071Z" fill="white"/>
</svg>
