<svg width="160" height="100" viewBox="0 0 160 100" fill="none" xmlns="http://www.w3.org/2000/svg">
<g clip-path="url(#clip0_6_2)">
<path d="M148.154 48.5442L159.701 32.6628H148.594L139.089 46.5855V19.9576H129.584V64.4256H139.089V50.3794L149.228 64.4256H160L148.154 48.5442ZM48.0704 14.8579C44.7085 14.8579 41.9978 17.5931 41.9978 20.9635C41.9978 24.3339 44.7261 27.0513 48.0704 27.0513C51.4323 27.0513 54.143 24.3162 54.143 20.9635C54.1606 17.5931 51.4323 14.8579 48.0704 14.8579ZM26.9483 29.7335V19.9576H0V64.4256H10.1562V48.1031H26.6315V38.3095L10.1562 38.2213V29.6453L26.9483 29.7335ZM40.8889 37.5684L42.1738 32.6628H32.6513V64.4433H42.1738V49.0912C42.1738 42.8092 47.7536 41.2211 51.6788 41.8564V32.0452C47.6832 32.0275 43.4763 32.9451 40.8889 37.5684ZM78.1518 32.6628L79.7184 36.1214C76.9901 32.9804 72.7657 31.7805 68.6997 31.7805C60.4092 31.7805 53.5622 39.0859 53.5622 48.5442C53.5622 52.9557 55.0407 56.9084 57.4697 59.8553C62.8031 66.3314 73.8042 67.2137 79.4367 60.6847L78.1518 64.4433H87.6568V32.6628H78.1518ZM70.5831 56.2732C66.3058 56.2732 62.8559 52.7969 62.8559 48.5266C62.8559 44.2386 66.3058 40.78 70.5831 40.78C74.8427 40.78 78.3102 44.2386 78.3102 48.5266C78.3102 52.7969 74.8427 56.2732 70.5831 56.2732ZM102.354 36.2802L103.217 32.6451H93.7118V64.4256H103.217V47.0796C103.217 38.3801 114.64 38.3624 114.64 46.3208V64.4256H124.145V44.9268C124.145 30.8982 108.374 28.0042 102.354 36.2802ZM34.7459 20.2223C32.3872 20.2223 30.4334 22.1458 30.4334 24.5456C30.4334 26.9102 32.3696 28.8689 34.7459 28.8689C37.1221 28.8689 39.0583 26.9278 39.0583 24.5456C39.0583 22.1458 37.1221 20.2223 34.7459 20.2223ZM34.7987 0C30.187 0 26.4554 3.74096 26.4554 8.34657C26.4554 12.9698 30.187 16.6931 34.7987 16.6931C39.3927 16.6931 43.1243 12.9698 43.1243 8.34657C43.1243 3.74096 39.3927 0 34.7987 0Z" fill="black"/>
<path d="M52.4708 76.1778V72.5957C49.1441 72.631 44.7437 72.9839 44.7437 78.7718V79.8835H42.3322V83.4657H44.7437V99.4H49.3905V83.4657H52.4708V79.8659H49.3905V78.913C49.3905 76.1778 51.2915 76.1778 52.4708 76.1778Z" fill="black"/>
<path d="M59.4763 82.4422V79.8835H55.0935V99.4177H59.7228V88.9006C59.7228 85.5303 61.3949 83.9951 64.6689 83.9951H64.8801V79.3012C61.923 79.3012 60.3388 80.6952 59.4763 82.4422Z" fill="black"/>
<path d="M81.0033 79.8659V90.6299C81.0033 93.418 79.8592 95.6061 76.5325 95.6061C73.2233 95.6414 72.2904 93.3651 72.2904 90.4888V79.8482H67.6436V91.6534C67.6436 95.0767 68.8581 99.947 75.2299 99.9647C78.7327 100 80.4752 98.2883 81.3025 96.7707V99.3824H85.6678V79.8659H81.0033Z" fill="black"/>
<path d="M105.399 79.8659V73.0898H100.77V79.8659H97.5313V83.4656H100.77V99.4H105.399V83.4656H108.744V79.8659H105.399Z" fill="black"/>
<path d="M136.889 82.2658C135.094 80.3776 132.524 79.2836 129.619 79.2836C123.74 79.2836 119.393 84.1539 119.393 89.6947C119.393 95.1297 123.688 100 129.69 100C131.714 100 133.633 99.4353 135.27 98.306C136.889 97.1943 138.279 95.5532 139.212 93.4004H134.425C133.527 95.0062 131.996 96.0296 129.743 96.0296C127.085 96.0649 124.321 94.318 124.11 91.1946H139.776C140.145 87.7713 139.265 84.7185 136.889 82.2658ZM124.163 87.6301C124.339 85.7067 126.205 83.2363 129.655 83.2363C133.069 83.201 135.023 85.795 135.182 87.6301H124.163Z" fill="black"/>
<path d="M150.372 87.436C148.524 86.9067 147.098 86.2361 147.063 85.0009C147.063 84.0304 147.802 83.0422 149.369 83.0422C151.182 83.0422 151.727 84.1009 151.745 85.1421H156.321C155.916 80.4482 152.026 79.2836 149.404 79.2836C145.655 79.2836 142.416 81.6481 142.416 85.495C142.451 88.3007 144.581 89.7477 147.204 90.577C150.777 91.8299 152.238 92.2887 152.238 93.9474C152.273 95.2709 151.041 96.2237 149.58 96.2237C148.682 96.2237 146.887 95.8002 146.711 93.7004H142.064C142.416 98.4295 146.499 99.9823 149.527 99.9823C153.593 99.9823 156.972 97.4237 156.902 93.418C156.849 89.2183 153.47 88.3007 150.372 87.436Z" fill="black"/>
<path d="M116.436 69.4018C115.89 68.8018 115.204 68.5018 114.359 68.5018C113.531 68.5018 112.827 68.7842 112.264 69.4018C111.701 70.0017 111.419 70.7252 111.419 71.5722C111.419 72.4192 111.718 73.1251 112.317 73.7427C112.915 74.3603 113.602 74.6603 114.359 74.6603C115.098 74.6603 115.767 74.3603 116.365 73.7427C116.964 73.1427 117.263 72.4192 117.263 71.5722C117.263 70.7252 116.999 70.0017 116.436 69.4018ZM116.013 79.1777C116.013 78.8953 115.855 78.7365 115.573 78.7365H113.021C112.722 78.7365 112.581 78.8953 112.581 79.1777L112.123 99.2059C112.123 99.4882 112.282 99.6471 112.581 99.6471H115.96C116.26 99.6471 116.4 99.4882 116.4 99.2059L116.013 79.1777Z" fill="black"/>
<path d="M94.8559 69.6311C94.3102 69.0312 93.6238 68.7312 92.7789 68.7312C91.9516 68.7312 91.2475 69.0312 90.6843 69.6311C90.121 70.2311 89.8394 70.9546 89.8394 71.8193C89.8394 72.6486 90.121 73.3721 90.7195 73.9897C91.3179 74.5897 92.0044 74.9073 92.7613 74.9073C93.5006 74.9073 94.1694 74.6073 94.7679 73.9897C95.3663 73.3721 95.6656 72.6486 95.6656 71.8193C95.6832 70.9546 95.4015 70.2135 94.8559 69.6311ZM94.4334 79.407C94.4334 79.1247 94.2926 78.9659 93.9934 78.9659H91.4411C91.1595 78.9659 91.0011 79.1247 91.0011 79.407L90.5435 99.4353C90.5435 99.7353 90.7019 99.8764 91.0011 99.8764H94.3806C94.6799 99.8764 94.8383 99.7353 94.8383 99.4353L94.4334 79.407Z" fill="black"/>
</g>
<defs>
<clipPath id="clip0_6_2">
<rect width="160" height="100" fill="white"/>
</clipPath>
</defs>
</svg>
