<svg width="25" height="24" viewBox="0 0 25 24" fill="none" xmlns="http://www.w3.org/2000/svg">
<path d="M5.5 22H19.5C20.603 22 21.5 21.103 21.5 20V9C21.5 8.73478 21.3946 8.48043 21.2071 8.29289C21.0196 8.10536 20.7652 8 20.5 8H17.5V7C17.5 4.243 15.257 2 12.5 2C9.743 2 7.5 4.243 7.5 7V8H4.5C4.23478 8 3.98043 8.10536 3.79289 8.29289C3.60536 8.48043 3.5 8.73478 3.5 9V20C3.5 21.103 4.397 22 5.5 22ZM9.5 7C9.5 5.346 10.846 4 12.5 4C14.154 4 15.5 5.346 15.5 7V8H9.5V7ZM5.5 10H7.5V12H9.5V10H15.5V12H17.5V10H19.5L19.502 20H5.5V10Z" fill="#FF5E5E"/>
</svg>
