<svg width="170" height="169" viewBox="0 0 170 169" fill="none" xmlns="http://www.w3.org/2000/svg">
<path fill-rule="evenodd" clip-rule="evenodd" d="M103.209 65.4974C103.647 65.352 104.117 65.326 104.569 65.4221C105.021 65.5182 105.44 65.733 105.782 66.0443L120.104 79.0651C120.437 79.3673 120.685 79.7504 120.826 80.177C120.966 80.6037 120.994 81.0595 120.907 81.5L117 101.031C116.905 101.508 116.678 101.948 116.345 102.303C116.012 102.657 115.587 102.911 115.117 103.036L95.5862 108.245C95.1924 108.35 94.7794 108.361 94.3805 108.277C93.9815 108.194 93.6078 108.018 93.2894 107.763L86.7789 102.555C86.2395 102.123 85.8937 101.495 85.8175 100.808C85.7798 100.468 85.8094 100.124 85.9047 99.7955C85.9999 99.4669 86.159 99.1604 86.3727 98.8933C86.5864 98.6262 86.8507 98.4038 87.1504 98.2388C87.4501 98.0739 87.7793 97.9695 88.1193 97.9318C88.8059 97.8556 89.4947 98.0553 90.0341 98.487L93.2529 101.065L95.9612 88.4193L85.706 79.0964L85.667 79.2084C85.5647 79.5398 85.3972 79.8474 85.1744 80.1132C84.9515 80.379 84.6779 80.5976 84.3694 80.7562C84.0609 80.9148 83.7239 81.0102 83.3781 81.0368C83.0322 81.0633 82.6846 81.0205 82.3555 80.9109C82.0265 80.8013 81.7226 80.627 81.4618 80.3983C81.201 80.1697 80.9885 79.8912 80.8368 79.5793C80.6851 79.2674 80.5972 78.9284 80.5784 78.582C80.5595 78.2357 80.61 77.8891 80.7269 77.5625L82.0289 73.6563C82.1567 73.2723 82.3723 72.9234 82.6584 72.6373C82.9445 72.3512 83.2934 72.1356 83.6774 72.0078L103.209 65.4974ZM89.542 75.5443L99.5003 84.599L107.222 82.3907C107.886 82.2007 108.599 82.2825 109.203 82.618C109.807 82.9535 110.253 83.5153 110.443 84.1797C110.633 84.8441 110.551 85.5568 110.216 86.1609C109.88 86.765 109.318 87.2111 108.654 87.4011L101.042 89.5756L98.3545 102.117L112.211 98.4219L115.511 81.9245L103.407 70.9219L89.542 75.5443ZM61.8258 75.2422C62.1503 74.9175 62.5548 74.6844 62.9984 74.5664C63.442 74.4484 63.909 74.4498 64.3519 74.5703L78.6748 78.4766C79.1213 78.5985 79.5273 78.8372 79.8509 79.1681C80.1745 79.4991 80.404 79.9103 80.5159 80.3594L84.4222 95.9844C84.5375 96.4459 84.5242 96.9302 84.3837 97.3847C84.2432 97.8392 83.9809 98.2466 83.6253 98.5625L71.9065 108.979C71.5828 109.267 71.1926 109.469 70.7711 109.567C70.3496 109.666 69.9101 109.658 69.4925 109.544L55.1696 105.638C54.7321 105.519 54.3333 105.288 54.0126 104.967C53.692 104.646 53.4606 104.247 53.3414 103.81L49.4352 89.487C49.3146 89.0441 49.3133 88.5772 49.4313 88.1336C49.5492 87.69 49.7824 87.2854 50.1071 86.961L61.8258 75.2422ZM64.4404 79.9948L56.9638 87.4688L65.4977 89.7995L72.9743 82.3203L64.4404 79.9948ZM76.5784 86.0834L69.1826 93.4792L71.5862 102.297L78.9873 95.7162L76.5784 86.0834ZM66.4664 103.32L64.1487 94.8308L55.6592 92.5131L57.9769 101.003L66.4664 103.32Z" fill="#AFAFAF"/>
<path fill-rule="evenodd" clip-rule="evenodd" d="M136.583 87.5001C136.583 116.266 113.265 139.583 84.4993 139.583C55.7337 139.583 32.416 116.266 32.416 87.5001C32.416 58.7345 55.7337 35.4167 84.4993 35.4167C113.265 35.4167 136.583 58.7345 136.583 87.5001ZM131.374 87.5001C131.374 99.6199 126.775 110.664 119.229 118.984L109.046 108.802C108.555 108.328 107.897 108.066 107.214 108.073C106.531 108.079 105.878 108.353 105.396 108.836C104.913 109.32 104.64 109.973 104.634 110.656C104.629 111.339 104.892 111.996 105.367 112.487L115.523 122.643C106.966 130.219 95.9277 134.393 84.4993 134.375C58.6113 134.375 37.6243 113.388 37.6243 87.5001C37.6243 75.6042 42.0566 64.7423 49.3587 56.4766L59.3691 66.4897C59.8574 66.9783 60.5199 67.253 61.2107 67.2532C61.9015 67.2535 62.5641 66.9793 63.0527 66.491C63.5414 66.0027 63.816 65.3402 63.8163 64.6494C63.8165 63.9586 63.5423 63.296 63.054 62.8074L53.0176 52.7709C61.6305 44.9395 72.8583 40.6077 84.4993 40.6251C110.387 40.6251 131.374 61.6121 131.374 87.5001Z" fill="#AFAFAF"/>
</svg>
