<svg width="107" height="111" viewBox="0 0 107 111" fill="none" xmlns="http://www.w3.org/2000/svg">
<path d="M53.7383 90.1966C72.1436 90.1966 87.0663 75.3889 87.0663 57.1215C87.0663 38.8542 72.1436 24.0505 53.7383 24.0505C35.3329 24.0505 20.4102 38.8582 20.4102 57.1215C20.4102 75.3849 35.3329 90.1966 53.7383 90.1966Z" fill="#ED1C24"/>
<path d="M32.9285 79.3623H31.0163V71.8938H28.2539V70.2871H35.695V71.8938H32.9325V79.3623H32.9285Z" fill="white"/>
<path d="M43.5512 71.8898H38.6976V73.7993H43.1566V75.406H38.6976V77.7555H43.7668V79.3623H36.8262V70.2871H43.5512V71.8938V71.8898Z" fill="white"/>
<path d="M46.6822 76.5692C46.6944 77.0738 46.9507 78.0346 48.6187 78.0346C49.5219 78.0346 50.5308 77.8207 50.5308 76.8598C50.5308 76.1534 49.8433 75.9636 48.875 75.7335L47.8945 75.5075C46.4177 75.1643 44.9897 74.8373 44.9897 72.839C44.9897 71.8298 45.539 70.0454 48.5048 70.0454C51.3079 70.0454 52.0606 71.8661 52.0728 72.9763H50.2379C50.185 72.5726 50.0345 71.6118 48.3665 71.6118C47.6423 71.6118 46.7757 71.8782 46.7757 72.6977C46.7757 73.4042 47.3616 73.5576 47.744 73.6464L49.9735 74.1914C51.2225 74.4942 52.3697 74.9988 52.3697 76.6297C52.3697 79.3587 49.5666 79.601 48.7652 79.601C45.4291 79.601 44.8555 77.6915 44.8555 76.5692H46.6903H46.6822Z" fill="white"/>
<path d="M57.698 79.3623H55.7859V71.8938H53.0234V70.2871H60.4645V71.8938H57.7021V79.3623H57.698Z" fill="white"/>
<path d="M68.3266 71.8898H63.473V73.7993H67.9319V75.406H63.473V77.7555H68.5422V79.3623H61.6016V70.2871H68.3266V71.8938V71.8898Z" fill="white"/>
<path d="M70.0957 70.2871H74.1356C77.2194 70.2871 77.8541 72.891 77.8541 74.6107C77.8541 76.5566 77.077 79.3623 74.0583 79.3623H70.0957V70.2871ZM71.9672 77.7959H73.8264C75.3805 77.7959 75.9013 76.2417 75.9013 74.748C75.9013 72.0674 74.6157 71.8535 73.7979 71.8535H71.9631V77.7959H71.9672Z" fill="white"/>
<path d="M31.4342 39.9728H35.4619V44.2803H39.2577V39.9203H43.4034V36.5535H39.2577L39.274 32.3914L35.4619 32.4075V36.5535H31.418L31.4342 39.9728Z" fill="white"/>
<path d="M52.8026 28.7549L50.3046 31.2336L49.1044 34.8023L47.3062 36.191C47.3062 36.191 46.4071 40.1553 45.4103 41.7419C44.4095 43.3284 40.3167 48.084 38.8196 49.2709C37.3224 50.4618 34.6251 51.8465 32.8269 53.6308C31.0286 55.4152 27.6356 59.4764 27.6356 59.4764L24.9912 59.5248L24.1083 60.9943H31.3989L33.429 62.2498H23.7422L24.0432 63.6708H35.6259L38.1239 64.894H24.2426L24.8406 66.3796H45.9799L44.2142 63.7354L48.6081 56.7998L54.4014 50.5587L56.5984 37.9754L52.8026 28.7589V28.7549Z" fill="white"/>
<path d="M53.8398 29.2861L56.1019 30.2106L57.4322 31.6639H54.9058L53.8398 29.2861Z" fill="white"/>
<path d="M55.3359 32.5901H58.3303L59.5955 34.0434H55.8689L55.3359 32.5901Z" fill="white"/>
<path d="M56.25 35.0312H60.8432L62.5072 36.5532H56.9172L56.25 35.0312Z" fill="white"/>
<path d="M57.4663 37.9383L57.2832 37.5588H63.3898L63.9879 39.1454H57.332L57.4663 37.9383Z" fill="white"/>
<path d="M57.1824 40.2673H64.774L65.6202 41.9346H56.9668L57.1824 40.2673Z" fill="white"/>
<path d="M56.7983 43.0771H65.9847L67.2825 44.8453H56.5664L56.7983 43.0771Z" fill="white"/>
<path d="M56.4163 45.9509H67.7996L67.5677 47.7514H56.1152L56.4163 45.9509Z" fill="white"/>
<path d="M56.0699 48.8733H67.4532L67.1888 50.6213H55.7363L56.0699 48.8733Z" fill="white"/>
<path d="M57.3965 51.7478H66.9856L66.5829 53.4635H59.7928L57.3965 51.7478Z" fill="white"/>
<path d="M54.4361 52.6052L55.4328 53.5297H53.6387L54.4361 52.6052Z" fill="white"/>
<path d="M52.5745 54.5222H56.3011L58.0343 56.1733H51.2441L52.5745 54.5222Z" fill="white"/>
<path d="M50.1774 57.2966H58.9651L60.7633 58.8832H48.9121L50.1774 57.2966Z" fill="white"/>
<path d="M48.3797 59.8711H61.6955L63.4246 61.4576H47.3789L48.3797 59.8711Z" fill="white"/>
<path d="M46.8425 62.5149H64.6863L66.4845 63.9682H45.8457L46.8425 62.5149Z" fill="white"/>
<path d="M46.4453 65.1599H67.7514L69.6798 66.6132H47.6455L46.4453 65.1599Z" fill="white"/>
<path d="M68.6211 47.8007V46.8076L70.3502 47.8007H68.6211Z" fill="white"/>
<path d="M68.3496 50.6744H73.0771L72.2797 49.7136H68.549L68.3496 50.6744Z" fill="white"/>
<path d="M67.6348 53.5294H78.0213L77.1873 52.3586H68.0335L67.6348 53.5294Z" fill="white"/>
<path d="M80.9017 55.1797L81.634 56.3867H66.7031L67.1018 55.1797H80.9017Z" fill="white"/>
<path d="M67.2343 58.9147H83.1457L82.4785 57.8247H65.5703L67.2343 58.9147Z" fill="white"/>
<path d="M71.3113 61.4895L84.3952 61.4572L83.8948 60.3672H69.1836L71.3113 61.4895Z" fill="white"/>
<path d="M74.5235 64.0012L84.2428 64.0174L84.4747 62.8628H72.7578L74.5235 64.0012Z" fill="white"/>
<path d="M78.7051 66.6778H83.2983L83.8801 65.4707H76.8906L78.7051 66.6778Z" fill="white"/>
<path d="M76.521 66.6614L55.3004 51.9465H54.9668L71.3949 66.6614H76.521Z" fill="white"/>
<path d="M60.9609 54.5869H66.0871L65.4524 56.3713H63.4223L60.9609 54.5869Z" fill="white"/>
<path d="M22.3786 86.8991C21.4062 87.868 21.8578 88.9903 22.5373 89.725C23.0499 90.2781 24.067 91.0693 25.0637 90.165C25.6211 89.6564 25.4421 89.1033 25.1817 88.639L23.892 86.3904C23.3143 85.365 23.237 84.2629 24.2785 83.3183C25.8326 81.9053 27.5861 82.9469 28.6154 84.0611C29.7301 85.2682 29.7993 86.0715 29.8034 86.6004C29.8115 87.6096 29.364 88.2192 28.7537 88.7763L27.9929 87.9528C29.1809 86.8708 28.6398 85.5952 27.8668 84.7635C27.281 84.1297 26.1256 83.2093 25.1858 84.0651C24.5023 84.6909 24.5755 85.2076 25.3078 86.5075L26.2273 88.1223C26.5202 88.639 27.106 89.8744 25.9669 90.9119C24.9457 91.8444 23.3265 92.0947 21.87 90.5203C19.7667 88.2434 20.9262 86.7699 21.6178 86.0796L22.3786 86.9031V86.8991Z" fill="#ED1C24"/>
<path d="M17.4528 65.2003L17.6603 66.4396L9.25915 70.1496L9.04759 68.8739L15.9191 66.0763V66.0521L8.44548 65.2729L8.22985 63.9851L15.0444 60.8605V60.8363L7.62773 60.3841L7.41211 59.0842L16.5741 59.936L16.7816 61.1754L9.83686 64.3606V64.3848L17.4528 65.2043V65.2003Z" fill="#ED1C24"/>
<path d="M16.6408 55.5389L16.6124 56.7298L7.71484 56.5078L7.74332 55.3169L16.6408 55.5389Z" fill="#ED1C24"/>
<path d="M11.3528 47.4736C9.98586 47.296 9.3634 48.3375 9.18846 49.3185C9.05827 50.0573 9.042 51.3411 10.3724 51.5712C11.1169 51.7004 11.4545 51.224 11.6661 50.7355L12.6791 48.3537C13.147 47.2758 13.981 46.5451 15.3724 46.7873C17.4473 47.1507 17.6832 49.1651 17.4188 50.6548C17.134 52.2655 16.5319 52.8105 16.1088 53.1375C15.3073 53.7592 14.5506 53.7754 13.7288 53.6341L13.924 52.532C15.5107 52.8105 16.2023 51.6075 16.4017 50.4933C16.5522 49.6455 16.5848 48.1801 15.3276 47.9581C14.4122 47.7966 14.0461 48.172 13.448 49.5406L12.7157 51.2482C12.4798 51.7932 11.8492 53.0083 10.3235 52.7419C8.95656 52.5037 7.77266 51.3855 8.14289 49.2782C8.68398 46.2383 10.5676 46.2545 11.54 46.3756L11.3447 47.4777L11.3528 47.4736Z" fill="#ED1C24"/>
<path d="M14.208 39.2388C12.9062 38.7907 12.0844 39.6829 11.7141 40.6114C11.4334 41.3098 11.1608 42.5613 12.4139 43.0578C13.1177 43.3364 13.5449 42.9327 13.85 42.5007L15.3309 40.3732C16.0103 39.4084 16.9745 38.8634 18.2886 39.3842C20.2455 40.1552 20.0624 42.1737 19.501 43.5786C18.8907 45.0965 18.195 45.5123 17.715 45.7465C16.8037 46.1946 16.0551 46.0573 15.2862 45.7545L15.7011 44.713C17.1983 45.3024 18.1218 44.2649 18.5409 43.2112C18.8623 42.4119 19.1918 40.9828 18.0079 40.5145C17.1454 40.1754 16.706 40.4661 15.8435 41.6853L14.7776 43.2112C14.4359 43.6997 13.5693 44.7614 12.1332 44.1922C10.8435 43.6836 9.91184 42.3514 10.7052 40.3611C11.8525 37.4949 13.6954 37.8865 14.623 38.2013L14.208 39.2429V39.2388Z" fill="#ED1C24"/>
<path d="M20.8206 25.5288L21.6994 24.5115L26.3455 32.6985L25.5155 33.6593L16.6465 30.3651L17.5171 29.3559L24.9297 32.3352L24.946 32.315L20.8206 25.5248V25.5288Z" fill="#ED1C24"/>
<path d="M30.2668 28.903L29.3596 29.6862L23.5215 23.0251L24.4287 22.2419L30.2668 28.903Z" fill="#ED1C24"/>
<path d="M26.0882 20.7449L32.146 16.8452L32.7237 17.7334L30.1973 19.3603L34.4569 25.876L33.4479 26.5259L29.1883 20.0102L26.6619 21.6371L26.0801 20.749L26.0882 20.7449Z" fill="#ED1C24"/>
<path d="M37.518 21.2774L37.6319 24.0064L36.4847 24.4707L36.2324 15.0362L37.4936 14.5276L43.8321 21.5075L42.6157 22.0001L40.8256 19.9493L37.518 21.2815V21.2774ZM40.0241 19.1257L37.3309 16.0172L37.3065 16.0253L37.4611 20.1592L40.0201 19.1257H40.0241Z" fill="#ED1C24"/>
<path d="M52.087 20.2235L51.371 15.0561C51.3344 14.8018 51.2083 13.6876 51.0944 12.8721H51.07L49.6094 20.5626L48.4296 20.7241L44.9308 13.728H44.9064C45.0162 14.5354 45.1952 15.6415 45.2318 15.8958L45.9479 21.0632L44.7925 21.2206L43.5801 12.4724L45.2888 12.2383L48.8323 19.2909H48.8568L50.3376 11.548L52.0301 11.3179L53.2425 20.066L52.087 20.2235Z" fill="#ED1C24"/>
<path d="M56.5302 20.362L55.3301 20.3054L55.7491 11.4846L56.9493 11.5411L56.5302 20.362Z" fill="#ED1C24"/>
<path d="M65.8709 12.9002L67.01 13.1383L65.1915 21.7815L63.8692 21.507L60.9115 13.6066H60.8871L59.4184 20.5825L58.2793 20.3444L60.0979 11.7012L61.4933 11.9918L64.3778 19.8761H64.4022L65.8709 12.9002Z" fill="#ED1C24"/>
<path d="M72.2785 24.9873L71.2207 24.418L75.4559 16.6509L76.5137 17.2201L72.2785 24.9873Z" fill="#ED1C24"/>
<path d="M84.8039 23.0212L85.7111 23.7478L80.1293 30.6228L79.0797 29.7831L80.0643 21.4145L80.0439 21.3983L75.5362 26.9492L74.6289 26.2225L80.2107 19.3516L81.3214 20.2397L80.2758 28.5599L80.2961 28.5761L84.8039 23.0252V23.0212Z" fill="#ED1C24"/>
<path d="M89.3646 31.8746C90.3979 30.9743 90.0236 29.8198 89.3971 29.0447C88.9252 28.4593 87.961 27.5994 86.9073 28.4391C86.3174 28.9074 86.4557 29.4726 86.6876 29.953L87.8227 32.2823C88.3312 33.344 88.3312 34.4461 87.2287 35.3222C85.5851 36.6302 83.9048 35.4756 82.9528 34.2927C81.9235 33.017 81.9072 32.2097 81.9398 31.6808C82.0008 30.6716 82.485 30.0943 83.1359 29.5816L83.8397 30.4536C82.5826 31.4547 83.0342 32.7627 83.7502 33.6468C84.2913 34.317 85.3816 35.3141 86.3784 34.5228C87.1026 33.9456 87.0659 33.4248 86.4231 32.0764L85.6135 30.4051C85.3572 29.8682 84.8527 28.5965 86.0611 27.6357C87.1432 26.7759 88.7747 26.6305 90.1213 28.2978C92.066 30.7079 90.8088 32.1007 90.0765 32.7466L89.3727 31.8746H89.3646Z" fill="#ED1C24"/>
<path d="M93.4012 33.0535L96.7087 39.4319L95.7608 39.9163L94.3816 37.26L87.4125 40.8166L86.8633 39.7549L93.8324 36.1983L92.4532 33.5379L93.4012 33.0535Z" fill="#ED1C24"/>
<path d="M89.379 45.5716L88.9844 44.4453L97.3896 41.5427L97.7843 42.669L89.379 45.5716Z" fill="#ED1C24"/>
<path d="M98.5668 44.7612L99.9581 51.7937L98.9126 51.9955L98.3349 49.0647L90.6538 50.5583L90.4219 49.3876L98.103 47.8939L97.5252 44.9631L98.5708 44.7612H98.5668Z" fill="#ED1C24"/>
<path d="M100.119 60.804L94.3462 60.7797C92.5236 60.7717 90.9938 59.6332 91.002 57.211C91.0101 54.8373 92.552 53.824 94.2119 53.8321L100.148 53.8563V55.0472L94.5415 55.023C92.609 55.0149 92.072 56.1816 92.0679 57.2514C92.0638 58.3454 92.5683 59.5767 94.5008 59.5848L100.127 59.605V60.7999L100.119 60.804Z" fill="#ED1C24"/>
<path d="M99.8486 63.3053L98.323 70.3095L97.2815 70.0874L97.9161 67.1687L90.2676 65.5256L90.5198 64.3589L98.1684 66.002L98.803 63.0833L99.8445 63.3053H99.8486Z" fill="#ED1C24"/>
<path d="M86.6779 75.1428L89.3305 69.1802L97.4713 72.7448L94.8553 78.6267L93.8789 78.1988L96.0107 73.4069L93.5168 72.3169L91.5518 76.7374L90.5754 76.3095L92.5404 71.889L89.8187 70.6981L87.6502 75.5667L86.6738 75.1388L86.6779 75.1428Z" fill="#ED1C24"/>
<path d="M88.161 81.7593C88.7672 81.7593 89.2594 81.2708 89.2594 80.6693C89.2594 80.0678 88.7672 79.5793 88.161 79.5793C87.5548 79.5793 87.0625 80.0678 87.0625 80.6693C87.0625 81.2708 87.5548 81.7593 88.161 81.7593Z" fill="#ED1C24"/>
<path d="M20.3074 82.0547C20.9136 82.0547 21.4059 81.5663 21.4059 80.9647C21.4059 80.3632 20.9136 79.8748 20.3074 79.8748C19.7013 79.8748 19.209 80.3632 19.209 80.9647C19.209 81.5663 19.7013 82.0547 20.3074 82.0547Z" fill="#ED1C24"/>
<path d="M34.6297 89.5383L35.7891 90.0268L37.2782 98.456L37.3026 98.4641L40.1342 91.8636L41.1675 92.2996L37.6728 100.442L36.4767 99.9376L34.9917 91.5932L34.9673 91.5851L32.1642 98.1169L31.1309 97.6809L34.6256 89.5383H34.6297Z" fill="#ED1C24"/>
<path d="M48.1049 97.0124C48.1375 95.7367 47.2912 94.901 46.087 94.6305C44.0162 94.1663 42.755 95.664 42.3441 97.4645C41.8966 99.4345 42.4011 101.275 44.4841 101.744C46.0097 102.083 47.1244 101.215 47.5597 99.814L48.7192 100.072C48.0113 102.176 46.3636 103.181 44.1667 102.688C41.4613 102.083 40.5947 99.8059 41.1683 97.2909C41.7379 94.788 43.6378 93.0682 46.3189 93.6657C48.1334 94.0694 49.4149 95.3733 49.2644 97.2707L48.1049 97.0124Z" fill="#ED1C24"/>
<path d="M67.1819 101.819L66.1444 102.033L64.8466 95.8725L62.5968 96.3408L62.4219 95.5173C63.6058 95.271 64.6188 94.7341 64.574 93.3857L65.3674 93.2202L67.1778 101.823L67.1819 101.819Z" fill="#ED1C24"/>
<path d="M71.9168 98.3148C72.3399 99.0617 73.178 99.2191 73.951 98.8719C75.1349 98.3391 75.2448 97.0513 74.3619 94.9601L74.3294 94.948C74.2724 95.7877 73.7517 96.5386 72.9665 96.8938C71.3269 97.6286 69.9193 96.9423 69.1992 95.3598C68.4953 93.8136 69.1015 92.2594 70.6597 91.561C72.1609 90.8868 73.7924 91.1209 75.1715 94.1487C76.4327 96.918 76.2944 98.8396 74.3375 99.7197C72.9828 100.325 71.7012 100.071 70.9486 98.7508L71.9128 98.3189L71.9168 98.3148ZM71.0055 92.4289C69.8542 92.9456 69.842 94.0558 70.2895 95.0368C70.6923 95.9169 71.7216 96.4336 72.6532 96.0138C73.6662 95.5616 73.9347 94.4595 73.5035 93.5108C73.056 92.5298 72.0877 91.9445 71.0096 92.4289H71.0055Z" fill="#ED1C24"/>
<path d="M78.5506 91.118C78.693 91.0372 78.815 90.9525 78.9371 90.8677C79.6775 90.3631 80.0518 89.5193 79.5066 88.7362C78.9818 87.9812 78.1437 87.9489 77.4033 88.4576C76.4472 89.1116 76.5367 90.1168 77.1144 90.9726L76.2397 91.5701C75.3366 90.1572 75.4139 88.6917 76.8744 87.6946C78.1397 86.8307 79.5148 86.7822 80.4424 88.1185C80.8817 88.7523 80.8085 89.6122 80.4302 90.246L80.4424 90.2662C81.4635 89.8584 82.3748 90.2581 82.977 91.126C83.9818 92.5753 83.3635 94.1134 81.9924 95.046C80.5115 96.0552 78.9289 95.8534 77.9281 94.3435L78.8028 93.746C79.4822 94.6665 80.4627 94.9612 81.4595 94.2789C82.3138 93.6976 82.684 92.6762 82.0778 91.8002C81.4472 90.8919 80.4261 90.8798 79.5595 91.4692C79.3846 91.5863 79.2056 91.7235 79.055 91.8567L78.5465 91.122L78.5506 91.118Z" fill="#ED1C24"/>
<path d="M88.0828 88.4736L87.3342 89.2205L82.8346 84.7798L81.2154 86.3946L80.6133 85.8011C81.4676 84.9493 82.0128 83.9482 81.2317 82.8461L81.8053 82.2769L88.0828 88.4736Z" fill="#ED1C24"/>
<path d="M31.8061 87.843L32.8435 88.4445L28.348 96.0664L27.3105 95.4649L31.8061 87.843Z" fill="#ED1C24"/>
<path d="M57.2206 103.83L50.6543 103.636L50.9187 94.8115L57.3956 95.0013L57.363 96.059L52.0864 95.9015L52.005 98.6063L56.8748 98.7476L56.8423 99.8053L51.9765 99.664L51.887 102.615L57.2491 102.772L57.2166 103.83H57.2206Z" fill="#ED1C24"/>
<path d="M12.5215 72.9591C11.3254 73.6333 11.4515 74.8363 11.9072 75.7244C12.2489 76.3946 13.0138 77.4281 14.2221 76.8225C14.8975 76.4834 14.8771 75.898 14.751 75.3813L14.1204 72.8703C13.8397 71.7278 14.0675 70.65 15.3287 70.0121C17.2083 69.0675 18.6119 70.5369 19.3035 71.8853C20.048 73.3426 19.9016 74.1379 19.7592 74.6506C19.4947 75.6235 18.8967 76.0918 18.1562 76.4632L17.6436 75.4661C19.0797 74.7435 18.9048 73.3668 18.3881 72.3576C17.9935 71.5906 17.1351 70.3956 15.9959 70.9689C15.166 71.3887 15.0968 71.9055 15.4508 73.3547L15.9023 75.1552C16.0447 75.7325 16.2766 77.0768 14.8934 77.7752C13.6566 78.3969 12.0293 78.2112 11.0528 76.3017C9.64519 73.5485 11.1627 72.4383 12.013 71.9579L12.5256 72.9551L12.5215 72.9591Z" fill="#ED1C24"/>
<path d="M53.7032 109.273C82.5886 109.273 106.002 86.0397 106.002 57.3771C106.002 28.7144 82.5886 5.47754 53.7032 5.47754C24.8178 5.47754 1.4043 28.7144 1.4043 57.373C1.4043 86.0316 24.8218 109.269 53.7032 109.269V109.273Z" stroke="#ED1C24" stroke-width="2"/>
</svg>
