<svg width="117" height="99" viewBox="0 0 117 99" fill="none" xmlns="http://www.w3.org/2000/svg">
<path d="M76.875 40.7609C61.7462 56.6062 46.6114 95.5 46.6114 95.5C46.6114 95.5 24.9901 40.7609 3.375 28.125" stroke="#AFAFAF" stroke-width="6" stroke-linecap="round" stroke-linejoin="round"/>
<path d="M110.539 7.1592L113.148 34.2562C114.839 51.8349 101.664 67.4843 84.0849 69.1809C66.8369 70.8347 51.212 58.2294 49.5522 40.9814C49.1551 36.8797 49.5704 32.7399 50.7742 28.7987C51.978 24.8576 53.9468 21.1923 56.568 18.0125C59.1892 14.8327 62.4115 12.2007 66.0505 10.2669C69.6895 8.33318 73.674 7.13561 77.7762 6.74269L106.662 3.96194C107.126 3.91717 107.595 3.96437 108.041 4.10083C108.488 4.2373 108.903 4.46036 109.263 4.75728C109.623 5.05419 109.921 5.41914 110.14 5.83127C110.359 6.2434 110.494 6.69464 110.539 7.1592Z" stroke="#AFAFAF" stroke-width="6" stroke-linecap="round" stroke-linejoin="round"/>
</svg>
