<svg width="40" height="41" viewBox="0 0 40 41" fill="none" xmlns="http://www.w3.org/2000/svg">
<path d="M31.2269 21.1015C26.3699 21.1015 22.4538 24.9859 22.4538 29.7726C22.4538 34.5593 26.3953 38.4187 31.2269 38.4187C36.0838 38.4187 39.9999 34.5342 39.9999 29.7726C40.0253 24.9859 36.0838 21.1015 31.2269 21.1015ZM11.9771 28.72C8.56958 28.72 5.74696 31.4517 5.74696 34.86C5.74696 38.2182 8.54415 41 11.9771 41C15.41 41 18.2072 38.2433 18.2072 34.86C18.2072 31.4517 15.41 28.72 11.9771 28.72ZM12.0534 0C5.39095 0 0 5.31296 0 11.8539C0 18.4199 5.39095 23.7078 12.0534 23.7078C18.6903 23.7078 24.0813 18.4199 24.0813 11.8539C24.0813 5.31296 18.6903 0 12.0534 0Z" fill="black"/>
</svg>
