<svg width="44" height="44" viewBox="0 0 44 44" fill="none" xmlns="http://www.w3.org/2000/svg">
<path d="M22.0011 2.95142C11.4972 2.95142 2.95239 11.4962 2.95239 22.0001C2.95239 32.504 11.4983 41.0488 22.0011 41.0488C32.5039 41.0488 41.0476 32.5029 41.0476 22.0001C41.0476 11.4973 32.5039 2.95142 22.0011 2.95142ZM22.0011 39.3988C12.4069 39.3988 4.60239 31.5932 4.60239 22.0001C4.60239 12.407 12.4069 4.60142 22.0011 4.60142C31.5942 4.60142 39.3976 12.407 39.3976 22.0001C39.3976 31.5932 31.5942 39.3988 22.0011 39.3988Z" fill="#9997AB"/>
<path d="M22.0142 30.0337C20.5579 30.0372 19.1251 29.6666 17.853 28.9574C16.581 28.2482 15.5125 27.2242 14.7498 25.9835C14.6924 25.8904 14.6743 25.7783 14.6994 25.6719C14.7246 25.5654 14.791 25.4734 14.884 25.4159L15.5132 25.0276C15.6062 24.9705 15.718 24.9525 15.8242 24.9777C15.9304 25.0028 16.0223 25.069 16.0797 25.1618C16.7011 26.1769 17.5734 27.0149 18.6126 27.595C19.6519 28.1751 20.823 28.4778 22.0131 28.4739C23.1963 28.4777 24.3607 28.1786 25.3954 27.6049C26.4302 27.0313 27.3009 26.2024 27.9245 25.197C27.9829 25.1049 28.0753 25.0396 28.1816 25.0153C28.2879 24.991 28.3995 25.0096 28.4921 25.0672L29.1169 25.4588C29.1632 25.4871 29.2034 25.5243 29.235 25.5684C29.2667 25.6124 29.2892 25.6624 29.3013 25.7152C29.3134 25.7681 29.3148 25.8229 29.3055 25.8763C29.2961 25.9297 29.2761 25.9808 29.2467 26.0264C28.4825 27.2552 27.417 28.2684 26.1512 28.9697C24.8854 29.6711 23.4613 30.0373 22.0142 30.0337Z" fill="#9997AB"/>
<path d="M16.9741 18.7538C17.6083 18.7538 18.1225 18.2397 18.1225 17.6054C18.1225 16.9712 17.6083 16.457 16.9741 16.457C16.3398 16.457 15.8257 16.9712 15.8257 17.6054C15.8257 18.2397 16.3398 18.7538 16.9741 18.7538Z" fill="#9997AB"/>
<path d="M27.0248 18.7538C27.659 18.7538 28.1732 18.2397 28.1732 17.6054C28.1732 16.9712 27.659 16.457 27.0248 16.457C26.3906 16.457 25.8764 16.9712 25.8764 17.6054C25.8764 18.2397 26.3906 18.7538 27.0248 18.7538Z" fill="#9997AB"/>
</svg>
