<svg width="44" height="44" viewBox="0 0 44 44" fill="none" xmlns="http://www.w3.org/2000/svg">
<path d="M22.0011 2.95142C11.4972 2.95142 2.95239 11.4962 2.95239 22.0001C2.95239 32.504 11.4983 41.0488 22.0011 41.0488C32.5039 41.0488 41.0476 32.5029 41.0476 22.0001C41.0476 11.4973 32.5039 2.95142 22.0011 2.95142ZM22.0011 39.3988C12.4069 39.3988 4.60239 31.5932 4.60239 22.0001C4.60239 12.407 12.4069 4.60142 22.0011 4.60142C31.5942 4.60142 39.3976 12.407 39.3976 22.0001C39.3976 31.5932 31.5942 39.3988 22.0011 39.3988Z" fill="#9997AB"/>
<path d="M22.0143 24.9666C20.558 24.9631 19.1251 25.3337 17.8531 26.0429C16.5811 26.7521 15.5126 27.7761 14.7499 29.0168C14.6925 29.1098 14.6743 29.2219 14.6995 29.3284C14.7247 29.4348 14.7911 29.5269 14.8841 29.5844L15.5133 29.9727C15.6063 30.0298 15.7181 30.0477 15.8243 30.0226C15.9304 29.9974 16.0223 29.9312 16.0798 29.8385C16.7011 28.8234 17.5735 27.9854 18.6127 27.4053C19.6519 26.8252 20.823 26.5225 22.0132 26.5264C23.1963 26.5225 24.3607 26.8217 25.3955 27.3953C26.4303 27.9689 27.3009 28.7979 27.9246 29.8033C27.983 29.8954 28.0754 29.9607 28.1817 29.985C28.288 30.0093 28.3996 29.9906 28.4922 29.9331L29.117 29.5415C29.1633 29.5132 29.2034 29.4759 29.2351 29.4319C29.2668 29.3878 29.2893 29.3379 29.3014 29.285C29.3135 29.2321 29.3149 29.1774 29.3055 29.1239C29.2961 29.0705 29.2762 29.0195 29.2468 28.9739C28.4826 27.745 27.417 26.7319 26.1512 26.0305C24.8854 25.3292 23.4614 24.963 22.0143 24.9666Z" fill="#9997AB"/>
<path d="M16.9741 18.7538C17.6083 18.7538 18.1225 18.2397 18.1225 17.6054C18.1225 16.9712 17.6083 16.457 16.9741 16.457C16.3398 16.457 15.8257 16.9712 15.8257 17.6054C15.8257 18.2397 16.3398 18.7538 16.9741 18.7538Z" fill="#9997AB"/>
<path d="M27.0248 18.7538C27.659 18.7538 28.1732 18.2397 28.1732 17.6054C28.1732 16.9712 27.659 16.457 27.0248 16.457C26.3906 16.457 25.8764 16.9712 25.8764 17.6054C25.8764 18.2397 26.3906 18.7538 27.0248 18.7538Z" fill="#9997AB"/>
</svg>
