<svg width="132" height="24" viewBox="0 0 132 24" fill="none" xmlns="http://www.w3.org/2000/svg">
<path d="M21.9844 10.7232L17.7562 14.4132L19.0228 19.9069C19.0898 20.1941 19.0707 20.4947 18.9678 20.7711C18.8649 21.0475 18.6829 21.2874 18.4444 21.4609C18.2059 21.6344 17.9215 21.7337 17.6269 21.7464C17.3323 21.7592 17.0404 21.6848 16.7878 21.5326L11.9962 18.6263L7.21499 21.5326C6.9624 21.6848 6.67054 21.7592 6.37591 21.7464C6.08127 21.7337 5.79692 21.6344 5.55843 21.4609C5.31993 21.2874 5.13786 21.0475 5.03498 20.7711C4.93209 20.4947 4.91297 20.1941 4.97999 19.9069L6.24468 14.4188L2.01562 10.7232C1.79194 10.5303 1.6302 10.2756 1.55067 9.99113C1.47115 9.70666 1.47738 9.40504 1.56859 9.1241C1.6598 8.84315 1.83193 8.59539 2.06339 8.41188C2.29485 8.22838 2.57534 8.11729 2.86968 8.09256L8.44406 7.60974L10.62 2.41974C10.7336 2.14742 10.9253 1.9148 11.1709 1.75117C11.4164 1.58755 11.7049 1.50024 12 1.50024C12.2951 1.50024 12.5836 1.58755 12.8291 1.75117C13.0747 1.9148 13.2664 2.14742 13.38 2.41974L15.5625 7.60974L21.135 8.09256C21.4293 8.11729 21.7098 8.22838 21.9413 8.41188C22.1727 8.59539 22.3449 8.84315 22.4361 9.1241C22.5273 9.40504 22.5335 9.70666 22.454 9.99113C22.3745 10.2756 22.2127 10.5303 21.9891 10.7232H21.9844Z" fill="#343057"/>
<path d="M44.4275 14.0365L44.2017 14.2335L44.269 14.5255L45.5356 20.0193L45.5359 20.0206C45.5806 20.212 45.5678 20.4124 45.4992 20.5967C45.4306 20.7809 45.3093 20.9409 45.1503 21.0565C44.9913 21.1722 44.8017 21.2384 44.6053 21.2469C44.409 21.2554 44.2146 21.2059 44.0463 21.1046C44.0462 21.1045 44.046 21.1044 44.0459 21.1043L39.2555 18.1988L38.996 18.0414L38.7365 18.199L33.9569 21.1043C33.9567 21.1044 33.9565 21.1046 33.9562 21.1047C33.788 21.2059 33.5937 21.2554 33.3975 21.2469C33.2011 21.2384 33.0115 21.1722 32.8525 21.0565C32.6935 20.9409 32.5722 20.7809 32.5036 20.5967C32.435 20.4124 32.4222 20.212 32.4669 20.0206L32.4672 20.0192L33.7319 14.5311L33.7991 14.2393L33.5737 14.0423L29.3446 10.3467L29.3446 10.3467L29.3422 10.3446C29.1931 10.2159 29.0852 10.0462 29.0322 9.85652C28.9792 9.66687 28.9833 9.46579 29.0442 9.27849C29.105 9.0912 29.2197 8.92602 29.374 8.80369C29.5283 8.68135 29.7153 8.60729 29.9115 8.5908L29.9128 8.59069L35.4872 8.10788L35.7883 8.0818L35.9052 7.80307L38.0811 2.61307L38.0814 2.61228C38.1571 2.43102 38.2846 2.27618 38.4481 2.16727C38.6116 2.05836 38.8036 2.00024 39 2.00024C39.1964 2.00024 39.3884 2.05836 39.5519 2.16727L39.8291 1.75117L39.5519 2.16727C39.7153 2.27618 39.8429 2.43102 39.9185 2.61228L39.9191 2.61356L42.1016 7.80356L42.2186 8.08182L42.5193 8.10788L48.0918 8.59069L48.0931 8.5908C48.2894 8.60729 48.4763 8.68135 48.6306 8.80369L48.9413 8.41188L48.6306 8.80369C48.785 8.92603 48.8997 9.0912 48.9605 9.27849C49.0213 9.46579 49.0255 9.66687 48.9725 9.85652C48.9271 10.0189 48.8415 10.1667 48.7242 10.2866L48.6556 10.3465L44.4275 14.0365Z" stroke="#343057"/>
<path d="M71.4275 14.0365L71.2017 14.2335L71.269 14.5255L72.5356 20.0193L72.5359 20.0206C72.5806 20.212 72.5678 20.4124 72.4992 20.5967C72.4307 20.7809 72.3093 20.9409 72.1503 21.0565C71.9913 21.1722 71.8017 21.2384 71.6053 21.2469C71.409 21.2554 71.2146 21.2059 71.0463 21.1046C71.0462 21.1045 71.046 21.1044 71.0459 21.1043L66.2556 18.1988L65.996 18.0414L65.7366 18.199L60.9569 21.1043C60.9567 21.1044 60.9565 21.1046 60.9562 21.1047C60.788 21.2059 60.5937 21.2554 60.3975 21.2469C60.2011 21.2384 60.0115 21.1722 59.8525 21.0565C59.6935 20.9409 59.5722 20.7809 59.5036 20.5967C59.435 20.4124 59.4222 20.212 59.4669 20.0206L59.4672 20.0192L60.7319 14.5311L60.7992 14.2393L60.5737 14.0423L56.3446 10.3467L56.3447 10.3467L56.3422 10.3446C56.1931 10.2159 56.0852 10.0462 56.0322 9.85652C55.9792 9.66687 55.9834 9.46579 56.0442 9.27849C56.105 9.0912 56.2197 8.92602 56.374 8.80369C56.5283 8.68135 56.7153 8.60729 56.9116 8.5908L56.9128 8.59069L62.4872 8.10788L62.7883 8.0818L62.9052 7.80307L65.0811 2.61307L65.0814 2.61228C65.1571 2.43102 65.2847 2.27618 65.4481 2.16727C65.6116 2.05836 65.8036 2.00024 66 2.00024C66.1964 2.00024 66.3884 2.05836 66.5519 2.16727L66.8291 1.75117L66.5519 2.16727C66.7154 2.27618 66.8429 2.43102 66.9186 2.61228L66.9191 2.61356L69.1016 7.80356L69.2186 8.08182L69.5193 8.10788L75.0918 8.59069L75.0931 8.5908C75.2894 8.60729 75.4764 8.68135 75.6307 8.80369L75.9413 8.41188L75.6307 8.80369C75.785 8.92603 75.8997 9.0912 75.9605 9.27849C76.0213 9.46579 76.0255 9.66687 75.9725 9.85652C75.9271 10.0189 75.8415 10.1667 75.7243 10.2866L75.6556 10.3465L71.4275 14.0365Z" stroke="#343057"/>
<path d="M98.4275 14.0365L98.2017 14.2335L98.269 14.5255L99.5356 20.0193L99.5359 20.0206C99.5806 20.212 99.5678 20.4124 99.4992 20.5967C99.4307 20.7809 99.3093 20.9409 99.1503 21.0565C98.9913 21.1722 98.8017 21.2384 98.6053 21.2469C98.409 21.2554 98.2146 21.2059 98.0463 21.1046C98.0462 21.1045 98.046 21.1044 98.0459 21.1043L93.2556 18.1988L92.996 18.0414L92.7366 18.199L87.9569 21.1043C87.9567 21.1044 87.9565 21.1046 87.9562 21.1047C87.788 21.2059 87.5937 21.2554 87.3975 21.2469C87.2011 21.2384 87.0115 21.1722 86.8525 21.0565C86.6935 20.9409 86.5722 20.7809 86.5036 20.5967C86.435 20.4124 86.4222 20.212 86.4669 20.0206L86.4672 20.0192L87.7319 14.5311L87.7992 14.2393L87.5737 14.0423L83.3446 10.3467L83.3447 10.3467L83.3422 10.3446C83.1931 10.2159 83.0852 10.0462 83.0322 9.85652C82.9792 9.66687 82.9834 9.46579 83.0442 9.27849C83.105 9.0912 83.2197 8.92602 83.374 8.80369C83.5283 8.68135 83.7153 8.60729 83.9116 8.5908L83.9128 8.59069L89.4872 8.10788L89.7883 8.0818L89.9052 7.80307L92.0811 2.61307L92.0814 2.61228C92.1571 2.43102 92.2847 2.27618 92.4481 2.16727C92.6116 2.05836 92.8036 2.00024 93 2.00024C93.1964 2.00024 93.3884 2.05836 93.5519 2.16727L93.8291 1.75117L93.5519 2.16727C93.7154 2.27618 93.8429 2.43102 93.9186 2.61228L93.9191 2.61356L96.1016 7.80356L96.2186 8.08182L96.5193 8.10788L102.092 8.59069L102.093 8.5908C102.289 8.60729 102.476 8.68135 102.631 8.80369L102.941 8.41188L102.631 8.80369C102.785 8.92603 102.9 9.0912 102.961 9.27849C103.021 9.46579 103.025 9.66687 102.972 9.85652C102.927 10.0189 102.842 10.1667 102.724 10.2866L102.656 10.3465L98.4275 14.0365Z" stroke="#343057"/>
<path d="M125.427 14.0365L125.202 14.2335L125.269 14.5255L126.536 20.0193L126.536 20.0206C126.581 20.212 126.568 20.4124 126.499 20.5967C126.431 20.7809 126.309 20.9409 126.15 21.0565C125.991 21.1722 125.802 21.2384 125.605 21.2469C125.409 21.2554 125.215 21.2059 125.046 21.1046C125.046 21.1045 125.046 21.1044 125.046 21.1043L120.256 18.1988L119.996 18.0414L119.737 18.199L114.957 21.1043C114.957 21.1044 114.956 21.1046 114.956 21.1047C114.788 21.2059 114.594 21.2554 114.398 21.2469C114.201 21.2384 114.012 21.1722 113.853 21.0565C113.694 20.9409 113.572 20.7809 113.504 20.5967C113.435 20.4124 113.422 20.212 113.467 20.0206L113.467 20.0192L114.732 14.5311L114.799 14.2393L114.574 14.0423L110.345 10.3467L110.345 10.3467L110.342 10.3446C110.193 10.2159 110.085 10.0462 110.032 9.85652C109.979 9.66687 109.983 9.46579 110.044 9.27849C110.105 9.0912 110.22 8.92602 110.374 8.80369C110.528 8.68135 110.715 8.60729 110.912 8.5908L110.913 8.59069L116.487 8.10788L116.788 8.0818L116.905 7.80307L119.081 2.61307L119.081 2.61228C119.157 2.43102 119.285 2.27618 119.448 2.16727C119.612 2.05836 119.804 2.00024 120 2.00024C120.196 2.00024 120.388 2.05836 120.552 2.16727L120.829 1.75117L120.552 2.16727C120.715 2.27618 120.843 2.43102 120.919 2.61228L120.919 2.61356L123.102 7.80356L123.219 8.08182L123.519 8.10788L129.092 8.59069L129.093 8.5908C129.289 8.60729 129.476 8.68135 129.631 8.80369L129.941 8.41188L129.631 8.80369C129.785 8.92603 129.9 9.0912 129.961 9.27849C130.021 9.46579 130.025 9.66687 129.972 9.85652C129.927 10.0189 129.842 10.1667 129.724 10.2866L129.656 10.3465L125.427 14.0365Z" stroke="#343057"/>
</svg>
