<svg width="132" height="24" viewBox="0 0 132 24" fill="none" xmlns="http://www.w3.org/2000/svg">
<path d="M21.9844 10.7232L17.7563 14.4132L19.0228 19.9069C19.0898 20.1941 19.0707 20.4947 18.9678 20.7711C18.865 21.0475 18.6829 21.2874 18.4444 21.4609C18.2059 21.6344 17.9215 21.7337 17.6269 21.7464C17.3323 21.7592 17.0404 21.6848 16.7878 21.5326L11.9963 18.6263L7.21501 21.5326C6.96242 21.6848 6.67056 21.7592 6.37592 21.7464C6.08128 21.7337 5.79694 21.6344 5.55844 21.4609C5.31994 21.2874 5.13787 21.0475 5.03499 20.7711C4.93211 20.4947 4.91299 20.1941 4.98001 19.9069L6.2447 14.4188L2.01563 10.7232C1.79195 10.5303 1.63021 10.2756 1.55069 9.99113C1.47116 9.70666 1.4774 9.40504 1.56861 9.1241C1.65982 8.84315 1.83195 8.59539 2.06341 8.41188C2.29487 8.22838 2.57535 8.11729 2.8697 8.09256L8.44407 7.60974L10.62 2.41974C10.7336 2.14742 10.9253 1.9148 11.1709 1.75117C11.4164 1.58755 11.7049 1.50024 12 1.50024C12.2951 1.50024 12.5836 1.58755 12.8291 1.75117C13.0747 1.9148 13.2664 2.14742 13.38 2.41974L15.5625 7.60974L21.135 8.09256C21.4293 8.11729 21.7098 8.22838 21.9413 8.41188C22.1728 8.59539 22.3449 8.84315 22.4361 9.1241C22.5273 9.40504 22.5335 9.70666 22.454 9.99113C22.3745 10.2756 22.2127 10.5303 21.9891 10.7232H21.9844Z" fill="#343057"/>
<path d="M48.9844 10.7232L44.7563 14.4132L46.0228 19.9069C46.0898 20.1941 46.0707 20.4947 45.9678 20.7711C45.865 21.0475 45.6829 21.2874 45.4444 21.4609C45.2059 21.6344 44.9215 21.7337 44.6269 21.7464C44.3323 21.7592 44.0404 21.6848 43.7878 21.5326L38.9963 18.6263L34.215 21.5326C33.9624 21.6848 33.6706 21.7592 33.3759 21.7464C33.0813 21.7337 32.7969 21.6344 32.5584 21.4609C32.3199 21.2874 32.1379 21.0475 32.035 20.7711C31.9321 20.4947 31.913 20.1941 31.98 19.9069L33.2447 14.4188L29.0156 10.7232C28.792 10.5303 28.6302 10.2756 28.5507 9.99113C28.4712 9.70666 28.4774 9.40504 28.5686 9.1241C28.6598 8.84315 28.8319 8.59539 29.0634 8.41188C29.2949 8.22838 29.5754 8.11729 29.8697 8.09256L35.4441 7.60974L37.62 2.41974C37.7336 2.14742 37.9253 1.9148 38.1709 1.75117C38.4164 1.58755 38.7049 1.50024 39 1.50024C39.2951 1.50024 39.5836 1.58755 39.8291 1.75117C40.0747 1.9148 40.2664 2.14742 40.38 2.41974L42.5625 7.60974L48.135 8.09256C48.4293 8.11729 48.7098 8.22838 48.9413 8.41188C49.1728 8.59539 49.3449 8.84315 49.4361 9.1241C49.5273 9.40504 49.5335 9.70666 49.454 9.99113C49.3745 10.2756 49.2127 10.5303 48.9891 10.7232H48.9844Z" fill="#343057"/>
<path d="M75.9844 10.7232L71.7563 14.4132L73.0228 19.9069C73.0898 20.1941 73.0707 20.4947 72.9678 20.7711C72.865 21.0475 72.6829 21.2874 72.4444 21.4609C72.2059 21.6344 71.9215 21.7337 71.6269 21.7464C71.3323 21.7592 71.0404 21.6848 70.7878 21.5326L65.9963 18.6263L61.215 21.5326C60.9624 21.6848 60.6706 21.7592 60.3759 21.7464C60.0813 21.7337 59.7969 21.6344 59.5584 21.4609C59.3199 21.2874 59.1379 21.0475 59.035 20.7711C58.9321 20.4947 58.913 20.1941 58.98 19.9069L60.2447 14.4188L56.0156 10.7232C55.792 10.5303 55.6302 10.2756 55.5507 9.99113C55.4712 9.70666 55.4774 9.40504 55.5686 9.1241C55.6598 8.84315 55.8319 8.59539 56.0634 8.41188C56.2949 8.22838 56.5754 8.11729 56.8697 8.09256L62.4441 7.60974L64.62 2.41974C64.7336 2.14742 64.9253 1.9148 65.1709 1.75117C65.4164 1.58755 65.7049 1.50024 66 1.50024C66.2951 1.50024 66.5836 1.58755 66.8291 1.75117C67.0747 1.9148 67.2664 2.14742 67.38 2.41974L69.5625 7.60974L75.135 8.09256C75.4293 8.11729 75.7098 8.22838 75.9413 8.41188C76.1728 8.59539 76.3449 8.84315 76.4361 9.1241C76.5273 9.40504 76.5335 9.70666 76.454 9.99113C76.3745 10.2756 76.2127 10.5303 75.9891 10.7232H75.9844Z" fill="#343057"/>
<path d="M98.4275 14.0365L98.2017 14.2335L98.269 14.5255L99.5356 20.0193L99.5359 20.0206C99.5806 20.212 99.5678 20.4124 99.4992 20.5967C99.4307 20.7809 99.3093 20.9409 99.1503 21.0565C98.9913 21.1722 98.8017 21.2384 98.6053 21.2469C98.409 21.2554 98.2146 21.2059 98.0463 21.1046C98.0462 21.1045 98.046 21.1044 98.0459 21.1043L93.2556 18.1988L92.996 18.0414L92.7366 18.199L87.9569 21.1043C87.9567 21.1044 87.9565 21.1046 87.9562 21.1047C87.788 21.2059 87.5937 21.2554 87.3975 21.2469C87.2011 21.2384 87.0115 21.1722 86.8525 21.0565C86.6935 20.9409 86.5722 20.7809 86.5036 20.5967C86.435 20.4124 86.4222 20.212 86.4669 20.0206L86.4672 20.0192L87.7319 14.5311L87.7992 14.2393L87.5737 14.0423L83.3446 10.3467L83.3447 10.3467L83.3422 10.3446C83.1931 10.2159 83.0852 10.0462 83.0322 9.85652C82.9792 9.66687 82.9834 9.46579 83.0442 9.27849C83.105 9.0912 83.2197 8.92602 83.374 8.80369C83.5283 8.68135 83.7153 8.60729 83.9116 8.5908L83.9128 8.59069L89.4872 8.10788L89.7883 8.0818L89.9052 7.80307L92.0811 2.61307L92.0814 2.61228C92.1571 2.43102 92.2847 2.27618 92.4481 2.16727C92.6116 2.05836 92.8036 2.00024 93 2.00024C93.1964 2.00024 93.3884 2.05836 93.5519 2.16727L93.8291 1.75117L93.5519 2.16727C93.7154 2.27618 93.8429 2.43102 93.9186 2.61228L93.9191 2.61356L96.1016 7.80356L96.2186 8.08182L96.5193 8.10788L102.092 8.59069L102.093 8.5908C102.289 8.60729 102.476 8.68135 102.631 8.80369L102.941 8.41188L102.631 8.80369C102.785 8.92603 102.9 9.0912 102.961 9.27849C103.021 9.46579 103.025 9.66687 102.972 9.85652C102.927 10.0189 102.842 10.1667 102.724 10.2866L102.656 10.3465L98.4275 14.0365Z" stroke="#343057"/>
<path d="M125.427 14.0365L125.202 14.2335L125.269 14.5255L126.536 20.0193L126.536 20.0206C126.581 20.212 126.568 20.4124 126.499 20.5967C126.431 20.7809 126.309 20.9409 126.15 21.0565C125.991 21.1722 125.802 21.2384 125.605 21.2469C125.409 21.2554 125.215 21.2059 125.046 21.1046C125.046 21.1045 125.046 21.1044 125.046 21.1043L120.256 18.1988L119.996 18.0414L119.737 18.199L114.957 21.1043C114.957 21.1044 114.956 21.1046 114.956 21.1047C114.788 21.2059 114.594 21.2554 114.398 21.2469C114.201 21.2384 114.012 21.1722 113.853 21.0565C113.694 20.9409 113.572 20.7809 113.504 20.5967C113.435 20.4124 113.422 20.212 113.467 20.0206L113.467 20.0192L114.732 14.5311L114.799 14.2393L114.574 14.0423L110.345 10.3467L110.345 10.3467L110.342 10.3446C110.193 10.2159 110.085 10.0462 110.032 9.85652C109.979 9.66687 109.983 9.46579 110.044 9.27849C110.105 9.0912 110.22 8.92602 110.374 8.80369C110.528 8.68135 110.715 8.60729 110.912 8.5908L110.913 8.59069L116.487 8.10788L116.788 8.0818L116.905 7.80307L119.081 2.61307L119.081 2.61228C119.157 2.43102 119.285 2.27618 119.448 2.16727C119.612 2.05836 119.804 2.00024 120 2.00024C120.196 2.00024 120.388 2.05836 120.552 2.16727L120.829 1.75117L120.552 2.16727C120.715 2.27618 120.843 2.43102 120.919 2.61228L120.919 2.61356L123.102 7.80356L123.219 8.08182L123.519 8.10788L129.092 8.59069L129.093 8.5908C129.289 8.60729 129.476 8.68135 129.631 8.80369L129.941 8.41188L129.631 8.80369C129.785 8.92603 129.9 9.0912 129.961 9.27849C130.021 9.46579 130.025 9.66687 129.972 9.85652C129.927 10.0189 129.842 10.1667 129.724 10.2866L129.656 10.3465L125.427 14.0365Z" stroke="#343057"/>
</svg>
