<svg width="132" height="24" viewBox="0 0 132 24" fill="none" xmlns="http://www.w3.org/2000/svg">
<path d="M21.9844 10.7232L17.7563 14.4132L19.0228 19.9069C19.0898 20.1941 19.0707 20.4947 18.9678 20.7711C18.865 21.0475 18.6829 21.2874 18.4444 21.4609C18.2059 21.6344 17.9215 21.7337 17.6269 21.7464C17.3323 21.7592 17.0404 21.6848 16.7878 21.5326L11.9963 18.6263L7.21501 21.5326C6.96242 21.6848 6.67056 21.7592 6.37592 21.7464C6.08128 21.7337 5.79694 21.6344 5.55844 21.4609C5.31994 21.2874 5.13787 21.0475 5.03499 20.7711C4.93211 20.4947 4.91299 20.1941 4.98001 19.9069L6.2447 14.4188L2.01563 10.7232C1.79195 10.5303 1.63021 10.2756 1.55069 9.99113C1.47116 9.70666 1.4774 9.40504 1.56861 9.1241C1.65982 8.84315 1.83195 8.59539 2.06341 8.41188C2.29487 8.22838 2.57535 8.11729 2.8697 8.09256L8.44407 7.60974L10.62 2.41974C10.7336 2.14742 10.9253 1.9148 11.1709 1.75117C11.4164 1.58755 11.7049 1.50024 12 1.50024C12.2951 1.50024 12.5836 1.58755 12.8291 1.75117C13.0747 1.9148 13.2664 2.14742 13.38 2.41974L15.5625 7.60974L21.135 8.09256C21.4293 8.11729 21.7098 8.22838 21.9413 8.41188C22.1728 8.59539 22.3449 8.84315 22.4361 9.1241C22.5273 9.40504 22.5335 9.70666 22.454 9.99113C22.3745 10.2756 22.2127 10.5303 21.9891 10.7232H21.9844Z" fill="#343057"/>
<path d="M48.9844 10.7232L44.7563 14.4132L46.0228 19.9069C46.0898 20.1941 46.0707 20.4947 45.9678 20.7711C45.865 21.0475 45.6829 21.2874 45.4444 21.4609C45.2059 21.6344 44.9215 21.7337 44.6269 21.7464C44.3323 21.7592 44.0404 21.6848 43.7878 21.5326L38.9963 18.6263L34.215 21.5326C33.9624 21.6848 33.6706 21.7592 33.3759 21.7464C33.0813 21.7337 32.7969 21.6344 32.5584 21.4609C32.3199 21.2874 32.1379 21.0475 32.035 20.7711C31.9321 20.4947 31.913 20.1941 31.98 19.9069L33.2447 14.4188L29.0156 10.7232C28.792 10.5303 28.6302 10.2756 28.5507 9.99113C28.4712 9.70666 28.4774 9.40504 28.5686 9.1241C28.6598 8.84315 28.8319 8.59539 29.0634 8.41188C29.2949 8.22838 29.5754 8.11729 29.8697 8.09256L35.4441 7.60974L37.62 2.41974C37.7336 2.14742 37.9253 1.9148 38.1709 1.75117C38.4164 1.58755 38.7049 1.50024 39 1.50024C39.2951 1.50024 39.5836 1.58755 39.8291 1.75117C40.0747 1.9148 40.2664 2.14742 40.38 2.41974L42.5625 7.60974L48.135 8.09256C48.4293 8.11729 48.7098 8.22838 48.9413 8.41188C49.1728 8.59539 49.3449 8.84315 49.4361 9.1241C49.5273 9.40504 49.5335 9.70666 49.454 9.99113C49.3745 10.2756 49.2127 10.5303 48.9891 10.7232H48.9844Z" fill="#343057"/>
<path d="M75.9844 10.7232L71.7563 14.4132L73.0228 19.9069C73.0898 20.1941 73.0707 20.4947 72.9678 20.7711C72.865 21.0475 72.6829 21.2874 72.4444 21.4609C72.2059 21.6344 71.9215 21.7337 71.6269 21.7464C71.3323 21.7592 71.0404 21.6848 70.7878 21.5326L65.9963 18.6263L61.215 21.5326C60.9624 21.6848 60.6706 21.7592 60.3759 21.7464C60.0813 21.7337 59.7969 21.6344 59.5584 21.4609C59.3199 21.2874 59.1379 21.0475 59.035 20.7711C58.9321 20.4947 58.913 20.1941 58.98 19.9069L60.2447 14.4188L56.0156 10.7232C55.792 10.5303 55.6302 10.2756 55.5507 9.99113C55.4712 9.70666 55.4774 9.40504 55.5686 9.1241C55.6598 8.84315 55.8319 8.59539 56.0634 8.41188C56.2949 8.22838 56.5754 8.11729 56.8697 8.09256L62.4441 7.60974L64.62 2.41974C64.7336 2.14742 64.9253 1.9148 65.1709 1.75117C65.4164 1.58755 65.7049 1.50024 66 1.50024C66.2951 1.50024 66.5836 1.58755 66.8291 1.75117C67.0747 1.9148 67.2664 2.14742 67.38 2.41974L69.5625 7.60974L75.135 8.09256C75.4293 8.11729 75.7098 8.22838 75.9413 8.41188C76.1728 8.59539 76.3449 8.84315 76.4361 9.1241C76.5273 9.40504 76.5335 9.70666 76.454 9.99113C76.3745 10.2756 76.2127 10.5303 75.9891 10.7232H75.9844Z" fill="#343057"/>
<path d="M102.984 10.7232L98.7563 14.4132L100.023 19.9069C100.09 20.1941 100.071 20.4947 99.9678 20.7711C99.865 21.0475 99.6829 21.2874 99.4444 21.4609C99.2059 21.6344 98.9215 21.7337 98.6269 21.7464C98.3323 21.7592 98.0404 21.6848 97.7878 21.5326L92.9963 18.6263L88.215 21.5326C87.9624 21.6848 87.6706 21.7592 87.3759 21.7464C87.0813 21.7337 86.7969 21.6344 86.5584 21.4609C86.3199 21.2874 86.1379 21.0475 86.035 20.7711C85.9321 20.4947 85.913 20.1941 85.98 19.9069L87.2447 14.4188L83.0156 10.7232C82.792 10.5303 82.6302 10.2756 82.5507 9.99113C82.4712 9.70666 82.4774 9.40504 82.5686 9.1241C82.6598 8.84315 82.8319 8.59539 83.0634 8.41188C83.2949 8.22838 83.5754 8.11729 83.8697 8.09256L89.4441 7.60974L91.62 2.41974C91.7336 2.14742 91.9253 1.9148 92.1709 1.75117C92.4164 1.58755 92.7049 1.50024 93 1.50024C93.2951 1.50024 93.5836 1.58755 93.8291 1.75117C94.0747 1.9148 94.2664 2.14742 94.38 2.41974L96.5625 7.60974L102.135 8.09256C102.429 8.11729 102.71 8.22838 102.941 8.41188C103.173 8.59539 103.345 8.84315 103.436 9.1241C103.527 9.40504 103.534 9.70666 103.454 9.99113C103.374 10.2756 103.213 10.5303 102.989 10.7232H102.984Z" fill="#343057"/>
<path d="M129.984 10.7232L125.756 14.4132L127.023 19.9069C127.09 20.1941 127.071 20.4947 126.968 20.7711C126.865 21.0475 126.683 21.2874 126.444 21.4609C126.206 21.6344 125.922 21.7337 125.627 21.7464C125.332 21.7592 125.04 21.6848 124.788 21.5326L119.996 18.6263L115.215 21.5326C114.962 21.6848 114.671 21.7592 114.376 21.7464C114.081 21.7337 113.797 21.6344 113.558 21.4609C113.32 21.2874 113.138 21.0475 113.035 20.7711C112.932 20.4947 112.913 20.1941 112.98 19.9069L114.245 14.4188L110.016 10.7232C109.792 10.5303 109.63 10.2756 109.551 9.99113C109.471 9.70666 109.477 9.40504 109.569 9.1241C109.66 8.84315 109.832 8.59539 110.063 8.41188C110.295 8.22838 110.575 8.11729 110.87 8.09256L116.444 7.60974L118.62 2.41974C118.734 2.14742 118.925 1.9148 119.171 1.75117C119.416 1.58755 119.705 1.50024 120 1.50024C120.295 1.50024 120.584 1.58755 120.829 1.75117C121.075 1.9148 121.266 2.14742 121.38 2.41974L123.563 7.60974L129.135 8.09256C129.429 8.11729 129.71 8.22838 129.941 8.41188C130.173 8.59539 130.345 8.84315 130.436 9.1241C130.527 9.40504 130.534 9.70666 130.454 9.99113C130.374 10.2756 130.213 10.5303 129.989 10.7232H129.984Z" fill="#343057"/>
</svg>
