<svg width="380" height="212" viewBox="0 0 380 212" fill="none" xmlns="http://www.w3.org/2000/svg">
<rect width="380" height="212" rx="8" fill="#EAEDEE"/>
<path fill-rule="evenodd" clip-rule="evenodd" d="M172.002 75.4C164.049 75.4 157.602 81.8471 157.602 89.8V122.2C157.602 130.153 164.049 136.6 172.002 136.6H208.002C215.954 136.6 222.402 130.153 222.402 122.2V89.8C222.402 81.8471 215.954 75.4 208.002 75.4H172.002ZM210.25 95.1031C210.25 99.5766 206.624 103.203 202.15 103.203C197.677 103.203 194.05 99.5766 194.05 95.1031C194.05 90.6296 197.677 87.0031 202.15 87.0031C206.624 87.0031 210.25 90.6296 210.25 95.1031ZM177.973 103.511C179.39 101.306 182.613 101.306 184.03 103.511L193.636 118.453C195.176 120.849 193.456 124 190.608 124H171.396C168.547 124 166.827 120.849 168.367 118.453L177.973 103.511Z" fill="#AEB7BE"/>
</svg>
