<svg width="60" height="60" viewBox="0 0 60 60" fill="none" xmlns="http://www.w3.org/2000/svg">
<path d="M33.7494 46.8742C33.7494 46.8742 43.7919 48.0817 49.5294 42.3442C55.2669 36.6067 54.3744 24.3742 54.3744 24.3742C54.3744 24.3742 42.7119 22.698 37.4994 28.1242C35.8681 29.823 33.7494 31.8742 33.7494 37.4992V46.8742ZM33.7494 46.8742C33.7494 46.8742 20.6244 48.7492 11.5794 39.7042C2.53436 30.6593 5.62436 13.1242 5.62436 13.1242C5.62436 13.1242 19.3194 11.8192 28.3456 20.8455C31.9719 24.4717 33.7494 29.9993 33.7494 36.3968V46.8742ZM43.1244 37.4992L33.7494 44.9992M18.7494 29.9992L32.9319 44.8942" stroke="white" stroke-width="3" stroke-linecap="round" stroke-linejoin="round"/>
</svg>
