<svg width="52" height="60" viewBox="0 0 52 60" fill="none" xmlns="http://www.w3.org/2000/svg">
<g clip-path="url(#clip0_1059_432)">
<path d="M12.9999 16.5C9.22931 16.5 6.41138 18.5511 4.46472 21.7939C2.49478 25.0756 1.49988 29.4791 1.49988 33.75C1.49988 40.9467 3.72867 47.1914 7.00769 51.6055C10.3048 56.0439 14.5463 58.4999 18.5712 58.5C20.2001 58.5 22.4872 57.8147 24.0487 57.2617L24.0546 57.2598L24.2919 57.1826C25.4855 56.8217 26.7636 56.8474 27.9452 57.2598L27.952 57.2617C29.5136 57.8147 31.7997 58.5 33.4286 58.5C37.4535 58.5 41.6949 56.044 44.9921 51.6055C48.2711 47.1914 50.4999 40.9467 50.4999 33.75V32.9482C50.3834 28.9332 49.3936 24.8705 47.5468 21.7939C45.6001 18.5511 42.7822 16.5 39.0116 16.5C36.1424 16.5 32.6042 17.6141 29.9637 18.6572L29.9598 18.6582C27.5842 19.5895 24.9395 19.6479 22.5302 18.833L22.0516 18.6582C19.4171 17.6244 15.8681 16.5 12.9999 16.5ZM18.5829 1.5H16.7255C16.5461 1.50024 16.369 1.65878 16.369 1.875V3.75C16.369 8.11473 19.8659 11.6248 24.1542 11.625H26.0116C26.1911 11.625 26.369 11.4664 26.369 11.25V9.375C26.369 5.01017 22.8713 1.5 18.5829 1.5Z" stroke="white" stroke-width="3"/>
</g>
<defs>
<clipPath id="clip0_1059_432">
<rect width="52" height="60" fill="white"/>
</clipPath>
</defs>
</svg>
