<svg width="32" height="32" viewBox="0 0 32 32" fill="none" xmlns="http://www.w3.org/2000/svg">
<path d="M29 16.0871C28.9525 23.1484 23.1925 28.9284 16.1325 28.9984C15.0402 29.0099 13.9508 28.8839 12.89 28.6234C12.8262 28.6075 12.7661 28.5791 12.7133 28.5399C12.6604 28.5008 12.6158 28.4515 12.582 28.3951C12.5482 28.3387 12.5259 28.2761 12.5163 28.2111C12.5068 28.146 12.5101 28.0797 12.5262 28.0159L13.6062 23.6971C14.6596 24.2251 15.8217 24.4998 17 24.4996C21.625 24.4996 25.3375 20.3184 24.9762 15.3296C24.8782 14.0348 24.5012 12.7765 23.871 11.6411C23.2409 10.5057 22.3724 9.52014 21.3254 8.75204C20.2784 7.98395 19.0776 7.45152 17.8054 7.1913C16.5332 6.93109 15.2197 6.94926 13.9552 7.24456C12.6907 7.53986 11.505 8.1053 10.4797 8.90207C9.45428 9.69883 8.61347 10.708 8.01493 11.8604C7.4164 13.0128 7.07433 14.2811 7.01219 15.5781C6.95006 16.8752 7.16933 18.1703 7.65497 19.3746C7.70542 19.5003 7.78086 19.6143 7.87671 19.71C7.97257 19.8056 8.08684 19.8807 8.2126 19.9309C8.33836 19.981 8.47299 20.0051 8.60834 20.0017C8.74368 19.9982 8.87692 19.9673 8.99997 19.9109C9.23465 19.7971 9.41707 19.5981 9.50999 19.3544C9.60291 19.1107 9.59933 18.8408 9.49997 18.5996C9.12622 17.6624 8.95952 16.6554 9.01129 15.6476C9.06306 14.6399 9.33208 13.6553 9.79992 12.7613C10.2678 11.8673 10.9234 11.0849 11.7218 10.4679C12.5202 9.85093 13.4426 9.41384 14.4257 9.18661C15.4088 8.95938 16.4295 8.94738 17.4176 9.15143C18.4058 9.35548 19.3382 9.77077 20.151 10.3688C20.9637 10.9669 21.6375 11.7336 22.1262 12.6164C22.6149 13.4991 22.907 14.4772 22.9825 15.4834C23.25 19.2996 20.4662 22.4996 17 22.4996C15.9806 22.4991 14.9806 22.2208 14.1075 21.6946L15.97 14.2421C16.0292 13.9867 15.9857 13.7181 15.8489 13.4944C15.712 13.2707 15.4928 13.1097 15.2384 13.0461C14.9839 12.9825 14.7147 13.0214 14.4887 13.1544C14.2627 13.2874 14.0979 13.5038 14.03 13.7571L10.6725 27.1884C10.6542 27.2615 10.6197 27.3296 10.5715 27.3875C10.5232 27.4454 10.4625 27.4917 10.3939 27.5228C10.3252 27.5539 10.2504 27.5691 10.1751 27.5673C10.0997 27.5654 10.0258 27.5466 9.95872 27.5121C7.83801 26.3993 6.06592 24.7223 4.83798 22.6661C3.61004 20.6099 2.97398 18.2544 2.99997 15.8596C3.07497 8.81463 8.83372 3.06463 15.875 2.99963C17.6 2.983 19.3112 3.30989 20.9086 3.96124C22.5061 4.61259 23.9579 5.57538 25.1795 6.79349C26.4011 8.01161 27.368 9.46068 28.024 11.0563C28.6799 12.6518 29.0117 14.362 29 16.0871Z" fill="black"/>
</svg>
