<svg width="32" height="32" viewBox="0 0 32 32" fill="none" xmlns="http://www.w3.org/2000/svg">
<path d="M29 16.0005C28.9959 19.1777 27.8302 22.2438 25.7224 24.6213C23.6145 26.9987 20.7101 28.5233 17.5563 28.908C17.486 28.9159 17.4149 28.9089 17.3476 28.8873C17.2803 28.8658 17.2183 28.8302 17.1657 28.783C17.1132 28.7357 17.0712 28.6779 17.0427 28.6132C17.0141 28.5486 16.9996 28.4786 17 28.408V19.0005H20C20.1371 19.0008 20.2728 18.9729 20.3986 18.9185C20.5245 18.8642 20.6378 18.7845 20.7316 18.6845C20.8254 18.5845 20.8976 18.4663 20.9438 18.3373C20.9899 18.2082 21.0091 18.071 21 17.9342C20.9779 17.6771 20.8593 17.4378 20.668 17.2646C20.4766 17.0914 20.2268 16.997 19.9688 17.0005H17V14.0005C17 13.47 17.2107 12.9613 17.5858 12.5862C17.9609 12.2112 18.4696 12.0005 19 12.0005H21C21.1371 12.0008 21.2728 11.9729 21.3986 11.9185C21.5245 11.8642 21.6378 11.7845 21.7316 11.6845C21.8254 11.5845 21.8976 11.4663 21.9438 11.3373C21.9899 11.2082 22.0091 11.071 22 10.9342C21.9779 10.6766 21.8589 10.437 21.667 10.2637C21.4752 10.0904 21.2248 9.99634 20.9663 10.0005H19C17.9391 10.0005 16.9217 10.4219 16.1716 11.172C15.4214 11.9222 15 12.9396 15 14.0005V17.0005H12C11.8629 17.0002 11.7272 17.028 11.6014 17.0824C11.4755 17.1367 11.3622 17.2164 11.2684 17.3164C11.1746 17.4164 11.1024 17.5346 11.0562 17.6636C11.0101 17.7927 10.9909 17.9299 11 18.0667C11.0221 18.3243 11.1411 18.5639 11.333 18.7372C11.5248 18.9105 11.7753 19.0046 12.0338 19.0005H15V28.4105C15.0004 28.481 14.9859 28.5509 14.9574 28.6154C14.9289 28.68 14.8871 28.7377 14.8347 28.785C14.7823 28.8322 14.7204 28.8678 14.6533 28.8894C14.5861 28.9111 14.5151 28.9182 14.445 28.9105C11.2067 28.5161 8.23446 26.9203 6.1166 24.439C3.99873 21.9577 2.88961 18.7718 3.00875 15.5117C3.25875 8.76171 8.72625 3.27421 15.4813 3.01171C17.2301 2.94396 18.9747 3.22965 20.6106 3.85166C22.2465 4.47368 23.7401 5.41925 25.0022 6.63183C26.2642 7.8444 27.2688 9.29906 27.9557 10.9088C28.6426 12.5185 28.9978 14.2503 29 16.0005Z" fill="#0F1113"/>
</svg>
