<svg width="15" height="16" viewBox="0 0 15 16" fill="none" xmlns="http://www.w3.org/2000/svg">
<path d="M14.6252 7.33262L11.6072 10.0663L12.5113 14.1362C12.5591 14.349 12.5454 14.5717 12.472 14.7764C12.3986 14.9812 12.2686 15.1589 12.0984 15.2874C11.9281 15.4159 11.7252 15.4895 11.5148 15.499C11.3045 15.5084 11.0962 15.4533 10.9159 15.3405L7.49565 13.1875L4.08276 15.3405C3.90246 15.4533 3.69413 15.5084 3.48382 15.499C3.2735 15.4895 3.07054 15.4159 2.9003 15.2874C2.73005 15.1589 2.60009 14.9812 2.52665 14.7764C2.45322 14.5717 2.43957 14.349 2.48741 14.1362L3.39015 10.0704L0.371417 7.33262C0.211753 7.1897 0.0962999 7.00104 0.0395347 6.7903C-0.0172305 6.57955 -0.0127803 6.3561 0.052327 6.14797C0.117434 5.93984 0.240301 5.75629 0.405518 5.62035C0.570736 5.4844 0.770949 5.4021 0.981052 5.38378L4.96008 5.0261L6.51327 1.18119C6.59438 0.979444 6.7312 0.807112 6.90648 0.685896C7.08177 0.56468 7.28769 0.5 7.49833 0.5C7.70896 0.5 7.91489 0.56468 8.09017 0.685896C8.26546 0.807112 8.40227 0.979444 8.48338 1.18119L10.0413 5.0261L14.0189 5.38378C14.2291 5.4021 14.4293 5.4844 14.5945 5.62035C14.7597 5.75629 14.8826 5.93984 14.9477 6.14797C15.0128 6.3561 15.0172 6.57955 14.9605 6.7903C14.9037 7.00104 14.7882 7.1897 14.6286 7.33262H14.6252Z" fill="black"/>
</svg>
