<svg width="62" height="61" viewBox="0 0 62 61" fill="none" xmlns="http://www.w3.org/2000/svg">
<path d="M31.1346 49.5048C41.6511 49.5048 50.1778 41.357 50.1778 31.3055C50.1778 21.254 41.6511 13.1084 31.1346 13.1084C20.6181 13.1084 12.0914 21.2562 12.0914 31.3055C12.0914 41.3548 20.6181 49.5048 31.1346 49.5048Z" fill="white"/>
<path d="M19.2447 43.5424H18.1521V39.4329H16.5737V38.5488H20.8254V39.4329H19.247V43.5424H19.2447Z" fill="#404A9E"/>
<path d="M25.3146 39.4307H22.5414V40.4814H25.0891V41.3655H22.5414V42.6583H25.4378V43.5424H21.472V38.5488H25.3146V39.4329V39.4307Z" fill="#404A9E"/>
<path d="M27.1035 42.0057C27.1105 42.2833 27.2569 42.812 28.21 42.812C28.7261 42.812 29.3026 42.6943 29.3026 42.1656C29.3026 41.7769 28.9097 41.6725 28.3565 41.5459L27.7962 41.4215C26.9524 41.2327 26.1365 41.0527 26.1365 39.9532C26.1365 39.3978 26.4503 38.416 28.1449 38.416C29.7466 38.416 30.1766 39.4178 30.1836 40.0287H29.1352C29.105 39.8066 29.019 39.2779 28.0659 39.2779C27.6521 39.2779 27.157 39.4245 27.157 39.8754C27.157 40.2642 27.4917 40.3486 27.7102 40.3974L28.9841 40.6973C29.6978 40.8639 30.3533 41.1416 30.3533 42.039C30.3533 43.5406 28.7516 43.6739 28.2937 43.6739C26.3875 43.6739 26.0598 42.6232 26.0598 42.0057H27.1081H27.1035Z" fill="#404A9E"/>
<path d="M33.3976 43.5424H32.305V39.4329H30.7266V38.5488H34.9783V39.4329H33.3999V43.5424H33.3976Z" fill="#404A9E"/>
<path d="M39.4704 39.4307H36.6971V40.4814H39.2449V41.3655H36.6971V42.6583H39.5936V43.5424H35.6278V38.5488H39.4704V39.4329V39.4307Z" fill="#404A9E"/>
<path d="M40.4792 38.5488H42.7876C44.5496 38.5488 44.9123 39.9816 44.9123 40.9279C44.9123 41.9985 44.4683 43.5424 42.7434 43.5424H40.4792V38.5488ZM41.5486 42.6805H42.6109C43.4989 42.6805 43.7965 41.8253 43.7965 41.0034C43.7965 39.5284 43.0619 39.4107 42.5946 39.4107H41.5462V42.6805H41.5486Z" fill="#404A9E"/>
<path d="M18.3902 21.8689H20.6916V24.2391H22.8604V21.84H25.2292V19.9875H22.8604L22.8697 17.6973L20.6916 17.7062V19.9875H18.3809L18.3902 21.8689Z" fill="#404A9E"/>
<path d="M30.6003 15.6953L29.173 17.0592L28.4873 19.0229L27.4598 19.787C27.4598 19.787 26.946 21.9683 26.3765 22.8413C25.8047 23.7143 23.4661 26.331 22.6107 26.9841C21.7552 27.6394 20.214 28.4013 19.1865 29.3831C18.159 30.3649 16.2203 32.5996 16.2203 32.5996L14.7093 32.6263L14.2049 33.4348H18.3706L19.5306 34.1257H13.9957L14.1677 34.9076H20.7858L22.2131 35.5806H14.2816L14.6233 36.3981H26.702L25.6931 34.9431L28.2037 31.1269L31.5139 27.6927L32.7692 20.7688L30.6003 15.6975V15.6953Z" fill="#404A9E"/>
<path d="M31.1924 15.9893L32.4849 16.4979L33.2451 17.2976H31.8015L31.1924 15.9893Z" fill="#404A9E"/>
<path d="M32.0479 17.8076H33.7588L34.4817 18.6073H32.3524L32.0479 17.8076Z" fill="#404A9E"/>
<path d="M32.5693 19.1504H35.1938L36.1446 19.9878H32.9506L32.5693 19.1504Z" fill="#404A9E"/>
<path d="M33.2656 20.7498L33.1609 20.541H36.6502L36.9919 21.414H33.1888L33.2656 20.7498Z" fill="#404A9E"/>
<path d="M33.1028 22.0303H37.4405L37.924 22.9477H32.9796L33.1028 22.0303Z" fill="#404A9E"/>
<path d="M32.8835 23.5771H38.1324L38.874 24.5501H32.751L32.8835 23.5771Z" fill="#404A9E"/>
<path d="M32.6652 25.1582H39.1694L39.0369 26.1489H32.4932L32.6652 25.1582Z" fill="#404A9E"/>
<path d="M32.467 26.7666H38.9712L38.8201 27.7284H32.2764L32.467 26.7666Z" fill="#404A9E"/>
<path d="M33.226 28.3486H38.705L38.4749 29.2927H34.5951L33.226 28.3486Z" fill="#404A9E"/>
<path d="M31.5337 28.8203L32.1032 29.329H31.0781L31.5337 28.8203Z" fill="#404A9E"/>
<path d="M30.4702 29.875H32.5995L33.5898 30.7835H29.71L30.4702 29.875Z" fill="#404A9E"/>
<path d="M29.0998 31.4014H34.121L35.1485 32.2743H28.3769L29.0998 31.4014Z" fill="#404A9E"/>
<path d="M28.073 32.8174H35.6814L36.6694 33.6904H27.5012L28.073 32.8174Z" fill="#404A9E"/>
<path d="M27.1947 34.2715H37.3904L38.4179 35.0712H26.6252L27.1947 34.2715Z" fill="#404A9E"/>
<path d="M26.968 35.7275H39.1419L40.2438 36.5272H27.6537L26.968 35.7275Z" fill="#404A9E"/>
<path d="M39.6384 26.1773V25.6309L40.6264 26.1773H39.6384Z" fill="#404A9E"/>
<path d="M39.4832 27.7572H42.1843L41.7287 27.2285H39.5971L39.4832 27.7572Z" fill="#404A9E"/>
<path d="M39.076 29.3288H45.0107L44.5342 28.6846H39.3038L39.076 29.3288Z" fill="#404A9E"/>
<path d="M46.6557 30.2363L47.0741 30.9005H38.5428L38.7706 30.2363H46.6557Z" fill="#404A9E"/>
<path d="M38.8461 32.2921H47.9376L47.5564 31.6924H37.8953L38.8461 32.2921Z" fill="#404A9E"/>
<path d="M41.1763 33.7083L48.6522 33.6906L48.3663 33.0908H39.9605L41.1763 33.7083Z" fill="#404A9E"/>
<path d="M43.0115 35.0903L48.565 35.0992L48.6975 34.4639H42.0026L43.0115 35.0903Z" fill="#404A9E"/>
<path d="M45.4007 36.5636H48.0251L48.3576 35.8994H44.3639L45.4007 36.5636Z" fill="#404A9E"/>
<path d="M44.1527 36.5538L32.0275 28.457H31.8369L41.2237 36.5538H44.1527Z" fill="#404A9E"/>
<path d="M35.2617 29.9102H38.1907L37.828 30.892H36.668L35.2617 29.9102Z" fill="#404A9E"/>
<path d="M13.2201 47.6903C12.6645 48.2234 12.9225 48.841 13.3107 49.2452C13.6036 49.5496 14.1848 49.9849 14.7543 49.4874C15.0728 49.2075 14.9705 48.9032 14.8217 48.6477L14.0848 47.4104C13.7547 46.8462 13.7106 46.2398 14.3057 45.72C15.1937 44.9425 16.1956 45.5156 16.7837 46.1287C17.4206 46.7929 17.4602 47.2349 17.4625 47.5259C17.4671 48.0813 17.2114 48.4167 16.8627 48.7232L16.428 48.2701C17.1068 47.6748 16.7976 46.9728 16.356 46.5152C16.0212 46.1665 15.361 45.66 14.8241 46.1309C14.4335 46.4752 14.4754 46.7596 14.8938 47.4748L15.4192 48.3634C15.5865 48.6477 15.9213 49.3274 15.2704 49.8983C14.6869 50.4114 13.7617 50.5492 12.9295 49.6828C11.7277 48.43 12.3902 47.6192 12.7854 47.2394L13.2201 47.6925V47.6903Z" fill="white"/>
<path d="M10.405 35.7501L10.5235 36.432L5.72322 38.4734L5.60234 37.7715L9.5286 36.2321V36.2188L5.2583 35.7901L5.13509 35.0815L9.02881 33.3622V33.3488L4.79105 33.1L4.66785 32.3848L9.90286 32.8535L10.0214 33.5354L6.05331 35.288V35.3014L10.405 35.7523V35.7501Z" fill="white"/>
<path d="M9.93814 30.4347L9.92187 31.09L4.83795 30.9678L4.85422 30.3125L9.93814 30.4347Z" fill="white"/>
<path d="M6.91601 25.9963C6.13495 25.8986 5.77928 26.4717 5.67932 27.0114C5.60494 27.4179 5.59564 28.1243 6.35578 28.2509C6.78119 28.322 6.97413 28.0599 7.09501 27.7911L7.67384 26.4805C7.94116 25.8875 8.41771 25.4854 9.21273 25.6187C10.3983 25.8186 10.5331 26.927 10.382 27.7467C10.2193 28.633 9.87524 28.9329 9.63348 29.1128C9.17553 29.4549 8.74315 29.4638 8.27358 29.386L8.38516 28.7796C9.29176 28.9329 9.68694 28.2709 9.80085 27.6578C9.88686 27.1914 9.90546 26.385 9.18715 26.2629C8.66412 26.174 8.4549 26.3806 8.11319 27.1336L7.69476 28.0732C7.55993 28.3731 7.19962 29.0417 6.32789 28.8951C5.54682 28.7641 4.87036 28.1488 5.0819 26.9892C5.39107 25.3166 6.46736 25.3255 7.02295 25.3921L6.91136 25.9985L6.91601 25.9963Z" fill="white"/>
<path d="M8.54797 21.4657C7.80409 21.2191 7.33452 21.71 7.12298 22.2209C6.96259 22.6052 6.80684 23.2938 7.52282 23.567C7.92497 23.7203 8.16906 23.4982 8.3434 23.2605L9.18956 22.0898C9.57777 21.559 10.1287 21.2591 10.8795 21.5456C11.9977 21.9699 11.8931 23.0806 11.5723 23.8536C11.2236 24.6888 10.8261 24.9176 10.5518 25.0464C10.0311 25.293 9.60334 25.2175 9.16399 25.0509L9.4011 24.4778C10.2566 24.8021 10.7842 24.2312 11.0237 23.6514C11.2073 23.2116 11.3956 22.4253 10.7192 22.1676C10.2263 21.981 9.97528 22.1409 9.48246 22.8118L8.87341 23.6514C8.67815 23.9202 8.18301 24.5044 7.36242 24.1912C6.62552 23.9113 6.09318 23.1783 6.54648 22.0832C7.20202 20.506 8.25507 20.7215 8.78508 20.8948L8.54797 21.4679V21.4657Z" fill="white"/>
<path d="M12.3261 13.9211L12.8283 13.3613L15.483 17.8662L15.0087 18.3949L9.9411 16.5823L10.4386 16.0269L14.674 17.6663L14.6833 17.6552L12.3261 13.9189V13.9211Z" fill="white"/>
<path d="M17.7239 15.7785L17.2055 16.2094L13.8697 12.5442L14.3881 12.1133L17.7239 15.7785Z" fill="white"/>
<path d="M15.3363 11.2894L18.7976 9.14355L19.1277 9.63225L17.6841 10.5274L20.118 14.1127L19.5415 14.4703L17.1076 10.8851L15.664 11.7803L15.3316 11.2916L15.3363 11.2894Z" fill="white"/>
<path d="M21.8668 11.5822L21.9319 13.0838L21.2763 13.3393L21.1322 8.14805L21.8528 7.86816L25.4746 11.7088L24.7795 11.9798L23.7567 10.8514L21.8668 11.5844V11.5822ZM23.2987 10.3983L21.7598 8.68783L21.7459 8.69228L21.8342 10.9669L23.2964 10.3983H23.2987Z" fill="white"/>
<path d="M30.1911 11.0028L29.7819 8.15949C29.761 8.01954 29.689 7.40646 29.6239 6.95775H29.6099L28.7754 11.1894L28.1013 11.2782L26.1021 7.42867H26.0881C26.1509 7.87294 26.2532 8.48158 26.2741 8.62152L26.6832 11.4648L26.0231 11.5515L25.3303 6.73784L26.3067 6.609L28.3314 10.4897H28.3453L29.1915 6.22915L30.1585 6.10254L30.8513 10.9162L30.1911 11.0028Z" fill="white"/>
<path d="M32.7309 11.079L32.0451 11.0479L32.2845 6.19434L32.9703 6.22543L32.7309 11.079Z" fill="white"/>
<path d="M38.0671 6.97223L38.718 7.10329L37.6789 11.8592L36.9234 11.7081L35.2335 7.36097H35.2195L34.3803 11.1994L33.7294 11.0684L34.7685 6.3125L35.5659 6.47244L37.214 10.8107H37.228L38.0671 6.97223Z" fill="white"/>
<path d="M41.7282 13.6232L41.1238 13.31L43.5437 9.03613L44.1481 9.34934L41.7282 13.6232Z" fill="white"/>
<path d="M48.8858 12.5426L49.4042 12.9425L46.2148 16.7254L45.6151 16.2633L46.1776 11.6585L46.166 11.6496L43.5903 14.704L43.072 14.3041L46.2613 10.5234L46.8959 11.0121L46.2985 15.5903L46.3101 15.5992L48.8858 12.5448V12.5426Z" fill="white"/>
<path d="M51.4905 17.4136C52.0809 16.9182 51.8671 16.2829 51.5091 15.8564C51.2394 15.5343 50.6885 15.0612 50.0864 15.5232C49.7493 15.7809 49.8284 16.0919 49.9609 16.3562L50.6094 17.6379C50.9 18.2221 50.9 18.8285 50.2701 19.3106C49.3309 20.0303 48.3709 19.395 47.8269 18.7441C47.2388 18.0422 47.2295 17.5979 47.2481 17.3069C47.2829 16.7516 47.5596 16.434 47.9315 16.1518L48.3337 16.6317C47.6154 17.1825 47.8734 17.9023 48.2825 18.3887C48.5917 18.7575 49.2147 19.3061 49.7842 18.8708C50.198 18.5531 50.1771 18.2666 49.8098 17.5246L49.3472 16.605C49.2007 16.3096 48.9125 15.6098 49.6029 15.0812C50.2212 14.608 51.1534 14.5281 51.9229 15.4455C53.034 16.7716 52.3157 17.538 51.8973 17.8934L51.4951 17.4136H51.4905Z" fill="white"/>
<path d="M53.7976 18.0615L55.6875 21.5712L55.1459 21.8378L54.3578 20.3761L50.3758 22.3331L50.062 21.7489L54.044 19.7919L53.256 18.3281L53.7976 18.0615Z" fill="white"/>
<path d="M51.5 24.9503L51.2745 24.3305L56.0771 22.7334L56.3026 23.3531L51.5 24.9503Z" fill="white"/>
<path d="M56.7486 24.5039L57.5436 28.3735L56.9462 28.4845L56.6161 26.8718L52.2272 27.6937L52.0947 27.0495L56.4836 26.2277L56.1535 24.615L56.7509 24.5039H56.7486Z" fill="white"/>
<path d="M57.6356 33.3324L54.337 33.319C53.2956 33.3146 52.4215 32.6882 52.4262 31.3554C52.4308 30.0492 53.3118 29.4917 54.2603 29.4961L57.6519 29.5094V30.1647L54.4486 30.1514C53.3444 30.147 53.0375 30.7889 53.0352 31.3776C53.0329 31.9796 53.3211 32.6571 54.4253 32.6615L57.6403 32.6726V33.3301L57.6356 33.3324Z" fill="white"/>
<path d="M57.4817 34.7071L56.6099 38.5611L56.0148 38.439L56.3775 36.8329L52.0072 35.9289L52.1513 35.2869L56.5216 36.191L56.8842 34.585L57.4793 34.7071H57.4817Z" fill="white"/>
<path d="M49.9559 41.2204L51.4715 37.9395L56.1231 39.9009L54.6283 43.1374L54.0704 42.9019L55.2885 40.2652L53.8635 39.6654L52.7408 42.0978L52.1828 41.8623L53.3056 39.43L51.7505 38.7747L50.5115 41.4536L49.9536 41.2181L49.9559 41.2204Z" fill="white"/>
<path d="M50.8039 44.8616C51.1502 44.8616 51.4315 44.5928 51.4315 44.2619C51.4315 43.9309 51.1502 43.6621 50.8039 43.6621C50.4575 43.6621 50.1762 43.9309 50.1762 44.2619C50.1762 44.5928 50.4575 44.8616 50.8039 44.8616Z" fill="white"/>
<path d="M12.0336 45.0237C12.38 45.0237 12.6612 44.755 12.6612 44.424C12.6612 44.093 12.38 43.8242 12.0336 43.8242C11.6872 43.8242 11.4059 44.093 11.4059 44.424C11.4059 44.755 11.6872 45.0237 12.0336 45.0237Z" fill="white"/>
<path d="M20.2193 49.1426L20.8818 49.4114L21.7326 54.0495L21.7466 54.0539L23.3645 50.4221L23.955 50.662L21.9581 55.1424L21.2747 54.8647L20.4262 50.2732L20.4123 50.2688L18.8106 53.8629L18.2202 53.623L20.217 49.1426H20.2193Z" fill="white"/>
<path d="M27.9165 53.2546C27.9351 52.5527 27.4516 52.0929 26.7635 51.9441C25.5803 51.6886 24.8597 52.5127 24.6249 53.5034C24.3692 54.5874 24.6574 55.6004 25.8476 55.858C26.7193 56.0446 27.3563 55.567 27.605 54.7962L28.2675 54.9384C27.863 56.0957 26.9216 56.6488 25.6663 56.3778C24.1204 56.0446 23.6253 54.7918 23.9531 53.4079C24.2785 52.0307 25.3641 51.0844 26.896 51.4132C27.9328 51.6353 28.665 52.3528 28.579 53.3968L27.9165 53.2546Z" fill="white"/>
<path d="M38.8163 55.8994L38.2236 56.0171L37.482 52.6274L36.1965 52.8851L36.0966 52.4319C36.773 52.2964 37.3518 52.001 37.3263 51.259L37.7796 51.168L38.814 55.9016L38.8163 55.8994Z" fill="white"/>
<path d="M41.5245 53.9707C41.7663 54.3816 42.2451 54.4682 42.6868 54.2772C43.3633 53.984 43.426 53.2754 42.9216 52.1247L42.903 52.1181C42.8705 52.5801 42.5729 52.9933 42.1243 53.1888C41.1874 53.593 40.3831 53.2154 39.9717 52.3446C39.5695 51.4939 39.9159 50.6387 40.8062 50.2544C41.664 49.8834 42.5962 50.0123 43.3842 51.6782C44.1048 53.2021 44.0258 54.2594 42.9076 54.7437C42.1336 55.0769 41.4013 54.9369 40.9713 54.2106L41.5222 53.9729L41.5245 53.9707ZM41.0038 50.732C40.3459 51.0163 40.339 51.6272 40.5947 52.1669C40.8248 52.6512 41.4129 52.9355 41.9453 52.7045C42.5241 52.4557 42.6775 51.8493 42.4311 51.3273C42.1754 50.7875 41.6221 50.4654 41.0061 50.732H41.0038Z" fill="white"/>
<path d="M45.312 50.0115C45.3934 49.9671 45.4631 49.9204 45.5329 49.8738C45.9559 49.5961 46.1698 49.1318 45.8583 48.7009C45.5584 48.2855 45.0796 48.2677 44.6565 48.5476C44.1102 48.9075 44.1613 49.4606 44.4914 49.9315L43.9916 50.2603C43.4756 49.4828 43.5198 48.6765 44.3543 48.1278C45.0772 47.6524 45.863 47.6258 46.393 48.361C46.644 48.7098 46.6022 49.1829 46.386 49.5317L46.393 49.5428C46.9764 49.3184 47.4972 49.5383 47.8412 50.0159C48.4154 50.8134 48.062 51.6597 47.2786 52.1728C46.4325 52.7282 45.5282 52.6171 44.9564 51.7863L45.4562 51.4576C45.8444 51.964 46.4046 52.1262 46.9741 51.7508C47.4623 51.4309 47.6738 50.8689 47.3275 50.3869C46.9671 49.8871 46.3837 49.8804 45.8885 50.2047C45.7886 50.2692 45.6863 50.3447 45.6003 50.418L45.3097 50.0137L45.312 50.0115Z" fill="white"/>
<path d="M50.7588 48.5562L50.331 48.9672L47.76 46.5237L46.8348 47.4122L46.4908 47.0857C46.979 46.617 47.2904 46.0661 46.8441 45.4597L47.1719 45.1465L50.7588 48.5562Z" fill="white"/>
<path d="M18.6034 48.209L19.1961 48.54L16.6274 52.7338L16.0347 52.4028L18.6034 48.209Z" fill="white"/>
<path d="M33.1251 57.0064L29.3732 56.8998L29.5243 52.0439L33.225 52.1483L33.2064 52.7303L30.1914 52.6437L30.1449 54.132L32.9275 54.2097L32.9089 54.7917L30.1287 54.714L30.0775 56.3378L33.1414 56.4244L33.1228 57.0064H33.1251Z" fill="white"/>
<path d="M7.58122 40.019C6.89779 40.39 6.96985 41.0519 7.23021 41.5406C7.42548 41.9094 7.8625 42.478 8.55291 42.1448C8.93879 41.9583 8.92717 41.6362 8.85511 41.3518L8.49479 39.9702C8.3344 39.3415 8.46458 38.7484 9.1852 38.3975C10.2592 37.8777 11.0612 38.6862 11.4563 39.4282C11.8817 40.2301 11.7981 40.6677 11.7167 40.9498C11.5656 41.4851 11.2239 41.7428 10.8008 41.9471L10.5079 41.3985C11.3285 41.0009 11.2285 40.2434 10.9333 39.6881C10.7078 39.266 10.2173 38.6085 9.56644 38.9239C9.09222 39.1549 9.0527 39.4393 9.25494 40.2367L9.51297 41.2274C9.59433 41.5451 9.72684 42.2848 8.93647 42.6691C8.22979 43.0112 7.29995 42.909 6.74204 41.8583C5.93773 40.3433 6.80481 39.7325 7.29065 39.4681L7.58355 40.0168L7.58122 40.019Z" fill="white"/>
<path d="M31.1172 60.0002C47.6219 60.0002 61 47.2165 61 31.4451C61 15.6736 47.6219 2.8877 31.1172 2.8877C14.6125 2.8877 1.23438 15.6736 1.23438 31.4428C1.23438 47.212 14.6148 59.998 31.1172 59.998V60.0002Z" stroke="white" stroke-width="2"/>
</svg>
