<svg width="188" height="143" viewBox="0 0 188 143" fill="none" xmlns="http://www.w3.org/2000/svg">
<path fill-rule="evenodd" clip-rule="evenodd" d="M184.523 142.156C183.13 142.156 182 141.026 182 139.633C182 138.239 183.13 137.109 184.523 137.109C185.917 137.109 187.047 138.239 187.047 139.633C187.047 141.026 185.917 142.156 184.523 142.156ZM182 94.2109C182 95.6045 183.13 96.7344 184.523 96.7344C185.917 96.7344 187.047 95.6045 187.047 94.2109C187.047 92.8174 185.917 91.6875 184.523 91.6875C183.13 91.6875 182 92.8174 182 94.2109ZM184.523 51.3125C183.13 51.3125 182 50.1826 182 48.7891C182 47.3955 183.13 46.2656 184.523 46.2656C185.917 46.2656 187.047 47.3955 187.047 48.7891C187.047 50.1826 185.917 51.3125 184.523 51.3125ZM0 3.36719C0 4.76074 1.12988 5.89062 2.52344 5.89062C3.91699 5.89062 5.04688 4.76074 5.04688 3.36719C5.04688 1.97363 3.91699 0.84375 2.52344 0.84375C1.12988 0.84375 0 1.97363 0 3.36719ZM48.2578 5.89062C46.8643 5.89062 45.7344 4.76074 45.7344 3.36719C45.7344 1.97363 46.8643 0.84375 48.2578 0.84375C49.6514 0.84375 50.7812 1.97363 50.7812 3.36719C50.7812 4.76074 49.6514 5.89062 48.2578 5.89062ZM91.1562 3.36719C91.1562 4.76074 92.2861 5.89062 93.6797 5.89062C95.0732 5.89062 96.2031 4.76074 96.2031 3.36719C96.2031 1.97363 95.0732 0.84375 93.6797 0.84375C92.2861 0.84375 91.1562 1.97363 91.1562 3.36719ZM139.102 5.89062C137.708 5.89062 136.578 4.76074 136.578 3.36719C136.578 1.97363 137.708 0.84375 139.102 0.84375C140.495 0.84375 141.625 1.97363 141.625 3.36719C141.625 4.76074 140.495 5.89062 139.102 5.89062ZM184.523 5.89062C183.13 5.89062 182 4.76074 182 3.36719C182 1.97363 183.13 0.84375 184.523 0.84375C185.917 0.84375 187.047 1.97363 187.047 3.36719C187.047 4.76074 185.917 5.89062 184.523 5.89062ZM136.578 48.7891C136.578 50.1826 137.708 51.3125 139.102 51.3125C140.495 51.3125 141.625 50.1826 141.625 48.7891C141.625 47.3955 140.495 46.2656 139.102 46.2656C137.708 46.2656 136.578 47.3955 136.578 48.7891ZM93.6797 51.3125C92.2861 51.3125 91.1562 50.1826 91.1562 48.7891C91.1562 47.3955 92.2861 46.2656 93.6797 46.2656C95.0732 46.2656 96.2031 47.3955 96.2031 48.7891C96.2031 50.1826 95.0732 51.3125 93.6797 51.3125ZM45.7344 48.7891C45.7344 50.1826 46.8643 51.3125 48.2578 51.3125C49.6514 51.3125 50.7812 50.1826 50.7812 48.7891C50.7812 47.3955 49.6514 46.2656 48.2578 46.2656C46.8643 46.2656 45.7344 47.3955 45.7344 48.7891ZM2.52344 51.3125C1.12988 51.3125 0 50.1826 0 48.7891C0 47.3955 1.12988 46.2656 2.52344 46.2656C3.91699 46.2656 5.04688 47.3955 5.04688 48.7891C5.04688 50.1826 3.91699 51.3125 2.52344 51.3125ZM139.102 96.7344C137.708 96.7344 136.578 95.6045 136.578 94.2109C136.578 92.8174 137.708 91.6875 139.102 91.6875C140.495 91.6875 141.625 92.8174 141.625 94.2109C141.625 95.6045 140.495 96.7344 139.102 96.7344ZM91.1562 94.2109C91.1562 95.6045 92.2861 96.7344 93.6797 96.7344C95.0732 96.7344 96.2031 95.6045 96.2031 94.2109C96.2031 92.8174 95.0732 91.6875 93.6797 91.6875C92.2861 91.6875 91.1562 92.8174 91.1562 94.2109ZM48.2578 96.7344C46.8643 96.7344 45.7344 95.6045 45.7344 94.2109C45.7344 92.8174 46.8643 91.6875 48.2578 91.6875C49.6514 91.6875 50.7812 92.8174 50.7812 94.2109C50.7812 95.6045 49.6514 96.7344 48.2578 96.7344ZM0 94.2109C0 95.6045 1.12988 96.7344 2.52344 96.7344C3.91699 96.7344 5.04688 95.6045 5.04688 94.2109C5.04688 92.8174 3.91699 91.6875 2.52344 91.6875C1.12988 91.6875 0 92.8174 0 94.2109ZM136.578 139.633C136.578 141.026 137.708 142.156 139.102 142.156C140.495 142.156 141.625 141.026 141.625 139.633C141.625 138.239 140.495 137.109 139.102 137.109C137.708 137.109 136.578 138.239 136.578 139.633ZM93.6797 142.156C92.2861 142.156 91.1562 141.026 91.1562 139.633C91.1562 138.239 92.2861 137.109 93.6797 137.109C95.0732 137.109 96.2031 138.239 96.2031 139.633C96.2031 141.026 95.0732 142.156 93.6797 142.156ZM45.7344 139.633C45.7344 141.026 46.8643 142.156 48.2578 142.156C49.6514 142.156 50.7812 141.026 50.7812 139.633C50.7812 138.239 49.6514 137.109 48.2578 137.109C46.8643 137.109 45.7344 138.239 45.7344 139.633ZM2.52344 142.156C1.12988 142.156 0 141.026 0 139.633C0 138.239 1.12988 137.109 2.52344 137.109C3.91699 137.109 5.04688 138.239 5.04688 139.633C5.04688 141.026 3.91699 142.156 2.52344 142.156Z" fill="url(#paint0_linear_86_281)"/>
<defs>
<linearGradient id="paint0_linear_86_281" x1="93.5234" y1="142.156" x2="93.5234" y2="0.84375" gradientUnits="userSpaceOnUse">
<stop stop-color="#FFED04"/>
<stop offset="1" stop-color="#FF5E5E"/>
</linearGradient>
</defs>
</svg>
