<svg width="64" height="64" viewBox="0 0 64 64" fill="none" xmlns="http://www.w3.org/2000/svg">
<rect width="64" height="64" rx="32" fill="#EAEDEE"/>
<path fill-rule="evenodd" clip-rule="evenodd" d="M26.0031 21.8C23.3522 21.8 21.2031 23.9491 21.2031 26.6V37.4C21.2031 40.051 23.3522 42.2001 26.0031 42.2001H38.0031C40.6541 42.2001 42.8031 40.051 42.8031 37.4V26.6C42.8031 23.9491 40.6541 21.8 38.0031 21.8H26.0031ZM38.7527 28.3677C38.7527 29.8589 37.5439 31.0677 36.0527 31.0677C34.5616 31.0677 33.3527 29.8589 33.3527 28.3677C33.3527 26.8766 34.5616 25.6677 36.0527 25.6677C37.5439 25.6677 38.7527 26.8766 38.7527 28.3677ZM27.9937 31.1702C28.4661 30.4355 29.5402 30.4355 30.0125 31.1702L33.2145 36.1511C33.7279 36.9498 33.1545 38 32.2051 38H25.8011C24.8517 38 24.2783 36.9498 24.7917 36.1511L27.9937 31.1702Z" fill="#AEB7BE"/>
</svg>
