<svg width="30" height="30" viewBox="0 0 30 30" fill="none" xmlns="http://www.w3.org/2000/svg">
<path d="M30 25.3846C30 26.6087 29.5137 27.7826 28.6482 28.6482C27.7826 29.5137 26.6087 30 25.3846 30H4.61538C3.39131 30 2.21737 29.5137 1.35181 28.6482C0.486262 27.7826 0 26.6087 0 25.3846V4.61538C0 3.39131 0.486262 2.21737 1.35181 1.35181C2.21737 0.486262 3.39131 0 4.61538 0H25.3846C26.6087 0 27.7826 0.486262 28.6482 1.35181C29.5137 2.21737 30 3.39131 30 4.61538V25.3846Z" fill="#D32D27"/>
<path d="M23.0757 12.765H17.3065V6.99573H12.6911V12.765H6.92188V17.3077H12.6911V23.1496H17.3065V17.3077H23.0757V12.765Z" fill="white"/>
</svg>
