<svg width="31" height="29" viewBox="0 0 31 29" fill="none" xmlns="http://www.w3.org/2000/svg">
<path d="M22.625 14.5C26.2149 14.5 29.125 11.5899 29.125 8C29.125 4.41015 26.2149 1.5 22.625 1.5C19.0351 1.5 16.125 4.41015 16.125 8C16.125 11.5899 19.0351 14.5 22.625 14.5Z" stroke="#FF9494" stroke-width="2"/>
<path d="M14.5 27.5C17.1924 27.5 19.375 25.3174 19.375 22.625C19.375 19.9326 17.1924 17.75 14.5 17.75C11.8076 17.75 9.625 19.9326 9.625 22.625C9.625 25.3174 11.8076 27.5 14.5 27.5Z" stroke="#FF9494" stroke-width="2"/>
<path d="M5.5625 14.5C7.80616 14.5 9.625 12.6812 9.625 10.4375C9.625 8.19384 7.80616 6.375 5.5625 6.375C3.31884 6.375 1.5 8.19384 1.5 10.4375C1.5 12.6812 3.31884 14.5 5.5625 14.5Z" stroke="#FF9494" stroke-width="2"/>
</svg>
